<svg xmlns="http://www.w3.org/2000/svg" viewBox="0 0 1200 430" role="img" aria-labelledby="title desc">
  <title id="title">Rahma Therapy horizontal logo</title>
  <desc id="desc">Vector logo asset for Rahma Therapy. No raster image is embedded.</desc>
  <g fill="none" fill-rule="evenodd">
  <path fill="#F5A400" d="M 204.145 308.983 L 165.896 308.983 C 157.43 295.704 149.78 284.226 142.947 274.55 C 136.113 264.874 128.696 254.897 120.696 244.621 L 106.149 244.621 L 106.149 289.665 C 106.149 292 106.516 294.052 107.25 295.821 C 107.984 297.589 109.552 298.94 111.955 299.875 C 113.156 300.342 115.258 300.775 118.261 301.176 C 121.264 301.576 123.8 301.81 125.868 301.877 L 125.868 308.983 L 65.81 308.983 L 65.81 301.877 C 67.411 301.743 69.73 301.509 72.766 301.176 C 75.803 300.842 77.921 300.408 79.123 299.875 C 81.125 299.007 82.576 297.739 83.477 296.071 C 84.378 294.403 84.828 292.267 84.828 289.665 L 84.828 186.964 C 84.828 184.629 84.494 182.56 83.827 180.758 C 83.16 178.957 81.592 177.589 79.123 176.654 C 77.454 176.054 75.285 175.503 72.616 175.003 C 69.947 174.502 67.678 174.185 65.81 174.052 L 65.81 166.945 L 131.374 166.945 C 137.379 166.945 143.018 167.562 148.29 168.797 C 153.562 170.031 158.333 172.016 162.604 174.752 C 166.741 177.422 170.045 180.908 172.514 185.213 C 174.983 189.517 176.217 194.705 176.217 200.778 C 176.217 206.25 175.383 211.088 173.715 215.292 C 172.047 219.496 169.578 223.133 166.308 226.203 C 163.305 229.072 159.701 231.558 155.497 233.66 C 151.293 235.762 146.655 237.547 141.584 239.015 C 148.59 248.291 154.413 256.098 159.051 262.438 C 163.688 268.778 169.377 276.485 176.117 285.561 C 179.053 289.565 181.706 292.517 184.075 294.419 C 186.444 296.321 188.796 297.873 191.132 299.074 C 192.867 299.941 195.036 300.609 197.638 301.076 C 200.241 301.543 202.41 301.81 204.145 301.877 Z M 151.493 203.135 C 151.493 194.54 149.024 187.728 144.086 182.698 C 139.148 177.668 132.174 175.153 123.166 175.153 L 106.149 175.153 L 106.149 236.012 L 119.262 236.012 C 128.471 236.012 136.145 233.064 142.284 227.168 C 148.424 221.273 151.493 213.261 151.493 203.135 Z M 342.079 308.983 L 283.037 308.983 L 283.037 301.877 C 288.242 301.543 292.563 300.876 295.999 299.875 C 299.435 298.874 301.153 297.639 301.153 296.171 C 301.153 295.57 301.087 294.836 300.953 293.969 C 300.82 293.101 300.62 292.334 300.354 291.667 L 288.589 259.835 L 238.731 259.835 C 236.861 264.507 235.341 268.577 234.171 272.047 C 233.001 275.517 231.948 278.721 231.013 281.657 C 230.144 284.526 229.543 286.862 229.209 288.664 C 228.875 290.465 228.708 291.933 228.708 293.068 C 228.708 295.737 230.81 297.806 235.015 299.274 C 239.219 300.742 243.957 301.61 249.229 301.877 L 249.229 308.983 L 195.736 308.983 L 195.736 301.877 C 197.471 301.743 199.64 301.359 202.243 300.725 C 204.845 300.091 206.981 299.241 208.649 298.173 C 211.318 296.371 213.387 294.486 214.855 292.517 C 216.323 290.549 217.758 287.829 219.159 284.359 C 226.3 266.542 234.174 246.523 242.782 224.301 C 251.391 202.079 259.065 182.293 265.805 164.943 L 273.813 164.943 L 321.159 287.462 C 322.16 290.065 323.294 292.167 324.562 293.769 C 325.83 295.37 327.598 296.938 329.867 298.473 C 331.402 299.407 333.404 300.192 335.873 300.825 C 338.342 301.459 340.411 301.81 342.079 301.877 Z M 284.931 250.927 L 263.418 195.811 L 242.213 250.927 Z M 494.228 308.983 L 435.27 308.983 L 435.27 301.877 C 436.872 301.743 439.191 301.543 442.227 301.276 C 445.263 301.009 447.348 300.609 448.483 300.075 C 450.485 299.274 451.953 298.056 452.887 296.421 C 453.821 294.786 454.289 292.668 454.289 290.065 L 454.289 239.516 L 387.523 239.516 L 387.523 288.964 C 387.523 291.3 387.907 293.268 388.675 294.87 C 389.442 296.471 390.96 297.873 393.229 299.074 C 394.363 299.674 396.382 300.275 399.285 300.876 C 402.188 301.476 404.473 301.81 406.142 301.877 L 406.142 308.983 L 347.184 308.983 L 347.184 301.877 C 348.786 301.743 351.105 301.543 354.141 301.276 C 357.177 301.009 359.263 300.609 360.397 300.075 C 362.399 299.274 363.867 298.056 364.801 296.421 C 365.736 294.786 366.203 292.668 366.203 290.065 L 366.203 187.565 C 366.203 185.43 365.769 183.478 364.901 181.709 C 364.034 179.941 362.532 178.556 360.397 177.555 C 358.595 176.688 356.41 175.92 353.841 175.253 C 351.271 174.586 349.053 174.185 347.184 174.052 L 347.184 166.945 L 406.142 166.945 L 406.142 174.052 C 404.273 174.119 401.988 174.419 399.285 174.953 C 396.582 175.487 394.564 175.987 393.229 176.454 C 390.96 177.255 389.442 178.59 388.675 180.458 C 387.907 182.327 387.523 184.362 387.523 186.564 L 387.523 230.607 L 454.289 230.607 L 454.289 187.565 C 454.289 185.43 453.855 183.478 452.987 181.709 C 452.12 179.941 450.618 178.556 448.483 177.555 C 446.681 176.688 444.496 175.92 441.927 175.253 C 439.357 174.586 437.139 174.185 435.27 174.052 L 435.27 166.945 L 494.228 166.945 L 494.228 174.052 C 492.359 174.119 490.074 174.419 487.371 174.953 C 484.668 175.487 482.65 175.987 481.315 176.454 C 479.046 177.255 477.528 178.59 476.761 180.458 C 475.993 182.327 475.609 184.362 475.609 186.564 L 475.609 288.964 C 475.609 291.3 475.993 293.268 476.761 294.87 C 477.528 296.471 479.046 297.873 481.315 299.074 C 482.449 299.674 484.468 300.275 487.371 300.876 C 490.274 301.476 492.559 301.81 494.228 301.877 Z M 685.214 308.983 L 622.453 308.983 L 622.453 301.877 C 624.722 301.81 627.641 301.576 631.211 301.176 C 634.781 300.775 637.234 300.208 638.568 299.474 C 640.637 298.206 642.155 296.755 643.123 295.12 C 644.09 293.485 644.574 291.433 644.574 288.964 L 644.574 185.663 L 643.073 185.663 L 594.626 306.681 L 589.621 306.681 L 543.476 183.161 L 542.174 183.161 L 542.174 267.943 C 542.174 276.151 542.692 282.391 543.726 286.662 C 544.76 290.932 546.345 294.002 548.481 295.871 C 549.949 297.272 552.985 298.607 557.589 299.875 C 562.194 301.142 565.197 301.81 566.598 301.877 L 566.598 308.983 L 509.242 308.983 L 509.242 301.877 C 512.245 301.61 515.398 301.109 518.701 300.375 C 522.005 299.641 524.557 298.54 526.359 297.072 C 528.695 295.203 530.296 292.334 531.164 288.463 C 532.031 284.593 532.465 278.12 532.465 269.044 L 532.465 196.374 C 532.465 192.169 531.964 188.733 530.963 186.064 C 529.962 183.394 528.528 181.225 526.659 179.557 C 524.591 177.755 522.055 176.421 519.052 175.553 C 516.049 174.686 513.079 174.185 510.143 174.052 L 510.143 166.945 L 558.573 166.945 L 599.26 273.557 L 633.994 184.373 C 635.26 181.101 636.344 177.679 637.244 174.107 C 638.145 170.534 638.628 168.147 638.695 166.945 L 685.014 166.945 L 685.014 174.052 C 683.145 174.119 680.76 174.419 677.857 174.953 C 674.954 175.487 672.835 175.987 671.501 176.454 C 669.232 177.255 667.697 178.59 666.896 180.458 C 666.095 182.327 665.695 184.362 665.695 186.564 L 665.695 288.964 C 665.695 291.3 666.095 293.268 666.896 294.87 C 667.697 296.471 669.232 297.873 671.501 299.074 C 672.702 299.741 674.837 300.358 677.907 300.926 C 680.976 301.493 683.412 301.81 685.214 301.877 Z M 836.762 308.983 L 777.72 308.983 L 777.72 301.877 C 782.925 301.543 787.245 300.876 790.682 299.875 C 794.118 298.874 795.836 297.639 795.836 296.171 C 795.836 295.57 795.769 294.836 795.636 293.969 C 795.502 293.101 795.303 292.334 795.037 291.667 L 783.272 259.835 L 733.414 259.835 C 731.543 264.507 730.023 268.577 728.853 272.047 C 727.683 275.517 726.631 278.721 725.696 281.657 C 724.827 284.526 724.226 286.862 723.891 288.664 C 723.557 290.465 723.39 291.933 723.39 293.068 C 723.39 295.737 725.492 297.806 729.697 299.274 C 733.902 300.742 738.64 301.61 743.912 301.877 L 743.912 308.983 L 690.419 308.983 L 690.419 301.877 C 692.154 301.743 694.323 301.359 696.925 300.725 C 699.528 300.091 701.663 299.241 703.332 298.173 C 706.001 296.371 708.07 294.486 709.538 292.517 C 711.006 290.549 712.44 287.829 713.842 284.359 C 720.982 266.542 728.856 246.523 737.465 224.301 C 746.073 202.079 753.747 182.293 760.487 164.943 L 768.495 164.943 L 815.841 287.462 C 816.842 290.065 817.977 292.167 819.245 293.769 C 820.513 295.37 822.281 296.938 824.55 298.473 C 826.085 299.407 828.087 300.192 830.556 300.825 C 833.025 301.459 835.093 301.81 836.762 301.877 Z M 779.614 250.927 L 758.101 195.811 L 736.896 250.927 Z"/>
  <path fill="#0878B8" d="M 559.871 334.895 C 560.785 334.895 561.411 335.115 561.75 335.555 C 562.089 335.995 562.258 336.553 562.258 337.231 C 562.258 337.941 561.987 338.771 561.445 339.719 C 560.904 340.667 560.176 341.632 559.262 342.613 C 558.348 343.595 557.273 344.535 556.037 345.432 C 554.801 346.329 553.49 347.099 552.102 347.742 C 550.273 348.555 548.42 349.308 546.541 350.002 C 544.662 350.696 542.673 351.314 540.574 351.856 C 538.475 352.397 536.216 352.88 533.795 353.303 C 531.374 353.726 528.742 354.073 525.898 354.344 C 525.289 354.411 524.857 354.606 524.604 354.928 C 524.35 355.249 524.172 355.766 524.07 356.477 C 523.969 357.323 523.833 358.322 523.664 359.473 C 523.495 360.624 523.334 361.758 523.182 362.875 C 523.029 363.992 522.894 365.016 522.775 365.947 C 522.657 366.878 522.564 367.547 522.496 367.953 C 522.259 369.815 522.031 371.466 521.811 372.904 C 521.591 374.343 521.387 375.68 521.201 376.916 C 521.015 378.152 520.871 379.345 520.77 380.496 C 520.668 381.647 520.617 382.866 520.617 384.152 C 520.617 385.27 520.617 386.201 520.617 386.945 C 520.617 387.69 520.609 388.316 520.592 388.824 C 520.575 389.332 520.558 389.747 520.541 390.068 C 520.524 390.39 520.499 390.652 520.465 390.856 C 520.431 391.126 520.143 391.473 519.602 391.897 C 519.06 392.32 518.442 392.734 517.748 393.141 C 517.054 393.547 516.369 393.894 515.691 394.182 C 515.014 394.469 514.523 394.613 514.219 394.613 C 513 394.613 512.01 394.309 511.248 393.699 C 510.486 393.09 509.885 392.396 509.445 391.617 C 509.005 390.839 508.709 390.085 508.557 389.357 C 508.404 388.63 508.328 388.13 508.328 387.859 C 508.328 384.779 508.565 381.69 509.039 378.592 C 509.513 375.494 510.072 372.439 510.715 369.426 C 510.918 368.376 511.121 367.361 511.324 366.379 C 511.527 365.397 511.714 364.39 511.883 363.357 C 512.052 362.325 512.23 361.25 512.416 360.133 C 512.602 359.016 512.78 357.797 512.949 356.477 L 512.949 356.375 C 512.949 356.07 512.78 355.859 512.441 355.74 C 512.103 355.622 511.764 355.563 511.426 355.563 C 511.223 355.563 510.783 355.579 510.106 355.613 C 509.428 355.647 508.641 355.698 507.744 355.766 C 506.847 355.833 505.891 355.901 504.875 355.969 C 503.859 356.036 502.903 356.104 502.006 356.172 C 501.109 356.24 500.33 356.29 499.67 356.324 C 499.01 356.358 498.578 356.375 498.375 356.375 C 497.596 356.375 496.843 356.163 496.115 355.74 C 495.387 355.317 494.736 354.809 494.16 354.217 C 493.585 353.624 493.119 353.007 492.764 352.363 C 492.408 351.72 492.231 351.178 492.231 350.738 C 492.231 349.824 492.408 349.046 492.764 348.402 C 493.119 347.759 493.576 347.226 494.135 346.803 C 494.693 346.38 495.328 346.066 496.039 345.863 C 496.75 345.66 497.444 345.559 498.121 345.559 C 498.595 345.559 499.289 345.542 500.203 345.508 C 501.117 345.474 502.133 345.44 503.25 345.406 C 504.367 345.372 505.527 345.313 506.729 345.229 C 507.93 345.144 509.065 345.068 510.131 345 C 511.197 344.932 512.12 344.848 512.898 344.746 C 513.677 344.645 514.219 344.543 514.523 344.441 C 514.862 344.306 515.175 343.705 515.463 342.639 C 515.751 341.572 516.132 339.99 516.606 337.891 C 516.741 337.281 516.91 336.443 517.113 335.377 C 517.316 334.311 517.536 333.143 517.773 331.873 C 518.01 330.604 518.239 329.292 518.459 327.938 C 518.679 326.583 518.891 325.297 519.094 324.078 C 519.297 322.859 519.458 321.785 519.576 320.854 C 519.695 319.923 519.771 319.237 519.805 318.797 C 519.839 318.221 520.101 317.62 520.592 316.994 C 521.083 316.368 521.65 315.801 522.293 315.293 C 522.936 314.785 523.579 314.362 524.223 314.023 C 524.866 313.685 525.357 313.516 525.695 313.516 C 526.474 313.516 527.219 313.71 527.93 314.1 C 528.641 314.489 529.258 314.954 529.783 315.496 C 530.308 316.038 530.731 316.588 531.053 317.147 C 531.374 317.705 531.535 318.137 531.535 318.441 C 531.535 318.577 531.484 318.966 531.383 319.609 C 531.281 320.253 531.154 321.014 531.002 321.895 C 530.85 322.775 530.689 323.723 530.52 324.738 C 530.35 325.754 530.173 326.736 529.986 327.684 C 529.8 328.632 529.639 329.469 529.504 330.197 C 529.369 330.925 529.267 331.458 529.199 331.797 C 528.725 334.031 528.344 335.817 528.057 337.154 C 527.769 338.492 527.557 339.541 527.422 340.303 C 527.286 341.065 527.193 341.598 527.143 341.902 C 527.092 342.207 527.066 342.461 527.066 342.664 C 527.066 342.833 527.092 342.986 527.143 343.121 C 527.193 343.257 527.253 343.358 527.32 343.426 C 527.388 343.527 527.456 343.595 527.523 343.629 C 528.167 343.561 529.022 343.46 530.088 343.324 C 531.154 343.189 532.356 343.02 533.693 342.816 C 535.031 342.613 536.436 342.385 537.908 342.131 C 539.381 341.877 540.837 341.589 542.275 341.268 C 543.714 340.946 545.102 340.591 546.44 340.201 C 547.777 339.812 548.953 339.397 549.969 338.957 C 551.187 338.415 552.279 337.899 553.244 337.408 C 554.209 336.917 555.089 336.486 555.885 336.113 C 556.68 335.741 557.4 335.445 558.043 335.225 C 558.686 335.005 559.296 334.895 559.871 334.895 Z M 628.375 367.598 C 628.375 368.004 628.333 368.486 628.248 369.045 C 628.163 369.604 628.02 370.188 627.816 370.797 C 627.613 371.406 627.342 372.024 627.004 372.65 C 626.665 373.277 626.259 373.844 625.785 374.352 C 623.754 376.214 621.663 377.906 619.514 379.43 C 617.364 380.953 615.214 382.257 613.065 383.34 C 610.915 384.423 608.799 385.253 606.717 385.828 C 604.635 386.404 602.68 386.691 600.852 386.691 C 598.109 386.691 595.833 386.217 594.022 385.27 C 592.21 384.322 590.763 383.069 589.68 381.512 C 588.596 379.954 587.835 378.169 587.395 376.154 C 586.954 374.14 586.734 372.066 586.734 369.934 C 586.734 369.155 586.777 368.241 586.861 367.191 C 586.946 366.142 587.031 365.118 587.115 364.119 C 587.2 363.12 587.285 362.223 587.369 361.428 C 587.454 360.632 587.496 360.099 587.496 359.828 C 587.496 359.557 587.471 359.253 587.42 358.914 C 587.369 358.576 587.208 358.389 586.938 358.356 C 585.651 359.744 584.026 361.834 582.063 364.627 C 580.099 367.42 578 370.712 575.766 374.504 C 574.411 376.84 572.939 379.286 571.348 381.842 C 569.757 384.398 568.174 386.742 566.6 388.875 C 565.025 391.008 563.527 392.768 562.106 394.156 C 560.684 395.544 559.448 396.238 558.398 396.238 C 557.586 396.238 556.951 396.23 556.494 396.213 C 556.037 396.196 555.665 396.145 555.377 396.061 C 555.089 395.976 554.844 395.857 554.641 395.705 C 554.437 395.553 554.184 395.324 553.879 395.02 C 553.54 393.767 553.27 392.421 553.066 390.982 C 552.863 389.544 552.719 388.156 552.635 386.818 C 552.55 385.481 552.499 384.271 552.482 383.188 C 552.466 382.104 552.457 381.292 552.457 380.75 C 552.457 375.807 552.855 370.585 553.65 365.084 C 554.446 359.583 555.369 353.734 556.418 347.539 C 557.231 342.8 558.018 337.95 558.779 332.99 C 559.541 328.031 560.21 322.792 560.785 317.273 C 561.022 316.055 561.42 315.056 561.979 314.277 C 562.537 313.499 563.147 312.889 563.807 312.449 C 564.467 312.009 565.144 311.713 565.838 311.561 C 566.532 311.408 567.15 311.332 567.691 311.332 C 569.249 311.332 570.451 311.967 571.297 313.236 C 572.143 314.506 572.566 316.207 572.566 318.34 C 572.566 318.814 572.516 319.508 572.414 320.422 C 572.313 321.336 572.169 322.394 571.982 323.596 C 571.796 324.798 571.593 326.084 571.373 327.455 C 571.153 328.826 570.916 330.189 570.662 331.543 C 570.408 332.897 570.163 334.192 569.926 335.428 C 569.689 336.663 569.469 337.755 569.266 338.703 C 568.453 342.529 567.683 346.346 566.955 350.154 C 566.227 353.963 565.576 357.594 565 361.047 C 564.424 364.5 563.925 367.682 563.502 370.594 C 563.079 373.505 562.766 375.977 562.563 378.008 C 563.003 377.432 563.604 376.594 564.365 375.494 C 565.127 374.394 565.965 373.184 566.879 371.863 C 567.793 370.543 568.732 369.163 569.697 367.725 C 570.662 366.286 571.568 364.932 572.414 363.662 C 573.26 362.393 574.014 361.267 574.674 360.285 C 575.334 359.303 575.816 358.609 576.121 358.203 C 577.103 356.849 578.262 355.385 579.6 353.811 C 580.937 352.236 582.393 350.781 583.967 349.443 C 585.541 348.106 587.2 346.989 588.943 346.092 C 590.687 345.195 592.439 344.746 594.199 344.746 C 595.486 344.746 596.527 345.491 597.322 346.981 C 598.118 348.47 598.516 350.383 598.516 352.719 C 598.516 353.396 598.448 354.251 598.313 355.283 C 598.177 356.316 598.025 357.425 597.856 358.609 C 597.686 359.794 597.534 361.005 597.398 362.24 C 597.263 363.476 597.195 364.652 597.195 365.77 C 597.195 366.582 597.246 367.589 597.348 368.791 C 597.449 369.993 597.686 371.152 598.059 372.27 C 598.431 373.387 598.973 374.335 599.684 375.113 C 600.395 375.892 601.342 376.281 602.527 376.281 C 603.746 376.281 605.092 376.154 606.565 375.9 C 608.037 375.647 609.603 375.232 611.262 374.656 C 612.921 374.081 614.647 373.336 616.441 372.422 C 618.236 371.508 620.03 370.391 621.824 369.07 C 622.129 368.867 622.459 368.605 622.815 368.283 C 623.17 367.962 623.534 367.648 623.906 367.344 C 624.279 367.039 624.676 366.785 625.1 366.582 C 625.523 366.379 625.954 366.277 626.395 366.277 C 626.869 366.277 627.317 366.43 627.74 366.734 C 628.163 367.039 628.375 367.327 628.375 367.598 Z M 645.742 349.57 C 645.742 348.081 645.514 347.031 645.057 346.422 C 644.6 345.813 644.083 345.508 643.508 345.508 C 643 345.508 642.408 345.813 641.731 346.422 C 641.053 347.031 640.351 347.852 639.623 348.885 C 638.895 349.917 638.167 351.119 637.44 352.49 C 636.712 353.861 636.035 355.309 635.408 356.832 C 634.782 358.356 634.257 359.921 633.834 361.529 C 633.411 363.137 633.115 364.686 632.945 366.176 C 633.927 365.363 634.816 364.627 635.611 363.967 C 636.407 363.307 637.16 362.604 637.871 361.859 C 638.582 361.148 639.386 360.277 640.283 359.244 C 641.18 358.212 642.035 357.137 642.848 356.02 C 643.66 354.902 644.346 353.785 644.904 352.668 C 645.463 351.551 645.742 350.518 645.742 349.57 Z M 685.148 355.055 C 685.148 355.326 685.047 355.749 684.844 356.324 C 684.641 356.9 684.302 357.577 683.828 358.356 C 682.508 360.454 680.857 362.74 678.877 365.211 C 676.897 367.682 674.713 370.145 672.326 372.6 C 669.94 375.054 667.383 377.424 664.658 379.709 C 661.933 381.994 659.174 384.017 656.381 385.777 C 653.588 387.538 650.803 388.951 648.027 390.018 C 645.251 391.084 642.611 391.617 640.106 391.617 C 636.923 391.617 634.147 391.177 631.777 390.297 C 629.408 389.417 627.444 388.139 625.887 386.463 C 624.329 384.787 623.161 382.739 622.383 380.318 C 621.604 377.898 621.215 375.147 621.215 372.066 C 621.215 369.731 621.393 367.259 621.748 364.652 C 622.104 362.046 622.755 359.397 623.703 356.705 C 624.651 354.014 625.929 351.305 627.537 348.58 C 629.145 345.855 631.202 343.223 633.707 340.684 C 635.637 338.72 637.719 337.231 639.953 336.215 C 642.188 335.199 644.32 334.691 646.352 334.691 C 646.724 334.691 647.198 334.768 647.773 334.92 C 648.349 335.072 648.924 335.284 649.5 335.555 C 650.076 335.826 650.634 336.147 651.176 336.52 C 651.717 336.892 652.158 337.298 652.496 337.738 C 653.579 339.126 654.392 340.438 654.934 341.674 C 655.475 342.91 655.746 344.306 655.746 345.863 C 655.746 348.301 655.408 350.501 654.731 352.465 C 654.053 354.428 653.131 356.265 651.963 357.975 C 650.795 359.684 649.415 361.335 647.824 362.926 C 646.233 364.517 644.523 366.176 642.695 367.902 C 641.578 368.952 640.19 370.094 638.531 371.33 C 636.872 372.566 635.095 373.911 633.199 375.367 C 633.47 376.417 633.809 377.322 634.215 378.084 C 634.621 378.846 635.129 379.481 635.738 379.988 C 636.348 380.496 637.084 380.877 637.947 381.131 C 638.811 381.385 639.835 381.512 641.02 381.512 C 642.611 381.512 644.312 381.241 646.123 380.699 C 647.934 380.158 649.754 379.464 651.582 378.617 C 653.173 377.872 654.747 376.933 656.305 375.799 C 657.862 374.665 659.436 373.488 661.027 372.27 C 662.009 371.525 663.27 370.45 664.811 369.045 C 666.351 367.64 667.917 366.176 669.508 364.652 C 670.591 363.637 671.674 362.647 672.758 361.682 C 673.841 360.717 674.992 359.642 676.211 358.457 L 678.902 355.816 C 680.866 354.225 682.457 353.43 683.676 353.43 C 684.319 353.43 684.725 353.616 684.895 353.988 C 685.064 354.361 685.148 354.716 685.148 355.055 Z M 727.043 352.668 C 727.043 352.973 726.975 353.379 726.84 353.887 C 726.704 354.395 726.501 354.902 726.231 355.41 C 725.96 355.918 725.613 356.358 725.19 356.731 C 724.766 357.103 724.25 357.306 723.641 357.34 C 723.505 357.34 723.217 357.331 722.777 357.315 C 722.337 357.298 721.863 357.272 721.356 357.238 C 720.848 357.204 720.374 357.179 719.934 357.162 C 719.494 357.145 719.172 357.137 718.969 357.137 C 713.315 357.441 708.423 359.473 704.293 363.231 C 703.345 364.077 702.372 365.076 701.373 366.227 C 700.374 367.378 699.393 368.639 698.428 370.01 C 697.463 371.381 696.54 372.845 695.66 374.402 C 694.78 375.96 693.984 377.585 693.273 379.277 C 692.698 380.665 692.139 382.096 691.598 383.568 C 691.056 385.041 690.582 386.59 690.176 388.215 C 689.939 389.095 689.761 389.865 689.643 390.525 C 689.524 391.186 689.329 391.956 689.059 392.836 C 688.889 393.378 688.602 393.843 688.195 394.232 C 687.789 394.622 687.315 394.943 686.773 395.197 C 686.232 395.451 685.665 395.646 685.072 395.781 C 684.48 395.917 683.896 396.001 683.32 396.035 C 681.154 396.035 679.664 395.053 678.852 393.09 C 678.039 391.126 677.633 388.198 677.633 384.305 C 677.633 383.425 677.641 382.595 677.658 381.816 C 677.675 381.038 677.709 380.251 677.76 379.455 C 677.811 378.66 677.87 377.83 677.938 376.967 C 678.005 376.104 678.09 375.13 678.191 374.047 C 678.327 372.456 678.513 370.568 678.75 368.385 C 678.987 366.201 679.241 363.984 679.512 361.732 C 679.783 359.481 680.079 357.306 680.4 355.207 C 680.722 353.108 681.052 351.331 681.391 349.875 C 681.797 348.081 682.482 346.676 683.447 345.66 C 684.412 344.645 685.826 344.137 687.688 344.137 C 688.229 344.137 688.779 344.281 689.338 344.568 C 689.897 344.856 690.396 345.203 690.836 345.609 C 691.276 346.016 691.648 346.456 691.953 346.93 C 692.258 347.404 692.427 347.827 692.461 348.199 L 692.512 349.113 C 692.512 350.061 692.427 351.178 692.258 352.465 C 692.089 353.751 691.86 355.114 691.572 356.553 C 691.285 357.992 690.98 359.447 690.658 360.92 C 690.337 362.393 690.015 363.798 689.693 365.135 C 689.372 366.472 689.084 367.708 688.83 368.842 C 688.576 369.976 688.382 370.915 688.246 371.66 C 689.431 369.155 690.701 366.743 692.055 364.424 C 693.409 362.105 694.865 359.955 696.422 357.975 C 697.979 355.994 699.655 354.225 701.449 352.668 C 703.244 351.111 705.173 349.858 707.238 348.91 C 708.863 348.165 710.353 347.598 711.707 347.209 C 713.061 346.82 714.28 346.625 715.363 346.625 C 716.65 346.625 717.979 346.76 719.35 347.031 C 720.721 347.302 721.973 347.7 723.107 348.225 C 724.242 348.749 725.181 349.384 725.926 350.129 C 726.671 350.874 727.043 351.72 727.043 352.668 Z M 760.356 346.777 C 760.356 346.676 760.33 346.481 760.279 346.193 C 760.229 345.906 760.169 345.677 760.102 345.508 C 758.984 345.643 757.757 346.075 756.42 346.803 C 755.083 347.531 753.644 348.639 752.104 350.129 C 750.563 351.619 748.913 353.54 747.152 355.893 C 745.392 358.245 743.547 361.115 741.617 364.5 C 741.109 365.414 740.568 366.404 739.992 367.471 C 739.417 368.537 738.883 369.68 738.393 370.898 C 737.902 372.117 737.504 373.412 737.199 374.783 C 736.895 376.154 736.742 377.602 736.742 379.125 C 736.742 379.701 736.903 380.132 737.225 380.42 C 737.546 380.708 737.876 380.852 738.215 380.852 C 738.994 380.852 740.001 380.403 741.236 379.506 C 742.472 378.609 743.809 377.415 745.248 375.926 C 746.687 374.436 748.16 372.735 749.666 370.822 C 751.173 368.91 752.569 366.946 753.856 364.932 C 755.142 362.917 756.268 360.92 757.232 358.94 C 758.197 356.959 758.866 355.173 759.238 353.582 C 759.34 353.074 759.458 352.482 759.594 351.805 C 759.729 351.128 759.856 350.459 759.975 349.799 C 760.093 349.139 760.186 348.538 760.254 347.996 C 760.322 347.454 760.356 347.048 760.356 346.777 Z M 801.336 353.176 C 801.336 353.785 801.234 354.428 801.031 355.106 C 800.828 355.783 800.566 356.46 800.244 357.137 C 799.923 357.814 799.559 358.491 799.152 359.168 C 798.746 359.845 798.323 360.471 797.883 361.047 C 795.919 363.688 793.812 366.167 791.561 368.486 C 789.309 370.805 787.049 372.981 784.781 375.012 C 783.563 376.095 782.31 377.077 781.023 377.957 C 779.737 378.837 778.451 379.599 777.164 380.242 C 775.878 380.885 774.625 381.376 773.406 381.715 C 772.188 382.053 771.053 382.223 770.004 382.223 C 768.717 382.223 767.482 381.816 766.297 381.004 C 765.112 380.191 764.071 379.167 763.174 377.932 C 762.277 376.696 761.566 375.367 761.041 373.945 C 760.516 372.523 760.254 371.203 760.254 369.984 C 759.848 370.594 759.255 371.406 758.477 372.422 C 757.698 373.438 756.885 374.47 756.039 375.52 C 755.193 376.569 754.406 377.525 753.678 378.389 C 752.95 379.252 752.434 379.87 752.129 380.242 C 751.046 381.393 749.793 382.578 748.371 383.797 C 746.949 385.016 745.536 386.116 744.131 387.098 C 742.726 388.079 741.414 388.884 740.195 389.51 C 738.977 390.136 738.046 390.449 737.402 390.449 C 735.913 390.449 734.474 390.212 733.086 389.738 C 731.698 389.264 730.471 388.579 729.404 387.682 C 728.338 386.785 727.483 385.676 726.84 384.356 C 726.197 383.035 725.875 381.529 725.875 379.836 C 725.875 378.177 726.104 376.357 726.561 374.377 C 727.018 372.397 727.644 370.331 728.44 368.182 C 729.235 366.032 730.191 363.857 731.309 361.656 C 732.426 359.456 733.636 357.315 734.94 355.232 C 736.243 353.15 737.622 351.178 739.078 349.316 C 740.534 347.454 742.023 345.796 743.547 344.34 C 746.255 341.767 749.133 339.871 752.18 338.652 C 755.227 337.434 758.375 336.824 761.625 336.824 C 762.471 336.824 763.182 336.943 763.758 337.18 C 764.333 337.417 764.824 337.73 765.231 338.119 C 765.637 338.509 765.984 338.957 766.272 339.465 C 766.559 339.973 766.822 340.481 767.059 340.988 C 767.228 341.225 767.507 341.555 767.897 341.979 C 768.286 342.402 768.684 342.867 769.09 343.375 C 769.496 343.883 769.852 344.391 770.156 344.898 C 770.461 345.406 770.613 345.863 770.613 346.27 C 770.613 346.981 770.512 347.751 770.309 348.58 C 770.106 349.41 769.894 350.366 769.674 351.449 C 769.454 352.533 769.242 353.76 769.039 355.131 C 768.836 356.502 768.734 358.085 768.734 359.879 C 768.734 360.895 768.811 362.079 768.963 363.434 C 769.115 364.788 769.344 366.057 769.648 367.242 C 769.953 368.427 770.334 369.434 770.791 370.264 C 771.248 371.093 771.764 371.508 772.34 371.508 C 773.051 371.508 773.686 371.432 774.244 371.279 C 774.803 371.127 775.336 370.907 775.844 370.619 C 776.352 370.331 776.868 369.984 777.393 369.578 C 777.917 369.172 778.518 368.732 779.195 368.258 C 781.294 366.734 783.402 364.974 785.518 362.977 C 787.633 360.979 789.792 358.931 791.992 356.832 C 792.602 356.257 793.236 355.613 793.897 354.902 C 794.557 354.191 795.234 353.531 795.928 352.922 C 796.622 352.313 797.307 351.805 797.984 351.398 C 798.661 350.992 799.305 350.789 799.914 350.789 C 800.862 350.789 801.336 351.585 801.336 353.176 Z M 873.902 354.648 C 873.902 355.833 873.555 357.069 872.861 358.356 C 872.167 359.642 871.059 360.928 869.535 362.215 C 866.421 364.856 862.874 367.378 858.897 369.781 C 854.919 372.185 850.475 374.521 845.566 376.789 C 840.827 378.99 836.341 380.877 832.109 382.451 C 827.878 384.025 823.714 385.371 819.617 386.488 C 819.313 386.556 818.957 386.615 818.551 386.666 C 818.145 386.717 817.654 386.742 817.078 386.742 C 815.927 386.742 814.869 386.573 813.904 386.234 C 812.94 385.896 812.102 385.439 811.391 384.863 C 810.68 384.288 810.13 383.611 809.74 382.832 C 809.351 382.053 809.156 381.207 809.156 380.293 C 809.156 379.65 809.419 379.066 809.943 378.541 C 810.468 378.016 811.179 377.525 812.076 377.068 C 812.973 376.611 814.023 376.171 815.225 375.748 C 816.426 375.325 817.688 374.91 819.008 374.504 C 819.414 374.402 819.888 374.284 820.43 374.148 C 820.971 374.013 821.538 373.886 822.131 373.768 C 822.723 373.649 823.316 373.522 823.908 373.387 C 824.501 373.251 825.017 373.133 825.457 373.031 C 826.879 372.253 828.242 371.152 829.545 369.731 C 830.848 368.309 831.999 366.768 832.998 365.109 C 833.997 363.451 834.784 361.783 835.359 360.107 C 835.935 358.432 836.223 356.984 836.223 355.766 C 836.223 352.313 835.444 350.586 833.887 350.586 C 833.244 350.586 832.448 350.755 831.5 351.094 C 830.552 351.432 829.545 351.881 828.479 352.44 C 827.412 352.998 826.346 353.616 825.279 354.293 C 824.213 354.97 823.24 355.647 822.359 356.324 C 821.107 357.306 819.71 358.652 818.17 360.361 C 816.63 362.071 815.089 363.933 813.549 365.947 C 812.008 367.962 810.561 370.027 809.207 372.143 C 807.853 374.259 806.719 376.214 805.805 378.008 C 805.635 379.531 805.466 381.199 805.297 383.01 C 805.128 384.821 804.958 386.81 804.789 388.977 C 804.586 391.143 804.442 393.352 804.357 395.604 C 804.273 397.855 804.18 400.047 804.078 402.18 C 803.977 404.313 803.858 406.335 803.723 408.248 C 803.587 410.161 803.367 411.862 803.063 413.352 C 803.063 415.451 802.656 416.974 801.844 417.922 C 801.031 418.87 799.88 419.344 798.391 419.344 C 797.578 419.344 796.715 419.158 795.801 418.785 C 794.887 418.413 794.04 417.947 793.262 417.389 C 792.483 416.83 791.84 416.229 791.332 415.586 C 790.824 414.943 790.57 414.333 790.57 413.758 C 790.57 413.115 790.613 412.404 790.697 411.625 C 790.782 410.846 790.875 409.983 790.977 409.035 C 791.146 407.715 791.298 406.437 791.434 405.201 C 791.569 403.966 791.696 402.823 791.815 401.773 C 791.933 400.724 792.043 399.776 792.145 398.93 C 792.246 398.083 792.331 397.389 792.398 396.848 C 792.872 393.564 793.287 389.933 793.643 385.955 C 793.998 381.977 794.277 377.822 794.481 373.488 C 794.65 369.46 794.76 365.736 794.811 362.316 C 794.861 358.897 795.081 355.943 795.471 353.455 C 795.86 350.967 796.529 349.02 797.477 347.615 C 798.424 346.21 799.88 345.508 801.844 345.508 C 802.724 345.508 803.511 345.694 804.205 346.066 C 804.899 346.439 805.5 346.913 806.008 347.488 C 806.516 348.064 806.905 348.707 807.176 349.418 C 807.447 350.129 807.582 350.84 807.582 351.551 C 807.582 352.871 807.404 354.403 807.049 356.147 C 806.693 357.89 806.346 359.93 806.008 362.266 C 806.719 361.047 807.489 359.82 808.318 358.584 C 809.148 357.348 809.994 356.155 810.857 355.004 C 811.721 353.853 812.584 352.77 813.447 351.754 C 814.311 350.738 815.148 349.858 815.961 349.113 C 819.211 346.1 822.478 343.866 825.762 342.41 C 827.421 341.665 829.206 341.132 831.119 340.811 C 833.032 340.489 835.106 340.328 837.34 340.328 C 838.829 340.328 840.167 340.819 841.352 341.801 C 842.536 342.783 843.544 343.976 844.373 345.381 C 845.203 346.786 845.837 348.275 846.277 349.85 C 846.717 351.424 846.938 352.82 846.938 354.039 C 846.938 355.258 846.692 356.637 846.201 358.178 C 845.71 359.718 845.084 361.259 844.322 362.799 C 843.561 364.339 842.697 365.82 841.732 367.242 C 840.768 368.664 839.794 369.849 838.813 370.797 C 841.182 369.781 843.671 368.613 846.277 367.293 C 848.884 365.973 851.432 364.593 853.92 363.154 C 856.408 361.716 858.761 360.243 860.979 358.736 C 863.196 357.23 865.117 355.783 866.742 354.395 C 867.521 353.717 868.342 353.201 869.205 352.846 C 870.068 352.49 870.889 352.313 871.668 352.313 C 872.413 352.313 872.971 352.465 873.344 352.77 C 873.716 353.074 873.902 353.701 873.902 354.648 Z M 914.984 350.586 C 914.951 351.161 914.747 352.067 914.375 353.303 C 914.003 354.538 913.537 355.986 912.979 357.645 C 912.42 359.303 911.777 361.123 911.049 363.104 C 910.321 365.084 909.593 367.124 908.865 369.223 C 908.137 371.322 907.418 373.429 906.707 375.545 C 905.996 377.661 905.37 379.667 904.828 381.563 C 904.794 381.664 904.65 382.13 904.397 382.959 C 904.143 383.788 903.813 384.855 903.406 386.158 C 903 387.462 902.543 388.934 902.035 390.576 C 901.527 392.218 901.011 393.902 900.486 395.629 C 899.962 397.355 899.437 399.04 898.912 400.682 C 898.387 402.324 897.922 403.805 897.516 405.125 C 897.109 406.445 896.771 407.537 896.5 408.4 C 896.229 409.264 896.077 409.746 896.043 409.848 C 895.772 410.762 895.476 411.828 895.154 413.047 C 894.833 414.266 894.393 415.408 893.834 416.475 C 893.275 417.541 892.539 418.447 891.625 419.191 C 890.711 419.936 889.509 420.309 888.02 420.309 C 887.173 420.309 886.42 420.139 885.76 419.801 C 885.1 419.462 884.541 419.031 884.084 418.506 C 883.627 417.981 883.272 417.389 883.018 416.729 C 882.764 416.068 882.637 415.417 882.637 414.773 C 882.637 414.029 882.823 413.038 883.195 411.803 C 883.568 410.567 884.033 409.213 884.592 407.74 C 885.15 406.268 885.76 404.71 886.42 403.068 C 887.08 401.426 887.698 399.81 888.273 398.219 C 888.273 398.219 888.4 397.889 888.654 397.229 C 888.908 396.568 889.238 395.697 889.645 394.613 C 890.051 393.53 890.499 392.311 890.99 390.957 C 891.481 389.603 891.981 388.249 892.488 386.895 C 892.996 385.54 893.479 384.254 893.936 383.035 C 894.393 381.816 894.773 380.801 895.078 379.988 C 894.299 380.632 893.402 381.326 892.387 382.07 C 891.371 382.815 890.296 383.568 889.162 384.33 C 888.028 385.092 886.835 385.82 885.582 386.514 C 884.329 387.208 883.085 387.826 881.85 388.367 C 880.614 388.909 879.395 389.341 878.193 389.662 C 876.992 389.984 875.849 390.145 874.766 390.145 C 872.43 390.145 870.365 389.755 868.57 388.977 C 866.776 388.198 865.27 387.208 864.051 386.006 C 862.832 384.804 861.91 383.484 861.283 382.045 C 860.657 380.606 860.344 379.21 860.344 377.856 C 860.344 376.84 860.454 375.587 860.674 374.098 C 860.894 372.608 861.199 371.009 861.588 369.299 C 861.977 367.589 862.443 365.812 862.984 363.967 C 863.526 362.122 864.102 360.336 864.711 358.609 C 865.32 356.883 865.955 355.283 866.615 353.811 C 867.275 352.338 867.944 351.111 868.621 350.129 C 869.671 348.606 870.678 347.539 871.643 346.93 C 872.607 346.32 873.648 346.016 874.766 346.016 C 875.815 346.016 876.67 346.168 877.33 346.473 C 877.99 346.777 878.507 347.201 878.879 347.742 C 879.251 348.284 879.505 348.893 879.641 349.57 C 879.776 350.247 879.844 350.975 879.844 351.754 C 879.844 352.228 879.649 352.905 879.26 353.785 C 878.87 354.665 878.388 355.715 877.813 356.934 C 877.305 357.983 876.712 359.227 876.035 360.666 C 875.358 362.105 874.732 363.662 874.156 365.338 C 873.581 367.014 873.09 368.766 872.684 370.594 C 872.277 372.422 872.074 374.267 872.074 376.129 C 872.074 376.772 872.244 377.314 872.582 377.754 C 872.921 378.194 873.318 378.541 873.775 378.795 C 874.232 379.049 874.706 379.235 875.197 379.354 C 875.688 379.472 876.086 379.531 876.391 379.531 C 877.609 379.531 878.879 379.286 880.199 378.795 C 881.52 378.304 882.831 377.695 884.135 376.967 C 885.438 376.239 886.708 375.46 887.943 374.631 C 889.179 373.801 890.356 373.048 891.473 372.371 C 892.387 371.796 893.402 371.059 894.52 370.162 C 895.637 369.265 896.602 368.258 897.414 367.141 C 897.786 366.633 898.235 365.727 898.76 364.424 C 899.285 363.12 899.835 361.639 900.41 359.981 C 900.986 358.322 901.553 356.62 902.111 354.877 C 902.67 353.134 903.152 351.551 903.559 350.129 C 903.863 349.113 904.261 348.225 904.752 347.463 C 905.243 346.701 905.768 346.075 906.326 345.584 C 906.885 345.093 907.46 344.721 908.053 344.467 C 908.645 344.213 909.195 344.086 909.703 344.086 C 910.854 344.086 911.777 344.188 912.471 344.391 C 913.165 344.594 913.698 344.941 914.07 345.432 C 914.443 345.923 914.688 346.583 914.807 347.412 C 914.925 348.242 914.984 349.266 914.984 350.484 Z"/>
</g>
</svg>