<svg xmlns="http://www.w3.org/2000/svg" viewBox="0 0 1200 520" role="img" aria-labelledby="title desc">
  <title id="title">Rahma Therapy trace logo</title>
  <desc id="desc">Vector logo asset for Rahma Therapy. No raster image is embedded.</desc>
  <g fill="none" fill-rule="evenodd">
  <path fill="#F7A90B" d="M 210.672 322.045 L 171.785 322.045 L 122.479 253.94 C 118.826 254.083 115.854 254.154 113.563 254.154 C 112.632 254.154 111.629 254.136 110.555 254.101 C 109.481 254.065 108.37 254.011 107.225 253.94 L 107.225 296.264 C 107.225 305.43 108.227 311.124 110.232 313.344 C 112.954 316.495 117.036 318.07 122.479 318.07 L 128.172 318.07 L 128.172 322.045 L 65.76 322.045 L 65.76 318.07 L 71.238 318.07 C 77.397 318.07 81.801 316.065 84.451 312.055 C 85.955 309.835 86.707 304.571 86.707 296.264 L 86.707 202.162 C 86.707 192.995 85.704 187.302 83.699 185.082 C 80.906 181.931 76.753 180.356 71.238 180.356 L 65.76 180.356 L 65.76 176.381 L 118.826 176.381 C 134.295 176.381 145.7 177.509 153.04 179.765 C 160.381 182.021 166.611 186.174 171.731 192.226 C 176.852 198.277 179.412 205.492 179.412 213.871 C 179.412 222.823 176.494 230.593 170.657 237.182 C 164.821 243.77 155.779 248.425 143.533 251.147 L 173.611 292.934 C 180.486 302.53 186.395 308.904 191.336 312.055 C 196.277 315.206 202.723 317.211 210.672 318.07 Z M 107.225 247.172 C 108.585 247.172 109.767 247.19 110.77 247.226 C 111.772 247.261 112.596 247.279 113.24 247.279 C 127.134 247.279 137.607 244.272 144.661 238.256 C 151.715 232.24 155.242 224.578 155.242 215.268 C 155.242 206.173 152.396 198.778 146.702 193.085 C 141.009 187.392 133.471 184.545 124.09 184.545 C 119.936 184.545 114.315 185.225 107.225 186.586 Z M 309.393 273.275 L 252.996 273.275 L 243.113 296.264 C 240.678 301.921 239.461 306.147 239.461 308.94 C 239.461 311.16 240.517 313.111 242.63 314.794 C 244.743 316.477 249.308 317.569 256.326 318.07 L 256.326 322.045 L 210.457 322.045 L 210.457 318.07 C 216.544 316.996 220.483 315.6 222.273 313.881 C 225.926 310.443 229.972 303.461 234.412 292.934 L 285.652 173.051 L 289.412 173.051 L 340.115 294.223 C 344.197 303.962 347.903 310.282 351.233 313.183 C 354.564 316.083 359.201 317.712 365.145 318.07 L 365.145 322.045 L 307.674 322.045 L 307.674 318.07 C 313.475 317.784 317.396 316.817 319.437 315.17 C 321.478 313.523 322.498 311.518 322.498 309.154 C 322.498 306.003 321.066 301.026 318.201 294.223 Z M 306.385 265.326 L 281.678 206.459 L 256.326 265.326 Z M 412.84 243.949 L 480.516 243.949 L 480.516 202.27 C 480.516 194.822 480.05 189.916 479.119 187.553 C 478.403 185.762 476.899 184.223 474.607 182.934 C 471.528 181.215 468.27 180.356 464.832 180.356 L 459.676 180.356 L 459.676 176.381 L 521.981 176.381 L 521.981 180.356 L 516.824 180.356 C 513.387 180.356 510.128 181.179 507.049 182.826 C 504.757 183.972 503.2 185.709 502.376 188.036 C 501.552 190.364 501.141 195.108 501.141 202.27 L 501.141 296.264 C 501.141 303.64 501.606 308.51 502.537 310.873 C 503.253 312.663 504.721 314.203 506.941 315.492 C 510.092 317.211 513.387 318.07 516.824 318.07 L 521.981 318.07 L 521.981 322.045 L 459.676 322.045 L 459.676 318.07 L 464.832 318.07 C 470.776 318.07 475.109 316.316 477.83 312.807 C 479.62 310.515 480.516 305.001 480.516 296.264 L 480.516 251.898 L 412.84 251.898 L 412.84 296.264 C 412.84 303.64 413.305 308.51 414.236 310.873 C 414.953 312.663 416.456 314.203 418.748 315.492 C 421.828 317.211 425.086 318.07 428.523 318.07 L 433.787 318.07 L 433.787 322.045 L 371.375 322.045 L 371.375 318.07 L 376.531 318.07 C 382.547 318.07 386.915 316.316 389.637 312.807 C 391.356 310.515 392.215 305.001 392.215 296.264 L 392.215 202.27 C 392.215 194.822 391.749 189.916 390.818 187.553 C 390.102 185.762 388.634 184.223 386.414 182.934 C 383.263 181.215 379.969 180.356 376.531 180.356 L 371.375 180.356 L 371.375 176.381 L 433.787 176.381 L 433.787 180.356 L 428.523 180.356 C 425.086 180.356 421.828 181.179 418.748 182.826 C 416.528 183.972 414.988 185.709 414.129 188.036 C 413.27 190.364 412.84 195.108 412.84 202.27 Z M 616.512 322.045 L 560.223 199.477 L 560.223 296.801 C 560.223 305.753 561.19 311.339 563.123 313.559 C 565.773 316.566 569.962 318.07 575.691 318.07 L 580.848 318.07 L 580.848 322.045 L 530.145 322.045 L 530.145 318.07 L 535.301 318.07 C 541.46 318.07 545.828 316.208 548.406 312.484 C 549.982 310.193 550.77 304.965 550.77 296.801 L 550.77 201.625 C 550.77 195.18 550.053 190.525 548.621 187.66 C 547.619 185.583 545.774 183.847 543.089 182.45 C 540.403 181.054 536.089 180.356 530.145 180.356 L 530.145 176.381 L 571.395 176.381 L 624.246 290.356 L 676.238 176.381 L 717.488 176.381 L 717.488 180.356 L 712.44 180.356 C 706.209 180.356 701.805 182.217 699.227 185.941 C 697.651 188.233 696.863 193.461 696.863 201.625 L 696.863 296.801 C 696.863 305.753 697.866 311.339 699.871 313.559 C 702.521 316.566 706.71 318.07 712.44 318.07 L 717.488 318.07 L 717.488 322.045 L 655.613 322.045 L 655.613 318.07 L 660.77 318.07 C 667 318.07 671.369 316.208 673.875 312.484 C 675.451 310.193 676.238 304.965 676.238 296.801 L 676.238 199.477 L 620.057 322.045 Z M 822.762 273.275 L 766.365 273.275 L 756.482 296.264 C 754.048 301.921 752.83 306.147 752.83 308.94 C 752.83 311.16 753.886 313.111 755.999 314.794 C 758.112 316.477 762.677 317.569 769.695 318.07 L 769.695 322.045 L 723.826 322.045 L 723.826 318.07 C 729.913 316.996 733.852 315.6 735.643 313.881 C 739.295 310.443 743.341 303.461 747.781 292.934 L 799.022 173.051 L 802.781 173.051 L 853.484 294.223 C 857.566 303.962 861.273 310.282 864.603 313.183 C 867.933 316.083 872.57 317.712 878.514 318.07 L 878.514 322.045 L 821.043 322.045 L 821.043 318.07 C 826.844 317.784 830.765 316.817 832.806 315.17 C 834.847 313.523 835.867 311.518 835.867 309.154 C 835.867 306.003 834.435 301.026 831.57 294.223 Z M 819.754 265.326 L 795.047 206.459 L 769.695 265.326 Z"/>
  <path fill="#0A73B7" d="M 523.654 337.551 L 526.426 337.551 C 528.703 333.469 530.766 330.579 532.613 328.882 C 534.461 327.185 536.566 326.336 538.93 326.336 C 541.293 326.336 542.475 326.873 542.475 327.947 C 542.475 328.463 541.551 329.859 539.703 332.137 C 537.855 334.414 536.459 336.326 535.514 337.873 C 536.975 338.045 538.274 338.195 539.413 338.324 C 540.552 338.453 541.443 338.561 542.088 338.647 C 539.639 343.201 536.566 347.863 532.871 352.633 C 531.668 352.547 530.658 352.472 529.842 352.407 C 529.025 352.343 528.198 352.278 527.36 352.214 C 526.522 352.149 525.502 352.074 524.299 351.988 C 521.979 355.727 520.034 359.067 518.466 362.011 C 516.897 364.954 515.694 367.65 514.856 370.1 C 514.019 372.549 513.6 374.869 513.6 377.061 C 513.6 380.025 514.781 381.508 517.145 381.508 C 518.777 381.508 520.915 380.638 523.558 378.898 C 526.2 377.157 529.734 374.482 534.16 370.873 L 534.16 375.191 C 522.559 387.781 513.986 394.076 508.443 394.076 C 506.51 394.076 504.952 393.324 503.771 391.82 C 502.589 390.316 501.998 388.383 501.998 386.02 C 501.998 384.43 502.331 382.539 502.997 380.348 C 503.663 378.156 504.855 374.848 506.574 370.422 C 505.973 370.938 505.403 371.442 504.866 371.937 C 504.329 372.431 503.835 372.882 503.384 373.29 C 502.933 373.698 502.449 374.128 501.934 374.579 C 501.418 375.03 500.902 375.492 500.387 375.965 L 500.387 371.518 C 504.898 367.736 510.355 361.098 516.758 351.602 C 516.113 351.559 515.512 351.526 514.953 351.505 C 514.395 351.483 513.729 351.473 512.955 351.473 C 510.42 351.473 508.529 351.645 507.283 351.988 C 506.768 352.117 506.284 352.257 505.833 352.407 C 505.382 352.558 505.07 352.633 504.898 352.633 C 504.727 352.633 504.641 352.504 504.641 352.246 C 504.641 350.828 505.522 348.701 507.283 345.865 C 508.701 343.459 510.044 341.676 511.312 340.516 C 512.579 339.356 514.126 338.571 515.952 338.163 C 517.778 337.755 520.346 337.551 523.654 337.551 Z M 582.242 371.002 L 582.242 375.063 C 578.504 378.887 575.27 382.013 572.542 384.44 C 569.813 386.868 567.429 388.705 565.388 389.951 C 563.347 391.197 561.617 391.82 560.199 391.82 C 556.848 391.82 555.172 389.844 555.172 385.891 C 555.172 382.711 556.214 379.026 558.298 374.837 C 560.382 370.648 563.379 365.717 567.289 360.045 C 565.356 361.119 563.529 362.355 561.811 363.751 C 560.092 365.148 558.566 366.608 557.234 368.134 C 555.902 369.659 554.785 370.959 553.883 372.033 C 551.09 375.17 548.404 378.382 545.826 381.669 C 543.248 384.956 541.508 387.094 540.606 388.082 C 539.703 389.07 538.844 389.565 538.027 389.565 C 534.676 389.565 533 385.44 533 377.19 C 533 374.482 533.408 371.496 534.225 368.231 C 535.041 364.965 537.232 360.647 540.799 355.275 C 548.318 344.018 554.753 334.812 560.103 327.657 C 565.452 320.503 569.889 315.089 573.412 311.415 C 576.936 307.741 579.299 305.947 580.502 306.033 C 582.006 306.162 583.22 306.463 584.144 306.936 C 585.067 307.408 585.529 307.945 585.529 308.547 C 585.529 309.621 584.788 311.394 583.306 313.864 C 581.823 316.335 579.277 320.191 575.668 325.434 C 571.758 330.977 568.986 334.876 567.354 337.132 C 565.721 339.388 563.282 342.589 560.038 346.735 C 556.794 350.882 553.829 354.577 551.144 357.821 C 548.458 361.065 545.396 364.578 541.959 368.359 L 541.959 376.094 C 547.717 369.691 552.701 364.449 556.912 360.367 C 561.123 356.285 564.689 353.202 567.611 351.118 C 570.533 349.034 572.682 347.992 574.057 347.992 C 575.346 347.992 576.549 348.755 577.666 350.28 C 578.783 351.806 579.342 353.063 579.342 354.051 C 579.342 354.481 579.127 355.018 578.697 355.662 C 575.604 359.357 573.144 362.419 571.317 364.847 C 569.491 367.274 568.084 369.444 567.096 371.356 C 566.107 373.269 565.613 374.912 565.613 376.287 C 565.613 378.307 566.58 379.316 568.514 379.316 C 570.576 379.316 575.152 376.545 582.242 371.002 Z M 592.555 373.322 L 592.555 374.934 C 592.555 377.469 593.178 379.445 594.424 380.863 C 595.67 382.281 597.303 382.99 599.322 382.99 C 601.428 382.99 603.608 382.496 605.864 381.508 C 608.12 380.52 610.365 379.209 612.6 377.576 C 614.834 375.943 617.563 373.752 620.785 371.002 L 620.785 374.934 C 615.93 380.777 611.375 385.257 607.121 388.372 C 602.867 391.487 598.549 393.045 594.166 393.045 C 590.342 393.045 587.312 391.563 585.078 388.598 C 582.844 385.633 581.727 381.572 581.727 376.416 C 581.727 371.904 582.779 367.812 584.885 364.138 C 586.99 360.464 590.428 356.586 595.197 352.504 C 598.463 349.711 601.707 347.606 604.93 346.188 C 608.152 344.77 611.031 344.061 613.566 344.061 C 615.586 344.061 617.187 344.523 618.368 345.446 C 619.55 346.37 620.141 347.756 620.141 349.604 C 620.141 352.311 619.131 355.007 617.111 357.692 C 615.092 360.378 612.009 363.042 607.862 365.685 C 603.716 368.327 598.613 370.873 592.555 373.322 Z M 593.199 369.133 C 597.066 367.629 600.375 365.76 603.125 363.525 C 605.875 361.291 607.905 359.153 609.216 357.112 C 610.526 355.071 611.182 353.578 611.182 352.633 C 611.182 351.645 610.73 351.15 609.828 351.15 C 609.055 351.15 607.798 351.645 606.058 352.633 C 604.317 353.621 602.556 354.91 600.773 356.5 C 598.989 358.09 597.389 359.959 595.971 362.107 C 594.553 364.256 593.629 366.598 593.199 369.133 Z M 620.141 375.965 L 620.141 371.775 C 622.461 369.025 624.223 366.684 625.426 364.75 C 624.051 364.277 623.052 363.697 622.429 363.01 C 621.806 362.322 621.494 361.291 621.494 359.916 C 621.494 358.369 622.139 356.414 623.428 354.051 C 624.717 351.688 626.307 349.475 628.197 347.412 C 630.088 345.35 631.807 344.018 633.354 343.416 C 633.955 343.115 634.535 342.965 635.094 342.965 C 635.953 342.965 636.383 343.373 636.383 344.19 C 636.383 344.92 635.717 346.402 634.385 348.637 C 643.236 347.262 648.822 346.574 651.143 346.574 C 652.045 346.574 652.668 346.66 653.012 346.832 C 653.742 347.219 654.344 348.121 654.816 349.539 C 655.289 350.957 655.525 352.375 655.525 353.793 C 655.525 354.695 655.128 355.673 654.333 356.726 C 653.538 357.778 652.174 359.315 650.24 361.334 C 647.963 363.783 646.051 366.447 644.504 369.326 C 642.957 372.205 642.184 374.375 642.184 375.836 C 642.184 377.856 643.43 378.865 645.922 378.865 C 648.543 378.865 653.098 376.201 659.586 370.873 L 659.586 375.191 C 656.02 378.93 653.076 381.873 650.756 384.022 C 648.436 386.17 646.287 387.878 644.311 389.146 C 642.334 390.413 640.572 391.047 639.025 391.047 C 637.221 391.047 635.717 390.22 634.514 388.565 C 633.311 386.911 632.709 384.516 632.709 381.379 C 632.709 379.531 633.182 377.426 634.127 375.063 C 635.072 372.699 636.458 370.132 638.284 367.36 C 640.11 364.589 642.162 361.828 644.44 359.078 C 643.236 359.336 641.883 359.605 640.379 359.884 C 638.875 360.163 637.285 360.453 635.609 360.754 C 633.934 361.055 632.645 361.291 631.742 361.463 C 629.078 366.791 625.211 371.625 620.141 375.965 Z M 666.869 359.465 C 673.4 353.535 679.738 349.131 685.883 346.252 C 692.027 343.373 696.775 341.934 700.127 341.934 C 701.029 341.934 701.867 342.31 702.641 343.062 C 703.414 343.814 704.026 344.684 704.478 345.672 C 704.929 346.66 705.154 347.391 705.154 347.863 C 705.154 348.637 704.854 349.206 704.252 349.571 C 703.65 349.937 702.598 350.377 701.094 350.893 C 701.395 351.58 701.781 352.461 702.254 353.535 C 702.727 354.609 703.092 355.48 703.35 356.146 C 703.607 356.812 703.736 357.402 703.736 357.918 C 703.736 358.949 702.694 360.872 700.61 363.687 C 698.526 366.501 697.065 368.574 696.228 369.906 C 695.39 371.238 694.971 372.871 694.971 374.805 C 694.971 377.984 696.432 379.574 699.354 379.574 C 702.361 379.574 707.066 376.76 713.469 371.131 L 713.469 375.063 C 702.598 387.137 694.82 393.174 690.137 393.174 C 688.461 393.174 687.269 392.626 686.56 391.53 C 685.851 390.435 685.496 388.813 685.496 386.664 C 685.496 383.27 686.721 378.35 689.17 371.904 C 682.896 378.865 678.234 383.817 675.184 386.761 C 672.133 389.704 669.619 391.176 667.643 391.176 C 666.697 391.176 665.516 390.359 664.098 388.727 C 662.68 387.094 661.423 384.978 660.327 382.378 C 659.231 379.778 658.684 377.082 658.684 374.289 C 658.684 372.27 658.877 370.583 659.264 369.23 C 659.65 367.876 660.402 366.49 661.52 365.072 C 662.637 363.654 664.42 361.785 666.869 359.465 Z M 697.742 352.375 C 686.57 357.488 678.61 361.828 673.862 365.395 C 669.114 368.961 666.74 372.635 666.74 376.416 C 666.74 377.791 666.977 378.919 667.449 379.8 C 667.922 380.681 668.566 381.121 669.383 381.121 C 669.855 381.121 670.693 380.82 671.897 380.219 C 676.408 377.555 680.533 374.085 684.272 369.81 C 688.01 365.534 692.5 359.723 697.742 352.375 Z M 712.115 376.416 L 712.115 371.904 C 718.131 365.373 723.319 359.229 727.681 353.471 C 732.042 347.713 735.49 343.137 738.025 339.742 C 740.561 336.348 742.795 333.952 744.729 332.556 C 746.662 331.159 749.09 330.461 752.012 330.461 C 753.473 330.461 754.203 331.02 754.203 332.137 C 754.203 333.039 753.612 334.371 752.431 336.133 C 751.249 337.895 749.734 339.699 747.887 341.547 C 745.438 343.953 743.042 346.972 740.7 350.603 C 738.358 354.233 735.705 358.863 732.74 364.492 C 735.061 362.688 737.735 360.55 740.765 358.079 C 743.794 355.608 746.265 353.675 748.177 352.278 C 750.089 350.882 751.98 349.775 753.849 348.959 C 755.718 348.143 757.598 347.734 759.488 347.734 C 760.691 347.734 761.476 347.949 761.841 348.379 C 762.206 348.809 762.389 349.647 762.389 350.893 C 762.389 354.158 761.594 357.349 760.004 360.464 C 758.414 363.579 756.137 366.813 753.172 370.164 C 750.207 373.516 746.555 377.168 742.215 381.121 C 743.719 381.68 745.266 381.959 746.856 381.959 C 751.84 381.959 758.522 378.156 766.9 370.551 L 766.9 375.191 C 763.635 378.113 760.444 380.863 757.329 383.441 C 754.214 386.02 751.281 388.082 748.531 389.629 C 745.781 391.176 743.246 391.949 740.926 391.949 C 740.066 391.949 739.153 391.853 738.187 391.659 C 737.22 391.466 736.328 391.23 735.512 390.95 C 734.695 390.671 733.643 390.273 732.354 389.758 C 731.065 389.242 730.076 388.877 729.389 388.662 C 728.014 389.006 727.24 389.178 727.068 389.178 C 725.564 389.178 723.803 388.576 721.783 387.373 C 720.365 390.123 718.808 393.679 717.11 398.04 C 715.413 402.401 713.984 405.871 712.824 408.449 C 711.664 411.027 710.117 413.498 708.184 415.861 C 707.109 416.936 706.357 417.473 705.928 417.473 C 704.08 417.473 703.156 415.84 703.156 412.574 C 703.156 409.738 703.726 406.784 704.864 403.712 C 706.003 400.64 707.399 397.729 709.054 394.979 C 710.708 392.229 712.523 389.446 714.5 386.632 C 716.477 383.817 717.873 381.723 718.69 380.348 C 725.479 368.66 730.764 358.713 734.545 350.506 C 724.662 362.537 717.186 371.174 712.115 376.416 Z M 738.283 379.574 C 742.537 375.106 745.706 371.303 747.79 368.166 C 749.874 365.029 750.916 362.623 750.916 360.947 C 750.916 359.357 750.121 358.563 748.531 358.563 C 746.383 358.563 743.364 360.335 739.476 363.88 C 735.587 367.425 731.58 372.205 727.455 378.221 C 730.635 377.877 732.762 377.759 733.836 377.866 C 734.91 377.974 736.393 378.543 738.283 379.574 Z M 796.162 373.516 L 784.69 383.248 C 779.232 388.018 775.58 390.402 773.732 390.402 C 772.057 390.402 770.295 388.48 768.447 384.634 C 766.6 380.788 765.676 377.426 765.676 374.547 C 765.676 372.098 766.052 370.024 766.804 368.327 C 767.556 366.63 768.855 364.428 770.703 361.721 C 773.324 358.068 775.838 354.975 778.244 352.44 C 780.65 349.904 782.777 347.939 784.625 346.542 C 786.473 345.146 787.762 344.447 788.492 344.447 C 789.652 344.447 790.78 345.049 791.876 346.252 C 792.972 347.455 793.52 348.701 793.52 349.99 C 793.52 350.807 792.929 352.117 791.747 353.922 C 790.565 355.727 788.696 358.015 786.14 360.786 C 783.583 363.558 780.027 366.877 775.473 370.744 L 774.248 374.289 C 773.904 374.977 773.732 375.578 773.732 376.094 C 773.732 377.254 774.313 377.834 775.473 377.834 C 776.676 377.834 779.501 376.309 783.948 373.258 C 788.396 370.207 793.219 366.104 798.418 360.947 C 800.437 358.928 802.113 357.145 803.445 355.598 C 804.777 354.051 805.98 352.601 807.055 351.247 C 808.129 349.894 809.021 348.873 809.73 348.186 C 810.439 347.498 811.072 347.133 811.631 347.09 C 812.705 346.961 813.543 347.412 814.145 348.443 C 814.746 349.475 815.047 351 815.047 353.02 C 815.047 354.18 814.531 355.63 813.5 357.37 C 812.469 359.11 810.535 362.075 807.699 366.265 C 804.863 370.454 802.038 374.794 799.224 379.284 C 796.409 383.774 793.541 388.834 790.619 394.463 C 790.748 394.334 792.069 393.045 794.583 390.596 C 797.097 388.147 799.75 385.59 802.543 382.926 C 805.336 380.262 807.635 378.124 809.44 376.513 C 811.244 374.901 813.5 373.022 816.207 370.873 L 816.207 375.191 C 810.406 381.422 805.153 387.33 800.448 392.916 C 795.743 398.502 792.112 402.971 789.556 406.322 C 786.999 409.674 785.506 411.629 785.076 412.188 C 783.916 413.691 782.874 415.099 781.95 416.409 C 781.026 417.72 780.253 418.73 779.63 419.439 C 779.007 420.147 778.502 420.502 778.115 420.502 C 777.213 420.502 776.407 419.61 775.698 417.827 C 774.989 416.044 774.635 414.465 774.635 413.09 C 774.635 411.844 774.871 410.748 775.344 409.803 C 778.438 402.842 785.377 390.746 796.162 373.516 Z"/>
</g>
</svg>