<svg xmlns="http://www.w3.org/2000/svg" viewBox="0 0 512 512" role="img" aria-labelledby="title desc">
  <title id="title">Rahma Therapy logo mark</title>
  <desc id="desc">Vector logo asset for Rahma Therapy. No raster image is embedded.</desc>
  <rect width="512" height="512" rx="112" fill="none"/>
<path fill="#F5A400" fill-rule="evenodd" d="M 334.477 386.607 L 272.906 386.607 C 259.277 365.231 246.963 346.754 235.963 331.178 C 224.963 315.602 213.024 299.542 200.145 282.999 L 176.728 282.999 L 176.728 355.509 C 176.728 359.269 177.318 362.572 178.5 365.419 C 179.682 368.265 182.206 370.44 186.073 371.944 C 188.007 372.696 191.391 373.395 196.225 374.039 C 201.059 374.684 205.141 375.06 208.471 375.167 L 208.471 386.607 L 111.791 386.607 L 111.791 375.167 C 114.369 374.952 118.102 374.576 122.99 374.039 C 127.877 373.502 131.288 372.804 133.222 371.944 C 136.444 370.548 138.781 368.507 140.231 365.821 C 141.681 363.136 142.406 359.698 142.406 355.509 L 142.406 190.187 C 142.406 186.427 141.869 183.097 140.795 180.196 C 139.721 177.296 137.196 175.094 133.222 173.59 C 130.536 172.623 127.045 171.737 122.748 170.931 C 118.451 170.126 114.799 169.615 111.791 169.4 L 111.791 157.96 L 217.333 157.96 C 227.001 157.96 236.078 158.954 244.565 160.941 C 253.051 162.928 260.731 166.124 267.606 170.528 C 274.267 174.825 279.584 180.438 283.559 187.367 C 287.533 194.295 289.521 202.648 289.521 212.423 C 289.521 221.231 288.178 229.02 285.492 235.787 C 282.807 242.555 278.832 248.409 273.568 253.351 C 268.734 257.97 262.934 261.971 256.166 265.355 C 249.398 268.739 241.933 271.612 233.769 273.976 C 245.048 288.907 254.42 301.476 261.886 311.681 C 269.352 321.886 278.51 334.293 289.359 348.902 C 294.086 355.348 298.356 360.101 302.169 363.163 C 305.983 366.224 309.77 368.722 313.529 370.655 C 316.322 372.052 319.814 373.126 324.003 373.878 C 328.192 374.63 331.684 375.06 334.477 375.167 Z M 249.721 216.217 C 249.721 202.381 245.746 191.415 237.797 183.318 C 229.848 175.221 218.622 171.173 204.12 171.173 L 176.728 171.173 L 176.728 269.142 L 197.836 269.142 C 212.66 269.142 225.014 264.396 234.897 254.905 C 244.779 245.414 249.721 232.518 249.721 216.217 Z"/>
<path d="M 134 373 C 203 322 276 315 382 343 C 336 351 287 371 232 418 C 201 401 170 386 134 373 Z" fill="#0878B8" opacity="0.95"/>
</svg>