<svg width="190" height="96" viewBox="0 0 190 96" fill="none" xmlns="http://www.w3.org/2000/svg">
<g clip-path="url(#clip0_10237_9353)">
<path d="M37.2821 3.45899C36.4098 2.88376 35.7544 3.02647 35.2306 2.64226C34.9237 2.40294 34.9237 1.92212 35.0114 1.77722C35.1867 1.5379 38.2422 2.01653 41.7798 2.01653C45.3175 2.01653 48.3313 1.53571 48.5045 1.77722C48.5921 1.91993 48.5483 2.40075 48.2853 2.64226C47.7176 3.02647 47.1937 2.88376 46.3652 3.45899C45.7537 3.89151 45.449 4.42063 45.449 5.8609V31.3224C45.449 32.7627 45.7537 33.2918 46.3652 33.7244C47.1959 34.2996 47.7198 34.1569 48.2853 34.5411C48.5483 34.7804 48.5921 35.2612 48.5045 35.4061C48.3291 35.6454 45.3175 35.1668 41.7798 35.1668C38.2422 35.1668 35.1867 35.6476 35.0114 35.4061C34.9237 35.2634 34.9237 34.7826 35.2306 34.5411C35.7544 34.1086 36.4098 34.2535 37.2821 33.7244C37.8498 33.2918 38.1983 32.7627 38.1983 31.3224V5.8609C38.1983 4.42063 37.8498 3.88932 37.2821 3.45899Z" fill="white"/>
<path d="M60.6013 31.323C60.6013 32.7633 60.906 33.2924 61.5175 33.7249C62.3483 34.254 62.8721 34.1091 63.4376 34.5416C63.7006 34.7809 63.7445 35.2618 63.6568 35.4067C63.4814 35.646 60.4698 35.1674 56.9322 35.1674C53.3945 35.1674 50.3391 35.6482 50.1637 35.4067C50.076 35.264 50.076 34.7831 50.3829 34.5416C50.9068 34.1574 51.5621 34.3001 52.4345 33.7249C53.0022 33.2924 53.3507 32.7633 53.3507 31.323V5.86145C53.3945 4.42118 53.046 3.88986 52.4345 3.45954C51.6038 2.88431 51.0361 3.02702 50.5122 2.6428C50.2076 2.40349 50.1637 1.92267 50.293 1.77776C50.4684 1.53845 52.9561 2.01707 56.4938 2.01707C60.0315 2.01707 62.4776 1.77776 66.1007 1.77776C73.4807 1.77776 76.4507 6.58158 76.4507 11.1461C76.4507 17.8732 71.2976 22.3389 64.79 22.3894C63.3477 22.3894 61.8639 22.0535 60.597 21.5243V31.3252L60.6013 31.323ZM60.6013 19.8426C61.6052 20.3717 62.8283 20.7076 64.0513 20.7076C65.2744 20.7076 66.1906 20.4661 67.1528 19.6977C69.2482 18.0159 70.0351 12.9245 67.9835 8.07015C66.8481 5.38062 64.882 3.45734 62.962 3.45734C61.4343 3.45734 60.6474 4.13137 60.6474 6.62768L60.6035 19.8404L60.6013 19.8426Z" fill="white"/>
<path d="M99.3775 3.45899C98.5468 2.88376 97.8936 3.02647 97.3675 2.64226C97.0629 2.40294 97.019 1.92212 97.1484 1.77722C97.3237 1.5379 100.335 2.01653 103.873 2.01653C107.411 2.01653 110.424 1.53571 110.598 1.77722C110.729 1.91993 110.685 2.40075 110.378 2.64226C109.855 3.02647 109.331 2.88376 108.5 3.45899C107.888 3.89151 107.54 4.42063 107.54 5.8609V31.3224C107.54 32.7627 107.891 33.2918 108.5 33.7244C109.331 34.2996 109.855 34.1569 110.378 34.5411C110.685 34.7804 110.729 35.2612 110.598 35.4061C110.422 35.6454 107.411 35.1668 103.873 35.1668C100.335 35.1668 97.3215 35.6476 97.1484 35.4061C97.0169 35.2634 97.0607 34.7826 97.3675 34.5411C97.8914 34.1086 98.5468 34.2535 99.3775 33.7244C99.989 33.2918 100.294 32.7627 100.294 31.3224V19.0714H87.4099V31.3224C87.4099 32.7627 87.7146 33.2918 88.3261 33.7244C89.1569 34.2996 89.6807 34.1569 90.2462 34.5411C90.5092 34.7804 90.5531 35.2612 90.4654 35.4061C90.29 35.6454 87.2784 35.1668 83.7408 35.1668C80.2031 35.1668 77.1477 35.6476 76.9723 35.4061C76.8846 35.2634 76.8846 34.7826 77.1915 34.5411C77.7154 34.1086 78.3707 34.2535 79.2431 33.7244C79.8108 33.2918 80.1593 32.7627 80.1593 31.3224V5.8609C80.1593 4.42063 79.8108 3.88932 79.2431 3.45899C78.3707 2.88376 77.7154 3.02647 77.1915 2.64226C76.8846 2.40294 76.8846 1.92212 76.9723 1.77722C77.1477 1.5379 80.2031 2.01653 83.7408 2.01653C87.2784 2.01653 90.2922 1.53571 90.4654 1.77722C90.5531 1.91993 90.5092 2.40075 90.2462 2.64226C89.6785 3.02647 89.1547 2.88376 88.3261 3.45899C87.7146 3.89151 87.4099 4.42063 87.4099 5.8609V17.4401H100.294V5.8609C100.294 4.42063 99.989 3.88932 99.3775 3.45899Z" fill="white"/>
<path d="M120.029 7.97553L117.41 31.325C117.235 32.9101 117.542 33.391 118.197 33.7269C119.157 34.2077 120.687 34.1594 121.255 34.5436C121.515 34.7829 121.559 35.2637 121.474 35.4087C121.299 35.648 119.639 35.2154 116.365 35.2154C113.09 35.2154 111.387 35.648 111.212 35.4087C111.124 35.2659 111.124 34.7851 111.431 34.5436C111.955 34.1594 113.265 34.2077 114.357 33.5337C115.1 33.0529 115.624 32.2361 115.755 30.7958L118.857 5.0928C118.552 4.56367 118.158 4.08285 117.721 3.70083C116.498 2.73919 115.843 3.02681 115.275 2.59648C115.012 2.40328 114.968 1.92245 115.056 1.77975C115.231 1.54043 116.978 1.97295 120.253 1.97295C122.436 1.97295 123.922 1.73144 124.751 1.73144C125.143 1.73144 125.406 1.77975 125.45 1.97295L133.748 24.8899L142.564 1.96856C142.652 1.72705 142.912 1.63264 143.307 1.63264C144.138 1.63264 145.578 1.96856 147.805 1.96856C151.035 1.96856 152.782 1.53604 152.958 1.77535C153.089 1.91806 153.089 2.39888 152.782 2.64039C152.215 3.02461 150.948 3.21782 150.163 3.65034C149.595 3.98625 148.984 4.70638 149.115 6.14885L151.169 31.3228C151.257 32.763 151.474 33.2922 152.085 33.7247C152.916 34.2999 153.44 34.1572 154.005 34.5414C154.268 34.7807 154.312 35.2616 154.225 35.4065C154.049 35.6458 151.038 35.1671 147.5 35.1671C143.962 35.1671 140.907 35.648 140.732 35.4065C140.6 35.2637 140.644 34.7829 140.951 34.5414C141.475 34.1572 142.218 34.2538 143.002 33.773C143.438 33.4371 143.875 33.0528 143.745 31.6104L141.867 8.50245L131.298 35.4065H129.639L120.032 7.97333L120.029 7.97553Z" fill="white"/>
<path d="M53.1969 51.9086H49.9639L49.5211 53.0415H47.7852L51.3184 44.1891H51.8576L55.3777 53.0415H53.6418L53.199 51.9086H53.1969ZM51.5815 47.522L50.5403 50.4464H52.6226L51.5815 47.522Z" fill="white"/>
<path d="M62.1835 44.7622C62.7951 45.1442 63.2751 45.6733 63.6258 46.3495L62.4049 47.298C61.846 46.3232 61.092 45.8358 60.1429 45.8358C59.3999 45.8358 58.7905 46.1036 58.3105 46.6393C57.8305 47.175 57.5916 47.8644 57.5916 48.7075C57.5916 49.5506 57.8305 50.2246 58.3105 50.7559C58.7905 51.2873 59.3999 51.5529 60.1429 51.5529C61.092 51.5529 61.8482 51.0655 62.4049 50.0907L63.6258 51.0392C63.2817 51.7154 62.8038 52.2445 62.1879 52.6265C61.5742 53.0086 60.886 53.1996 60.1276 53.1996C58.9462 53.1996 57.9511 52.767 57.1401 51.902C56.3291 51.037 55.9258 49.9677 55.9258 48.6943C55.9258 47.4209 56.3335 46.3517 57.1466 45.4867C57.9598 44.6216 58.9593 44.1891 60.1407 44.1891C60.8903 44.1891 61.572 44.3801 62.1813 44.7622H62.1835Z" fill="white"/>
<path d="M70.8652 44.7622C71.4767 45.1442 71.9567 45.6733 72.3074 46.3495L71.0866 47.298C70.5276 46.3232 69.7736 45.8358 68.8246 45.8358C68.0815 45.8358 67.4722 46.1036 66.9922 46.6393C66.5121 47.175 66.2732 47.8644 66.2732 48.7075C66.2732 49.5506 66.5121 50.2246 66.9922 50.7559C67.4722 51.2873 68.0815 51.5529 68.8246 51.5529C69.7736 51.5529 70.5298 51.0655 71.0866 50.0907L72.3074 51.0392C71.9633 51.7154 71.4855 52.2445 70.8696 52.6265C70.2558 53.0086 69.5676 53.1996 68.8092 53.1996C67.6278 53.1996 66.6327 52.767 65.8217 51.902C65.0107 51.037 64.6074 49.9677 64.6074 48.6943C64.6074 47.4209 65.0151 46.3517 65.8283 45.4867C66.6415 44.6216 67.641 44.1891 68.8224 44.1891C69.572 44.1891 70.2536 44.3801 70.863 44.7622H70.8652Z" fill="white"/>
<path d="M78.6553 53.041L76.6081 49.9717H75.4223V53.041H73.8047V44.3467H76.7747C77.6119 44.3467 78.298 44.6036 78.8284 45.1173C79.3588 45.6311 79.6241 46.3095 79.6241 47.1526C79.6241 47.7059 79.5013 48.1955 79.2536 48.6214C79.006 49.0473 78.6662 49.3789 78.2366 49.616L80.4767 53.041H78.6575H78.6553ZM75.4223 48.404H76.7747C77.1495 48.404 77.4432 48.2899 77.6536 48.0615C77.8662 47.8332 77.9714 47.5302 77.9714 47.1526C77.9714 46.775 77.864 46.4852 77.647 46.2568C77.4322 46.0285 77.1407 45.9143 76.7725 45.9143H75.4201V48.404H75.4223Z" fill="white"/>
<path d="M86.9051 45.9538H83.2052V47.719H85.9231V49.234H83.2052V51.4339H87.0498V53.041H81.5898V44.3467H86.9051V45.9538Z" fill="white"/>
<path d="M94.2704 45.5323C95.0682 46.3227 95.4671 47.3678 95.4671 48.6675C95.4671 49.9673 95.066 50.9992 94.2638 51.8159C93.4616 52.6326 92.4248 53.041 91.1557 53.041H88.5693V44.3467H91.1557C92.4336 44.3467 93.4703 44.7419 94.2682 45.5323H94.2704ZM90.1891 45.9538V51.4339H91.147C91.9448 51.4339 92.587 51.1814 93.0736 50.6764C93.5602 50.1714 93.8035 49.5018 93.8035 48.6675C93.8035 47.8332 93.5624 47.1614 93.078 46.6784C92.5958 46.1953 91.9514 45.9538 91.1448 45.9538H90.1869H90.1891Z" fill="white"/>
<path d="M98.5707 53.041H96.9531V44.3467H98.5707V53.041Z" fill="white"/>
<path d="M106.437 45.9538H103.898V53.041H102.283V45.9538H99.7559V44.3467H106.437V45.9538Z" fill="white"/>
<path d="M111.382 51.9086H108.149L107.707 53.0415H105.971L109.502 44.1891H110.041L113.561 53.0415H111.825L111.382 51.9086ZM109.767 47.5219L108.726 50.4464H110.808L109.767 47.5219Z" fill="white"/>
<path d="M119.801 45.9538H117.263V53.041H115.647V45.9538H113.12V44.3467H119.801V45.9538Z" fill="white"/>
<path d="M122.604 53.041H120.986V44.3467H122.604V53.041Z" fill="white"/>
<path d="M131.249 45.4867C132.071 46.3517 132.483 47.4209 132.483 48.6943C132.483 49.9677 132.071 51.037 131.249 51.902C130.427 52.767 129.434 53.1996 128.268 53.1996C127.102 53.1996 126.113 52.767 125.298 51.902C124.485 51.037 124.077 49.9677 124.077 48.6943C124.077 47.4209 124.485 46.3517 125.298 45.4867C126.111 44.6216 127.102 44.1891 128.268 44.1891C129.434 44.1891 130.427 44.6216 131.249 45.4867ZM126.46 46.6393C125.982 47.175 125.741 47.86 125.741 48.6943C125.741 49.5286 125.977 50.2246 126.453 50.7559C126.929 51.2873 127.536 51.5529 128.279 51.5529C129.022 51.5529 129.609 51.2851 130.094 50.7494C130.576 50.2136 130.819 49.5286 130.819 48.6943C130.819 47.86 130.578 47.175 130.094 46.6393C129.612 46.1036 129.007 45.8358 128.279 45.8358C127.551 45.8358 126.938 46.1036 126.46 46.6393Z" fill="white"/>
<path d="M140.698 44.3472V53.1996H140.159L135.584 47.8249V53.0415H133.967V44.1891H134.493L139.078 49.5243V44.3472H140.694H140.698Z" fill="white"/>
<path d="M91.3479 87.7717C93.3645 89.7916 94.6138 92.5843 94.6138 95.6734C88.4503 95.6734 83.4551 90.6698 83.4551 84.5004C86.5346 84.5004 89.3249 85.7518 91.3479 87.7717Z" fill="white"/>
<path d="M102.503 92.3998C100.486 94.4196 97.6938 95.6711 94.6143 95.6711C94.6143 89.4973 99.6095 84.498 105.769 84.498C105.769 87.5828 104.519 90.3777 102.503 92.3998Z" fill="white"/>
<path d="M94.6114 84.5007C97.2116 84.5007 99.3195 82.3893 99.3195 79.7847C99.3195 77.1802 97.2116 75.0688 94.6114 75.0688C92.0112 75.0688 89.9033 77.1802 89.9033 79.7847C89.9033 82.3893 92.0112 84.5007 94.6114 84.5007Z" fill="white"/>
<path d="M71.9087 84.9117C69.7191 84.8831 65.8439 83.9259 62.3194 82.659C57.6836 83.7546 52.7979 84.3979 47.7413 84.534C44.9533 84.6131 41.9417 84.1323 38.9827 83.0213C36.0324 81.9323 33.1063 80.1342 33.1019 78.38C33.1019 76.8343 35.3946 76.8146 37.7465 77.0407C40.4446 77.3063 43.2261 77.9584 45.9922 78.8674C50.674 80.4042 55.4457 81.4559 60.2261 82.018C55.1038 80.3537 50.2247 78.1275 45.6634 75.416C40.8348 75.3523 35.8439 74.7705 30.7917 73.6223C28.0847 73.0097 25.2923 71.8 22.7015 69.993C20.1152 68.2081 17.7216 65.7403 18.1534 64.0388C18.5348 62.5436 20.7661 63.0991 22.9953 63.9005C25.5466 64.8314 28.0804 66.1553 30.5265 67.7141C34.9672 70.5485 39.6183 72.8604 44.3812 74.6388C39.695 71.7209 35.3639 68.2805 31.4668 64.4054C26.6798 63.143 21.8423 61.3031 17.086 58.8507C14.607 57.5729 12.1894 55.6936 10.1159 53.2741C8.04021 50.881 6.3218 47.8511 7.15909 46.2989C7.89774 44.9355 9.93398 46.0596 11.9001 47.4142C14.1533 48.9796 16.2926 50.9139 18.2893 53.048C22.1514 57.1865 26.3904 60.7806 30.8706 63.8017C26.8661 59.7268 23.3372 55.1864 20.3738 50.2684C15.9046 47.7897 11.5318 44.6874 7.40896 40.944C5.31574 39.0427 3.43512 36.5639 2.03233 33.6241C0.618587 30.7107 -0.275691 27.2417 0.932023 25.9222C1.99288 24.763 3.67404 26.4294 5.23683 28.3C7.02319 30.4516 8.6101 32.9347 10.0151 35.5628C12.9061 40.9704 16.3824 45.8334 20.2708 50.0994C17.0707 44.7554 14.5391 38.9746 12.7944 32.8689C10.6924 28.2626 9.03751 23.3029 7.9372 18.0359C7.25991 14.815 7.18539 11.3395 7.79692 7.98035C8.38653 4.62558 9.73452 1.36083 11.4398 1.65064C12.9434 1.90312 13.3401 4.67169 13.5834 7.39634C13.8486 10.5228 13.8004 13.6316 13.5001 16.6724C12.985 21.8253 13.0464 27.0112 13.6755 32.1465C14.767 36.0568 16.183 39.8375 17.897 43.4513C16.5709 38.0635 15.9024 32.5988 15.8849 27.1802C15.8739 24.4666 16.4613 21.8385 17.5836 19.6474C18.5633 17.7153 19.9332 16.1872 21.1935 16.8635C22.6183 17.6231 22.5393 20.1655 22.3048 22.5982C22.0528 25.0418 21.5486 27.4239 20.8319 29.7161C19.4357 34.1686 18.5041 38.9351 18.1206 43.919C20.547 48.9423 23.5454 53.6429 27.0305 57.9374C24.6501 53.3509 22.8199 48.5932 21.5421 43.7762C20.8582 41.2053 20.7727 38.5772 21.3075 36.2324C21.77 34.1664 22.7081 32.3836 24.0956 32.6866C25.6649 33.0269 26.2239 35.4223 26.6031 37.7803C26.9691 40.1514 27.0743 42.5402 26.9472 44.9113C26.7061 49.388 26.9603 54.0623 27.7647 58.8288C31.1796 62.9037 35.0373 66.5944 39.2632 69.824C36.0916 66.1706 33.3671 62.2714 31.1007 58.2228C29.8075 55.9109 29.0755 53.408 29.0141 51.0171C28.9505 48.9182 29.4174 46.9729 30.8311 46.9071C32.429 46.8302 33.56 48.984 34.5069 51.1598C35.4472 53.3487 36.1376 55.6321 36.6023 57.9594C37.4549 62.2297 38.8073 66.579 40.7011 70.8954C44.8349 73.8967 49.2997 76.4677 54.0232 78.5358C50.308 75.9166 46.9413 72.9921 43.9472 69.8481C42.1082 67.9227 40.7756 65.67 40.1202 63.3669C39.535 61.3427 39.5021 59.3425 40.8545 58.9276C42.38 58.4533 44.0108 60.2647 45.4749 62.144C46.9347 64.0388 48.1797 66.0894 49.2252 68.2388C49.2427 68.2761 49.2625 68.3157 49.28 68.353C53.0062 75.9934 60.1253 81.4208 68.45 83.0916C69.2106 83.2431 69.9755 83.3836 70.747 83.5131C66.7118 81.9894 62.944 80.1232 59.4612 77.9848C57.151 76.5709 55.2638 74.7112 54.032 72.6343C52.9382 70.8098 52.3968 68.8711 53.6089 68.1334C54.9723 67.2991 57.0282 68.656 58.9527 70.1226C60.8727 71.6046 62.6328 73.2863 64.2285 75.1108C66.6724 77.9101 69.4867 80.5777 72.6715 83.0301C73.0485 83.3221 73.4299 83.6097 73.8156 83.8929L73.9143 83.9654L75.1636 84.9095H71.9153L71.9087 84.9117Z" fill="white"/>
<path d="M117.731 84.9112C119.921 84.8827 123.796 83.9254 127.321 82.6586C131.957 83.7542 136.842 84.3975 141.899 84.5336C144.687 84.6126 147.699 84.1318 150.658 83.0209C153.608 81.9319 156.534 80.1337 156.538 78.3795C156.538 76.8339 154.246 76.8141 151.894 77.0402C149.196 77.3059 146.414 77.958 143.648 78.8669C138.966 80.4038 134.195 81.4555 129.414 82.0175C134.536 80.3533 139.416 78.127 143.977 75.4156C148.805 75.3519 153.796 74.7701 158.849 73.6218C161.555 73.0093 164.348 71.7995 166.939 69.9926C169.525 68.2076 171.919 65.7399 171.487 64.0383C171.105 62.5432 168.874 63.0986 166.645 63.9C164.094 64.8309 161.56 66.1548 159.114 67.7136C154.673 70.5481 150.022 72.86 145.259 74.6383C149.945 71.7205 154.276 68.2801 158.173 64.405C162.96 63.1425 167.798 61.3027 172.554 58.8503C175.033 57.5725 177.451 55.6931 179.524 53.2736C181.6 50.8805 183.318 47.8507 182.481 46.2985C181.742 44.935 179.706 46.0591 177.74 47.4138C175.487 48.9792 173.348 50.9135 171.351 53.0475C167.489 57.1861 163.25 60.7802 158.77 63.8012C162.774 59.7263 166.303 55.186 169.266 50.268C173.736 47.7892 178.108 44.6869 182.231 40.9436C184.324 39.0422 186.205 36.5635 187.608 33.6237C189.022 30.7102 189.916 27.2413 188.708 25.9218C187.647 24.7625 185.966 26.4289 184.403 28.2995C182.617 30.4511 181.03 32.9343 179.625 35.5623C176.734 40.9699 173.258 45.833 169.369 50.0989C172.57 44.755 175.101 38.9742 176.846 32.8684C178.948 28.2622 180.603 23.3025 181.703 18.0354C182.38 14.8146 182.455 11.3391 181.843 7.9799C181.254 4.62733 179.906 1.36257 178.2 1.65458C176.697 1.90707 176.3 4.67563 176.057 7.40028C175.792 10.5267 175.84 13.6356 176.14 16.6764C176.655 21.8293 176.594 27.0151 175.965 32.1505C174.873 36.0607 173.457 39.8414 171.743 43.4552C173.069 38.0674 173.738 32.6027 173.755 27.1842C173.766 24.4705 173.179 21.8425 172.057 19.6513C171.077 17.7193 169.707 16.1912 168.447 16.8674C167.022 17.627 167.101 20.1695 167.335 22.6021C167.587 25.0457 168.092 27.4279 168.808 29.72C170.205 34.1725 171.136 38.939 171.52 43.9229C169.093 48.9463 166.095 53.6469 162.61 57.9413C164.99 53.3549 166.82 48.5972 168.098 43.7802C168.782 41.2092 168.867 38.5812 168.333 36.2363C167.87 34.1704 166.932 32.3876 165.545 32.6906C163.975 33.0309 163.416 35.4262 163.037 37.7842C162.671 40.1554 162.566 42.5441 162.693 44.9153C162.934 49.392 162.68 54.0662 161.875 58.8327C158.461 62.9076 154.603 66.5983 150.377 69.8279C153.549 66.1746 156.273 62.2753 158.539 58.2268C159.833 55.9149 160.565 53.412 160.626 51.021C160.69 48.9221 160.223 46.9769 158.809 46.911C157.211 46.8342 156.08 48.988 155.133 51.1637C154.193 53.3527 153.503 55.636 153.038 57.9633C152.185 62.2336 150.833 66.5829 148.939 70.8993C144.805 73.9006 140.34 76.4716 135.617 78.5398C139.332 75.9205 142.699 72.9961 145.693 69.8521C147.532 67.9266 148.865 65.674 149.52 63.3709C150.105 61.3466 150.138 59.3465 148.786 58.9315C147.26 58.4573 145.629 60.2686 144.165 62.148C142.705 64.0427 141.461 66.0933 140.415 68.2428C140.397 68.2801 140.378 68.3196 140.36 68.3569C136.634 75.9974 129.515 81.4247 121.19 83.0955C120.43 83.247 119.665 83.3875 118.893 83.517C122.928 81.9934 126.696 80.1272 130.179 77.9887C132.489 76.5748 134.376 74.7152 135.608 72.6382C136.702 70.8137 137.243 68.8751 136.031 68.1374C134.668 67.3031 132.612 68.6599 130.688 70.1265C128.767 71.6085 127.007 73.2903 125.412 75.1148C122.968 77.9141 120.153 80.5816 116.969 83.034C116.592 83.326 116.21 83.6137 115.825 83.8969L115.726 83.9693L114.477 84.9134H117.725L117.731 84.9112Z" fill="white"/>
<path d="M80.8864 61.6588V63.7819H80.9807C81.2809 63.7819 81.5001 63.6787 81.6338 63.4701C81.7675 63.2615 81.8552 62.9563 81.8925 62.5502H82.0262V65.2814H81.8925C81.864 64.985 81.8048 64.7413 81.7149 64.5503C81.6251 64.3615 81.522 64.2341 81.4015 64.1683C81.2831 64.1024 81.11 64.0717 80.8842 64.0717V65.5405C80.8842 65.8281 80.8952 66.0037 80.9171 66.0674C80.939 66.1311 80.9807 66.1838 81.042 66.2255C81.1034 66.2672 81.1998 66.2892 81.3357 66.2892H81.6185C82.0612 66.2892 82.4163 66.175 82.6837 65.9489C82.9511 65.7249 83.1418 65.3802 83.2602 64.9191H83.3895L83.1769 66.5768H79.0781V66.4341H79.2359C79.374 66.4341 79.4836 66.4077 79.5669 66.3528C79.6283 66.3177 79.6743 66.2562 79.7072 66.1684C79.7335 66.1069 79.7466 65.9445 79.7466 65.6832V62.2538C79.7466 62.0189 79.7401 61.8718 79.7291 61.8191C79.7072 61.729 79.6634 61.661 79.5998 61.6105C79.5121 61.538 79.3894 61.5029 79.2359 61.5029H79.0781V61.3602H83.0476V62.9037H82.9139C82.8459 62.526 82.7517 62.256 82.6289 62.0913C82.5062 61.9266 82.333 61.8059 82.1095 61.729C81.9801 61.6829 81.7347 61.6588 81.3752 61.6588H80.8864Z" fill="white"/>
<path d="M87.1462 61.2373L87.1856 62.9761H87.0432C86.9752 62.5414 86.8086 62.1901 86.5456 61.9245C86.2826 61.6588 85.9955 61.5271 85.6864 61.5271C85.4475 61.5271 85.2612 61.5973 85.1231 61.7356C84.985 61.874 84.9149 62.0364 84.9149 62.2187C84.9149 62.3328 84.939 62.4382 84.9872 62.526C85.0551 62.6446 85.1647 62.7653 85.3138 62.8839C85.4234 62.9695 85.6754 63.1188 86.0722 63.334C86.6267 63.6348 87.0015 63.918 87.1944 64.1837C87.3851 64.4515 87.4815 64.7567 87.4815 65.0992C87.4815 65.5339 87.3259 65.9115 87.0169 66.2255C86.7078 66.5395 86.3155 66.6953 85.8398 66.6953C85.6908 66.6953 85.5505 66.68 85.4168 66.6448C85.2831 66.6119 85.1187 66.5482 84.9171 66.4582C84.8053 66.4055 84.7132 66.3814 84.6409 66.3814C84.5795 66.3814 84.516 66.4055 84.448 66.4582C84.3801 66.5087 84.3253 66.5878 84.2836 66.6931H84.1543V64.7238H84.2836C84.3866 65.2792 84.5839 65.7008 84.8754 65.9906C85.1691 66.2826 85.4826 66.4275 85.8223 66.4275C86.0831 66.4275 86.2914 66.3484 86.447 66.1926C86.6026 66.0345 86.6793 65.8545 86.6793 65.6459C86.6793 65.5229 86.6486 65.4044 86.5894 65.288C86.5303 65.1716 86.4404 65.0641 86.3177 64.9587C86.1949 64.8555 85.9823 64.7194 85.6733 64.5525C85.2415 64.3176 84.9324 64.12 84.7439 63.9575C84.5554 63.7929 84.4107 63.6106 84.3077 63.4064C84.2069 63.2044 84.1565 62.9805 84.1565 62.7368C84.1565 62.3218 84.2946 61.9684 84.5729 61.6764C84.8491 61.3844 85.1998 61.2373 85.6206 61.2373C85.7741 61.2373 85.9231 61.257 86.0678 61.2987C86.1774 61.3295 86.3111 61.3866 86.4689 61.47C86.6267 61.5534 86.7363 61.5951 86.7999 61.5951C86.8634 61.5951 86.9095 61.5754 86.9445 61.5336C86.9796 61.4919 87.0125 61.3931 87.0432 61.2373H87.1484H87.1462Z" fill="white"/>
<path d="M92.3562 61.3579V62.7696H92.2291C92.1545 62.4447 92.0713 62.2098 91.9814 62.0671C91.8893 61.9265 91.7666 61.8124 91.6066 61.7267C91.5189 61.6806 91.3633 61.6565 91.1419 61.6565H90.789V65.6787C90.789 65.9465 90.8022 66.1134 90.8285 66.1793C90.8548 66.2473 90.9074 66.3044 90.9863 66.3549C91.0652 66.4054 91.1726 66.4296 91.3063 66.4296H91.4641V66.5723H88.9807V66.4296H89.1385C89.2766 66.4296 89.3862 66.4032 89.4695 66.3483C89.5309 66.3132 89.5769 66.2517 89.6142 66.1639C89.6405 66.1024 89.6536 65.94 89.6536 65.6787V61.6565H89.3117C88.9939 61.6565 88.7615 61.7311 88.6169 61.8804C88.4152 62.089 88.2859 62.3832 88.2333 62.7696H88.0996V61.3579H92.3584H92.3562Z" fill="white"/>
<path d="M93.0493 65.389C93.2115 65.389 93.3518 65.4527 93.4636 65.5756C93.5776 65.7008 93.6324 65.8545 93.6324 66.0301C93.6324 66.2058 93.5754 66.3572 93.4614 66.4824C93.3474 66.6075 93.2094 66.669 93.0493 66.669C92.8893 66.669 92.7513 66.6075 92.6395 66.4824C92.5255 66.3572 92.4707 66.208 92.4707 66.0301C92.4707 65.8523 92.5277 65.7008 92.6395 65.5756C92.7535 65.4505 92.8893 65.389 93.0493 65.389Z" fill="white"/>
<path d="M98.8439 66.5748H96.0537V66.4892C96.9085 65.3695 97.428 64.6142 97.6121 64.2278C97.794 63.8414 97.8861 63.4616 97.8861 63.0927C97.8861 62.8249 97.8094 62.6009 97.6582 62.4209C97.5069 62.243 97.3206 62.153 97.1014 62.153C96.742 62.153 96.4636 62.3506 96.2663 62.7458L96.137 62.6953C96.2619 62.2035 96.4526 61.8391 96.7091 61.6041C96.9655 61.3692 97.2614 61.2507 97.5968 61.2507C97.8379 61.2507 98.0549 61.3121 98.2543 61.4351C98.4538 61.558 98.6072 61.7271 98.719 61.9423C98.8308 62.1552 98.8878 62.355 98.8878 62.5438C98.8878 62.8841 98.8023 63.2332 98.6291 63.5823C98.3946 64.0566 97.8795 64.7174 97.0861 65.5671H98.1119C98.3639 65.5671 98.5261 65.5561 98.6028 65.532C98.6796 65.5078 98.7409 65.4705 98.7913 65.4134C98.8396 65.3585 98.9053 65.2443 98.9842 65.0665H99.1092L98.8439 66.5748Z" fill="white"/>
<path d="M102.849 63.966C102.849 64.4863 102.783 64.9715 102.649 65.4238C102.57 65.7004 102.463 65.9266 102.329 66.1044C102.195 66.28 102.042 66.4206 101.873 66.5237C101.702 66.6269 101.518 66.6796 101.317 66.6796C101.089 66.6796 100.883 66.616 100.698 66.4886C100.514 66.3613 100.35 66.1769 100.21 65.9375C100.107 65.7641 100.017 65.5314 99.9401 65.2416C99.8392 64.8486 99.791 64.4424 99.791 64.0252C99.791 63.4566 99.8633 62.9363 100.008 62.4642C100.126 62.0712 100.306 61.7704 100.549 61.5619C100.793 61.3533 101.049 61.2479 101.319 61.2479C101.588 61.2479 101.851 61.3511 102.09 61.5553C102.329 61.7638 102.505 62.0405 102.616 62.3896C102.772 62.8682 102.851 63.3929 102.851 63.9638L102.849 63.966ZM101.772 63.9572C101.772 63.0438 101.768 62.5125 101.759 62.3588C101.735 62.0032 101.68 61.7638 101.591 61.6365C101.531 61.5531 101.437 61.5114 101.308 61.5114C101.207 61.5114 101.128 61.5421 101.069 61.6036C100.983 61.6936 100.924 61.8517 100.894 62.0778C100.863 62.3039 100.847 63.0965 100.847 64.4534C100.847 65.1911 100.872 65.6873 100.918 65.9375C100.953 66.1198 101.003 66.2405 101.067 66.302C101.13 66.3635 101.218 66.3942 101.325 66.3942C101.441 66.3942 101.529 66.3525 101.588 66.2713C101.687 66.1264 101.742 65.9046 101.757 65.6038L101.77 63.9506L101.772 63.9572Z" fill="white"/>
<path d="M106.503 63.966C106.503 64.4863 106.437 64.9715 106.303 65.4238C106.225 65.7004 106.117 65.9266 105.983 66.1044C105.85 66.28 105.696 66.4206 105.528 66.5237C105.357 66.6269 105.173 66.6796 104.971 66.6796C104.743 66.6796 104.537 66.616 104.353 66.4886C104.169 66.3613 104.004 66.1769 103.864 65.9375C103.761 65.7641 103.671 65.5314 103.594 65.2416C103.494 64.8486 103.445 64.4424 103.445 64.0252C103.445 63.4566 103.518 62.9363 103.662 62.4642C103.781 62.0712 103.96 61.7704 104.204 61.5619C104.447 61.3533 104.703 61.2479 104.973 61.2479C105.243 61.2479 105.506 61.3511 105.745 61.5553C105.983 61.7638 106.159 62.0405 106.271 62.3896C106.426 62.8682 106.505 63.3929 106.505 63.9638L106.503 63.966ZM105.425 63.9572C105.425 63.0438 105.42 62.5125 105.411 62.3588C105.387 62.0032 105.333 61.7638 105.243 61.6365C105.183 61.5531 105.089 61.5114 104.96 61.5114C104.859 61.5114 104.78 61.5421 104.721 61.6036C104.635 61.6936 104.576 61.8517 104.546 62.0778C104.515 62.3039 104.5 63.0965 104.5 64.4534C104.5 65.1911 104.524 65.6873 104.57 65.9375C104.605 66.1198 104.655 66.2405 104.719 66.302C104.782 66.3635 104.87 66.3942 104.977 66.3942C105.094 66.3942 105.181 66.3525 105.24 66.2713C105.339 66.1264 105.394 65.9046 105.409 65.6038L105.422 63.9506L105.425 63.9572Z" fill="white"/>
<path d="M107.925 61.3579H110.146L109.793 62.3503H107.925L107.748 62.8684C108.552 62.9035 109.17 63.1231 109.604 63.5315C109.962 63.8674 110.139 64.2867 110.139 64.7873C110.139 65.1057 110.056 65.4218 109.889 65.727C109.725 66.0344 109.49 66.2693 109.19 66.434C108.89 66.5986 108.559 66.6799 108.202 66.6799C107.814 66.6799 107.518 66.6008 107.309 66.4427C107.165 66.3286 107.092 66.2012 107.092 66.0585C107.092 65.9487 107.13 65.8499 107.206 65.7665C107.283 65.6809 107.371 65.6414 107.472 65.6414C107.564 65.6414 107.654 65.6611 107.748 65.7028C107.84 65.7446 108 65.8499 108.226 66.0256C108.368 66.1332 108.491 66.2078 108.594 66.2495C108.666 66.2803 108.747 66.2956 108.839 66.2956C109.03 66.2956 109.192 66.221 109.326 66.0651C109.46 65.9092 109.528 65.7248 109.528 65.5096C109.528 65.0574 109.324 64.6929 108.912 64.4097C108.502 64.1265 107.985 63.9859 107.36 63.9859C107.296 63.9859 107.202 63.9859 107.077 63.9881L107.928 61.3579H107.925Z" fill="white"/>
</g>
<defs>
<clipPath id="clip0_10237_9353">
<rect width="189.639" height="96" fill="white"/>
</clipPath>
</defs>
</svg>
