<svg xmlns="http://www.w3.org/2000/svg" width="512" height="512" viewBox="0 0 512 512" role="img" aria-labelledby="title desc">
  <title id="title">Rahma Therapy vector trace favicon</title>
  <desc id="desc">Path-based R favicon traced from the supplied Rahma Therapy JPG.</desc>
  <defs>
    <linearGradient id="rahmaOrangeGradient" x1="0" y1="0" x2="1" y2="0">
      <stop offset="0" stop-color="#f7931e"/>
      <stop offset="0.55" stop-color="#ffbd18"/>
      <stop offset="1" stop-color="#f7931e"/>
    </linearGradient>
  </defs>
  <path d="M64 66 L65 66 L65 68 L66 68 L66 69 L65 69 L65 70 L210 70 L210 71 L227 71 L227 72 L234 72 L234 73 L239 73 L239 74 L240 74 L240 75 L243 75 L243 76 L246 76 L246 77 L250 77 L250 78 L252 78 L252 79 L255 79 L255 80 L257 80 L257 81 L260 81 L260 82 L262 82 L262 81 L263 81 L263 78 L264 78 L264 82 L263 82 L263 83 L262 83 L262 84 L264 84 L264 85 L266 85 L266 86 L267 86 L267 85 L269 85 L269 86 L271 86 L271 87 L273 87 L273 88 L274 88 L274 89 L273 89 L273 90 L275 90 L275 92 L276 92 L276 93 L277 93 L277 94 L278 94 L278 95 L279 95 L279 96 L280 96 L280 97 L281 97 L281 98 L282 98 L282 99 L283 99 L283 100 L284 100 L284 99 L285 99 L285 100 L286 100 L286 101 L287 101 L287 102 L286 102 L286 103 L287 103 L287 105 L288 105 L288 106 L289 106 L289 109 L290 109 L290 111 L292 111 L292 112 L294 112 L294 114 L295 114 L295 116 L294 116 L294 118 L295 118 L295 121 L296 121 L296 124 L297 124 L297 127 L298 127 L298 133 L299 133 L299 138 L300 138 L300 143 L301 143 L301 162 L300 162 L300 165 L299 165 L299 170 L298 170 L298 175 L297 175 L297 179 L296 179 L296 183 L297 183 L297 185 L296 185 L296 183 L295 183 L295 186 L296 186 L296 187 L295 187 L295 186 L294 186 L294 189 L293 189 L293 191 L294 191 L294 193 L292 193 L292 192 L291 192 L291 196 L290 196 L290 197 L289 197 L289 199 L288 199 L288 201 L289 201 L289 202 L290 202 L290 201 L291 201 L291 203 L287 203 L287 202 L288 202 L288 201 L287 201 L287 202 L286 202 L286 204 L287 204 L287 205 L286 205 L286 204 L285 204 L285 206 L284 206 L284 207 L287 207 L287 209 L288 209 L288 211 L286 211 L286 209 L284 209 L284 208 L282 208 L282 209 L283 209 L283 211 L282 211 L282 210 L281 210 L281 211 L280 211 L280 212 L281 212 L281 213 L279 213 L279 214 L280 214 L280 215 L279 215 L279 214 L278 214 L278 216 L277 216 L277 217 L276 217 L276 218 L277 218 L277 219 L278 219 L278 218 L279 218 L279 220 L277 220 L277 219 L276 219 L276 220 L274 220 L274 219 L273 219 L273 223 L270 223 L270 224 L272 224 L272 226 L273 226 L273 227 L272 227 L272 226 L270 226 L270 227 L271 227 L271 228 L272 228 L272 229 L270 229 L270 227 L269 227 L269 229 L267 229 L267 228 L268 228 L268 227 L269 227 L269 226 L270 226 L270 225 L269 225 L269 226 L268 226 L268 227 L267 227 L267 228 L265 228 L265 229 L264 229 L264 230 L263 230 L263 231 L262 231 L262 232 L261 232 L261 233 L262 233 L262 234 L263 234 L263 236 L264 236 L264 238 L263 238 L263 237 L262 237 L262 234 L261 234 L261 233 L260 233 L260 234 L259 234 L259 235 L260 235 L260 236 L259 236 L259 237 L258 237 L258 235 L257 235 L257 236 L256 236 L256 238 L255 238 L255 239 L254 239 L254 240 L253 240 L253 239 L254 239 L254 238 L255 238 L255 237 L254 237 L254 238 L253 238 L253 239 L252 239 L252 242 L251 242 L251 243 L252 243 L252 244 L253 244 L253 245 L252 245 L252 244 L251 244 L251 243 L250 243 L250 242 L251 242 L251 241 L249 241 L249 242 L248 242 L248 244 L247 244 L247 243 L246 243 L246 244 L245 244 L245 245 L243 245 L243 246 L244 246 L244 248 L242 248 L242 251 L243 251 L243 254 L245 254 L245 255 L244 255 L244 256 L243 256 L243 258 L244 258 L244 259 L245 259 L245 261 L246 261 L246 259 L248 259 L248 260 L247 260 L247 261 L248 261 L248 262 L251 262 L251 266 L252 266 L252 268 L254 268 L254 270 L252 270 L252 271 L253 271 L253 274 L254 274 L254 275 L255 275 L255 274 L256 274 L256 275 L257 275 L257 277 L256 277 L256 278 L258 278 L258 281 L259 281 L259 282 L260 282 L260 284 L261 284 L261 285 L262 285 L262 284 L263 284 L263 286 L262 286 L262 287 L264 287 L264 288 L263 288 L263 289 L264 289 L264 290 L265 290 L265 291 L266 291 L266 293 L267 293 L267 295 L268 295 L268 296 L269 296 L269 295 L268 295 L268 293 L270 293 L270 294 L271 294 L271 296 L270 296 L270 297 L271 297 L271 298 L272 298 L272 300 L271 300 L271 301 L276 301 L276 302 L272 302 L272 303 L273 303 L273 304 L274 304 L274 306 L275 306 L275 307 L276 307 L276 308 L277 308 L277 310 L278 310 L278 311 L279 311 L279 310 L278 310 L278 308 L279 308 L279 309 L281 309 L281 310 L280 310 L280 312 L281 312 L281 316 L282 316 L282 317 L283 317 L283 318 L284 318 L284 320 L285 320 L285 321 L286 321 L286 323 L287 323 L287 325 L288 325 L288 326 L289 326 L289 328 L290 328 L290 329 L291 329 L291 330 L292 330 L292 329 L294 329 L294 330 L295 330 L295 329 L297 329 L297 330 L298 330 L298 332 L297 332 L297 331 L295 331 L295 332 L293 332 L293 333 L294 333 L294 334 L295 334 L295 335 L296 335 L296 337 L297 337 L297 336 L298 336 L298 338 L299 338 L299 339 L300 339 L300 341 L302 341 L302 342 L303 342 L303 343 L301 343 L301 344 L302 344 L302 345 L303 345 L303 346 L304 346 L304 345 L305 345 L305 347 L306 347 L306 346 L308 346 L308 348 L306 348 L306 351 L309 351 L309 352 L307 352 L307 353 L309 353 L309 356 L311 356 L311 355 L313 355 L313 356 L314 356 L314 359 L313 359 L313 361 L314 361 L314 362 L317 362 L317 364 L318 364 L318 367 L321 367 L321 369 L322 369 L322 370 L323 370 L323 371 L324 371 L324 372 L325 372 L325 369 L326 369 L326 373 L325 373 L325 374 L326 374 L326 375 L328 375 L328 376 L326 376 L326 377 L327 377 L327 378 L328 378 L328 380 L330 380 L330 379 L331 379 L331 381 L333 381 L333 383 L332 383 L332 384 L333 384 L333 386 L334 386 L334 387 L335 387 L335 386 L337 386 L337 387 L336 387 L336 389 L338 389 L338 390 L339 390 L339 392 L340 392 L340 394 L341 394 L341 395 L342 395 L342 396 L343 396 L343 397 L345 397 L345 398 L346 398 L346 400 L348 400 L348 401 L349 401 L349 403 L350 403 L350 404 L351 404 L351 405 L352 405 L352 406 L354 406 L354 405 L356 405 L356 406 L357 406 L357 407 L356 407 L356 408 L357 408 L357 409 L358 409 L358 408 L360 408 L360 409 L361 409 L361 410 L360 410 L360 411 L361 411 L361 412 L363 412 L363 413 L364 413 L364 412 L363 412 L363 411 L362 411 L362 409 L363 409 L363 410 L364 410 L364 411 L366 411 L366 412 L365 412 L365 414 L367 414 L367 415 L369 415 L369 414 L373 414 L373 416 L374 416 L374 417 L375 417 L375 418 L377 418 L377 419 L378 419 L378 420 L379 420 L379 419 L380 419 L380 420 L381 420 L381 421 L386 421 L386 422 L391 422 L391 423 L405 423 L405 422 L412 422 L412 421 L413 421 L413 420 L414 420 L414 421 L415 421 L415 420 L416 420 L416 419 L420 419 L420 418 L422 418 L422 417 L425 417 L425 416 L427 416 L427 415 L426 415 L426 414 L428 414 L428 415 L430 415 L430 414 L432 414 L432 413 L434 413 L434 412 L436 412 L436 409 L437 409 L437 410 L439 410 L439 409 L440 409 L440 408 L441 408 L441 407 L443 407 L443 411 L444 411 L444 414 L445 414 L445 417 L444 417 L444 418 L445 418 L445 419 L444 419 L444 420 L443 420 L443 421 L441 421 L441 420 L440 420 L440 421 L439 421 L439 422 L438 422 L438 423 L437 423 L437 425 L438 425 L438 427 L437 427 L437 425 L436 425 L436 427 L434 427 L434 426 L435 426 L435 425 L436 425 L436 424 L435 424 L435 425 L433 425 L433 426 L431 426 L431 427 L429 427 L429 428 L427 428 L427 430 L425 430 L425 431 L422 431 L422 432 L423 432 L423 433 L422 433 L422 435 L421 435 L421 436 L420 436 L420 434 L421 434 L421 433 L422 433 L422 432 L420 432 L420 433 L417 433 L417 434 L414 434 L414 435 L417 435 L417 436 L419 436 L419 437 L417 437 L417 436 L414 436 L414 435 L411 435 L411 436 L413 436 L413 437 L411 437 L411 436 L407 436 L407 437 L403 437 L403 438 L402 438 L402 439 L400 439 L400 441 L401 441 L401 443 L399 443 L399 441 L398 441 L398 442 L397 442 L397 441 L398 441 L398 440 L391 440 L391 441 L382 441 L382 442 L352 442 L352 441 L346 441 L346 440 L341 440 L341 439 L337 439 L337 437 L334 437 L334 436 L331 436 L331 437 L330 437 L330 436 L331 436 L331 435 L328 435 L328 436 L324 436 L324 434 L326 434 L326 433 L324 433 L324 432 L322 432 L322 431 L320 431 L320 433 L318 433 L318 430 L319 430 L319 431 L320 431 L320 430 L319 430 L319 429 L318 429 L318 428 L316 428 L316 427 L315 427 L315 426 L313 426 L313 427 L314 427 L314 428 L313 428 L313 427 L312 427 L312 426 L313 426 L313 425 L312 425 L312 424 L310 424 L310 425 L311 425 L311 426 L309 426 L309 424 L310 424 L310 423 L309 423 L309 422 L307 422 L307 424 L306 424 L306 423 L305 423 L305 422 L306 422 L306 421 L307 421 L307 420 L306 420 L306 419 L305 419 L305 420 L303 420 L303 418 L304 418 L304 419 L305 419 L305 418 L304 418 L304 417 L303 417 L303 418 L301 418 L301 419 L300 419 L300 418 L301 418 L301 416 L302 416 L302 417 L303 417 L303 416 L302 416 L302 415 L301 415 L301 416 L298 416 L298 417 L297 417 L297 418 L296 418 L296 416 L297 416 L297 415 L298 415 L298 414 L300 414 L300 415 L301 415 L301 414 L300 414 L300 413 L297 413 L297 410 L296 410 L296 412 L295 412 L295 413 L294 413 L294 414 L292 414 L292 413 L293 413 L293 412 L294 412 L294 409 L295 409 L295 410 L296 410 L296 409 L295 409 L295 408 L294 408 L294 406 L293 406 L293 405 L292 405 L292 403 L289 403 L289 401 L288 401 L288 398 L286 398 L286 399 L287 399 L287 400 L286 400 L286 401 L284 401 L284 400 L283 400 L283 401 L282 401 L282 400 L283 400 L283 399 L285 399 L285 398 L286 398 L286 397 L285 397 L285 396 L284 396 L284 394 L282 394 L282 393 L283 393 L283 392 L282 392 L282 391 L281 391 L281 390 L280 390 L280 389 L279 389 L279 390 L278 390 L278 391 L280 391 L280 392 L278 392 L278 391 L276 391 L276 392 L274 392 L274 390 L275 390 L275 391 L276 391 L276 389 L277 389 L277 388 L278 388 L278 386 L277 386 L277 385 L276 385 L276 386 L274 386 L274 383 L271 383 L271 382 L274 382 L274 381 L270 381 L270 383 L269 383 L269 381 L270 381 L270 378 L271 378 L271 377 L270 377 L270 376 L269 376 L269 375 L266 375 L266 373 L267 373 L267 374 L268 374 L268 373 L267 373 L267 372 L266 372 L266 373 L264 373 L264 371 L266 371 L266 370 L265 370 L265 368 L264 368 L264 371 L261 371 L261 370 L262 370 L262 369 L261 369 L261 368 L260 368 L260 367 L258 367 L258 366 L259 366 L259 364 L260 364 L260 365 L261 365 L261 367 L262 367 L262 368 L264 368 L264 367 L262 367 L262 365 L261 365 L261 364 L260 364 L260 362 L259 362 L259 363 L258 363 L258 365 L257 365 L257 363 L258 363 L258 362 L259 362 L259 360 L258 360 L258 362 L257 362 L257 361 L256 361 L256 360 L258 360 L258 359 L257 359 L257 358 L256 358 L256 356 L255 356 L255 355 L254 355 L254 356 L252 356 L252 354 L254 354 L254 353 L253 353 L253 352 L252 352 L252 351 L250 351 L250 350 L251 350 L251 349 L250 349 L250 348 L248 348 L248 347 L249 347 L249 346 L248 346 L248 345 L247 345 L247 348 L246 348 L246 345 L247 345 L247 344 L246 344 L246 342 L245 342 L245 341 L244 341 L244 342 L243 342 L243 341 L244 341 L244 340 L243 340 L243 341 L242 341 L242 339 L243 339 L243 338 L242 338 L242 339 L241 339 L241 338 L242 338 L242 337 L241 337 L241 338 L240 338 L240 336 L241 336 L241 334 L240 334 L240 333 L239 333 L239 334 L238 334 L238 333 L239 333 L239 331 L238 331 L238 330 L237 330 L237 328 L236 328 L236 327 L235 327 L235 326 L234 326 L234 327 L232 327 L232 325 L233 325 L233 326 L234 326 L234 324 L233 324 L233 323 L232 323 L232 324 L231 324 L231 323 L232 323 L232 321 L231 321 L231 322 L230 322 L230 324 L229 324 L229 321 L231 321 L231 320 L230 320 L230 318 L229 318 L229 319 L228 319 L228 318 L229 318 L229 317 L228 317 L228 316 L227 316 L227 314 L226 314 L226 315 L225 315 L225 314 L226 314 L226 313 L225 313 L225 314 L224 314 L224 312 L225 312 L225 311 L224 311 L224 312 L223 312 L223 311 L224 311 L224 308 L223 308 L223 307 L222 307 L222 308 L221 308 L221 307 L222 307 L222 305 L221 305 L221 307 L220 307 L220 306 L219 306 L219 305 L221 305 L221 304 L220 304 L220 303 L219 303 L219 301 L218 301 L218 300 L217 300 L217 301 L216 301 L216 300 L217 300 L217 298 L216 298 L216 299 L215 299 L215 298 L216 298 L216 297 L215 297 L215 295 L214 295 L214 293 L213 293 L213 294 L211 294 L211 292 L212 292 L212 291 L211 291 L211 292 L209 292 L209 291 L210 291 L210 290 L211 290 L211 288 L209 288 L209 289 L208 289 L208 288 L207 288 L207 286 L208 286 L208 287 L209 287 L209 286 L208 286 L208 285 L205 285 L205 283 L203 283 L203 285 L204 285 L204 286 L203 286 L203 287 L202 287 L202 282 L206 282 L206 284 L207 284 L207 282 L206 282 L206 281 L205 281 L205 279 L204 279 L204 278 L202 278 L202 280 L200 280 L200 278 L201 278 L201 277 L202 277 L202 275 L201 275 L201 274 L200 274 L200 272 L199 272 L199 273 L197 273 L197 272 L196 272 L196 271 L198 271 L198 272 L199 272 L199 271 L198 271 L198 269 L197 269 L197 268 L196 268 L196 269 L195 269 L195 264 L194 264 L194 265 L193 265 L193 264 L194 264 L194 263 L174 263 L174 264 L136 264 L136 415 L137 415 L137 420 L138 420 L138 422 L140 422 L140 423 L141 423 L141 422 L142 422 L142 423 L143 423 L143 425 L145 425 L145 422 L147 422 L147 426 L145 426 L145 427 L143 427 L143 428 L144 428 L144 429 L147 429 L147 430 L151 430 L151 431 L160 431 L160 432 L162 432 L162 434 L161 434 L161 438 L163 438 L163 439 L164 439 L164 440 L163 440 L163 441 L165 441 L165 443 L163 443 L163 441 L162 441 L162 443 L160 443 L160 441 L162 441 L162 440 L160 440 L160 439 L161 439 L161 438 L160 438 L160 439 L65 439 L65 442 L63 442 L63 441 L62 441 L62 440 L61 440 L61 439 L58 439 L58 437 L59 437 L59 438 L60 438 L60 436 L61 436 L61 438 L62 438 L62 439 L63 439 L63 438 L62 438 L62 431 L64 431 L64 430 L65 430 L65 431 L71 431 L71 430 L76 430 L76 429 L79 429 L79 428 L80 428 L80 427 L82 427 L82 426 L83 426 L83 423 L84 423 L84 422 L85 422 L85 423 L86 423 L86 421 L87 421 L87 415 L88 415 L88 405 L89 405 L89 102 L88 102 L88 94 L87 94 L87 90 L86 90 L86 87 L85 87 L85 88 L84 88 L84 86 L85 86 L85 85 L83 85 L83 84 L84 84 L84 83 L83 83 L83 82 L81 82 L81 81 L79 81 L79 82 L80 82 L80 83 L81 83 L81 84 L80 84 L80 83 L77 83 L77 81 L79 81 L79 80 L77 80 L77 79 L71 79 L71 78 L65 78 L65 80 L63 80 L63 79 L64 79 L64 78 L63 78 L63 77 L62 77 L62 70 L64 70 L64 69 L62 69 L62 70 L61 70 L61 68 L62 68 L62 67 L63 67 L63 68 L64 68 Z M230 67 L235 67 L235 68 L230 68 Z M58 68 L59 68 L59 69 L60 69 L60 71 L58 71 Z M67 68 L74 68 L74 69 L67 69 Z M173 68 L184 68 L184 69 L173 69 Z M232 70 L235 70 L235 71 L237 71 L237 72 L234 72 L234 71 L232 71 Z M258 75 L260 75 L260 76 L262 76 L262 77 L261 77 L261 78 L259 78 L259 76 L258 76 Z M56 77 L59 77 L59 78 L57 78 L57 79 L56 79 Z M72 80 L76 80 L76 81 L74 81 L74 82 L72 82 Z M59 82 L61 82 L61 84 L59 84 Z M137 83 L136 83 L136 251 L178 251 L178 250 L191 250 L191 249 L187 249 L187 248 L191 248 L191 247 L193 247 L193 248 L192 248 L192 249 L198 249 L198 248 L203 248 L203 247 L204 247 L204 246 L207 246 L207 245 L211 245 L211 244 L215 244 L215 243 L217 243 L217 242 L220 242 L220 241 L222 241 L222 240 L220 240 L220 241 L218 241 L218 240 L219 240 L219 238 L220 238 L220 239 L221 239 L221 238 L222 238 L222 239 L223 239 L223 240 L224 240 L224 239 L223 239 L223 238 L227 238 L227 237 L228 237 L228 234 L229 234 L229 236 L230 236 L230 235 L231 235 L231 234 L232 234 L232 233 L234 233 L234 232 L235 232 L235 231 L234 231 L234 229 L236 229 L236 230 L237 230 L237 229 L238 229 L238 228 L239 228 L239 227 L240 227 L240 226 L241 226 L241 225 L242 225 L242 223 L243 223 L243 222 L244 222 L244 221 L243 221 L243 222 L242 222 L242 223 L241 223 L241 222 L242 222 L242 221 L243 221 L243 220 L245 220 L245 219 L246 219 L246 218 L247 218 L247 216 L248 216 L248 215 L249 215 L249 213 L250 213 L250 211 L249 211 L249 209 L250 209 L250 210 L251 210 L251 209 L250 209 L250 206 L251 206 L251 208 L252 208 L252 205 L253 205 L253 203 L254 203 L254 202 L255 202 L255 201 L254 201 L254 199 L255 199 L255 198 L256 198 L256 197 L255 197 L255 195 L256 195 L256 193 L257 193 L257 187 L258 187 L258 164 L257 164 L257 157 L256 157 L256 154 L255 154 L255 153 L256 153 L256 152 L255 152 L255 151 L254 151 L254 149 L255 149 L255 148 L254 148 L254 147 L253 147 L253 144 L252 144 L252 145 L251 145 L251 144 L252 144 L252 141 L251 141 L251 142 L250 142 L250 141 L251 141 L251 138 L250 138 L250 135 L249 135 L249 136 L247 136 L247 135 L249 135 L249 133 L248 133 L248 130 L247 130 L247 129 L246 129 L246 128 L243 128 L243 126 L244 126 L244 124 L243 124 L243 125 L241 125 L241 124 L242 124 L242 123 L243 123 L243 122 L242 122 L242 120 L241 120 L241 118 L240 118 L240 117 L239 117 L239 119 L240 119 L240 121 L241 121 L241 123 L240 123 L240 124 L239 124 L239 123 L240 123 L240 121 L238 121 L238 120 L239 120 L239 119 L238 119 L238 120 L237 120 L237 119 L238 119 L238 117 L237 117 L237 116 L239 116 L239 115 L238 115 L238 114 L236 114 L236 113 L237 113 L237 112 L235 112 L235 111 L233 111 L233 112 L232 112 L232 111 L231 111 L231 110 L234 110 L234 109 L233 109 L233 108 L232 108 L232 107 L231 107 L231 105 L230 105 L230 104 L229 104 L229 105 L228 105 L228 103 L226 103 L226 101 L225 101 L225 100 L224 100 L224 102 L222 102 L222 101 L223 101 L223 100 L224 100 L224 99 L222 99 L222 100 L221 100 L221 99 L222 99 L222 98 L221 98 L221 99 L220 99 L220 101 L219 101 L219 102 L218 102 L218 101 L219 101 L219 99 L220 99 L220 98 L221 98 L221 97 L219 97 L219 96 L217 96 L217 97 L218 97 L218 98 L216 98 L216 97 L215 97 L215 96 L216 96 L216 95 L215 95 L215 94 L213 94 L213 93 L212 93 L212 92 L210 92 L210 93 L209 93 L209 91 L208 91 L208 92 L206 92 L206 91 L207 91 L207 90 L204 90 L204 91 L202 91 L202 90 L204 90 L204 89 L200 89 L200 90 L201 90 L201 91 L197 91 L197 89 L200 89 L200 88 L196 88 L196 87 L191 87 L191 88 L190 88 L190 87 L191 87 L191 86 L185 86 L185 88 L183 88 L183 87 L182 87 L182 86 L185 86 L185 85 L175 85 L175 84 L173 84 L173 83 L138 83 L138 84 L137 84 Z M273 85 L274 85 L274 86 L275 86 L275 88 L274 88 L274 87 L273 87 Z M281 85 L282 85 L282 88 L281 88 L281 89 L279 89 L279 87 L281 87 Z M192 88 L195 88 L195 90 L192 90 Z M84 91 L86 91 L86 92 L85 92 L85 93 L83 93 L83 92 L84 92 Z M277 92 L279 92 L279 94 L281 94 L281 95 L282 95 L282 96 L284 96 L284 94 L285 94 L285 95 L286 95 L286 94 L288 94 L288 95 L287 95 L287 96 L285 96 L285 98 L282 98 L282 97 L281 97 L281 96 L280 96 L280 95 L279 95 L279 94 L278 94 L278 93 L277 93 Z M288 99 L289 99 L289 101 L290 101 L290 102 L289 102 L289 101 L287 101 L287 100 L288 100 Z M297 111 L299 111 L299 113 L297 113 Z M238 126 L240 126 L240 127 L239 127 L239 128 L240 128 L240 129 L239 129 L239 128 L238 128 Z M256 174 L257 174 L257 178 L256 178 Z M249 202 L251 202 L251 203 L252 203 L252 205 L250 205 L250 204 L249 204 Z M246 206 L247 206 L247 207 L248 207 L248 208 L249 208 L249 209 L248 209 L248 208 L247 208 L247 209 L246 209 Z M238 221 L239 221 L239 223 L238 223 L238 224 L237 224 L237 222 L238 222 Z M228 230 L230 230 L230 232 L232 232 L232 233 L231 233 L231 234 L230 234 L230 233 L229 233 L229 231 L228 231 Z M249 244 L250 244 L250 245 L251 245 L251 246 L252 246 L252 247 L250 247 L250 246 L249 246 Z M242 253 L241 253 L241 255 L242 255 L242 256 L243 256 L243 254 L242 254 Z M250 257 L252 257 L252 259 L250 259 Z M193 269 L194 269 L194 270 L195 270 L195 274 L193 274 Z M257 274 L258 274 L258 275 L260 275 L260 277 L259 277 L259 278 L258 278 L258 275 L257 275 Z M259 279 L261 279 L261 281 L259 281 Z M205 289 L206 289 L206 291 L208 291 L208 292 L205 292 Z M212 295 L213 295 L213 296 L214 296 L214 299 L212 299 L212 297 L211 297 L211 296 L212 296 Z M276 304 L277 304 L277 306 L280 306 L280 307 L278 307 L278 308 L277 308 L277 306 L276 306 Z M220 309 L221 309 L221 312 L222 312 L222 314 L221 314 L221 315 L220 315 L220 314 L219 314 L219 313 L220 313 Z M289 321 L290 321 L290 322 L291 322 L291 325 L289 325 L289 324 L288 324 L288 323 L289 323 Z M303 337 L304 337 L304 338 L305 338 L305 341 L303 341 L303 339 L302 339 L302 338 L303 338 Z M237 340 L239 340 L239 341 L240 341 L240 342 L239 342 L239 343 L238 343 L238 341 L237 341 Z M242 343 L244 343 L244 344 L245 344 L245 345 L243 345 L243 344 L242 344 Z M306 343 L308 343 L308 345 L306 345 Z M248 352 L249 352 L249 353 L250 353 L250 354 L249 354 L249 355 L247 355 L247 353 L248 353 Z M315 356 L318 356 L318 357 L317 357 L317 358 L316 358 L316 359 L315 359 L315 358 L316 358 L316 357 L315 357 Z M324 365 L325 365 L325 366 L326 366 L326 368 L324 368 L324 369 L323 369 L323 368 L324 368 Z M258 369 L260 369 L260 372 L259 372 L259 373 L258 373 L258 372 L257 372 L257 371 L258 371 Z M267 378 L268 378 L268 379 L267 379 L267 381 L266 381 L266 382 L265 382 L265 380 L264 380 L264 379 L267 379 Z M335 379 L336 379 L336 380 L337 380 L337 381 L336 381 L336 382 L335 382 Z M338 387 L339 387 L339 388 L340 388 L340 389 L341 389 L341 390 L339 390 L339 389 L338 389 Z M342 389 L343 389 L343 393 L344 393 L344 392 L345 392 L345 394 L343 394 L343 393 L342 393 Z M87 400 L88 400 L88 405 L87 405 Z M353 401 L355 401 L355 402 L358 402 L358 404 L357 404 L357 403 L354 403 L354 402 L353 402 Z M424 410 L427 410 L427 412 L428 412 L428 413 L429 413 L429 412 L430 412 L430 414 L428 414 L428 413 L427 413 L427 412 L425 412 L425 411 L424 411 Z M374 412 L377 412 L377 413 L376 413 L376 414 L375 414 L375 413 L374 413 Z M419 415 L421 415 L421 416 L422 416 L422 417 L419 417 Z M84 417 L86 417 L86 420 L84 420 L84 422 L83 422 L83 420 L84 420 Z M443 422 L445 422 L445 424 L443 424 Z M58 428 L60 428 L60 430 L58 430 Z M447 431 L455 431 L455 439 L447 439 L447 440 L445 440 L445 436 L446 436 L446 437 L447 437 L447 433 L446 433 L446 432 L447 432 Z M318 435 L320 435 L320 436 L321 436 L321 437 L319 437 L319 436 L318 436 Z M157 442 L158 442 L158 444 L157 444 L157 445 L156 445 L156 443 L157 443 Z M341 443 L343 443 L343 444 L342 444 L342 445 L340 445 L340 444 L341 444 Z M373 443 L376 443 L376 444 L375 444 L375 445 L373 445 Z M345 444 L347 444 L347 445 L346 445 L346 446 L344 446 L344 445 L345 445 Z M401 445 L405 445 L405 446 L401 446 Z" fill="url(#rahmaOrangeGradient)" fill-rule="evenodd"/>
</svg>
