<svg xmlns="http://www.w3.org/2000/svg" width="1600" height="733" viewBox="0 0 1600 733" role="img" aria-labelledby="title desc">
  <title id="title">Rahma Therapy vector trace monochrome logo</title>
  <desc id="desc">One-colour automated vector trace generated from the source logo silhouette.</desc>
  <path id="logo" d="M481 33 L487 33 L487 34 L488 34 L488 36 L489 36 L489 38 L490 38 L490 40 L491 40 L491 43 L492 43 L492 45 L493 45 L493 47 L494 47 L494 50 L495 50 L495 53 L496 53 L496 55 L497 55 L497 58 L498 58 L498 60 L499 60 L499 63 L500 63 L500 65 L501 65 L501 68 L502 68 L502 70 L503 70 L503 72 L504 72 L504 75 L505 75 L505 78 L506 78 L506 80 L507 80 L507 83 L508 83 L508 85 L509 85 L509 88 L510 88 L510 90 L511 90 L511 92 L512 92 L512 95 L513 95 L513 97 L514 97 L514 100 L515 100 L515 103 L516 103 L516 105 L517 105 L517 107 L518 107 L518 110 L519 110 L519 112 L520 112 L520 115 L521 115 L521 117 L522 117 L522 119 L523 119 L523 122 L524 122 L524 125 L525 125 L525 127 L526 127 L526 130 L527 130 L527 132 L528 132 L528 135 L529 135 L529 137 L530 137 L530 139 L531 139 L531 142 L532 142 L532 144 L533 144 L533 147 L534 147 L534 149 L535 149 L535 152 L536 152 L536 155 L537 155 L537 157 L538 157 L538 159 L539 159 L539 162 L540 162 L540 164 L541 164 L541 167 L542 167 L542 169 L543 169 L543 172 L544 172 L544 174 L545 174 L545 177 L546 177 L546 179 L547 179 L547 182 L548 182 L548 184 L549 184 L549 187 L550 187 L550 189 L551 189 L551 192 L552 192 L552 194 L553 194 L553 196 L554 196 L554 199 L555 199 L555 202 L556 202 L556 204 L557 204 L557 207 L558 207 L558 209 L559 209 L559 212 L560 212 L560 214 L561 214 L561 216 L562 216 L562 219 L563 219 L563 221 L564 221 L564 224 L565 224 L565 226 L566 226 L566 229 L567 229 L567 231 L568 231 L568 234 L569 234 L569 236 L570 236 L570 239 L571 239 L571 241 L572 241 L572 243 L573 243 L573 246 L574 246 L574 248 L575 248 L575 251 L576 251 L576 254 L577 254 L577 256 L578 256 L578 258 L579 258 L579 261 L580 261 L580 264 L581 264 L581 266 L582 266 L582 268 L583 268 L583 271 L584 271 L584 273 L585 273 L585 276 L586 276 L586 278 L587 278 L587 281 L588 281 L588 283 L589 283 L589 286 L590 286 L590 288 L591 288 L591 291 L592 291 L592 293 L593 293 L593 296 L594 296 L594 299 L595 299 L595 301 L596 301 L596 304 L597 304 L597 306 L598 306 L598 308 L599 308 L599 310 L600 310 L600 312 L601 312 L601 314 L602 314 L602 316 L603 316 L603 317 L604 317 L604 319 L605 319 L605 320 L606 320 L606 321 L607 321 L607 322 L608 322 L608 323 L609 323 L609 324 L610 324 L610 325 L612 325 L612 326 L614 326 L614 327 L617 327 L617 328 L625 328 L625 329 L626 329 L626 331 L625 331 L625 333 L626 333 L626 334 L624 334 L624 335 L554 335 L554 328 L561 328 L561 327 L562 327 L562 326 L563 326 L563 318 L562 318 L562 314 L561 314 L561 312 L560 312 L560 309 L559 309 L559 307 L558 307 L558 304 L557 304 L557 302 L556 302 L556 299 L555 299 L555 297 L554 297 L554 294 L553 294 L553 292 L552 292 L552 290 L551 290 L551 287 L550 287 L550 285 L549 285 L549 282 L548 282 L548 279 L547 279 L547 277 L546 277 L546 274 L545 274 L545 272 L544 272 L544 270 L543 270 L543 267 L542 267 L542 265 L541 265 L541 262 L540 262 L540 260 L539 260 L539 257 L538 257 L538 255 L537 255 L537 252 L536 252 L536 249 L535 249 L535 247 L534 247 L534 245 L533 245 L533 242 L532 242 L532 240 L531 240 L531 237 L530 237 L530 235 L529 235 L529 232 L528 232 L528 230 L527 230 L527 227 L526 227 L526 224 L525 224 L525 222 L524 222 L524 220 L523 220 L523 218 L522 218 L522 215 L521 215 L521 213 L520 213 L520 210 L519 210 L519 207 L518 207 L518 205 L517 205 L517 202 L516 202 L516 200 L515 200 L515 199 L431 199 L431 201 L430 201 L430 204 L429 204 L429 206 L428 206 L428 208 L427 208 L427 211 L426 211 L426 213 L425 213 L425 216 L424 216 L424 219 L423 219 L423 221 L422 221 L422 224 L421 224 L421 226 L420 226 L420 228 L419 228 L419 231 L418 231 L418 233 L417 233 L417 236 L416 236 L416 238 L415 238 L415 241 L414 241 L414 243 L413 243 L413 246 L412 246 L412 248 L411 248 L411 251 L410 251 L410 253 L409 253 L409 256 L408 256 L408 258 L407 258 L407 261 L406 261 L406 263 L405 263 L405 265 L404 265 L404 269 L403 269 L403 271 L402 271 L402 273 L401 273 L401 276 L400 276 L400 278 L399 278 L399 281 L398 281 L398 283 L397 283 L397 286 L396 286 L396 288 L395 288 L395 291 L394 291 L394 293 L393 293 L393 296 L392 296 L392 299 L391 299 L391 301 L390 301 L390 303 L389 303 L389 306 L388 306 L388 308 L387 308 L387 311 L386 311 L386 313 L385 313 L385 316 L384 316 L384 319 L383 319 L383 326 L384 326 L384 327 L385 327 L385 328 L392 328 L392 330 L393 330 L393 332 L392 332 L392 333 L393 333 L393 334 L391 334 L391 335 L347 335 L347 334 L346 334 L346 328 L355 328 L355 327 L358 327 L358 326 L360 326 L360 325 L361 325 L361 324 L362 324 L362 323 L363 323 L363 322 L364 322 L364 321 L365 321 L365 320 L366 320 L366 318 L367 318 L367 316 L368 316 L368 314 L369 314 L369 312 L370 312 L370 311 L371 311 L371 308 L372 308 L372 306 L373 306 L373 304 L374 304 L374 301 L375 301 L375 298 L376 298 L376 296 L377 296 L377 293 L378 293 L378 291 L379 291 L379 288 L380 288 L380 286 L381 286 L381 283 L382 283 L382 281 L383 281 L383 278 L384 278 L384 276 L385 276 L385 273 L386 273 L386 271 L387 271 L387 268 L388 268 L388 265 L389 265 L389 263 L390 263 L390 260 L391 260 L391 258 L392 258 L392 256 L393 256 L393 253 L394 253 L394 251 L395 251 L395 248 L396 248 L396 245 L397 245 L397 243 L398 243 L398 240 L399 240 L399 238 L400 238 L400 235 L401 235 L401 233 L402 233 L402 230 L403 230 L403 228 L404 228 L404 226 L405 226 L405 223 L406 223 L406 220 L407 220 L407 218 L408 218 L408 215 L409 215 L409 213 L410 213 L410 210 L411 210 L411 208 L412 208 L412 205 L413 205 L413 203 L414 203 L414 200 L415 200 L415 197 L416 197 L416 195 L417 195 L417 192 L418 192 L418 190 L419 190 L419 187 L420 187 L420 185 L421 185 L421 182 L422 182 L422 180 L423 180 L423 177 L424 177 L424 175 L425 175 L425 172 L426 172 L426 170 L427 170 L427 167 L428 167 L428 164 L429 164 L429 162 L430 162 L430 159 L431 159 L431 157 L432 157 L432 155 L433 155 L433 152 L434 152 L434 150 L435 150 L435 147 L436 147 L436 145 L437 145 L437 142 L438 142 L438 139 L439 139 L439 137 L440 137 L440 134 L441 134 L441 132 L442 132 L442 129 L443 129 L443 127 L444 127 L444 124 L445 124 L445 122 L446 122 L446 119 L447 119 L447 117 L448 117 L448 114 L449 114 L449 112 L450 112 L450 109 L451 109 L451 107 L452 107 L452 104 L453 104 L453 102 L454 102 L454 99 L455 99 L455 97 L456 97 L456 94 L457 94 L457 91 L458 91 L458 89 L459 89 L459 86 L460 86 L460 84 L461 84 L461 81 L462 81 L462 79 L463 79 L463 76 L464 76 L464 74 L465 74 L465 71 L466 71 L466 69 L467 69 L467 66 L468 66 L468 64 L469 64 L469 61 L470 61 L470 58 L471 58 L471 56 L472 56 L472 54 L473 54 L473 51 L474 51 L474 49 L475 49 L475 46 L476 46 L476 44 L477 44 L477 41 L478 41 L478 38 L479 38 L479 36 L480 36 L480 34 L481 34 Z M1425 33 L1430 33 L1430 34 L1432 34 L1432 36 L1433 36 L1433 39 L1434 39 L1434 41 L1435 41 L1435 44 L1436 44 L1436 46 L1437 46 L1437 49 L1438 49 L1438 51 L1439 51 L1439 54 L1440 54 L1440 56 L1441 56 L1441 59 L1442 59 L1442 61 L1443 61 L1443 63 L1444 63 L1444 66 L1445 66 L1445 68 L1446 68 L1446 71 L1447 71 L1447 74 L1448 74 L1448 76 L1449 76 L1449 79 L1450 79 L1450 81 L1451 81 L1451 84 L1452 84 L1452 86 L1453 86 L1453 88 L1454 88 L1454 91 L1455 91 L1455 93 L1456 93 L1456 96 L1457 96 L1457 98 L1458 98 L1458 101 L1459 101 L1459 104 L1460 104 L1460 106 L1461 106 L1461 108 L1462 108 L1462 111 L1463 111 L1463 113 L1464 113 L1464 116 L1465 116 L1465 118 L1466 118 L1466 120 L1467 120 L1467 123 L1468 123 L1468 126 L1469 126 L1469 128 L1470 128 L1470 131 L1471 131 L1471 133 L1472 133 L1472 135 L1473 135 L1473 138 L1474 138 L1474 140 L1475 140 L1475 143 L1476 143 L1476 145 L1477 145 L1477 148 L1478 148 L1478 150 L1479 150 L1479 153 L1480 153 L1480 155 L1481 155 L1481 158 L1482 158 L1482 160 L1483 160 L1483 163 L1484 163 L1484 165 L1485 165 L1485 168 L1486 168 L1486 170 L1487 170 L1487 173 L1488 173 L1488 175 L1489 175 L1489 178 L1490 178 L1490 180 L1491 180 L1491 183 L1492 183 L1492 185 L1493 185 L1493 187 L1494 187 L1494 190 L1495 190 L1495 192 L1496 192 L1496 195 L1497 195 L1497 197 L1498 197 L1498 200 L1499 200 L1499 203 L1500 203 L1500 205 L1501 205 L1501 207 L1502 207 L1502 210 L1503 210 L1503 212 L1504 212 L1504 215 L1505 215 L1505 217 L1506 217 L1506 219 L1507 219 L1507 222 L1508 222 L1508 225 L1509 225 L1509 227 L1510 227 L1510 230 L1511 230 L1511 232 L1512 232 L1512 235 L1513 235 L1513 237 L1514 237 L1514 240 L1515 240 L1515 242 L1516 242 L1516 244 L1517 244 L1517 247 L1518 247 L1518 250 L1519 250 L1519 252 L1520 252 L1520 255 L1521 255 L1521 257 L1522 257 L1522 259 L1523 259 L1523 262 L1524 262 L1524 264 L1525 264 L1525 267 L1526 267 L1526 269 L1527 269 L1527 272 L1528 272 L1528 274 L1529 274 L1529 277 L1530 277 L1530 279 L1531 279 L1531 282 L1532 282 L1532 284 L1533 284 L1533 287 L1534 287 L1534 289 L1535 289 L1535 291 L1536 291 L1536 294 L1537 294 L1537 297 L1538 297 L1538 300 L1539 300 L1539 302 L1540 302 L1540 305 L1541 305 L1541 307 L1542 307 L1542 309 L1543 309 L1543 311 L1544 311 L1544 312 L1545 312 L1545 315 L1546 315 L1546 316 L1547 316 L1547 318 L1548 318 L1548 319 L1549 319 L1549 321 L1550 321 L1550 322 L1551 322 L1551 323 L1553 323 L1553 324 L1554 324 L1554 325 L1555 325 L1555 326 L1557 326 L1557 327 L1560 327 L1560 328 L1568 328 L1568 329 L1569 329 L1569 334 L1568 334 L1568 335 L1498 335 L1498 328 L1504 328 L1504 327 L1506 327 L1506 325 L1507 325 L1507 319 L1506 319 L1506 315 L1505 315 L1505 313 L1504 313 L1504 310 L1503 310 L1503 308 L1502 308 L1502 306 L1501 306 L1501 303 L1500 303 L1500 300 L1499 300 L1499 298 L1498 298 L1498 295 L1497 295 L1497 293 L1496 293 L1496 290 L1495 290 L1495 288 L1494 288 L1494 286 L1493 286 L1493 283 L1492 283 L1492 281 L1491 281 L1491 278 L1490 278 L1490 276 L1489 276 L1489 273 L1488 273 L1488 270 L1487 270 L1487 268 L1486 268 L1486 266 L1485 266 L1485 263 L1484 263 L1484 261 L1483 261 L1483 258 L1482 258 L1482 256 L1481 256 L1481 253 L1480 253 L1480 251 L1479 251 L1479 248 L1478 248 L1478 245 L1477 245 L1477 243 L1476 243 L1476 241 L1475 241 L1475 238 L1474 238 L1474 236 L1473 236 L1473 233 L1472 233 L1472 231 L1471 231 L1471 229 L1470 229 L1470 226 L1469 226 L1469 223 L1468 223 L1468 220 L1467 220 L1467 218 L1466 218 L1466 216 L1465 216 L1465 213 L1464 213 L1464 211 L1463 211 L1463 209 L1462 209 L1462 206 L1461 206 L1461 204 L1460 204 L1460 201 L1459 201 L1459 199 L1378 199 L1378 200 L1377 200 L1377 199 L1375 199 L1375 200 L1374 200 L1374 203 L1373 203 L1373 205 L1372 205 L1372 208 L1371 208 L1371 210 L1370 210 L1370 212 L1369 212 L1369 215 L1368 215 L1368 217 L1367 217 L1367 220 L1366 220 L1366 222 L1365 222 L1365 225 L1364 225 L1364 228 L1363 228 L1363 230 L1362 230 L1362 233 L1361 233 L1361 235 L1360 235 L1360 237 L1359 237 L1359 240 L1358 240 L1358 242 L1357 242 L1357 245 L1356 245 L1356 248 L1355 248 L1355 250 L1354 250 L1354 253 L1353 253 L1353 255 L1352 255 L1352 257 L1351 257 L1351 260 L1350 260 L1350 262 L1349 262 L1349 265 L1348 265 L1348 267 L1347 267 L1347 270 L1346 270 L1346 272 L1345 272 L1345 275 L1344 275 L1344 278 L1343 278 L1343 280 L1342 280 L1342 282 L1341 282 L1341 285 L1340 285 L1340 287 L1339 287 L1339 290 L1338 290 L1338 292 L1337 292 L1337 295 L1336 295 L1336 297 L1335 297 L1335 300 L1334 300 L1334 302 L1333 302 L1333 305 L1332 305 L1332 307 L1331 307 L1331 310 L1330 310 L1330 312 L1329 312 L1329 315 L1328 315 L1328 318 L1327 318 L1327 321 L1326 321 L1326 325 L1327 325 L1327 327 L1329 327 L1329 328 L1335 328 L1335 329 L1336 329 L1336 334 L1335 334 L1335 335 L1290 335 L1290 334 L1288 334 L1288 335 L1221 335 L1221 334 L1220 334 L1220 329 L1221 329 L1221 328 L1228 328 L1228 327 L1230 327 L1230 326 L1231 326 L1231 325 L1232 325 L1232 323 L1233 323 L1233 307 L1232 307 L1232 301 L1231 301 L1231 294 L1230 294 L1230 287 L1229 287 L1229 280 L1228 280 L1228 272 L1227 272 L1227 265 L1226 265 L1226 256 L1225 256 L1225 250 L1224 250 L1224 242 L1223 242 L1223 236 L1222 236 L1222 229 L1221 229 L1221 222 L1220 222 L1220 215 L1219 215 L1219 208 L1218 208 L1218 201 L1217 201 L1217 193 L1216 193 L1216 185 L1215 185 L1215 178 L1214 178 L1214 171 L1213 171 L1213 164 L1212 164 L1212 157 L1211 157 L1211 151 L1210 151 L1210 143 L1209 143 L1209 137 L1208 137 L1208 130 L1207 130 L1207 122 L1206 122 L1206 113 L1205 113 L1205 106 L1204 106 L1204 99 L1203 99 L1203 96 L1202 96 L1202 99 L1201 99 L1201 101 L1200 101 L1200 103 L1199 103 L1199 106 L1198 106 L1198 108 L1197 108 L1197 110 L1196 110 L1196 112 L1195 112 L1195 115 L1194 115 L1194 117 L1193 117 L1193 120 L1192 120 L1192 122 L1191 122 L1191 124 L1190 124 L1190 127 L1189 127 L1189 129 L1188 129 L1188 131 L1187 131 L1187 133 L1186 133 L1186 136 L1185 136 L1185 138 L1184 138 L1184 140 L1183 140 L1183 143 L1182 143 L1182 145 L1181 145 L1181 147 L1180 147 L1180 150 L1179 150 L1179 152 L1178 152 L1178 154 L1177 154 L1177 156 L1176 156 L1176 159 L1175 159 L1175 161 L1174 161 L1174 163 L1173 163 L1173 166 L1172 166 L1172 168 L1171 168 L1171 170 L1170 170 L1170 173 L1169 173 L1169 175 L1168 175 L1168 177 L1167 177 L1167 179 L1166 179 L1166 182 L1165 182 L1165 184 L1164 184 L1164 186 L1163 186 L1163 189 L1162 189 L1162 191 L1161 191 L1161 194 L1160 194 L1160 196 L1159 196 L1159 198 L1158 198 L1158 200 L1157 200 L1157 202 L1156 202 L1156 205 L1155 205 L1155 207 L1154 207 L1154 210 L1153 210 L1153 212 L1152 212 L1152 214 L1151 214 L1151 217 L1150 217 L1150 219 L1149 219 L1149 221 L1148 221 L1148 223 L1147 223 L1147 226 L1146 226 L1146 228 L1145 228 L1145 230 L1144 230 L1144 233 L1143 233 L1143 235 L1142 235 L1142 237 L1141 237 L1141 240 L1140 240 L1140 242 L1139 242 L1139 244 L1138 244 L1138 246 L1137 246 L1137 249 L1136 249 L1136 251 L1135 251 L1135 253 L1134 253 L1134 256 L1133 256 L1133 258 L1132 258 L1132 261 L1131 261 L1131 263 L1130 263 L1130 265 L1129 265 L1129 267 L1128 267 L1128 270 L1127 270 L1127 272 L1126 272 L1126 274 L1125 274 L1125 277 L1124 277 L1124 279 L1123 279 L1123 281 L1122 281 L1122 284 L1121 284 L1121 286 L1120 286 L1120 288 L1119 288 L1119 290 L1118 290 L1118 293 L1117 293 L1117 295 L1116 295 L1116 297 L1115 297 L1115 299 L1114 299 L1114 302 L1113 302 L1113 304 L1112 304 L1112 307 L1111 307 L1111 309 L1110 309 L1110 311 L1109 311 L1109 314 L1108 314 L1108 316 L1107 316 L1107 318 L1106 318 L1106 320 L1105 320 L1105 322 L1104 322 L1104 325 L1103 325 L1103 328 L1102 328 L1102 330 L1101 330 L1101 332 L1100 332 L1100 334 L1099 334 L1099 335 L1096 335 L1096 334 L1095 334 L1095 332 L1094 332 L1094 330 L1093 330 L1093 328 L1092 328 L1092 325 L1091 325 L1091 323 L1090 323 L1090 321 L1089 321 L1089 319 L1088 319 L1088 316 L1087 316 L1087 314 L1086 314 L1086 312 L1085 312 L1085 309 L1084 309 L1084 307 L1083 307 L1083 304 L1082 304 L1082 302 L1081 302 L1081 300 L1080 300 L1080 298 L1079 298 L1079 296 L1078 296 L1078 293 L1077 293 L1077 291 L1076 291 L1076 289 L1075 289 L1075 286 L1074 286 L1074 284 L1073 284 L1073 282 L1072 282 L1072 279 L1071 279 L1071 277 L1070 277 L1070 275 L1069 275 L1069 273 L1068 273 L1068 270 L1067 270 L1067 268 L1066 268 L1066 266 L1065 266 L1065 263 L1064 263 L1064 261 L1063 261 L1063 259 L1062 259 L1062 256 L1061 256 L1061 254 L1060 254 L1060 252 L1059 252 L1059 250 L1058 250 L1058 248 L1057 248 L1057 245 L1056 245 L1056 243 L1055 243 L1055 241 L1054 241 L1054 238 L1053 238 L1053 236 L1052 236 L1052 233 L1051 233 L1051 231 L1050 231 L1050 229 L1049 229 L1049 227 L1048 227 L1048 224 L1047 224 L1047 222 L1046 222 L1046 220 L1045 220 L1045 218 L1044 218 L1044 215 L1043 215 L1043 213 L1042 213 L1042 210 L1041 210 L1041 208 L1040 208 L1040 206 L1039 206 L1039 204 L1038 204 L1038 202 L1037 202 L1037 199 L1036 199 L1036 197 L1035 197 L1035 195 L1034 195 L1034 192 L1033 192 L1033 190 L1032 190 L1032 188 L1031 188 L1031 185 L1030 185 L1030 183 L1029 183 L1029 181 L1028 181 L1028 179 L1027 179 L1027 177 L1026 177 L1026 174 L1025 174 L1025 172 L1024 172 L1024 169 L1023 169 L1023 167 L1022 167 L1022 165 L1021 165 L1021 162 L1020 162 L1020 160 L1019 160 L1019 158 L1018 158 L1018 156 L1017 156 L1017 154 L1016 154 L1016 151 L1015 151 L1015 149 L1014 149 L1014 146 L1013 146 L1013 144 L1012 144 L1012 142 L1011 142 L1011 139 L1010 139 L1010 137 L1009 137 L1009 135 L1008 135 L1008 133 L1007 133 L1007 131 L1006 131 L1006 128 L1005 128 L1005 126 L1004 126 L1004 124 L1003 124 L1003 121 L1002 121 L1002 119 L1001 119 L1001 117 L1000 117 L1000 114 L999 114 L999 112 L998 112 L998 110 L997 110 L997 108 L996 108 L996 105 L995 105 L995 103 L994 103 L994 101 L993 101 L993 98 L992 98 L992 96 L991 96 L991 103 L990 103 L990 111 L989 111 L989 118 L988 118 L988 125 L987 125 L987 132 L986 132 L986 139 L985 139 L985 146 L984 146 L984 153 L983 153 L983 160 L982 160 L982 168 L981 168 L981 176 L980 176 L980 184 L979 184 L979 191 L978 191 L978 198 L977 198 L977 205 L976 205 L976 212 L975 212 L975 219 L974 219 L974 226 L973 226 L973 233 L972 233 L972 241 L971 241 L971 249 L970 249 L970 257 L969 257 L969 264 L968 264 L968 271 L967 271 L967 278 L966 278 L966 285 L965 285 L965 292 L964 292 L964 299 L963 299 L963 306 L962 306 L962 324 L963 324 L963 325 L964 325 L964 326 L965 326 L965 327 L967 327 L967 328 L974 328 L974 329 L975 329 L975 334 L974 334 L974 335 L968 335 L968 334 L967 334 L967 335 L964 335 L964 339 L965 339 L965 341 L964 341 L964 346 L963 346 L963 349 L962 349 L962 352 L961 352 L961 355 L960 355 L960 357 L959 357 L959 360 L958 360 L958 362 L957 362 L957 364 L956 364 L956 366 L955 366 L955 368 L954 368 L954 370 L953 370 L953 372 L952 372 L952 374 L951 374 L951 376 L950 376 L950 378 L949 378 L949 379 L948 379 L948 381 L947 381 L947 382 L946 382 L946 384 L945 384 L945 385 L944 385 L944 386 L943 386 L943 387 L942 387 L942 388 L941 388 L941 389 L940 389 L940 390 L938 390 L938 391 L936 391 L936 392 L945 392 L945 393 L948 393 L948 394 L950 394 L950 395 L951 395 L951 396 L953 396 L953 397 L954 397 L954 398 L955 398 L955 399 L956 399 L956 401 L957 401 L957 402 L958 402 L958 429 L959 429 L959 438 L961 438 L961 437 L962 437 L962 436 L963 436 L963 435 L964 435 L964 434 L966 434 L966 433 L967 433 L967 431 L968 431 L968 430 L969 430 L969 429 L970 429 L970 428 L971 428 L971 427 L972 427 L972 425 L973 425 L973 424 L974 424 L974 423 L975 423 L975 421 L976 421 L976 420 L977 420 L977 418 L978 418 L978 417 L979 417 L979 413 L980 413 L980 410 L981 410 L981 408 L982 408 L982 406 L983 406 L983 404 L984 404 L984 403 L985 403 L985 401 L986 401 L986 399 L987 399 L987 398 L988 398 L988 397 L989 397 L989 396 L990 396 L990 394 L991 394 L991 393 L992 393 L992 392 L993 392 L993 391 L994 391 L994 390 L995 390 L995 389 L996 389 L996 388 L997 388 L997 387 L998 387 L998 386 L999 386 L999 385 L1000 385 L1000 384 L1001 384 L1001 383 L1002 383 L1002 382 L1004 382 L1004 381 L1005 381 L1005 380 L1006 380 L1006 379 L1008 379 L1008 378 L1010 378 L1010 377 L1012 377 L1012 376 L1015 376 L1015 375 L1024 375 L1024 376 L1027 376 L1027 377 L1029 377 L1029 378 L1030 378 L1030 379 L1032 379 L1032 380 L1033 380 L1033 381 L1034 381 L1034 382 L1035 382 L1035 383 L1036 383 L1036 385 L1037 385 L1037 387 L1038 387 L1038 389 L1039 389 L1039 390 L1041 390 L1041 389 L1043 389 L1043 388 L1045 388 L1045 387 L1054 387 L1054 388 L1055 388 L1055 389 L1056 389 L1056 390 L1057 390 L1057 391 L1058 391 L1058 393 L1059 393 L1059 395 L1060 395 L1060 417 L1064 417 L1064 416 L1067 416 L1067 415 L1068 415 L1068 414 L1070 414 L1070 413 L1072 413 L1072 412 L1073 412 L1073 411 L1074 411 L1074 410 L1076 410 L1076 409 L1077 409 L1077 408 L1078 408 L1078 407 L1079 407 L1079 406 L1080 406 L1080 405 L1081 405 L1081 404 L1082 404 L1082 403 L1083 403 L1083 402 L1084 402 L1084 401 L1085 401 L1085 400 L1086 400 L1086 399 L1087 399 L1087 397 L1088 397 L1088 396 L1089 396 L1089 395 L1090 395 L1090 393 L1091 393 L1091 389 L1092 389 L1092 385 L1093 385 L1093 381 L1094 381 L1094 377 L1095 377 L1095 373 L1096 373 L1096 370 L1097 370 L1097 367 L1098 367 L1098 364 L1099 364 L1099 361 L1100 361 L1100 358 L1101 358 L1101 356 L1102 356 L1102 353 L1103 353 L1103 351 L1104 351 L1104 349 L1105 349 L1105 347 L1106 347 L1106 345 L1107 345 L1107 343 L1108 343 L1108 342 L1109 342 L1109 341 L1110 341 L1110 340 L1111 340 L1111 339 L1113 339 L1113 338 L1115 338 L1115 339 L1118 339 L1118 340 L1119 340 L1119 341 L1120 341 L1120 342 L1121 342 L1121 343 L1122 343 L1122 351 L1121 351 L1121 355 L1120 355 L1120 358 L1119 358 L1119 362 L1118 362 L1118 366 L1117 366 L1117 370 L1116 370 L1116 373 L1115 373 L1115 378 L1114 378 L1114 382 L1113 382 L1113 388 L1112 388 L1112 393 L1111 393 L1111 399 L1110 399 L1110 404 L1109 404 L1109 408 L1110 408 L1110 405 L1111 405 L1111 404 L1112 404 L1112 402 L1113 402 L1113 401 L1114 401 L1114 399 L1115 399 L1115 397 L1116 397 L1116 395 L1117 395 L1117 394 L1118 394 L1118 392 L1119 392 L1119 391 L1120 391 L1120 389 L1121 389 L1121 388 L1122 388 L1122 386 L1123 386 L1123 385 L1124 385 L1124 384 L1125 384 L1125 382 L1126 382 L1126 381 L1127 381 L1127 380 L1128 380 L1128 378 L1129 378 L1129 377 L1130 377 L1130 376 L1131 376 L1131 375 L1132 375 L1132 374 L1133 374 L1133 373 L1134 373 L1134 371 L1135 371 L1135 370 L1136 370 L1136 369 L1137 369 L1137 368 L1138 368 L1138 367 L1139 367 L1139 366 L1140 366 L1140 365 L1141 365 L1141 364 L1143 364 L1143 363 L1144 363 L1144 362 L1145 362 L1145 361 L1147 361 L1147 360 L1152 360 L1152 361 L1155 361 L1155 362 L1156 362 L1156 363 L1158 363 L1158 364 L1159 364 L1159 365 L1160 365 L1160 366 L1161 366 L1161 367 L1162 367 L1162 369 L1163 369 L1163 371 L1164 371 L1164 385 L1163 385 L1163 389 L1162 389 L1162 394 L1161 394 L1161 397 L1163 397 L1163 396 L1165 396 L1165 395 L1168 395 L1168 394 L1173 394 L1173 398 L1172 398 L1172 400 L1170 400 L1170 401 L1169 401 L1169 402 L1168 402 L1168 403 L1167 403 L1167 404 L1165 404 L1165 405 L1164 405 L1164 406 L1162 406 L1162 407 L1161 407 L1161 408 L1159 408 L1159 409 L1158 409 L1158 410 L1157 410 L1157 411 L1156 411 L1156 413 L1155 413 L1155 415 L1154 415 L1154 418 L1153 418 L1153 421 L1152 421 L1152 423 L1151 423 L1151 425 L1150 425 L1150 427 L1149 427 L1149 429 L1148 429 L1148 431 L1147 431 L1147 433 L1146 433 L1146 434 L1145 434 L1145 436 L1144 436 L1144 437 L1143 437 L1143 439 L1142 439 L1142 440 L1141 440 L1141 441 L1140 441 L1140 442 L1138 442 L1138 443 L1129 443 L1129 442 L1128 442 L1128 441 L1126 441 L1126 440 L1125 440 L1125 439 L1124 439 L1124 438 L1123 438 L1123 437 L1122 437 L1122 431 L1123 431 L1123 429 L1124 429 L1124 427 L1125 427 L1125 425 L1126 425 L1126 424 L1127 424 L1127 422 L1128 422 L1128 421 L1129 421 L1129 420 L1130 420 L1130 418 L1131 418 L1131 417 L1132 417 L1132 416 L1133 416 L1133 415 L1134 415 L1134 414 L1135 414 L1135 413 L1136 413 L1136 411 L1137 411 L1137 409 L1138 409 L1138 407 L1139 407 L1139 405 L1140 405 L1140 403 L1141 403 L1141 401 L1142 401 L1142 399 L1143 399 L1143 396 L1144 396 L1144 394 L1145 394 L1145 391 L1146 391 L1146 388 L1147 388 L1147 385 L1148 385 L1148 381 L1149 381 L1149 378 L1148 378 L1148 379 L1147 379 L1147 380 L1146 380 L1146 381 L1145 381 L1145 382 L1144 382 L1144 383 L1143 383 L1143 385 L1142 385 L1142 386 L1141 386 L1141 387 L1140 387 L1140 389 L1139 389 L1139 390 L1138 390 L1138 391 L1137 391 L1137 393 L1136 393 L1136 394 L1135 394 L1135 395 L1134 395 L1134 397 L1133 397 L1133 398 L1132 398 L1132 400 L1131 400 L1131 402 L1130 402 L1130 403 L1129 403 L1129 405 L1128 405 L1128 406 L1127 406 L1127 408 L1126 408 L1126 410 L1125 410 L1125 411 L1124 411 L1124 413 L1123 413 L1123 415 L1122 415 L1122 417 L1121 417 L1121 419 L1120 419 L1120 421 L1119 421 L1119 423 L1118 423 L1118 425 L1117 425 L1117 427 L1116 427 L1116 429 L1115 429 L1115 430 L1114 430 L1114 433 L1113 433 L1113 435 L1112 435 L1112 438 L1111 438 L1111 440 L1110 440 L1110 442 L1109 442 L1109 445 L1108 445 L1108 447 L1107 447 L1107 450 L1106 450 L1106 452 L1105 452 L1105 455 L1104 455 L1104 458 L1103 458 L1103 462 L1102 462 L1102 468 L1101 468 L1101 479 L1100 479 L1100 493 L1099 493 L1099 511 L1098 511 L1098 545 L1099 545 L1099 555 L1100 555 L1100 562 L1096 562 L1096 563 L1094 563 L1094 562 L1091 562 L1091 561 L1089 561 L1089 560 L1088 560 L1088 559 L1087 559 L1087 557 L1086 557 L1086 555 L1085 555 L1085 551 L1084 551 L1084 546 L1083 546 L1083 540 L1082 540 L1082 530 L1081 530 L1081 514 L1080 514 L1080 466 L1081 466 L1081 453 L1082 453 L1082 443 L1083 443 L1083 435 L1084 435 L1084 426 L1085 426 L1085 424 L1084 424 L1084 425 L1083 425 L1083 426 L1082 426 L1082 427 L1081 427 L1081 428 L1080 428 L1080 429 L1079 429 L1079 430 L1078 430 L1078 431 L1077 431 L1077 432 L1076 432 L1076 433 L1074 433 L1074 434 L1073 434 L1073 435 L1071 435 L1071 436 L1068 436 L1068 437 L1064 437 L1064 436 L1061 436 L1061 435 L1060 435 L1060 434 L1058 434 L1058 433 L1057 433 L1057 432 L1056 432 L1056 431 L1055 431 L1055 430 L1054 430 L1054 428 L1053 428 L1053 427 L1052 427 L1052 425 L1051 425 L1051 423 L1050 423 L1050 421 L1049 421 L1049 417 L1048 417 L1048 413 L1047 413 L1047 406 L1046 406 L1046 407 L1045 407 L1045 408 L1044 408 L1044 409 L1043 409 L1043 410 L1041 410 L1041 411 L1040 411 L1040 412 L1039 412 L1039 413 L1038 413 L1038 414 L1036 414 L1036 415 L1035 415 L1035 416 L1033 416 L1033 417 L1032 417 L1032 418 L1031 418 L1031 419 L1029 419 L1029 420 L1028 420 L1028 421 L1027 421 L1027 422 L1025 422 L1025 423 L1024 423 L1024 424 L1023 424 L1023 425 L1021 425 L1021 426 L1020 426 L1020 427 L1018 427 L1018 428 L1017 428 L1017 429 L1015 429 L1015 430 L1014 430 L1014 431 L1013 431 L1013 432 L1011 432 L1011 433 L1009 433 L1009 434 L1008 434 L1008 435 L1006 435 L1006 436 L1004 436 L1004 437 L1002 437 L1002 438 L999 438 L999 439 L990 439 L990 438 L989 438 L989 437 L987 437 L987 436 L986 436 L986 435 L984 435 L984 433 L983 433 L983 432 L982 432 L982 430 L981 430 L981 431 L980 431 L980 432 L979 432 L979 434 L978 434 L978 435 L977 435 L977 436 L976 436 L976 437 L975 437 L975 438 L974 438 L974 439 L973 439 L973 440 L972 440 L972 442 L971 442 L971 443 L970 443 L970 444 L969 444 L969 445 L968 445 L968 446 L967 446 L967 447 L965 447 L965 448 L964 448 L964 449 L962 449 L962 450 L959 450 L959 451 L951 451 L951 450 L948 450 L948 449 L947 449 L947 448 L945 448 L945 446 L944 446 L944 445 L943 445 L943 442 L942 442 L942 438 L941 438 L941 433 L940 433 L940 414 L939 414 L939 405 L938 405 L938 403 L932 403 L932 405 L931 405 L931 407 L930 407 L930 409 L929 409 L929 411 L928 411 L928 413 L927 413 L927 414 L926 414 L926 416 L925 416 L925 417 L924 417 L924 419 L923 419 L923 420 L922 420 L922 422 L921 422 L921 423 L920 423 L920 425 L919 425 L919 426 L918 426 L918 427 L917 427 L917 428 L916 428 L916 430 L915 430 L915 431 L914 431 L914 432 L913 432 L913 433 L912 433 L912 434 L911 434 L911 435 L910 435 L910 436 L909 436 L909 437 L908 437 L908 439 L907 439 L907 440 L906 440 L906 441 L905 441 L905 442 L904 442 L904 443 L903 443 L903 444 L902 444 L902 445 L901 445 L901 446 L899 446 L899 447 L898 447 L898 448 L897 448 L897 449 L896 449 L896 450 L895 450 L895 451 L893 451 L893 452 L892 452 L892 453 L891 453 L891 454 L889 454 L889 455 L888 455 L888 456 L886 456 L886 457 L885 457 L885 458 L883 458 L883 459 L880 459 L880 460 L878 460 L878 461 L874 461 L874 462 L868 462 L868 461 L863 461 L863 460 L861 460 L861 459 L858 459 L858 458 L857 458 L857 457 L855 457 L855 456 L854 456 L854 455 L853 455 L853 454 L852 454 L852 453 L851 453 L851 452 L850 452 L850 451 L849 451 L849 450 L848 450 L848 448 L847 448 L847 447 L846 447 L846 445 L845 445 L845 443 L844 443 L844 441 L843 441 L843 437 L842 437 L842 432 L840 432 L840 433 L839 433 L839 434 L838 434 L838 435 L837 435 L837 436 L836 436 L836 437 L834 437 L834 438 L833 438 L833 439 L831 439 L831 440 L829 440 L829 441 L824 441 L824 440 L821 440 L821 439 L819 439 L819 438 L817 438 L817 437 L815 437 L815 436 L814 436 L814 435 L813 435 L813 434 L812 434 L812 432 L811 432 L811 431 L810 431 L810 428 L809 428 L809 425 L808 425 L808 422 L807 422 L807 419 L806 419 L806 422 L805 422 L805 424 L804 424 L804 427 L803 427 L803 429 L802 429 L802 431 L801 431 L801 434 L800 434 L800 436 L799 436 L799 439 L798 439 L798 443 L797 443 L797 446 L796 446 L796 449 L795 449 L795 452 L794 452 L794 455 L793 455 L793 458 L792 458 L792 461 L791 461 L791 464 L790 464 L790 467 L789 467 L789 469 L788 469 L788 471 L787 471 L787 472 L785 472 L785 473 L777 473 L777 472 L774 472 L774 471 L772 471 L772 470 L771 470 L771 469 L770 469 L770 468 L768 468 L768 467 L767 467 L767 465 L766 465 L766 464 L765 464 L765 462 L764 462 L764 457 L763 457 L763 448 L762 448 L762 436 L761 436 L761 435 L762 435 L762 434 L761 434 L761 407 L762 407 L762 406 L761 406 L761 404 L762 404 L762 390 L763 390 L763 380 L764 380 L764 371 L765 371 L765 363 L766 363 L766 355 L767 355 L767 349 L768 349 L768 343 L769 343 L769 337 L770 337 L770 331 L771 331 L771 325 L772 325 L772 320 L773 320 L773 318 L752 318 L752 319 L743 319 L743 320 L742 320 L742 325 L741 325 L741 329 L740 329 L740 334 L739 334 L739 339 L738 339 L738 345 L737 345 L737 350 L736 350 L736 356 L735 356 L735 362 L734 362 L734 367 L733 367 L733 374 L732 374 L732 382 L731 382 L731 390 L730 390 L730 400 L729 400 L729 415 L728 415 L728 466 L729 466 L729 478 L730 478 L730 484 L731 484 L731 488 L732 488 L732 492 L733 492 L733 495 L734 495 L734 497 L735 497 L735 499 L736 499 L736 501 L737 501 L737 503 L736 503 L736 504 L729 504 L729 503 L727 503 L727 502 L725 502 L725 501 L724 501 L724 500 L723 500 L723 499 L722 499 L722 498 L721 498 L721 497 L720 497 L720 495 L719 495 L719 494 L718 494 L718 492 L717 492 L717 489 L716 489 L716 486 L715 486 L715 483 L714 483 L714 479 L713 479 L713 474 L712 474 L712 468 L711 468 L711 459 L710 459 L710 399 L711 399 L711 381 L712 381 L712 370 L713 370 L713 362 L714 362 L714 355 L715 355 L715 348 L716 348 L716 342 L717 342 L717 337 L718 337 L718 335 L683 335 L683 336 L682 336 L682 339 L678 339 L678 338 L677 338 L677 337 L676 337 L676 336 L675 336 L675 335 L641 335 L641 334 L640 334 L640 328 L643 328 L643 329 L644 329 L644 328 L650 328 L650 327 L653 327 L653 326 L655 326 L655 325 L656 325 L656 324 L657 324 L657 323 L658 323 L658 321 L659 321 L659 318 L660 318 L660 312 L661 312 L661 71 L660 71 L660 69 L661 69 L661 66 L660 66 L660 56 L659 56 L659 51 L658 51 L658 49 L657 49 L657 48 L656 48 L656 47 L654 47 L654 46 L652 46 L652 45 L648 45 L648 44 L640 44 L640 38 L719 38 L719 44 L711 44 L711 45 L707 45 L707 46 L704 46 L704 47 L703 47 L703 48 L701 48 L701 49 L700 49 L700 51 L699 51 L699 54 L698 54 L698 63 L697 63 L697 64 L698 64 L698 175 L697 175 L697 176 L698 176 L698 177 L855 177 L855 176 L856 176 L856 66 L855 66 L855 56 L854 56 L854 52 L853 52 L853 49 L852 49 L852 48 L851 48 L851 47 L850 47 L850 46 L848 46 L848 45 L844 45 L844 44 L836 44 L836 43 L835 43 L835 38 L913 38 L913 44 L904 44 L904 45 L900 45 L900 46 L898 46 L898 47 L897 47 L897 48 L896 48 L896 49 L895 49 L895 51 L894 51 L894 53 L893 53 L893 67 L892 67 L892 304 L893 304 L893 318 L894 318 L894 321 L895 321 L895 322 L896 322 L896 324 L897 324 L897 325 L898 325 L898 326 L900 326 L900 327 L903 327 L903 328 L913 328 L913 335 L836 335 L836 334 L835 334 L835 329 L836 329 L836 328 L845 328 L845 327 L849 327 L849 326 L851 326 L851 324 L852 324 L852 323 L853 323 L853 321 L854 321 L854 316 L855 316 L855 306 L856 306 L856 226 L855 226 L855 228 L854 228 L854 231 L853 231 L853 233 L852 233 L852 236 L851 236 L851 238 L850 238 L850 241 L849 241 L849 243 L848 243 L848 245 L847 245 L847 248 L846 248 L846 249 L845 249 L845 251 L844 251 L844 253 L843 253 L843 256 L842 256 L842 258 L841 258 L841 260 L840 260 L840 262 L839 262 L839 264 L838 264 L838 266 L837 266 L837 268 L836 268 L836 270 L835 270 L835 272 L834 272 L834 274 L833 274 L833 276 L832 276 L832 278 L831 278 L831 280 L830 280 L830 282 L829 282 L829 284 L828 284 L828 286 L827 286 L827 288 L826 288 L826 290 L825 290 L825 291 L824 291 L824 293 L823 293 L823 295 L822 295 L822 297 L821 297 L821 299 L820 299 L820 301 L819 301 L819 303 L818 303 L818 305 L817 305 L817 306 L816 306 L816 308 L815 308 L815 310 L814 310 L814 312 L813 312 L813 314 L812 314 L812 315 L811 315 L811 317 L810 317 L810 319 L809 319 L809 321 L808 321 L808 323 L807 323 L807 325 L806 325 L806 327 L805 327 L805 328 L804 328 L804 330 L803 330 L803 332 L802 332 L802 334 L801 334 L801 335 L800 335 L800 337 L799 337 L799 339 L798 339 L798 340 L797 340 L797 342 L796 342 L796 344 L795 344 L795 345 L794 345 L794 347 L793 347 L793 348 L792 348 L792 350 L791 350 L791 351 L790 351 L790 356 L789 356 L789 365 L788 365 L788 374 L787 374 L787 383 L786 383 L786 392 L785 392 L785 404 L784 404 L784 421 L783 421 L783 422 L784 422 L784 423 L783 423 L783 428 L784 428 L784 426 L785 426 L785 423 L786 423 L786 422 L787 422 L787 420 L788 420 L788 418 L789 418 L789 416 L790 416 L790 414 L791 414 L791 411 L792 411 L792 410 L793 410 L793 408 L794 408 L794 406 L795 406 L795 404 L796 404 L796 403 L797 403 L797 401 L798 401 L798 400 L799 400 L799 399 L800 399 L800 398 L804 398 L804 399 L809 399 L809 400 L812 400 L812 401 L813 401 L813 402 L815 402 L815 403 L816 403 L816 404 L817 404 L817 406 L818 406 L818 407 L819 407 L819 410 L820 410 L820 412 L821 412 L821 416 L822 416 L822 420 L823 420 L823 424 L824 424 L824 427 L825 427 L825 428 L826 428 L826 427 L827 427 L827 426 L828 426 L828 425 L829 425 L829 424 L830 424 L830 423 L831 423 L831 422 L832 422 L832 421 L834 421 L834 420 L835 420 L835 419 L836 419 L836 418 L837 418 L837 417 L838 417 L838 416 L839 416 L839 415 L840 415 L840 414 L841 414 L841 413 L842 413 L842 412 L843 412 L843 411 L844 411 L844 410 L845 410 L845 409 L846 409 L846 408 L847 408 L847 407 L848 407 L848 406 L849 406 L849 405 L850 405 L850 403 L851 403 L851 402 L852 402 L852 400 L853 400 L853 398 L854 398 L854 396 L855 396 L855 395 L856 395 L856 393 L857 393 L857 391 L858 391 L858 390 L859 390 L859 389 L860 389 L860 387 L861 387 L861 386 L862 386 L862 385 L863 385 L863 383 L864 383 L864 382 L865 382 L865 381 L866 381 L866 380 L867 380 L867 379 L869 379 L869 378 L870 378 L870 377 L872 377 L872 376 L874 376 L874 375 L882 375 L882 376 L885 376 L885 377 L886 377 L886 378 L888 378 L888 379 L889 379 L889 380 L890 380 L890 381 L891 381 L891 383 L892 383 L892 384 L893 384 L893 386 L894 386 L894 389 L895 389 L895 397 L894 397 L894 401 L893 401 L893 403 L892 403 L892 405 L891 405 L891 408 L890 408 L890 410 L889 410 L889 411 L888 411 L888 413 L887 413 L887 414 L886 414 L886 416 L885 416 L885 417 L884 417 L884 418 L883 418 L883 419 L882 419 L882 421 L881 421 L881 422 L880 422 L880 423 L879 423 L879 424 L878 424 L878 425 L877 425 L877 427 L876 427 L876 428 L874 428 L874 429 L873 429 L873 430 L872 430 L872 431 L870 431 L870 432 L869 432 L869 433 L867 433 L867 434 L865 434 L865 435 L861 435 L861 436 L860 436 L860 447 L864 447 L864 446 L868 446 L868 445 L870 445 L870 444 L872 444 L872 443 L874 443 L874 442 L876 442 L876 441 L878 441 L878 440 L880 440 L880 439 L881 439 L881 438 L883 438 L883 437 L884 437 L884 436 L886 436 L886 435 L887 435 L887 434 L888 434 L888 433 L889 433 L889 432 L891 432 L891 431 L892 431 L892 430 L893 430 L893 429 L894 429 L894 428 L895 428 L895 427 L896 427 L896 426 L898 426 L898 425 L899 425 L899 424 L900 424 L900 423 L901 423 L901 422 L902 422 L902 421 L903 421 L903 420 L904 420 L904 419 L905 419 L905 418 L906 418 L906 417 L907 417 L907 415 L908 415 L908 414 L909 414 L909 413 L910 413 L910 412 L911 412 L911 411 L912 411 L912 410 L913 410 L913 409 L914 409 L914 407 L915 407 L915 406 L916 406 L916 405 L917 405 L917 403 L918 403 L918 402 L919 402 L919 401 L920 401 L920 398 L919 398 L919 397 L917 397 L917 396 L916 396 L916 395 L915 395 L915 394 L914 394 L914 393 L913 393 L913 391 L912 391 L912 389 L911 389 L911 374 L912 374 L912 368 L913 368 L913 364 L914 364 L914 361 L915 361 L915 358 L916 358 L916 355 L917 355 L917 353 L918 353 L918 350 L919 350 L919 348 L920 348 L920 346 L921 346 L921 344 L922 344 L922 342 L923 342 L923 340 L924 340 L924 338 L925 338 L925 337 L926 337 L926 335 L927 335 L927 329 L928 329 L928 328 L929 328 L929 329 L930 329 L930 328 L933 328 L933 327 L934 327 L934 326 L936 326 L936 325 L940 325 L940 324 L943 324 L943 323 L944 323 L944 320 L945 320 L945 316 L946 316 L946 311 L947 311 L947 304 L948 304 L948 298 L949 298 L949 291 L950 291 L950 284 L951 284 L951 277 L952 277 L952 270 L953 270 L953 262 L954 262 L954 255 L955 255 L955 247 L956 247 L956 241 L957 241 L957 234 L958 234 L958 227 L959 227 L959 221 L960 221 L960 214 L961 214 L961 207 L962 207 L962 199 L963 199 L963 191 L964 191 L964 184 L965 184 L965 177 L966 177 L966 170 L967 170 L967 163 L968 163 L968 156 L969 156 L969 149 L970 149 L970 143 L971 143 L971 136 L972 136 L972 129 L973 129 L973 121 L974 121 L974 113 L975 113 L975 106 L976 106 L976 99 L977 99 L977 93 L978 93 L978 86 L979 86 L979 78 L980 78 L980 72 L981 72 L981 70 L980 70 L980 68 L979 68 L979 66 L978 66 L978 64 L977 64 L977 62 L976 62 L976 60 L975 60 L975 58 L974 58 L974 56 L973 56 L973 55 L972 55 L972 53 L971 53 L971 52 L970 52 L970 51 L969 51 L969 50 L968 50 L968 49 L966 49 L966 48 L964 48 L964 47 L962 47 L962 46 L960 46 L960 45 L956 45 L956 44 L949 44 L949 43 L948 43 L948 41 L949 41 L949 40 L948 40 L948 38 L1007 38 L1007 40 L1008 40 L1008 43 L1009 43 L1009 45 L1010 45 L1010 47 L1011 47 L1011 50 L1012 50 L1012 52 L1013 52 L1013 55 L1014 55 L1014 57 L1015 57 L1015 59 L1016 59 L1016 62 L1017 62 L1017 64 L1018 64 L1018 66 L1019 66 L1019 68 L1020 68 L1020 71 L1021 71 L1021 73 L1022 73 L1022 76 L1023 76 L1023 78 L1024 78 L1024 80 L1025 80 L1025 83 L1026 83 L1026 85 L1027 85 L1027 87 L1028 87 L1028 89 L1029 89 L1029 92 L1030 92 L1030 94 L1031 94 L1031 97 L1032 97 L1032 98 L1033 98 L1033 101 L1034 101 L1034 104 L1035 104 L1035 106 L1036 106 L1036 108 L1037 108 L1037 110 L1038 110 L1038 113 L1039 113 L1039 115 L1040 115 L1040 117 L1041 117 L1041 120 L1042 120 L1042 122 L1043 122 L1043 124 L1044 124 L1044 127 L1045 127 L1045 129 L1046 129 L1046 131 L1047 131 L1047 134 L1048 134 L1048 136 L1049 136 L1049 138 L1050 138 L1050 141 L1051 141 L1051 143 L1052 143 L1052 146 L1053 146 L1053 148 L1054 148 L1054 150 L1055 150 L1055 152 L1056 152 L1056 155 L1057 155 L1057 157 L1058 157 L1058 159 L1059 159 L1059 161 L1060 161 L1060 164 L1061 164 L1061 166 L1062 166 L1062 169 L1063 169 L1063 171 L1064 171 L1064 173 L1065 173 L1065 176 L1066 176 L1066 178 L1067 178 L1067 180 L1068 180 L1068 182 L1069 182 L1069 185 L1070 185 L1070 187 L1071 187 L1071 189 L1072 189 L1072 192 L1073 192 L1073 194 L1074 194 L1074 197 L1075 197 L1075 199 L1076 199 L1076 201 L1077 201 L1077 203 L1078 203 L1078 206 L1079 206 L1079 208 L1080 208 L1080 210 L1081 210 L1081 213 L1082 213 L1082 215 L1083 215 L1083 217 L1084 217 L1084 220 L1085 220 L1085 222 L1086 222 L1086 225 L1087 225 L1087 227 L1088 227 L1088 229 L1089 229 L1089 231 L1090 231 L1090 234 L1091 234 L1091 236 L1092 236 L1092 238 L1093 238 L1093 241 L1094 241 L1094 243 L1095 243 L1095 246 L1096 246 L1096 248 L1097 248 L1097 250 L1098 250 L1098 252 L1099 252 L1099 255 L1100 255 L1100 257 L1101 257 L1101 259 L1102 259 L1102 262 L1103 262 L1103 264 L1104 264 L1104 267 L1105 267 L1105 269 L1106 269 L1106 271 L1107 271 L1107 273 L1108 273 L1108 276 L1109 276 L1109 273 L1110 273 L1110 271 L1111 271 L1111 269 L1112 269 L1112 267 L1113 267 L1113 265 L1114 265 L1114 262 L1115 262 L1115 260 L1116 260 L1116 257 L1117 257 L1117 255 L1118 255 L1118 253 L1119 253 L1119 250 L1120 250 L1120 248 L1121 248 L1121 246 L1122 246 L1122 244 L1123 244 L1123 241 L1124 241 L1124 239 L1125 239 L1125 236 L1126 236 L1126 234 L1127 234 L1127 232 L1128 232 L1128 229 L1129 229 L1129 227 L1130 227 L1130 225 L1131 225 L1131 223 L1132 223 L1132 220 L1133 220 L1133 218 L1134 218 L1134 216 L1135 216 L1135 213 L1136 213 L1136 211 L1137 211 L1137 208 L1138 208 L1138 206 L1139 206 L1139 204 L1140 204 L1140 202 L1141 202 L1141 199 L1142 199 L1142 197 L1143 197 L1143 195 L1144 195 L1144 193 L1145 193 L1145 190 L1146 190 L1146 188 L1147 188 L1147 185 L1148 185 L1148 183 L1149 183 L1149 181 L1150 181 L1150 178 L1151 178 L1151 176 L1152 176 L1152 174 L1153 174 L1153 172 L1154 172 L1154 170 L1155 170 L1155 167 L1156 167 L1156 164 L1157 164 L1157 162 L1158 162 L1158 160 L1159 160 L1159 158 L1160 158 L1160 155 L1161 155 L1161 153 L1162 153 L1162 151 L1163 151 L1163 149 L1164 149 L1164 146 L1165 146 L1165 143 L1166 143 L1166 141 L1167 141 L1167 139 L1168 139 L1168 137 L1169 137 L1169 134 L1170 134 L1170 132 L1171 132 L1171 130 L1172 130 L1172 127 L1173 127 L1173 125 L1174 125 L1174 123 L1175 123 L1175 120 L1176 120 L1176 118 L1177 118 L1177 116 L1178 116 L1178 113 L1179 113 L1179 111 L1180 111 L1180 109 L1181 109 L1181 107 L1182 107 L1182 104 L1183 104 L1183 102 L1184 102 L1184 100 L1185 100 L1185 97 L1186 97 L1186 95 L1187 95 L1187 92 L1188 92 L1188 90 L1189 90 L1189 88 L1190 88 L1190 86 L1191 86 L1191 83 L1192 83 L1192 81 L1193 81 L1193 79 L1194 79 L1194 77 L1195 77 L1195 74 L1196 74 L1196 72 L1197 72 L1197 69 L1198 69 L1198 67 L1199 67 L1199 65 L1200 65 L1200 63 L1201 63 L1201 60 L1202 60 L1202 58 L1203 58 L1203 56 L1204 56 L1204 54 L1205 54 L1205 51 L1206 51 L1206 49 L1207 49 L1207 46 L1208 46 L1208 44 L1209 44 L1209 41 L1210 41 L1210 39 L1211 39 L1211 38 L1260 38 L1260 44 L1253 44 L1253 45 L1250 45 L1250 46 L1247 46 L1247 47 L1245 47 L1245 48 L1244 48 L1244 49 L1242 49 L1242 51 L1241 51 L1241 52 L1240 52 L1240 53 L1239 53 L1239 55 L1238 55 L1238 58 L1237 58 L1237 63 L1236 63 L1236 72 L1237 72 L1237 80 L1238 80 L1238 88 L1239 88 L1239 94 L1240 94 L1240 101 L1241 101 L1241 108 L1242 108 L1242 115 L1243 115 L1243 122 L1244 122 L1244 130 L1245 130 L1245 139 L1246 139 L1246 146 L1247 146 L1247 153 L1248 153 L1248 160 L1249 160 L1249 166 L1250 166 L1250 173 L1251 173 L1251 180 L1252 180 L1252 187 L1253 187 L1253 195 L1254 195 L1254 202 L1255 202 L1255 211 L1256 211 L1256 218 L1257 218 L1257 224 L1258 224 L1258 231 L1259 231 L1259 239 L1260 239 L1260 246 L1261 246 L1261 252 L1262 252 L1262 259 L1263 259 L1263 266 L1264 266 L1264 274 L1265 274 L1265 283 L1266 283 L1266 290 L1267 290 L1267 297 L1268 297 L1268 304 L1269 304 L1269 309 L1270 309 L1270 313 L1271 313 L1271 316 L1272 316 L1272 319 L1273 319 L1273 322 L1274 322 L1274 324 L1275 324 L1275 325 L1276 325 L1276 326 L1279 326 L1279 327 L1282 327 L1282 328 L1288 328 L1288 329 L1290 329 L1290 328 L1298 328 L1298 327 L1301 327 L1301 326 L1303 326 L1303 325 L1305 325 L1305 324 L1306 324 L1306 323 L1307 323 L1307 322 L1308 322 L1308 321 L1309 321 L1309 319 L1310 319 L1310 317 L1311 317 L1311 316 L1312 316 L1312 314 L1313 314 L1313 312 L1314 312 L1314 310 L1315 310 L1315 308 L1316 308 L1316 305 L1317 305 L1317 302 L1318 302 L1318 300 L1319 300 L1319 297 L1320 297 L1320 295 L1321 295 L1321 292 L1322 292 L1322 290 L1323 290 L1323 287 L1324 287 L1324 285 L1325 285 L1325 283 L1326 283 L1326 280 L1327 280 L1327 277 L1328 277 L1328 275 L1329 275 L1329 272 L1330 272 L1330 270 L1331 270 L1331 267 L1332 267 L1332 265 L1333 265 L1333 262 L1334 262 L1334 260 L1335 260 L1335 257 L1336 257 L1336 255 L1337 255 L1337 252 L1338 252 L1338 249 L1339 249 L1339 247 L1340 247 L1340 244 L1341 244 L1341 242 L1342 242 L1342 239 L1343 239 L1343 237 L1344 237 L1344 234 L1345 234 L1345 232 L1346 232 L1346 229 L1347 229 L1347 227 L1348 227 L1348 224 L1349 224 L1349 221 L1350 221 L1350 219 L1351 219 L1351 217 L1352 217 L1352 214 L1353 214 L1353 212 L1354 212 L1354 209 L1355 209 L1355 207 L1356 207 L1356 204 L1357 204 L1357 202 L1358 202 L1358 199 L1359 199 L1359 196 L1360 196 L1360 194 L1361 194 L1361 191 L1362 191 L1362 189 L1363 189 L1363 186 L1364 186 L1364 184 L1365 184 L1365 182 L1366 182 L1366 179 L1367 179 L1367 177 L1368 177 L1368 174 L1369 174 L1369 171 L1370 171 L1370 169 L1371 169 L1371 166 L1372 166 L1372 164 L1373 164 L1373 161 L1374 161 L1374 159 L1375 159 L1375 156 L1376 156 L1376 154 L1377 154 L1377 151 L1378 151 L1378 149 L1379 149 L1379 146 L1380 146 L1380 143 L1381 143 L1381 141 L1382 141 L1382 138 L1383 138 L1383 136 L1384 136 L1384 133 L1385 133 L1385 131 L1386 131 L1386 129 L1387 129 L1387 126 L1388 126 L1388 123 L1389 123 L1389 120 L1390 120 L1390 118 L1391 118 L1391 116 L1392 116 L1392 113 L1393 113 L1393 111 L1394 111 L1394 108 L1395 108 L1395 106 L1396 106 L1396 103 L1397 103 L1397 101 L1398 101 L1398 98 L1399 98 L1399 95 L1400 95 L1400 93 L1401 93 L1401 90 L1402 90 L1402 88 L1403 88 L1403 85 L1404 85 L1404 83 L1405 83 L1405 80 L1406 80 L1406 78 L1407 78 L1407 76 L1408 76 L1408 73 L1409 73 L1409 70 L1410 70 L1410 68 L1411 68 L1411 65 L1412 65 L1412 63 L1413 63 L1413 60 L1414 60 L1414 58 L1415 58 L1415 55 L1416 55 L1416 53 L1417 53 L1417 51 L1418 51 L1418 48 L1419 48 L1419 45 L1420 45 L1420 42 L1421 42 L1421 40 L1422 40 L1422 37 L1423 37 L1423 35 L1424 35 L1424 34 L1425 34 Z M37 38 L154 38 L154 39 L168 39 L168 40 L174 40 L174 41 L179 41 L179 42 L183 42 L183 43 L185 43 L185 44 L188 44 L188 45 L190 45 L190 46 L192 46 L192 47 L194 47 L194 48 L196 48 L196 49 L198 49 L198 50 L200 50 L200 51 L201 51 L201 52 L203 52 L203 53 L204 53 L204 54 L206 54 L206 55 L207 55 L207 56 L208 56 L208 57 L209 57 L209 58 L210 58 L210 59 L211 59 L211 60 L212 60 L212 61 L213 61 L213 62 L214 62 L214 63 L215 63 L215 64 L216 64 L216 65 L217 65 L217 67 L218 67 L218 68 L219 68 L219 70 L220 70 L220 72 L221 72 L221 74 L222 74 L222 76 L223 76 L223 79 L224 79 L224 82 L225 82 L225 86 L226 86 L226 90 L227 90 L227 100 L228 100 L228 110 L227 110 L227 117 L226 117 L226 122 L225 122 L225 125 L224 125 L224 128 L223 128 L223 131 L222 131 L222 134 L221 134 L221 136 L220 136 L220 138 L219 138 L219 140 L218 140 L218 142 L217 142 L217 144 L216 144 L216 145 L215 145 L215 147 L214 147 L214 148 L213 148 L213 150 L212 150 L212 151 L211 151 L211 153 L210 153 L210 154 L209 154 L209 155 L208 155 L208 156 L207 156 L207 158 L206 158 L206 159 L205 159 L205 160 L204 160 L204 161 L203 161 L203 162 L202 162 L202 163 L201 163 L201 164 L200 164 L200 165 L199 165 L199 166 L198 166 L198 167 L197 167 L197 168 L196 168 L196 169 L194 169 L194 170 L193 170 L193 171 L192 171 L192 172 L191 172 L191 173 L189 173 L189 174 L188 174 L188 175 L186 175 L186 176 L185 176 L185 177 L184 177 L184 178 L182 178 L182 179 L181 179 L181 180 L179 180 L179 181 L177 181 L177 183 L178 183 L178 184 L179 184 L179 186 L180 186 L180 187 L181 187 L181 189 L182 189 L182 191 L183 191 L183 192 L184 192 L184 193 L185 193 L185 195 L186 195 L186 197 L187 197 L187 198 L188 198 L188 200 L189 200 L189 201 L190 201 L190 203 L191 203 L191 204 L192 204 L192 206 L193 206 L193 207 L194 207 L194 209 L195 209 L195 210 L196 210 L196 212 L197 212 L197 214 L198 214 L198 215 L199 215 L199 217 L200 217 L200 219 L201 219 L201 220 L202 220 L202 222 L203 222 L203 223 L204 223 L204 225 L205 225 L205 226 L206 226 L206 228 L207 228 L207 229 L208 229 L208 230 L209 230 L209 232 L210 232 L210 233 L211 233 L211 235 L212 235 L212 236 L213 236 L213 238 L214 238 L214 239 L215 239 L215 241 L216 241 L216 242 L217 242 L217 243 L218 243 L218 245 L219 245 L219 246 L220 246 L220 248 L221 248 L221 249 L222 249 L222 251 L223 251 L223 252 L224 252 L224 253 L225 253 L225 255 L226 255 L226 256 L227 256 L227 258 L228 258 L228 259 L229 259 L229 260 L230 260 L230 262 L231 262 L231 263 L232 263 L232 265 L233 265 L233 266 L234 266 L234 267 L235 267 L235 269 L236 269 L236 270 L237 270 L237 271 L238 271 L238 272 L239 272 L239 274 L240 274 L240 275 L241 275 L241 277 L242 277 L242 278 L243 278 L243 279 L244 279 L244 280 L245 280 L245 282 L246 282 L246 283 L247 283 L247 284 L248 284 L248 285 L249 285 L249 287 L250 287 L250 288 L251 288 L251 289 L252 289 L252 290 L253 290 L253 292 L254 292 L254 293 L255 293 L255 294 L256 294 L256 295 L257 295 L257 296 L258 296 L258 297 L259 297 L259 298 L260 298 L260 299 L261 299 L261 300 L262 300 L262 301 L263 301 L263 302 L264 302 L264 304 L266 304 L266 305 L267 305 L267 306 L268 306 L268 307 L269 307 L269 308 L270 308 L270 309 L271 309 L271 310 L273 310 L273 311 L274 311 L274 312 L276 312 L276 313 L277 313 L277 314 L279 314 L279 315 L281 315 L281 316 L283 316 L283 317 L286 317 L286 318 L288 318 L288 319 L291 319 L291 320 L295 320 L295 321 L300 321 L300 322 L314 322 L314 321 L319 321 L319 320 L322 320 L322 319 L325 319 L325 318 L327 318 L327 317 L330 317 L330 316 L332 316 L332 315 L334 315 L334 314 L336 314 L336 313 L338 313 L338 312 L340 312 L340 311 L343 311 L343 315 L344 315 L344 317 L343 317 L343 318 L342 318 L342 319 L341 319 L341 320 L339 320 L339 321 L338 321 L338 322 L336 322 L336 323 L335 323 L335 324 L333 324 L333 325 L331 325 L331 326 L329 326 L329 327 L327 327 L327 328 L325 328 L325 329 L323 329 L323 330 L321 330 L321 331 L318 331 L318 332 L315 332 L315 333 L312 333 L312 334 L308 334 L308 335 L301 335 L301 336 L293 336 L293 337 L270 337 L270 336 L264 336 L264 335 L260 335 L260 334 L256 334 L256 333 L254 333 L254 332 L251 332 L251 331 L249 331 L249 330 L247 330 L247 329 L246 329 L246 328 L244 328 L244 327 L242 327 L242 326 L240 326 L240 325 L239 325 L239 324 L238 324 L238 323 L237 323 L237 322 L235 322 L235 321 L234 321 L234 320 L233 320 L233 319 L232 319 L232 318 L231 318 L231 317 L230 317 L230 316 L229 316 L229 315 L228 315 L228 314 L227 314 L227 313 L226 313 L226 312 L225 312 L225 311 L224 311 L224 309 L223 309 L223 308 L222 308 L222 307 L221 307 L221 306 L220 306 L220 305 L219 305 L219 304 L218 304 L218 302 L217 302 L217 301 L216 301 L216 300 L215 300 L215 299 L214 299 L214 297 L213 297 L213 296 L212 296 L212 295 L211 295 L211 294 L210 294 L210 292 L209 292 L209 291 L208 291 L208 290 L207 290 L207 288 L206 288 L206 287 L205 287 L205 286 L204 286 L204 284 L203 284 L203 283 L202 283 L202 281 L201 281 L201 280 L200 280 L200 279 L199 279 L199 277 L198 277 L198 276 L197 276 L197 275 L196 275 L196 273 L195 273 L195 272 L194 272 L194 270 L193 270 L193 269 L192 269 L192 268 L191 268 L191 266 L190 266 L190 265 L189 265 L189 263 L188 263 L188 262 L187 262 L187 261 L186 261 L186 259 L185 259 L185 258 L184 258 L184 256 L183 256 L183 255 L182 255 L182 253 L181 253 L181 252 L180 252 L180 250 L179 250 L179 249 L178 249 L178 248 L177 248 L177 246 L176 246 L176 245 L175 245 L175 243 L174 243 L174 242 L173 242 L173 240 L172 240 L172 239 L171 239 L171 237 L170 237 L170 235 L169 235 L169 234 L168 234 L168 232 L167 232 L167 231 L166 231 L166 229 L165 229 L165 228 L164 228 L164 226 L163 226 L163 224 L162 224 L162 223 L161 223 L161 221 L160 221 L160 220 L159 220 L159 218 L158 218 L158 217 L157 217 L157 215 L156 215 L156 214 L155 214 L155 212 L154 212 L154 211 L153 211 L153 209 L152 209 L152 207 L151 207 L151 206 L150 206 L150 204 L149 204 L149 203 L148 203 L148 201 L147 201 L147 200 L146 200 L146 198 L145 198 L145 197 L144 197 L144 195 L143 195 L143 194 L142 194 L142 193 L126 193 L126 194 L95 194 L95 316 L96 316 L96 320 L97 320 L97 323 L98 323 L98 324 L99 324 L99 325 L100 325 L100 326 L102 326 L102 327 L105 327 L105 328 L114 328 L114 329 L115 329 L115 335 L37 335 L37 334 L36 334 L36 333 L37 333 L37 332 L36 332 L36 329 L37 329 L37 328 L46 328 L46 327 L50 327 L50 326 L52 326 L52 325 L53 325 L53 324 L54 324 L54 323 L55 323 L55 321 L56 321 L56 317 L57 317 L57 309 L58 309 L58 63 L57 63 L57 56 L56 56 L56 53 L55 53 L55 50 L54 50 L54 49 L53 49 L53 47 L51 47 L51 46 L49 46 L49 45 L45 45 L45 44 L37 44 L37 43 L36 43 L36 41 L37 41 L37 40 L36 40 L36 39 L37 39 Z M94 49 L94 50 L95 50 L95 182 L94 182 L94 183 L95 183 L95 184 L128 184 L128 183 L140 183 L140 182 L146 182 L146 181 L151 181 L151 180 L154 180 L154 179 L157 179 L157 178 L160 178 L160 177 L162 177 L162 176 L164 176 L164 175 L166 175 L166 174 L168 174 L168 173 L170 173 L170 172 L171 172 L171 171 L172 171 L172 170 L174 170 L174 169 L175 169 L175 168 L176 168 L176 167 L177 167 L177 166 L178 166 L178 165 L179 165 L179 164 L180 164 L180 163 L181 163 L181 161 L182 161 L182 160 L183 160 L183 159 L184 159 L184 157 L185 157 L185 155 L186 155 L186 154 L187 154 L187 152 L188 152 L188 150 L189 150 L189 147 L190 147 L190 145 L191 145 L191 141 L192 141 L192 138 L193 138 L193 129 L194 129 L194 115 L193 115 L193 108 L192 108 L192 103 L191 103 L191 100 L190 100 L190 97 L189 97 L189 94 L188 94 L188 92 L187 92 L187 89 L186 89 L186 87 L185 87 L185 85 L184 85 L184 83 L183 83 L183 81 L182 81 L182 80 L181 80 L181 78 L180 78 L180 76 L179 76 L179 75 L178 75 L178 73 L177 73 L177 72 L176 72 L176 71 L175 71 L175 69 L174 69 L174 68 L173 68 L173 67 L172 67 L172 66 L171 66 L171 65 L170 65 L170 64 L169 64 L169 63 L168 63 L168 62 L166 62 L166 61 L165 61 L165 60 L163 60 L163 59 L162 59 L162 58 L160 58 L160 57 L158 57 L158 56 L156 56 L156 55 L153 55 L153 54 L151 54 L151 53 L148 53 L148 52 L144 52 L144 51 L140 51 L140 50 L132 50 L132 49 Z M473 94 L472 94 L472 97 L471 97 L471 99 L470 99 L470 102 L469 102 L469 104 L468 104 L468 106 L467 106 L467 109 L466 109 L466 111 L465 111 L465 114 L464 114 L464 117 L463 117 L463 119 L462 119 L462 122 L461 122 L461 124 L460 124 L460 127 L459 127 L459 129 L458 129 L458 132 L457 132 L457 134 L456 134 L456 137 L455 137 L455 139 L454 139 L454 142 L453 142 L453 144 L452 144 L452 147 L451 147 L451 149 L450 149 L450 152 L449 152 L449 154 L448 154 L448 157 L447 157 L447 159 L446 159 L446 162 L445 162 L445 165 L444 165 L444 167 L443 167 L443 170 L442 170 L442 172 L441 172 L441 175 L440 175 L440 177 L439 177 L439 180 L438 180 L438 182 L437 182 L437 185 L436 185 L436 187 L435 187 L435 188 L510 188 L510 187 L509 187 L509 184 L508 184 L508 182 L507 182 L507 179 L506 179 L506 176 L505 176 L505 174 L504 174 L504 171 L503 171 L503 169 L502 169 L502 167 L501 167 L501 164 L500 164 L500 162 L499 162 L499 159 L498 159 L498 156 L497 156 L497 154 L496 154 L496 151 L495 151 L495 149 L494 149 L494 146 L493 146 L493 144 L492 144 L492 141 L491 141 L491 139 L490 139 L490 137 L489 137 L489 134 L488 134 L488 131 L487 131 L487 129 L486 129 L486 126 L485 126 L485 124 L484 124 L484 121 L483 121 L483 119 L482 119 L482 116 L481 116 L481 114 L480 114 L480 111 L479 111 L479 109 L478 109 L478 106 L477 106 L477 103 L476 103 L476 101 L475 101 L475 98 L474 98 L474 96 L473 96 Z M1417 94 L1416 94 L1416 96 L1415 96 L1415 98 L1414 98 L1414 101 L1413 101 L1413 103 L1412 103 L1412 106 L1411 106 L1411 108 L1410 108 L1410 110 L1409 110 L1409 113 L1408 113 L1408 115 L1407 115 L1407 118 L1406 118 L1406 121 L1405 121 L1405 124 L1404 124 L1404 126 L1403 126 L1403 128 L1402 128 L1402 131 L1401 131 L1401 133 L1400 133 L1400 136 L1399 136 L1399 138 L1398 138 L1398 141 L1397 141 L1397 143 L1396 143 L1396 146 L1395 146 L1395 149 L1394 149 L1394 151 L1393 151 L1393 154 L1392 154 L1392 156 L1391 156 L1391 159 L1390 159 L1390 161 L1389 161 L1389 163 L1388 163 L1388 166 L1387 166 L1387 169 L1386 169 L1386 171 L1385 171 L1385 174 L1384 174 L1384 176 L1383 176 L1383 179 L1382 179 L1382 181 L1381 181 L1381 184 L1380 184 L1380 186 L1379 186 L1379 188 L1454 188 L1454 187 L1453 187 L1453 185 L1452 185 L1452 183 L1451 183 L1451 180 L1450 180 L1450 177 L1449 177 L1449 175 L1448 175 L1448 172 L1447 172 L1447 170 L1446 170 L1446 167 L1445 167 L1445 165 L1444 165 L1444 162 L1443 162 L1443 160 L1442 160 L1442 157 L1441 157 L1441 155 L1440 155 L1440 153 L1439 153 L1439 150 L1438 150 L1438 147 L1437 147 L1437 144 L1436 144 L1436 142 L1435 142 L1435 140 L1434 140 L1434 137 L1433 137 L1433 135 L1432 135 L1432 132 L1431 132 L1431 130 L1430 130 L1430 127 L1429 127 L1429 124 L1428 124 L1428 122 L1427 122 L1427 119 L1426 119 L1426 117 L1425 117 L1425 114 L1424 114 L1424 112 L1423 112 L1423 109 L1422 109 L1422 107 L1421 107 L1421 105 L1420 105 L1420 102 L1419 102 L1419 99 L1418 99 L1418 96 L1417 96 Z M697 188 L697 189 L698 189 L698 315 L701 315 L701 314 L703 314 L703 313 L706 313 L706 312 L710 312 L710 311 L713 311 L713 310 L717 310 L717 309 L721 309 L721 308 L724 308 L724 307 L725 307 L725 304 L726 304 L726 301 L727 301 L727 298 L728 298 L728 296 L729 296 L729 293 L730 293 L730 289 L731 289 L731 286 L732 286 L732 283 L733 283 L733 281 L734 281 L734 278 L735 278 L735 276 L736 276 L736 273 L737 273 L737 271 L738 271 L738 268 L739 268 L739 266 L740 266 L740 263 L741 263 L741 261 L742 261 L742 259 L743 259 L743 256 L744 256 L744 255 L745 255 L745 252 L746 252 L746 250 L747 250 L747 249 L748 249 L748 247 L749 247 L749 245 L750 245 L750 243 L751 243 L751 241 L752 241 L752 239 L753 239 L753 238 L754 238 L754 236 L755 236 L755 235 L756 235 L756 233 L757 233 L757 232 L761 232 L761 233 L764 233 L764 234 L765 234 L765 235 L766 235 L766 236 L767 236 L767 237 L768 237 L768 241 L767 241 L767 244 L766 244 L766 247 L765 247 L765 250 L764 250 L764 252 L763 252 L763 255 L762 255 L762 257 L761 257 L761 260 L760 260 L760 263 L759 263 L759 266 L758 266 L758 269 L757 269 L757 272 L756 272 L756 275 L755 275 L755 278 L754 278 L754 281 L753 281 L753 284 L752 284 L752 287 L751 287 L751 290 L750 290 L750 294 L749 294 L749 297 L748 297 L748 301 L747 301 L747 305 L756 305 L756 306 L776 306 L776 304 L777 304 L777 300 L778 300 L778 297 L779 297 L779 293 L780 293 L780 290 L781 290 L781 286 L782 286 L782 282 L783 282 L783 280 L784 280 L784 277 L785 277 L785 274 L786 274 L786 271 L787 271 L787 269 L788 269 L788 266 L789 266 L789 263 L790 263 L790 261 L791 261 L791 258 L792 258 L792 256 L793 256 L793 253 L794 253 L794 251 L795 251 L795 249 L796 249 L796 247 L797 247 L797 245 L798 245 L798 243 L799 243 L799 241 L800 241 L800 239 L801 239 L801 237 L802 237 L802 235 L803 235 L803 233 L804 233 L804 231 L805 231 L805 230 L806 230 L806 228 L807 228 L807 227 L808 227 L808 225 L809 225 L809 223 L810 223 L810 222 L811 222 L811 220 L812 220 L812 219 L813 219 L813 217 L814 217 L814 216 L815 216 L815 215 L816 215 L816 213 L817 213 L817 212 L818 212 L818 211 L819 211 L819 210 L820 210 L820 208 L821 208 L821 207 L822 207 L822 206 L823 206 L823 205 L824 205 L824 204 L825 204 L825 203 L826 203 L826 202 L827 202 L827 201 L829 201 L829 200 L830 200 L830 199 L831 199 L831 198 L832 198 L832 197 L834 197 L834 196 L836 196 L836 195 L843 195 L843 196 L847 196 L847 197 L849 197 L849 198 L850 198 L850 199 L851 199 L851 200 L852 200 L852 201 L853 201 L853 202 L854 202 L854 203 L855 203 L855 205 L856 205 L856 188 Z M842 214 L841 214 L841 215 L840 215 L840 216 L839 216 L839 217 L838 217 L838 219 L837 219 L837 220 L836 220 L836 221 L835 221 L835 222 L834 222 L834 223 L833 223 L833 225 L832 225 L832 226 L831 226 L831 227 L830 227 L830 229 L829 229 L829 231 L828 231 L828 233 L827 233 L827 234 L826 234 L826 236 L825 236 L825 238 L824 238 L824 240 L823 240 L823 241 L822 241 L822 243 L821 243 L821 246 L820 246 L820 248 L819 248 L819 250 L818 250 L818 252 L817 252 L817 255 L816 255 L816 257 L815 257 L815 259 L814 259 L814 262 L813 262 L813 264 L812 264 L812 266 L811 266 L811 269 L810 269 L810 272 L809 272 L809 275 L808 275 L808 278 L807 278 L807 281 L806 281 L806 284 L805 284 L805 287 L804 287 L804 290 L803 290 L803 293 L802 293 L802 297 L801 297 L801 300 L800 300 L800 304 L799 304 L799 309 L800 309 L800 307 L801 307 L801 304 L802 304 L802 302 L803 302 L803 300 L804 300 L804 298 L805 298 L805 296 L806 296 L806 295 L807 295 L807 293 L808 293 L808 291 L809 291 L809 289 L810 289 L810 286 L811 286 L811 284 L812 284 L812 282 L813 282 L813 280 L814 280 L814 278 L815 278 L815 276 L816 276 L816 274 L817 274 L817 272 L818 272 L818 270 L819 270 L819 268 L820 268 L820 266 L821 266 L821 264 L822 264 L822 262 L823 262 L823 259 L824 259 L824 257 L825 257 L825 255 L826 255 L826 253 L827 253 L827 251 L828 251 L828 249 L829 249 L829 247 L830 247 L830 245 L831 245 L831 242 L832 242 L832 240 L833 240 L833 237 L834 237 L834 235 L835 235 L835 233 L836 233 L836 230 L837 230 L837 228 L838 228 L838 225 L839 225 L839 223 L840 223 L840 220 L841 220 L841 216 L842 216 Z M716 323 L716 324 L712 324 L712 325 L708 325 L708 326 L705 326 L705 327 L708 327 L708 328 L718 328 L718 329 L719 329 L719 327 L720 327 L720 323 Z M1263 351 L1269 351 L1269 352 L1272 352 L1272 353 L1274 353 L1274 354 L1276 354 L1276 355 L1277 355 L1277 356 L1278 356 L1278 357 L1280 357 L1280 358 L1281 358 L1281 359 L1282 359 L1282 361 L1283 361 L1283 362 L1284 362 L1284 364 L1285 364 L1285 366 L1286 366 L1286 368 L1287 368 L1287 372 L1288 372 L1288 377 L1289 377 L1289 413 L1288 413 L1288 424 L1287 424 L1287 432 L1286 432 L1286 439 L1285 439 L1285 446 L1284 446 L1284 451 L1283 451 L1283 456 L1282 456 L1282 460 L1281 460 L1281 464 L1280 464 L1280 468 L1279 468 L1279 472 L1278 472 L1278 475 L1277 475 L1277 479 L1276 479 L1276 482 L1275 482 L1275 486 L1274 486 L1274 489 L1273 489 L1273 492 L1272 492 L1272 495 L1271 495 L1271 497 L1270 497 L1270 500 L1269 500 L1269 502 L1268 502 L1268 505 L1267 505 L1267 507 L1266 507 L1266 509 L1265 509 L1265 511 L1264 511 L1264 513 L1263 513 L1263 515 L1262 515 L1262 517 L1261 517 L1261 519 L1260 519 L1260 520 L1259 520 L1259 522 L1258 522 L1258 523 L1257 523 L1257 525 L1256 525 L1256 526 L1255 526 L1255 528 L1254 528 L1254 529 L1253 529 L1253 530 L1252 530 L1252 531 L1251 531 L1251 532 L1250 532 L1250 533 L1249 533 L1249 534 L1248 534 L1248 535 L1246 535 L1246 536 L1245 536 L1245 537 L1244 537 L1244 538 L1242 538 L1242 539 L1239 539 L1239 540 L1235 540 L1235 541 L1225 541 L1225 540 L1222 540 L1222 539 L1220 539 L1220 538 L1218 538 L1218 537 L1217 537 L1217 536 L1215 536 L1215 535 L1214 535 L1214 534 L1213 534 L1213 532 L1212 532 L1212 531 L1211 531 L1211 530 L1210 530 L1210 528 L1209 528 L1209 526 L1208 526 L1208 522 L1207 522 L1207 509 L1208 509 L1208 505 L1209 505 L1209 501 L1210 501 L1210 498 L1211 498 L1211 496 L1212 496 L1212 493 L1213 493 L1213 491 L1214 491 L1214 489 L1215 489 L1215 487 L1216 487 L1216 485 L1217 485 L1217 484 L1218 484 L1218 482 L1219 482 L1219 480 L1220 480 L1220 479 L1221 479 L1221 478 L1222 478 L1222 476 L1223 476 L1223 475 L1224 475 L1224 474 L1225 474 L1225 472 L1226 472 L1226 471 L1227 471 L1227 470 L1228 470 L1228 469 L1229 469 L1229 468 L1230 468 L1230 467 L1231 467 L1231 466 L1232 466 L1232 465 L1233 465 L1233 464 L1234 464 L1234 463 L1235 463 L1235 462 L1236 462 L1236 461 L1237 461 L1237 460 L1238 460 L1238 459 L1239 459 L1239 458 L1240 458 L1240 457 L1241 457 L1241 456 L1242 456 L1242 455 L1243 455 L1243 454 L1244 454 L1244 453 L1245 453 L1245 452 L1246 452 L1246 451 L1247 451 L1247 450 L1248 450 L1248 449 L1250 449 L1250 448 L1251 448 L1251 447 L1252 447 L1252 446 L1253 446 L1253 445 L1255 445 L1255 444 L1256 444 L1256 443 L1257 443 L1257 442 L1258 442 L1258 441 L1260 441 L1260 440 L1261 440 L1261 439 L1263 439 L1263 438 L1264 438 L1264 437 L1266 437 L1266 436 L1267 436 L1267 435 L1269 435 L1269 428 L1270 428 L1270 421 L1271 421 L1271 415 L1272 415 L1272 408 L1273 408 L1273 366 L1272 366 L1272 364 L1270 364 L1270 365 L1269 365 L1269 366 L1268 366 L1268 368 L1267 368 L1267 369 L1266 369 L1266 370 L1265 370 L1265 371 L1264 371 L1264 373 L1263 373 L1263 374 L1262 374 L1262 376 L1261 376 L1261 377 L1260 377 L1260 378 L1259 378 L1259 380 L1258 380 L1258 381 L1257 381 L1257 383 L1256 383 L1256 384 L1255 384 L1255 386 L1254 386 L1254 387 L1253 387 L1253 389 L1252 389 L1252 390 L1251 390 L1251 392 L1250 392 L1250 393 L1249 393 L1249 395 L1248 395 L1248 396 L1247 396 L1247 398 L1246 398 L1246 399 L1245 399 L1245 401 L1244 401 L1244 402 L1243 402 L1243 404 L1242 404 L1242 405 L1241 405 L1241 407 L1240 407 L1240 408 L1239 408 L1239 410 L1238 410 L1238 411 L1237 411 L1237 413 L1236 413 L1236 414 L1235 414 L1235 416 L1234 416 L1234 417 L1233 417 L1233 419 L1232 419 L1232 420 L1231 420 L1231 422 L1230 422 L1230 423 L1229 423 L1229 424 L1228 424 L1228 425 L1227 425 L1227 427 L1226 427 L1226 428 L1225 428 L1225 429 L1224 429 L1224 430 L1223 430 L1223 432 L1222 432 L1222 433 L1221 433 L1221 434 L1220 434 L1220 435 L1219 435 L1219 436 L1218 436 L1218 437 L1217 437 L1217 438 L1216 438 L1216 439 L1215 439 L1215 440 L1214 440 L1214 441 L1212 441 L1212 442 L1211 442 L1211 443 L1210 443 L1210 444 L1208 444 L1208 445 L1206 445 L1206 446 L1198 446 L1198 445 L1194 445 L1194 444 L1192 444 L1192 443 L1190 443 L1190 442 L1188 442 L1188 441 L1187 441 L1187 440 L1186 440 L1186 439 L1185 439 L1185 438 L1184 438 L1184 436 L1183 436 L1183 435 L1182 435 L1182 432 L1181 432 L1181 429 L1180 429 L1180 411 L1181 411 L1181 406 L1182 406 L1182 401 L1183 401 L1183 397 L1184 397 L1184 394 L1185 394 L1185 390 L1186 390 L1186 387 L1187 387 L1187 385 L1188 385 L1188 382 L1189 382 L1189 381 L1190 381 L1190 379 L1191 379 L1191 378 L1192 378 L1192 377 L1193 377 L1193 376 L1195 376 L1195 375 L1197 375 L1197 376 L1200 376 L1200 377 L1201 377 L1201 378 L1203 378 L1203 380 L1204 380 L1204 381 L1203 381 L1203 386 L1202 386 L1202 392 L1201 392 L1201 397 L1200 397 L1200 403 L1199 403 L1199 411 L1198 411 L1198 429 L1199 429 L1199 428 L1200 428 L1200 427 L1201 427 L1201 425 L1202 425 L1202 424 L1203 424 L1203 423 L1204 423 L1204 422 L1205 422 L1205 421 L1206 421 L1206 420 L1207 420 L1207 419 L1208 419 L1208 417 L1209 417 L1209 416 L1210 416 L1210 415 L1211 415 L1211 413 L1212 413 L1212 412 L1213 412 L1213 411 L1214 411 L1214 410 L1215 410 L1215 408 L1216 408 L1216 407 L1217 407 L1217 405 L1218 405 L1218 404 L1219 404 L1219 402 L1220 402 L1220 401 L1221 401 L1221 400 L1222 400 L1222 398 L1223 398 L1223 397 L1224 397 L1224 396 L1225 396 L1225 394 L1226 394 L1226 393 L1227 393 L1227 391 L1228 391 L1228 390 L1229 390 L1229 388 L1230 388 L1230 387 L1231 387 L1231 385 L1232 385 L1232 384 L1233 384 L1233 382 L1234 382 L1234 381 L1235 381 L1235 379 L1236 379 L1236 378 L1237 378 L1237 376 L1238 376 L1238 375 L1239 375 L1239 373 L1240 373 L1240 372 L1241 372 L1241 371 L1242 371 L1242 369 L1243 369 L1243 368 L1244 368 L1244 367 L1245 367 L1245 366 L1246 366 L1246 364 L1247 364 L1247 363 L1248 363 L1248 362 L1249 362 L1249 361 L1250 361 L1250 360 L1251 360 L1251 359 L1252 359 L1252 358 L1253 358 L1253 357 L1254 357 L1254 356 L1255 356 L1255 355 L1256 355 L1256 354 L1258 354 L1258 353 L1260 353 L1260 352 L1263 352 Z M931 374 L930 374 L930 378 L931 378 Z M881 390 L880 390 L880 391 L879 391 L879 392 L878 392 L878 393 L877 393 L877 395 L876 395 L876 396 L875 396 L875 398 L874 398 L874 399 L873 399 L873 401 L872 401 L872 402 L871 402 L871 404 L870 404 L870 406 L869 406 L869 408 L868 408 L868 410 L867 410 L867 412 L866 412 L866 414 L865 414 L865 417 L866 417 L866 416 L867 416 L867 415 L868 415 L868 413 L869 413 L869 412 L870 412 L870 411 L871 411 L871 409 L872 409 L872 408 L873 408 L873 406 L874 406 L874 405 L875 405 L875 403 L876 403 L876 402 L877 402 L877 400 L878 400 L878 398 L879 398 L879 396 L880 396 L880 393 L881 393 Z M1024 391 L1024 392 L1022 392 L1022 393 L1019 393 L1019 394 L1018 394 L1018 395 L1016 395 L1016 396 L1014 396 L1014 397 L1013 397 L1013 398 L1012 398 L1012 399 L1011 399 L1011 400 L1010 400 L1010 401 L1009 401 L1009 402 L1008 402 L1008 403 L1007 403 L1007 404 L1006 404 L1006 406 L1005 406 L1005 407 L1004 407 L1004 408 L1003 408 L1003 409 L1002 409 L1002 411 L1001 411 L1001 412 L1000 412 L1000 414 L999 414 L999 416 L1000 416 L1000 415 L1002 415 L1002 414 L1003 414 L1003 413 L1005 413 L1005 412 L1006 412 L1006 411 L1008 411 L1008 410 L1010 410 L1010 409 L1011 409 L1011 408 L1013 408 L1013 407 L1015 407 L1015 406 L1016 406 L1016 405 L1018 405 L1018 404 L1019 404 L1019 403 L1021 403 L1021 402 L1022 402 L1022 401 L1024 401 L1024 400 L1026 400 L1026 399 L1027 399 L1027 398 L1029 398 L1029 397 L1030 397 L1030 396 L1032 396 L1032 395 L1033 395 L1033 394 L1032 394 L1032 391 Z M1264 447 L1264 448 L1263 448 L1263 449 L1262 449 L1262 450 L1261 450 L1261 451 L1260 451 L1260 452 L1259 452 L1259 453 L1258 453 L1258 454 L1257 454 L1257 455 L1256 455 L1256 456 L1255 456 L1255 457 L1254 457 L1254 458 L1253 458 L1253 459 L1252 459 L1252 460 L1251 460 L1251 461 L1250 461 L1250 462 L1249 462 L1249 463 L1248 463 L1248 464 L1247 464 L1247 465 L1246 465 L1246 466 L1245 466 L1245 467 L1244 467 L1244 468 L1243 468 L1243 470 L1242 470 L1242 471 L1241 471 L1241 472 L1240 472 L1240 474 L1239 474 L1239 475 L1238 475 L1238 476 L1237 476 L1237 478 L1236 478 L1236 479 L1235 479 L1235 481 L1234 481 L1234 482 L1233 482 L1233 484 L1232 484 L1232 486 L1231 486 L1231 487 L1230 487 L1230 489 L1229 489 L1229 491 L1228 491 L1228 493 L1227 493 L1227 496 L1226 496 L1226 498 L1225 498 L1225 501 L1224 501 L1224 505 L1223 505 L1223 509 L1222 509 L1222 524 L1223 524 L1223 527 L1224 527 L1224 530 L1225 530 L1225 532 L1226 532 L1226 533 L1229 533 L1229 532 L1231 532 L1231 531 L1232 531 L1232 530 L1233 530 L1233 529 L1234 529 L1234 528 L1235 528 L1235 527 L1236 527 L1236 526 L1237 526 L1237 525 L1238 525 L1238 523 L1239 523 L1239 522 L1240 522 L1240 520 L1241 520 L1241 519 L1242 519 L1242 517 L1243 517 L1243 515 L1244 515 L1244 513 L1245 513 L1245 511 L1246 511 L1246 509 L1247 509 L1247 507 L1248 507 L1248 504 L1249 504 L1249 502 L1250 502 L1250 499 L1251 499 L1251 497 L1252 497 L1252 494 L1253 494 L1253 492 L1254 492 L1254 489 L1255 489 L1255 486 L1256 486 L1256 483 L1257 483 L1257 480 L1258 480 L1258 476 L1259 476 L1259 473 L1260 473 L1260 470 L1261 470 L1261 466 L1262 466 L1262 463 L1263 463 L1263 459 L1264 459 L1264 455 L1265 455 L1265 450 L1266 450 L1266 447 Z M377 616 L384 616 L384 650 L385 650 L385 648 L386 648 L386 647 L388 647 L388 646 L389 646 L389 645 L391 645 L391 644 L394 644 L394 643 L402 643 L402 644 L405 644 L405 645 L407 645 L407 646 L409 646 L409 647 L410 647 L410 648 L411 648 L411 649 L412 649 L412 650 L413 650 L413 652 L414 652 L414 654 L415 654 L415 657 L416 657 L416 669 L415 669 L415 672 L414 672 L414 674 L413 674 L413 676 L412 676 L412 677 L411 677 L411 678 L410 678 L410 679 L409 679 L409 680 L407 680 L407 681 L405 681 L405 682 L402 682 L402 683 L394 683 L394 682 L391 682 L391 681 L389 681 L389 680 L388 680 L388 679 L386 679 L386 678 L385 678 L385 676 L384 676 L384 682 L377 682 Z M447 616 L454 616 L454 682 L447 682 Z M557 616 L563 616 L563 617 L564 617 L564 693 L563 693 L563 694 L557 694 L557 693 L556 693 L556 617 L557 617 Z M982 616 L989 616 L989 692 L990 692 L990 693 L989 693 L989 694 L983 694 L983 693 L982 693 Z M257 619 L258 619 L258 620 L259 620 L259 621 L260 621 L260 622 L261 622 L261 623 L262 623 L262 625 L263 625 L263 626 L264 626 L264 627 L265 627 L265 628 L266 628 L266 630 L267 630 L267 631 L268 631 L268 632 L269 632 L269 633 L270 633 L270 635 L271 635 L271 636 L272 636 L272 637 L273 637 L273 639 L274 639 L274 640 L275 640 L275 641 L276 641 L276 642 L277 642 L277 643 L278 643 L278 645 L279 645 L279 646 L280 646 L280 647 L281 647 L281 648 L282 648 L282 650 L283 650 L283 651 L284 651 L284 652 L285 652 L285 654 L287 654 L287 653 L288 653 L288 652 L289 652 L289 650 L290 650 L290 649 L291 649 L291 648 L292 648 L292 647 L293 647 L293 645 L294 645 L294 644 L295 644 L295 643 L296 643 L296 641 L297 641 L297 640 L298 640 L298 639 L299 639 L299 638 L300 638 L300 636 L301 636 L301 635 L302 635 L302 634 L303 634 L303 633 L304 633 L304 631 L305 631 L305 630 L306 630 L306 629 L307 629 L307 628 L308 628 L308 626 L309 626 L309 625 L310 625 L310 624 L311 624 L311 623 L312 623 L312 621 L313 621 L313 620 L314 620 L314 619 L316 619 L316 682 L308 682 L308 638 L309 638 L309 637 L308 637 L308 638 L307 638 L307 640 L306 640 L306 641 L305 641 L305 642 L304 642 L304 644 L303 644 L303 645 L302 645 L302 646 L301 646 L301 647 L300 647 L300 649 L299 649 L299 650 L298 650 L298 651 L297 651 L297 652 L296 652 L296 654 L295 654 L295 655 L294 655 L294 656 L293 656 L293 658 L292 658 L292 659 L291 659 L291 660 L290 660 L290 661 L289 661 L289 663 L288 663 L288 664 L287 664 L287 665 L285 665 L285 664 L284 664 L284 662 L283 662 L283 661 L282 661 L282 660 L281 660 L281 659 L280 659 L280 657 L279 657 L279 656 L278 656 L278 655 L277 655 L277 654 L276 654 L276 652 L275 652 L275 651 L274 651 L274 650 L273 650 L273 648 L272 648 L272 647 L271 647 L271 646 L270 646 L270 645 L269 645 L269 643 L268 643 L268 642 L267 642 L267 641 L266 641 L266 639 L265 639 L265 638 L264 638 L264 682 L256 682 L256 620 L257 620 Z M621 619 L623 619 L623 620 L624 620 L624 622 L625 622 L625 623 L626 623 L626 624 L627 624 L627 625 L628 625 L628 627 L629 627 L629 628 L630 628 L630 629 L631 629 L631 630 L632 630 L632 632 L633 632 L633 633 L634 633 L634 634 L635 634 L635 635 L636 635 L636 637 L637 637 L637 638 L638 638 L638 639 L639 639 L639 640 L640 640 L640 642 L641 642 L641 643 L642 643 L642 644 L643 644 L643 645 L644 645 L644 647 L645 647 L645 648 L646 648 L646 649 L647 649 L647 651 L648 651 L648 652 L649 652 L649 653 L650 653 L650 654 L651 654 L651 653 L652 653 L652 652 L653 652 L653 651 L654 651 L654 649 L655 649 L655 648 L656 648 L656 647 L657 647 L657 646 L658 646 L658 645 L659 645 L659 643 L660 643 L660 642 L661 642 L661 641 L662 641 L662 639 L663 639 L663 638 L664 638 L664 637 L665 637 L665 636 L666 636 L666 634 L667 634 L667 633 L668 633 L668 632 L669 632 L669 631 L670 631 L670 629 L671 629 L671 628 L672 628 L672 627 L673 627 L673 626 L674 626 L674 624 L675 624 L675 623 L676 623 L676 622 L677 622 L677 621 L678 621 L678 620 L679 620 L679 619 L680 619 L680 682 L673 682 L673 637 L672 637 L672 639 L671 639 L671 640 L670 640 L670 642 L669 642 L669 643 L668 643 L668 644 L667 644 L667 645 L666 645 L666 647 L665 647 L665 648 L664 648 L664 649 L663 649 L663 651 L662 651 L662 652 L661 652 L661 653 L660 653 L660 654 L659 654 L659 656 L658 656 L658 657 L657 657 L657 658 L656 658 L656 659 L655 659 L655 661 L654 661 L654 662 L653 662 L653 663 L652 663 L652 664 L651 664 L651 665 L650 665 L650 664 L649 664 L649 663 L648 663 L648 662 L647 662 L647 661 L646 661 L646 659 L645 659 L645 658 L644 658 L644 657 L643 657 L643 656 L642 656 L642 654 L641 654 L641 653 L640 653 L640 652 L639 652 L639 650 L638 650 L638 649 L637 649 L637 648 L636 648 L636 647 L635 647 L635 645 L634 645 L634 644 L633 644 L633 643 L632 643 L632 641 L631 641 L631 640 L630 640 L630 639 L629 639 L629 637 L628 637 L628 682 L621 682 Z M1072 619 L1078 619 L1078 620 L1084 620 L1084 621 L1087 621 L1087 622 L1090 622 L1090 623 L1092 623 L1092 624 L1093 624 L1093 625 L1094 625 L1094 626 L1095 626 L1095 627 L1096 627 L1096 628 L1097 628 L1097 629 L1098 629 L1098 630 L1099 630 L1099 631 L1100 631 L1100 632 L1099 632 L1099 633 L1098 633 L1098 634 L1096 634 L1096 635 L1095 635 L1095 636 L1094 636 L1094 635 L1093 635 L1093 634 L1092 634 L1092 633 L1091 633 L1091 632 L1090 632 L1090 631 L1089 631 L1089 630 L1087 630 L1087 629 L1085 629 L1085 628 L1082 628 L1082 627 L1076 627 L1076 626 L1074 626 L1074 627 L1068 627 L1068 628 L1065 628 L1065 629 L1063 629 L1063 630 L1061 630 L1061 631 L1060 631 L1060 632 L1059 632 L1059 633 L1058 633 L1058 634 L1057 634 L1057 635 L1056 635 L1056 636 L1055 636 L1055 638 L1054 638 L1054 639 L1053 639 L1053 642 L1052 642 L1052 646 L1051 646 L1051 656 L1052 656 L1052 661 L1053 661 L1053 663 L1054 663 L1054 665 L1055 665 L1055 666 L1056 666 L1056 667 L1057 667 L1057 669 L1058 669 L1058 670 L1059 670 L1059 671 L1061 671 L1061 672 L1062 672 L1062 673 L1064 673 L1064 674 L1067 674 L1067 675 L1071 675 L1071 676 L1079 676 L1079 675 L1083 675 L1083 674 L1086 674 L1086 673 L1088 673 L1088 672 L1089 672 L1089 671 L1090 671 L1090 670 L1092 670 L1092 669 L1093 669 L1093 667 L1094 667 L1094 666 L1096 666 L1096 667 L1098 667 L1098 668 L1099 668 L1099 669 L1101 669 L1101 670 L1100 670 L1100 672 L1099 672 L1099 673 L1098 673 L1098 674 L1097 674 L1097 675 L1096 675 L1096 676 L1095 676 L1095 677 L1093 677 L1093 678 L1092 678 L1092 679 L1090 679 L1090 680 L1088 680 L1088 681 L1085 681 L1085 682 L1080 682 L1080 683 L1070 683 L1070 682 L1065 682 L1065 681 L1062 681 L1062 680 L1060 680 L1060 679 L1058 679 L1058 678 L1057 678 L1057 677 L1055 677 L1055 676 L1054 676 L1054 675 L1053 675 L1053 674 L1052 674 L1052 673 L1051 673 L1051 672 L1050 672 L1050 671 L1049 671 L1049 669 L1048 669 L1048 668 L1047 668 L1047 666 L1046 666 L1046 664 L1045 664 L1045 661 L1044 661 L1044 656 L1043 656 L1043 646 L1044 646 L1044 641 L1045 641 L1045 638 L1046 638 L1046 636 L1047 636 L1047 634 L1048 634 L1048 633 L1049 633 L1049 632 L1050 632 L1050 630 L1051 630 L1051 629 L1052 629 L1052 628 L1053 628 L1053 627 L1054 627 L1054 626 L1056 626 L1056 625 L1057 625 L1057 624 L1059 624 L1059 623 L1061 623 L1061 622 L1063 622 L1063 621 L1066 621 L1066 620 L1072 620 Z M428 624 L432 624 L432 625 L433 625 L433 626 L434 626 L434 627 L435 627 L435 632 L434 632 L434 633 L433 633 L433 634 L427 634 L427 633 L426 633 L426 631 L425 631 L425 627 L426 627 L426 626 L427 626 L427 625 L428 625 Z M1257 624 L1261 624 L1261 625 L1262 625 L1262 626 L1263 626 L1263 627 L1264 627 L1264 632 L1263 632 L1263 633 L1262 633 L1262 634 L1256 634 L1256 633 L1255 633 L1255 632 L1254 632 L1254 627 L1255 627 L1255 626 L1256 626 L1256 625 L1257 625 Z M342 643 L351 643 L351 644 L355 644 L355 645 L357 645 L357 646 L358 646 L358 647 L360 647 L360 648 L361 648 L361 649 L362 649 L362 650 L363 650 L363 652 L364 652 L364 653 L365 653 L365 655 L366 655 L366 659 L367 659 L367 668 L366 668 L366 671 L365 671 L365 673 L364 673 L364 674 L363 674 L363 676 L362 676 L362 677 L361 677 L361 678 L360 678 L360 679 L358 679 L358 680 L357 680 L357 681 L354 681 L354 682 L351 682 L351 683 L343 683 L343 682 L339 682 L339 681 L337 681 L337 680 L335 680 L335 679 L334 679 L334 678 L333 678 L333 677 L332 677 L332 676 L331 676 L331 675 L330 675 L330 674 L329 674 L329 672 L328 672 L328 670 L327 670 L327 664 L326 664 L326 662 L327 662 L327 657 L328 657 L328 654 L329 654 L329 653 L330 653 L330 651 L331 651 L331 650 L332 650 L332 649 L333 649 L333 648 L334 648 L334 647 L335 647 L335 646 L337 646 L337 645 L339 645 L339 644 L342 644 Z M480 643 L489 643 L489 644 L492 644 L492 645 L494 645 L494 646 L495 646 L495 647 L497 647 L497 648 L498 648 L498 649 L499 649 L499 651 L500 651 L500 652 L501 652 L501 654 L502 654 L502 657 L503 657 L503 666 L472 666 L472 668 L473 668 L473 671 L474 671 L474 672 L475 672 L475 673 L476 673 L476 674 L477 674 L477 675 L480 675 L480 676 L490 676 L490 675 L493 675 L493 674 L494 674 L494 673 L496 673 L496 672 L498 672 L498 673 L499 673 L499 674 L500 674 L500 675 L501 675 L501 677 L500 677 L500 678 L499 678 L499 679 L497 679 L497 680 L496 680 L496 681 L493 681 L493 682 L490 682 L490 683 L480 683 L480 682 L477 682 L477 681 L474 681 L474 680 L473 680 L473 679 L471 679 L471 678 L470 678 L470 677 L469 677 L469 676 L468 676 L468 674 L467 674 L467 673 L466 673 L466 670 L465 670 L465 666 L464 666 L464 660 L465 660 L465 656 L466 656 L466 654 L467 654 L467 652 L468 652 L468 651 L469 651 L469 649 L470 649 L470 648 L471 648 L471 647 L473 647 L473 646 L474 646 L474 645 L476 645 L476 644 L480 644 Z M704 643 L713 643 L713 644 L716 644 L716 645 L718 645 L718 646 L719 646 L719 647 L720 647 L720 648 L721 648 L721 649 L722 649 L722 651 L723 651 L723 654 L724 654 L724 682 L717 682 L717 681 L716 681 L716 679 L715 679 L715 680 L714 680 L714 681 L712 681 L712 682 L709 682 L709 683 L701 683 L701 682 L697 682 L697 681 L695 681 L695 680 L694 680 L694 679 L693 679 L693 678 L692 678 L692 676 L691 676 L691 666 L692 666 L692 665 L693 665 L693 664 L694 664 L694 663 L695 663 L695 662 L696 662 L696 661 L698 661 L698 660 L702 660 L702 659 L716 659 L716 654 L715 654 L715 652 L714 652 L714 651 L713 651 L713 650 L703 650 L703 651 L701 651 L701 652 L700 652 L700 653 L699 653 L699 654 L698 654 L698 655 L697 655 L697 654 L696 654 L696 653 L694 653 L694 652 L693 652 L693 650 L694 650 L694 649 L695 649 L695 648 L696 648 L696 647 L697 647 L697 646 L698 646 L698 645 L701 645 L701 644 L704 644 Z M743 643 L752 643 L752 644 L755 644 L755 645 L756 645 L756 646 L758 646 L758 647 L759 647 L759 648 L760 648 L760 651 L759 651 L759 652 L757 652 L757 653 L754 653 L754 652 L753 652 L753 651 L752 651 L752 650 L743 650 L743 651 L742 651 L742 656 L743 656 L743 657 L745 657 L745 658 L747 658 L747 659 L751 659 L751 660 L754 660 L754 661 L756 661 L756 662 L758 662 L758 663 L759 663 L759 664 L760 664 L760 665 L761 665 L761 666 L762 666 L762 669 L763 669 L763 674 L762 674 L762 677 L761 677 L761 678 L760 678 L760 680 L758 680 L758 681 L756 681 L756 682 L753 682 L753 683 L744 683 L744 682 L741 682 L741 681 L739 681 L739 680 L737 680 L737 679 L736 679 L736 678 L735 678 L735 677 L734 677 L734 676 L733 676 L733 675 L732 675 L732 673 L734 673 L734 672 L735 672 L735 671 L739 671 L739 673 L740 673 L740 674 L742 674 L742 675 L743 675 L743 676 L748 676 L748 677 L749 677 L749 676 L753 676 L753 675 L755 675 L755 673 L756 673 L756 671 L755 671 L755 669 L754 669 L754 668 L752 668 L752 667 L750 667 L750 666 L746 666 L746 665 L743 665 L743 664 L741 664 L741 663 L739 663 L739 662 L738 662 L738 661 L737 661 L737 660 L736 660 L736 658 L735 658 L735 650 L736 650 L736 648 L737 648 L737 647 L738 647 L738 646 L739 646 L739 645 L741 645 L741 644 L743 644 Z M780 643 L789 643 L789 644 L792 644 L792 645 L793 645 L793 646 L795 646 L795 647 L796 647 L796 648 L797 648 L797 651 L795 651 L795 652 L794 652 L794 653 L791 653 L791 652 L790 652 L790 651 L789 651 L789 650 L780 650 L780 651 L779 651 L779 653 L778 653 L778 655 L779 655 L779 656 L780 656 L780 657 L781 657 L781 658 L784 658 L784 659 L787 659 L787 660 L790 660 L790 661 L793 661 L793 662 L795 662 L795 663 L796 663 L796 664 L797 664 L797 665 L798 665 L798 667 L799 667 L799 676 L798 676 L798 678 L797 678 L797 679 L796 679 L796 680 L795 680 L795 681 L793 681 L793 682 L790 682 L790 683 L781 683 L781 682 L777 682 L777 681 L775 681 L775 680 L774 680 L774 679 L773 679 L773 678 L772 678 L772 677 L771 677 L771 676 L770 676 L770 675 L769 675 L769 673 L771 673 L771 672 L772 672 L772 671 L775 671 L775 672 L776 672 L776 673 L777 673 L777 674 L778 674 L778 675 L780 675 L780 676 L784 676 L784 677 L786 677 L786 676 L790 676 L790 675 L791 675 L791 674 L792 674 L792 669 L791 669 L791 668 L789 668 L789 667 L786 667 L786 666 L783 666 L783 665 L780 665 L780 664 L778 664 L778 663 L776 663 L776 662 L775 662 L775 661 L774 661 L774 660 L773 660 L773 659 L772 659 L772 655 L771 655 L771 652 L772 652 L772 649 L773 649 L773 648 L774 648 L774 646 L776 646 L776 645 L777 645 L777 644 L780 644 Z M819 643 L829 643 L829 644 L832 644 L832 645 L834 645 L834 646 L835 646 L835 647 L836 647 L836 648 L837 648 L837 650 L838 650 L838 652 L839 652 L839 657 L840 657 L840 664 L839 664 L839 665 L840 665 L840 666 L839 666 L839 667 L840 667 L840 668 L839 668 L839 669 L840 669 L840 680 L839 680 L839 682 L832 682 L832 679 L831 679 L831 680 L830 680 L830 681 L828 681 L828 682 L825 682 L825 683 L816 683 L816 682 L813 682 L813 681 L811 681 L811 680 L810 680 L810 679 L809 679 L809 678 L808 678 L808 676 L807 676 L807 666 L808 666 L808 665 L809 665 L809 663 L810 663 L810 662 L812 662 L812 661 L814 661 L814 660 L818 660 L818 659 L832 659 L832 654 L831 654 L831 652 L830 652 L830 651 L828 651 L828 650 L819 650 L819 651 L817 651 L817 652 L816 652 L816 653 L815 653 L815 654 L814 654 L814 655 L812 655 L812 654 L811 654 L811 653 L810 653 L810 652 L809 652 L809 650 L810 650 L810 649 L811 649 L811 648 L812 648 L812 647 L813 647 L813 646 L814 646 L814 645 L816 645 L816 644 L819 644 Z M862 643 L871 643 L871 644 L886 644 L886 650 L880 650 L880 652 L881 652 L881 662 L880 662 L880 664 L879 664 L879 666 L878 666 L878 667 L876 667 L876 668 L875 668 L875 669 L873 669 L873 670 L870 670 L870 671 L863 671 L863 670 L859 670 L859 669 L858 669 L858 670 L857 670 L857 672 L856 672 L856 673 L857 673 L857 675 L864 675 L864 676 L874 676 L874 677 L878 677 L878 678 L880 678 L880 679 L882 679 L882 680 L883 680 L883 681 L884 681 L884 682 L885 682 L885 684 L886 684 L886 693 L885 693 L885 695 L884 695 L884 696 L883 696 L883 697 L882 697 L882 698 L881 698 L881 699 L879 699 L879 700 L877 700 L877 701 L873 701 L873 702 L859 702 L859 701 L855 701 L855 700 L853 700 L853 699 L851 699 L851 698 L850 698 L850 697 L849 697 L849 696 L848 696 L848 694 L847 694 L847 692 L846 692 L846 687 L847 687 L847 685 L848 685 L848 683 L849 683 L849 682 L851 682 L851 681 L852 681 L852 680 L854 680 L854 679 L852 679 L852 678 L851 678 L851 676 L850 676 L850 670 L851 670 L851 668 L852 668 L852 667 L853 667 L853 666 L854 666 L854 665 L853 665 L853 663 L852 663 L852 660 L851 660 L851 653 L852 653 L852 651 L853 651 L853 649 L854 649 L854 648 L855 648 L855 647 L856 647 L856 646 L857 646 L857 645 L859 645 L859 644 L862 644 Z M905 643 L914 643 L914 644 L918 644 L918 645 L920 645 L920 646 L921 646 L921 647 L922 647 L922 648 L923 648 L923 649 L924 649 L924 650 L925 650 L925 651 L926 651 L926 653 L927 653 L927 655 L928 655 L928 658 L929 658 L929 666 L898 666 L898 669 L899 669 L899 671 L900 671 L900 673 L902 673 L902 674 L903 674 L903 675 L905 675 L905 676 L916 676 L916 675 L918 675 L918 674 L920 674 L920 673 L921 673 L921 672 L924 672 L924 673 L925 673 L925 674 L926 674 L926 675 L927 675 L927 677 L926 677 L926 678 L924 678 L924 679 L923 679 L923 680 L921 680 L921 681 L919 681 L919 682 L915 682 L915 683 L906 683 L906 682 L903 682 L903 681 L900 681 L900 680 L898 680 L898 679 L897 679 L897 678 L896 678 L896 677 L895 677 L895 676 L894 676 L894 675 L893 675 L893 673 L892 673 L892 671 L891 671 L891 668 L890 668 L890 659 L891 659 L891 655 L892 655 L892 653 L893 653 L893 651 L894 651 L894 650 L895 650 L895 649 L896 649 L896 648 L897 648 L897 647 L898 647 L898 646 L900 646 L900 645 L902 645 L902 644 L905 644 Z M1173 643 L1182 643 L1182 644 L1185 644 L1185 645 L1187 645 L1187 646 L1188 646 L1188 647 L1189 647 L1189 648 L1190 648 L1190 649 L1191 649 L1191 650 L1192 650 L1192 651 L1193 651 L1193 653 L1194 653 L1194 655 L1195 655 L1195 660 L1196 660 L1196 666 L1195 666 L1195 670 L1194 670 L1194 673 L1193 673 L1193 675 L1192 675 L1192 676 L1191 676 L1191 677 L1190 677 L1190 678 L1189 678 L1189 679 L1188 679 L1188 680 L1186 680 L1186 681 L1184 681 L1184 682 L1181 682 L1181 683 L1174 683 L1174 682 L1170 682 L1170 681 L1168 681 L1168 680 L1167 680 L1167 679 L1166 679 L1166 678 L1165 678 L1165 677 L1164 677 L1164 700 L1163 700 L1163 701 L1156 701 L1156 645 L1157 645 L1157 644 L1163 644 L1163 645 L1164 645 L1164 649 L1165 649 L1165 648 L1166 648 L1166 647 L1167 647 L1167 646 L1168 646 L1168 645 L1170 645 L1170 644 L1173 644 Z M1222 643 L1231 643 L1231 644 L1234 644 L1234 645 L1236 645 L1236 646 L1237 646 L1237 647 L1239 647 L1239 648 L1240 648 L1240 649 L1241 649 L1241 651 L1242 651 L1242 652 L1243 652 L1243 654 L1244 654 L1244 657 L1245 657 L1245 669 L1244 669 L1244 672 L1243 672 L1243 674 L1242 674 L1242 675 L1241 675 L1241 677 L1240 677 L1240 678 L1239 678 L1239 679 L1237 679 L1237 680 L1236 680 L1236 681 L1234 681 L1234 682 L1230 682 L1230 683 L1223 683 L1223 682 L1220 682 L1220 681 L1218 681 L1218 680 L1216 680 L1216 679 L1215 679 L1215 678 L1214 678 L1214 677 L1213 677 L1213 701 L1206 701 L1206 644 L1213 644 L1213 649 L1214 649 L1214 648 L1215 648 L1215 647 L1216 647 L1216 646 L1218 646 L1218 645 L1219 645 L1219 644 L1222 644 Z M1291 643 L1299 643 L1299 644 L1302 644 L1302 645 L1303 645 L1303 646 L1305 646 L1305 648 L1306 648 L1306 649 L1307 649 L1307 650 L1308 650 L1308 653 L1309 653 L1309 658 L1310 658 L1310 659 L1309 659 L1309 660 L1310 660 L1310 661 L1309 661 L1309 678 L1310 678 L1310 679 L1309 679 L1309 682 L1302 682 L1302 656 L1301 656 L1301 654 L1300 654 L1300 652 L1299 652 L1299 651 L1297 651 L1297 650 L1290 650 L1290 651 L1287 651 L1287 652 L1286 652 L1286 653 L1285 653 L1285 654 L1284 654 L1284 656 L1283 656 L1283 681 L1282 681 L1282 682 L1275 682 L1275 644 L1282 644 L1282 645 L1283 645 L1283 648 L1284 648 L1284 647 L1285 647 L1285 646 L1286 646 L1286 645 L1288 645 L1288 644 L1291 644 Z M1331 643 L1340 643 L1340 644 L1355 644 L1355 650 L1349 650 L1349 651 L1350 651 L1350 654 L1351 654 L1351 660 L1350 660 L1350 663 L1349 663 L1349 665 L1348 665 L1348 666 L1347 666 L1347 667 L1346 667 L1346 668 L1344 668 L1344 669 L1343 669 L1343 670 L1339 670 L1339 671 L1332 671 L1332 670 L1329 670 L1329 669 L1327 669 L1327 670 L1326 670 L1326 674 L1327 674 L1327 675 L1334 675 L1334 676 L1343 676 L1343 677 L1347 677 L1347 678 L1350 678 L1350 679 L1351 679 L1351 680 L1352 680 L1352 681 L1353 681 L1353 682 L1354 682 L1354 683 L1355 683 L1355 686 L1356 686 L1356 690 L1355 690 L1355 694 L1354 694 L1354 696 L1353 696 L1353 697 L1352 697 L1352 698 L1350 698 L1350 699 L1349 699 L1349 700 L1346 700 L1346 701 L1343 701 L1343 702 L1328 702 L1328 701 L1324 701 L1324 700 L1322 700 L1322 699 L1320 699 L1320 698 L1319 698 L1319 697 L1318 697 L1318 695 L1317 695 L1317 693 L1316 693 L1316 686 L1317 686 L1317 684 L1318 684 L1318 683 L1319 683 L1319 682 L1320 682 L1320 681 L1322 681 L1322 680 L1323 680 L1323 679 L1322 679 L1322 678 L1321 678 L1321 677 L1320 677 L1320 675 L1319 675 L1319 671 L1320 671 L1320 669 L1321 669 L1321 668 L1322 668 L1322 667 L1323 667 L1323 666 L1324 666 L1324 665 L1323 665 L1323 664 L1322 664 L1322 662 L1321 662 L1321 660 L1320 660 L1320 654 L1321 654 L1321 651 L1322 651 L1322 649 L1323 649 L1323 648 L1324 648 L1324 647 L1325 647 L1325 646 L1326 646 L1326 645 L1328 645 L1328 644 L1331 644 Z M427 644 L434 644 L434 682 L427 682 L427 681 L426 681 L426 645 L427 645 Z M1110 644 L1117 644 L1117 670 L1118 670 L1118 673 L1119 673 L1119 674 L1120 674 L1120 675 L1122 675 L1122 676 L1129 676 L1129 675 L1132 675 L1132 674 L1133 674 L1133 673 L1134 673 L1134 672 L1135 672 L1135 670 L1136 670 L1136 645 L1137 645 L1137 644 L1144 644 L1144 682 L1136 682 L1136 680 L1137 680 L1137 677 L1136 677 L1136 678 L1135 678 L1135 679 L1134 679 L1134 680 L1133 680 L1133 681 L1131 681 L1131 682 L1128 682 L1128 683 L1120 683 L1120 682 L1117 682 L1117 681 L1115 681 L1115 680 L1114 680 L1114 679 L1113 679 L1113 678 L1112 678 L1112 676 L1111 676 L1111 674 L1110 674 Z M1255 644 L1263 644 L1263 682 L1255 682 Z M864 649 L864 650 L861 650 L861 651 L860 651 L860 652 L859 652 L859 654 L858 654 L858 660 L859 660 L859 662 L860 662 L860 663 L861 663 L861 664 L865 664 L865 665 L868 665 L868 664 L871 664 L871 663 L872 663 L872 662 L873 662 L873 661 L874 661 L874 653 L873 653 L873 651 L871 651 L871 650 L869 650 L869 649 Z M1333 649 L1333 650 L1330 650 L1330 651 L1329 651 L1329 652 L1328 652 L1328 655 L1327 655 L1327 659 L1328 659 L1328 661 L1329 661 L1329 663 L1331 663 L1331 664 L1334 664 L1334 665 L1337 665 L1337 664 L1340 664 L1340 663 L1342 663 L1342 662 L1343 662 L1343 660 L1344 660 L1344 654 L1343 654 L1343 652 L1342 652 L1342 651 L1341 651 L1341 650 L1338 650 L1338 649 Z M342 650 L342 651 L340 651 L340 652 L339 652 L339 653 L338 653 L338 654 L337 654 L337 655 L336 655 L336 657 L335 657 L335 659 L334 659 L334 667 L335 667 L335 669 L336 669 L336 671 L337 671 L337 673 L339 673 L339 674 L340 674 L340 675 L342 675 L342 676 L351 676 L351 675 L354 675 L354 674 L355 674 L355 673 L356 673 L356 672 L357 672 L357 670 L358 670 L358 668 L359 668 L359 658 L358 658 L358 656 L357 656 L357 654 L356 654 L356 653 L355 653 L355 652 L354 652 L354 651 L351 651 L351 650 Z M392 650 L392 651 L390 651 L390 652 L389 652 L389 653 L388 653 L388 654 L387 654 L387 655 L386 655 L386 656 L385 656 L385 659 L384 659 L384 667 L385 667 L385 670 L386 670 L386 671 L387 671 L387 673 L388 673 L388 674 L390 674 L390 675 L392 675 L392 676 L401 676 L401 675 L403 675 L403 674 L405 674 L405 673 L406 673 L406 671 L407 671 L407 669 L408 669 L408 665 L409 665 L409 661 L408 661 L408 657 L407 657 L407 655 L406 655 L406 654 L405 654 L405 653 L404 653 L404 652 L403 652 L403 651 L401 651 L401 650 Z M479 650 L479 651 L477 651 L477 652 L476 652 L476 653 L475 653 L475 654 L474 654 L474 655 L473 655 L473 658 L472 658 L472 660 L496 660 L496 658 L495 658 L495 656 L494 656 L494 654 L493 654 L493 653 L492 653 L492 652 L491 652 L491 651 L489 651 L489 650 Z M905 650 L905 651 L903 651 L903 652 L901 652 L901 653 L900 653 L900 655 L899 655 L899 657 L898 657 L898 660 L921 660 L921 656 L920 656 L920 654 L919 654 L919 653 L918 653 L918 652 L917 652 L917 651 L915 651 L915 650 Z M1172 650 L1172 651 L1169 651 L1169 652 L1168 652 L1168 653 L1167 653 L1167 654 L1166 654 L1166 655 L1165 655 L1165 657 L1164 657 L1164 660 L1163 660 L1163 666 L1164 666 L1164 669 L1165 669 L1165 671 L1166 671 L1166 672 L1167 672 L1167 673 L1168 673 L1168 674 L1169 674 L1169 675 L1172 675 L1172 676 L1180 676 L1180 675 L1182 675 L1182 674 L1184 674 L1184 673 L1185 673 L1185 672 L1186 672 L1186 670 L1187 670 L1187 667 L1188 667 L1188 659 L1187 659 L1187 656 L1186 656 L1186 654 L1185 654 L1185 653 L1184 653 L1184 652 L1182 652 L1182 651 L1180 651 L1180 650 Z M1221 650 L1221 651 L1219 651 L1219 652 L1217 652 L1217 653 L1216 653 L1216 654 L1215 654 L1215 656 L1214 656 L1214 658 L1213 658 L1213 668 L1214 668 L1214 670 L1215 670 L1215 672 L1216 672 L1216 673 L1217 673 L1217 674 L1219 674 L1219 675 L1221 675 L1221 676 L1230 676 L1230 675 L1232 675 L1232 674 L1233 674 L1233 673 L1234 673 L1234 672 L1235 672 L1235 671 L1236 671 L1236 669 L1237 669 L1237 657 L1236 657 L1236 655 L1235 655 L1235 654 L1234 654 L1234 653 L1233 653 L1233 652 L1232 652 L1232 651 L1230 651 L1230 650 Z M703 665 L703 666 L700 666 L700 667 L699 667 L699 668 L698 668 L698 673 L699 673 L699 675 L701 675 L701 676 L706 676 L706 677 L707 677 L707 676 L712 676 L712 675 L714 675 L714 674 L715 674 L715 672 L716 672 L716 666 L717 666 L717 665 Z M819 665 L819 666 L816 666 L816 667 L815 667 L815 668 L814 668 L814 673 L815 673 L815 675 L817 675 L817 676 L821 676 L821 677 L823 677 L823 676 L827 676 L827 675 L829 675 L829 674 L831 674 L831 672 L832 672 L832 665 Z M859 682 L859 683 L857 683 L857 684 L856 684 L856 685 L855 685 L855 686 L854 686 L854 692 L855 692 L855 693 L856 693 L856 694 L858 694 L858 695 L861 695 L861 696 L871 696 L871 695 L874 695 L874 694 L876 694 L876 693 L877 693 L877 692 L878 692 L878 690 L879 690 L879 687 L878 687 L878 685 L877 685 L877 684 L874 684 L874 683 L865 683 L865 682 Z M1328 682 L1328 683 L1326 683 L1326 684 L1325 684 L1325 685 L1324 685 L1324 687 L1323 687 L1323 691 L1324 691 L1324 693 L1325 693 L1325 694 L1327 694 L1327 695 L1330 695 L1330 696 L1340 696 L1340 695 L1344 695 L1344 694 L1346 694 L1346 693 L1347 693 L1347 692 L1348 692 L1348 686 L1347 686 L1347 685 L1346 685 L1346 684 L1343 684 L1343 683 L1334 683 L1334 682 Z" fill="#1f2933" fill-rule="evenodd"/>
</svg>
