<svg xmlns="http://www.w3.org/2000/svg" width="1600" height="733" viewBox="0 0 1600 733" role="img" aria-labelledby="title desc">
  <title id="title">Rahma Therapy vector trace reference</title>
  <desc id="desc">Automated path-based vector trace generated from source colour masks.</desc>
  <defs>
    <linearGradient id="rahmaOrangeGradient" x1="0" y1="0" x2="1" y2="0">
      <stop offset="0" stop-color="#f7931e"/>
      <stop offset="0.34" stop-color="#ffcd18"/>
      <stop offset="1" stop-color="#f7931e"/>
    </linearGradient>
  </defs>
  <path id="orange" d="M480 34 L488 34 L488 36 L489 36 L489 39 L490 39 L490 41 L491 41 L491 44 L492 44 L492 46 L493 46 L493 49 L494 49 L494 51 L495 51 L495 53 L496 53 L496 56 L497 56 L497 58 L498 58 L498 61 L499 61 L499 63 L500 63 L500 66 L501 66 L501 68 L502 68 L502 71 L503 71 L503 73 L504 73 L504 76 L505 76 L505 78 L506 78 L506 81 L507 81 L507 83 L508 83 L508 86 L509 86 L509 88 L510 88 L510 91 L511 91 L511 93 L512 93 L512 95 L513 95 L513 98 L514 98 L514 101 L515 101 L515 103 L516 103 L516 106 L517 106 L517 108 L518 108 L518 110 L519 110 L519 113 L520 113 L520 115 L521 115 L521 118 L522 118 L522 120 L523 120 L523 123 L524 123 L524 125 L525 125 L525 128 L526 128 L526 130 L527 130 L527 133 L528 133 L528 135 L529 135 L529 138 L530 138 L530 140 L531 140 L531 143 L532 143 L532 145 L533 145 L533 147 L534 147 L534 150 L535 150 L535 153 L536 153 L536 155 L537 155 L537 158 L538 158 L538 160 L539 160 L539 162 L540 162 L540 165 L541 165 L541 167 L542 167 L542 170 L543 170 L543 173 L544 173 L544 175 L545 175 L545 177 L546 177 L546 180 L547 180 L547 182 L548 182 L548 185 L549 185 L549 187 L550 187 L550 190 L551 190 L551 192 L552 192 L552 194 L553 194 L553 197 L554 197 L554 200 L555 200 L555 202 L556 202 L556 205 L557 205 L557 207 L558 207 L558 210 L559 210 L559 212 L560 212 L560 214 L561 214 L561 217 L562 217 L562 219 L563 219 L563 222 L564 222 L564 224 L565 224 L565 227 L566 227 L566 229 L567 229 L567 232 L568 232 L568 234 L569 234 L569 237 L570 237 L570 239 L571 239 L571 242 L572 242 L572 244 L573 244 L573 247 L574 247 L574 249 L575 249 L575 252 L576 252 L576 254 L577 254 L577 257 L578 257 L578 259 L579 259 L579 262 L580 262 L580 264 L581 264 L581 266 L582 266 L582 269 L583 269 L583 272 L584 272 L584 274 L585 274 L585 277 L586 277 L586 279 L587 279 L587 281 L588 281 L588 284 L589 284 L589 287 L590 287 L590 289 L591 289 L591 291 L592 291 L592 294 L593 294 L593 297 L594 297 L594 299 L595 299 L595 302 L596 302 L596 304 L597 304 L597 306 L598 306 L598 308 L599 308 L599 310 L600 310 L600 313 L601 313 L601 314 L602 314 L602 316 L603 316 L603 318 L604 318 L604 319 L605 319 L605 320 L606 320 L606 322 L608 322 L608 323 L609 323 L609 324 L610 324 L610 325 L611 325 L611 326 L613 326 L613 327 L616 327 L616 328 L620 328 L620 329 L625 329 L625 334 L554 334 L554 329 L558 329 L558 328 L561 328 L561 327 L562 327 L562 326 L563 326 L563 323 L564 323 L564 322 L563 322 L563 317 L562 317 L562 314 L561 314 L561 311 L560 311 L560 308 L559 308 L559 306 L558 306 L558 304 L557 304 L557 301 L556 301 L556 299 L555 299 L555 296 L554 296 L554 294 L553 294 L553 291 L552 291 L552 289 L551 289 L551 286 L550 286 L550 284 L549 284 L549 281 L548 281 L548 279 L547 279 L547 277 L546 277 L546 274 L545 274 L545 272 L544 272 L544 269 L543 269 L543 267 L542 267 L542 264 L541 264 L541 261 L540 261 L540 259 L539 259 L539 256 L538 256 L538 254 L537 254 L537 251 L536 251 L536 249 L535 249 L535 247 L534 247 L534 244 L533 244 L533 242 L532 242 L532 239 L531 239 L531 237 L530 237 L530 234 L529 234 L529 232 L528 232 L528 229 L527 229 L527 227 L526 227 L526 224 L525 224 L525 222 L524 222 L524 219 L523 219 L523 217 L522 217 L522 214 L521 214 L521 212 L520 212 L520 209 L519 209 L519 207 L518 207 L518 204 L517 204 L517 202 L516 202 L516 199 L431 199 L431 200 L430 200 L430 203 L429 203 L429 205 L428 205 L428 208 L427 208 L427 210 L426 210 L426 213 L425 213 L425 215 L424 215 L424 218 L423 218 L423 220 L422 220 L422 223 L421 223 L421 225 L420 225 L420 228 L419 228 L419 230 L418 230 L418 233 L417 233 L417 235 L416 235 L416 238 L415 238 L415 240 L414 240 L414 243 L413 243 L413 245 L412 245 L412 248 L411 248 L411 250 L410 250 L410 253 L409 253 L409 255 L408 255 L408 258 L407 258 L407 260 L406 260 L406 262 L405 262 L405 265 L404 265 L404 267 L403 267 L403 270 L402 270 L402 273 L401 273 L401 275 L400 275 L400 278 L399 278 L399 280 L398 280 L398 282 L397 282 L397 285 L396 285 L396 287 L395 287 L395 290 L394 290 L394 292 L393 292 L393 295 L392 295 L392 297 L391 297 L391 300 L390 300 L390 303 L389 303 L389 305 L388 305 L388 307 L387 307 L387 310 L386 310 L386 313 L385 313 L385 315 L384 315 L384 318 L383 318 L383 322 L382 322 L382 325 L383 325 L383 327 L385 327 L385 328 L387 328 L387 329 L392 329 L392 334 L346 334 L346 329 L352 329 L352 328 L356 328 L356 327 L358 327 L358 326 L360 326 L360 325 L361 325 L361 324 L363 324 L363 323 L364 323 L364 321 L365 321 L365 320 L366 320 L366 319 L367 319 L367 317 L368 317 L368 315 L369 315 L369 313 L370 313 L370 311 L371 311 L371 309 L372 309 L372 307 L373 307 L373 304 L374 304 L374 302 L375 302 L375 299 L376 299 L376 297 L377 297 L377 294 L378 294 L378 292 L379 292 L379 289 L380 289 L380 286 L381 286 L381 284 L382 284 L382 281 L383 281 L383 279 L384 279 L384 276 L385 276 L385 274 L386 274 L386 271 L387 271 L387 269 L388 269 L388 266 L389 266 L389 264 L390 264 L390 261 L391 261 L391 259 L392 259 L392 256 L393 256 L393 254 L394 254 L394 251 L395 251 L395 249 L396 249 L396 246 L397 246 L397 244 L398 244 L398 241 L399 241 L399 238 L400 238 L400 236 L401 236 L401 233 L402 233 L402 231 L403 231 L403 229 L404 229 L404 226 L405 226 L405 224 L406 224 L406 221 L407 221 L407 218 L408 218 L408 216 L409 216 L409 213 L410 213 L410 211 L411 211 L411 208 L412 208 L412 206 L413 206 L413 203 L414 203 L414 201 L415 201 L415 198 L416 198 L416 196 L417 196 L417 193 L418 193 L418 191 L419 191 L419 188 L420 188 L420 185 L421 185 L421 183 L422 183 L422 180 L423 180 L423 178 L424 178 L424 176 L425 176 L425 173 L426 173 L426 171 L427 171 L427 168 L428 168 L428 165 L429 165 L429 163 L430 163 L430 160 L431 160 L431 158 L432 158 L432 155 L433 155 L433 153 L434 153 L434 150 L435 150 L435 148 L436 148 L436 145 L437 145 L437 142 L438 142 L438 140 L439 140 L439 137 L440 137 L440 135 L441 135 L441 132 L442 132 L442 130 L443 130 L443 127 L444 127 L444 125 L445 125 L445 122 L446 122 L446 120 L447 120 L447 117 L448 117 L448 115 L449 115 L449 112 L450 112 L450 110 L451 110 L451 107 L452 107 L452 105 L453 105 L453 102 L454 102 L454 100 L455 100 L455 97 L456 97 L456 95 L457 95 L457 92 L458 92 L458 90 L459 90 L459 87 L460 87 L460 84 L461 84 L461 82 L462 82 L462 80 L463 80 L463 77 L464 77 L464 74 L465 74 L465 72 L466 72 L466 69 L467 69 L467 67 L468 67 L468 64 L469 64 L469 62 L470 62 L470 59 L471 59 L471 57 L472 57 L472 54 L473 54 L473 52 L474 52 L474 49 L475 49 L475 47 L476 47 L476 44 L477 44 L477 42 L478 42 L478 39 L479 39 L479 36 L480 36 Z M1424 34 L1432 34 L1432 37 L1433 37 L1433 39 L1434 39 L1434 42 L1435 42 L1435 44 L1436 44 L1436 47 L1437 47 L1437 50 L1438 50 L1438 52 L1439 52 L1439 54 L1440 54 L1440 57 L1441 57 L1441 59 L1442 59 L1442 62 L1443 62 L1443 64 L1444 64 L1444 67 L1445 67 L1445 69 L1446 69 L1446 72 L1447 72 L1447 74 L1448 74 L1448 77 L1449 77 L1449 79 L1450 79 L1450 81 L1451 81 L1451 84 L1452 84 L1452 86 L1453 86 L1453 89 L1454 89 L1454 91 L1455 91 L1455 94 L1456 94 L1456 97 L1457 97 L1457 99 L1458 99 L1458 101 L1459 101 L1459 104 L1460 104 L1460 106 L1461 106 L1461 109 L1462 109 L1462 111 L1463 111 L1463 114 L1464 114 L1464 116 L1465 116 L1465 119 L1466 119 L1466 121 L1467 121 L1467 124 L1468 124 L1468 126 L1469 126 L1469 129 L1470 129 L1470 131 L1471 131 L1471 134 L1472 134 L1472 136 L1473 136 L1473 138 L1474 138 L1474 141 L1475 141 L1475 143 L1476 143 L1476 146 L1477 146 L1477 149 L1478 149 L1478 151 L1479 151 L1479 154 L1480 154 L1480 156 L1481 156 L1481 158 L1482 158 L1482 161 L1483 161 L1483 163 L1484 163 L1484 166 L1485 166 L1485 168 L1486 168 L1486 171 L1487 171 L1487 174 L1488 174 L1488 176 L1489 176 L1489 178 L1490 178 L1490 181 L1491 181 L1491 183 L1492 183 L1492 185 L1493 185 L1493 188 L1494 188 L1494 190 L1495 190 L1495 193 L1496 193 L1496 196 L1497 196 L1497 198 L1498 198 L1498 201 L1499 201 L1499 203 L1500 203 L1500 205 L1501 205 L1501 208 L1502 208 L1502 210 L1503 210 L1503 213 L1504 213 L1504 215 L1505 215 L1505 218 L1506 218 L1506 220 L1507 220 L1507 223 L1508 223 L1508 225 L1509 225 L1509 228 L1510 228 L1510 230 L1511 230 L1511 233 L1512 233 L1512 235 L1513 235 L1513 238 L1514 238 L1514 240 L1515 240 L1515 243 L1516 243 L1516 245 L1517 245 L1517 248 L1518 248 L1518 250 L1519 250 L1519 253 L1520 253 L1520 255 L1521 255 L1521 258 L1522 258 L1522 260 L1523 260 L1523 262 L1524 262 L1524 265 L1525 265 L1525 267 L1526 267 L1526 270 L1527 270 L1527 272 L1528 272 L1528 275 L1529 275 L1529 277 L1530 277 L1530 280 L1531 280 L1531 282 L1532 282 L1532 285 L1533 285 L1533 287 L1534 287 L1534 289 L1535 289 L1535 292 L1536 292 L1536 295 L1537 295 L1537 298 L1538 298 L1538 300 L1539 300 L1539 303 L1540 303 L1540 305 L1541 305 L1541 307 L1542 307 L1542 309 L1543 309 L1543 311 L1544 311 L1544 313 L1545 313 L1545 315 L1546 315 L1546 317 L1547 317 L1547 318 L1548 318 L1548 320 L1549 320 L1549 321 L1550 321 L1550 322 L1551 322 L1551 323 L1552 323 L1552 324 L1554 324 L1554 325 L1555 325 L1555 326 L1557 326 L1557 327 L1559 327 L1559 328 L1564 328 L1564 329 L1569 329 L1569 334 L1498 334 L1498 329 L1502 329 L1502 328 L1505 328 L1505 327 L1506 327 L1506 326 L1507 326 L1507 318 L1506 318 L1506 315 L1505 315 L1505 312 L1504 312 L1504 309 L1503 309 L1503 307 L1502 307 L1502 305 L1501 305 L1501 302 L1500 302 L1500 299 L1499 299 L1499 297 L1498 297 L1498 295 L1497 295 L1497 292 L1496 292 L1496 290 L1495 290 L1495 288 L1494 288 L1494 285 L1493 285 L1493 282 L1492 282 L1492 280 L1491 280 L1491 277 L1490 277 L1490 275 L1489 275 L1489 272 L1488 272 L1488 270 L1487 270 L1487 267 L1486 267 L1486 265 L1485 265 L1485 263 L1484 263 L1484 260 L1483 260 L1483 258 L1482 258 L1482 255 L1481 255 L1481 253 L1480 253 L1480 250 L1479 250 L1479 247 L1478 247 L1478 245 L1477 245 L1477 242 L1476 242 L1476 240 L1475 240 L1475 238 L1474 238 L1474 235 L1473 235 L1473 233 L1472 233 L1472 230 L1471 230 L1471 228 L1470 228 L1470 225 L1469 225 L1469 222 L1468 222 L1468 220 L1467 220 L1467 218 L1466 218 L1466 215 L1465 215 L1465 213 L1464 213 L1464 210 L1463 210 L1463 208 L1462 208 L1462 205 L1461 205 L1461 203 L1460 203 L1460 200 L1459 200 L1459 199 L1374 199 L1374 202 L1373 202 L1373 204 L1372 204 L1372 207 L1371 207 L1371 209 L1370 209 L1370 212 L1369 212 L1369 214 L1368 214 L1368 217 L1367 217 L1367 219 L1366 219 L1366 222 L1365 222 L1365 224 L1364 224 L1364 227 L1363 227 L1363 229 L1362 229 L1362 232 L1361 232 L1361 234 L1360 234 L1360 237 L1359 237 L1359 239 L1358 239 L1358 242 L1357 242 L1357 244 L1356 244 L1356 246 L1355 246 L1355 249 L1354 249 L1354 252 L1353 252 L1353 254 L1352 254 L1352 257 L1351 257 L1351 259 L1350 259 L1350 262 L1349 262 L1349 264 L1348 264 L1348 267 L1347 267 L1347 269 L1346 269 L1346 272 L1345 272 L1345 274 L1344 274 L1344 277 L1343 277 L1343 279 L1342 279 L1342 282 L1341 282 L1341 284 L1340 284 L1340 287 L1339 287 L1339 289 L1338 289 L1338 292 L1337 292 L1337 294 L1336 294 L1336 297 L1335 297 L1335 299 L1334 299 L1334 302 L1333 302 L1333 304 L1332 304 L1332 307 L1331 307 L1331 309 L1330 309 L1330 312 L1329 312 L1329 314 L1328 314 L1328 317 L1327 317 L1327 321 L1326 321 L1326 326 L1327 326 L1327 327 L1328 327 L1328 328 L1331 328 L1331 329 L1336 329 L1336 334 L1290 334 L1290 329 L1295 329 L1295 328 L1300 328 L1300 327 L1302 327 L1302 326 L1304 326 L1304 325 L1305 325 L1305 324 L1306 324 L1306 323 L1307 323 L1307 322 L1308 322 L1308 321 L1309 321 L1309 319 L1310 319 L1310 318 L1311 318 L1311 316 L1312 316 L1312 314 L1313 314 L1313 312 L1314 312 L1314 310 L1315 310 L1315 308 L1316 308 L1316 306 L1317 306 L1317 303 L1318 303 L1318 301 L1319 301 L1319 298 L1320 298 L1320 295 L1321 295 L1321 293 L1322 293 L1322 290 L1323 290 L1323 288 L1324 288 L1324 286 L1325 286 L1325 283 L1326 283 L1326 280 L1327 280 L1327 278 L1328 278 L1328 276 L1329 276 L1329 273 L1330 273 L1330 270 L1331 270 L1331 268 L1332 268 L1332 265 L1333 265 L1333 263 L1334 263 L1334 260 L1335 260 L1335 258 L1336 258 L1336 255 L1337 255 L1337 253 L1338 253 L1338 250 L1339 250 L1339 248 L1340 248 L1340 245 L1341 245 L1341 242 L1342 242 L1342 240 L1343 240 L1343 237 L1344 237 L1344 235 L1345 235 L1345 232 L1346 232 L1346 230 L1347 230 L1347 228 L1348 228 L1348 225 L1349 225 L1349 222 L1350 222 L1350 220 L1351 220 L1351 217 L1352 217 L1352 215 L1353 215 L1353 212 L1354 212 L1354 210 L1355 210 L1355 207 L1356 207 L1356 205 L1357 205 L1357 202 L1358 202 L1358 200 L1359 200 L1359 197 L1360 197 L1360 195 L1361 195 L1361 192 L1362 192 L1362 189 L1363 189 L1363 187 L1364 187 L1364 185 L1365 185 L1365 182 L1366 182 L1366 180 L1367 180 L1367 177 L1368 177 L1368 175 L1369 175 L1369 172 L1370 172 L1370 169 L1371 169 L1371 167 L1372 167 L1372 164 L1373 164 L1373 162 L1374 162 L1374 159 L1375 159 L1375 157 L1376 157 L1376 154 L1377 154 L1377 152 L1378 152 L1378 149 L1379 149 L1379 146 L1380 146 L1380 144 L1381 144 L1381 141 L1382 141 L1382 139 L1383 139 L1383 137 L1384 137 L1384 134 L1385 134 L1385 132 L1386 132 L1386 129 L1387 129 L1387 127 L1388 127 L1388 124 L1389 124 L1389 121 L1390 121 L1390 119 L1391 119 L1391 116 L1392 116 L1392 114 L1393 114 L1393 111 L1394 111 L1394 109 L1395 109 L1395 106 L1396 106 L1396 104 L1397 104 L1397 101 L1398 101 L1398 99 L1399 99 L1399 96 L1400 96 L1400 93 L1401 93 L1401 91 L1402 91 L1402 88 L1403 88 L1403 86 L1404 86 L1404 83 L1405 83 L1405 81 L1406 81 L1406 78 L1407 78 L1407 76 L1408 76 L1408 73 L1409 73 L1409 71 L1410 71 L1410 68 L1411 68 L1411 66 L1412 66 L1412 63 L1413 63 L1413 61 L1414 61 L1414 58 L1415 58 L1415 56 L1416 56 L1416 53 L1417 53 L1417 51 L1418 51 L1418 48 L1419 48 L1419 46 L1420 46 L1420 43 L1421 43 L1421 40 L1422 40 L1422 38 L1423 38 L1423 36 L1424 36 Z M37 38 L148 38 L148 39 L166 39 L166 40 L174 40 L174 41 L177 41 L177 42 L181 42 L181 43 L184 43 L184 44 L187 44 L187 45 L190 45 L190 46 L192 46 L192 47 L194 47 L194 48 L196 48 L196 49 L198 49 L198 50 L199 50 L199 51 L201 51 L201 52 L202 52 L202 53 L204 53 L204 54 L205 54 L205 55 L207 55 L207 56 L208 56 L208 57 L209 57 L209 58 L210 58 L210 59 L211 59 L211 60 L212 60 L212 61 L213 61 L213 62 L214 62 L214 63 L215 63 L215 64 L216 64 L216 66 L217 66 L217 67 L218 67 L218 69 L219 69 L219 70 L220 70 L220 73 L221 73 L221 75 L222 75 L222 77 L223 77 L223 80 L224 80 L224 83 L225 83 L225 86 L226 86 L226 91 L227 91 L227 116 L226 116 L226 120 L225 120 L225 125 L224 125 L224 128 L223 128 L223 131 L222 131 L222 133 L221 133 L221 135 L220 135 L220 138 L219 138 L219 140 L218 140 L218 142 L217 142 L217 143 L216 143 L216 145 L215 145 L215 146 L214 146 L214 148 L213 148 L213 149 L212 149 L212 151 L211 151 L211 152 L210 152 L210 154 L209 154 L209 155 L208 155 L208 156 L207 156 L207 157 L206 157 L206 158 L205 158 L205 159 L204 159 L204 160 L203 160 L203 162 L202 162 L202 163 L201 163 L201 164 L200 164 L200 165 L198 165 L198 166 L197 166 L197 167 L196 167 L196 168 L195 168 L195 169 L194 169 L194 170 L193 170 L193 171 L191 171 L191 172 L190 172 L190 173 L189 173 L189 174 L188 174 L188 175 L186 175 L186 176 L185 176 L185 177 L183 177 L183 178 L181 178 L181 179 L180 179 L180 180 L178 180 L178 181 L177 181 L177 183 L178 183 L178 185 L179 185 L179 186 L180 186 L180 188 L181 188 L181 190 L182 190 L182 191 L183 191 L183 192 L184 192 L184 194 L185 194 L185 195 L186 195 L186 197 L187 197 L187 199 L188 199 L188 200 L189 200 L189 202 L190 202 L190 203 L191 203 L191 205 L192 205 L192 206 L193 206 L193 208 L194 208 L194 209 L195 209 L195 211 L196 211 L196 212 L197 212 L197 214 L198 214 L198 216 L199 216 L199 217 L200 217 L200 219 L201 219 L201 221 L202 221 L202 222 L203 222 L203 224 L204 224 L204 225 L205 225 L205 226 L206 226 L206 228 L207 228 L207 229 L208 229 L208 231 L209 231 L209 232 L210 232 L210 234 L211 234 L211 235 L212 235 L212 237 L213 237 L213 238 L214 238 L214 240 L215 240 L215 241 L216 241 L216 242 L217 242 L217 244 L218 244 L218 245 L219 245 L219 247 L220 247 L220 248 L221 248 L221 250 L222 250 L222 251 L223 251 L223 252 L224 252 L224 254 L225 254 L225 255 L226 255 L226 257 L227 257 L227 258 L228 258 L228 259 L229 259 L229 261 L230 261 L230 262 L231 262 L231 264 L232 264 L232 265 L233 265 L233 266 L234 266 L234 268 L235 268 L235 269 L236 269 L236 270 L237 270 L237 272 L238 272 L238 273 L239 273 L239 275 L240 275 L240 276 L241 276 L241 277 L242 277 L242 278 L243 278 L243 280 L244 280 L244 281 L245 281 L245 282 L246 282 L246 283 L247 283 L247 285 L248 285 L248 286 L249 286 L249 287 L250 287 L250 288 L251 288 L251 289 L252 289 L252 291 L253 291 L253 292 L254 292 L254 293 L255 293 L255 294 L256 294 L256 295 L257 295 L257 296 L258 296 L258 298 L259 298 L259 299 L260 299 L260 300 L261 300 L261 301 L262 301 L262 302 L263 302 L263 303 L264 303 L264 304 L265 304 L265 305 L267 305 L267 306 L268 306 L268 307 L269 307 L269 308 L270 308 L270 309 L271 309 L271 310 L272 310 L272 311 L274 311 L274 312 L275 312 L275 313 L277 313 L277 314 L279 314 L279 315 L281 315 L281 316 L283 316 L283 317 L285 317 L285 318 L288 318 L288 319 L290 319 L290 320 L294 320 L294 321 L298 321 L298 322 L315 322 L315 321 L320 321 L320 320 L323 320 L323 319 L326 319 L326 318 L328 318 L328 317 L331 317 L331 316 L333 316 L333 315 L335 315 L335 314 L337 314 L337 313 L338 313 L338 312 L340 312 L340 311 L342 311 L342 312 L343 312 L343 315 L344 315 L344 317 L343 317 L343 318 L342 318 L342 319 L340 319 L340 320 L339 320 L339 321 L338 321 L338 322 L336 322 L336 323 L334 323 L334 324 L333 324 L333 325 L331 325 L331 326 L329 326 L329 327 L327 327 L327 328 L325 328 L325 329 L322 329 L322 330 L320 330 L320 331 L317 331 L317 332 L314 332 L314 333 L310 333 L310 334 L306 334 L306 335 L300 335 L300 336 L293 336 L293 337 L271 337 L271 336 L265 336 L265 335 L261 335 L261 334 L257 334 L257 333 L255 333 L255 332 L252 332 L252 331 L250 331 L250 330 L248 330 L248 329 L246 329 L246 328 L244 328 L244 327 L243 327 L243 326 L241 326 L241 325 L240 325 L240 324 L238 324 L238 323 L237 323 L237 322 L236 322 L236 321 L234 321 L234 320 L233 320 L233 319 L232 319 L232 318 L231 318 L231 317 L230 317 L230 316 L229 316 L229 315 L228 315 L228 314 L227 314 L227 313 L226 313 L226 312 L225 312 L225 310 L224 310 L224 309 L223 309 L223 308 L222 308 L222 307 L221 307 L221 306 L220 306 L220 304 L219 304 L219 303 L218 303 L218 302 L217 302 L217 301 L216 301 L216 300 L215 300 L215 298 L214 298 L214 297 L213 297 L213 296 L212 296 L212 294 L211 294 L211 293 L210 293 L210 292 L209 292 L209 290 L208 290 L208 289 L207 289 L207 288 L206 288 L206 287 L205 287 L205 285 L204 285 L204 284 L203 284 L203 283 L202 283 L202 281 L201 281 L201 280 L200 280 L200 278 L199 278 L199 277 L198 277 L198 276 L197 276 L197 274 L196 274 L196 273 L195 273 L195 271 L194 271 L194 270 L193 270 L193 269 L192 269 L192 267 L191 267 L191 266 L190 266 L190 264 L189 264 L189 263 L188 263 L188 262 L187 262 L187 260 L186 260 L186 259 L185 259 L185 257 L184 257 L184 256 L183 256 L183 254 L182 254 L182 253 L181 253 L181 251 L180 251 L180 250 L179 250 L179 249 L178 249 L178 247 L177 247 L177 246 L176 246 L176 244 L175 244 L175 243 L174 243 L174 241 L173 241 L173 239 L172 239 L172 238 L171 238 L171 236 L170 236 L170 235 L169 235 L169 233 L168 233 L168 232 L167 232 L167 230 L166 230 L166 229 L165 229 L165 227 L164 227 L164 226 L163 226 L163 224 L162 224 L162 223 L161 223 L161 221 L160 221 L160 219 L159 219 L159 218 L158 218 L158 216 L157 216 L157 215 L156 215 L156 213 L155 213 L155 212 L154 212 L154 210 L153 210 L153 209 L152 209 L152 207 L151 207 L151 206 L150 206 L150 204 L149 204 L149 202 L148 202 L148 201 L147 201 L147 199 L146 199 L146 198 L145 198 L145 196 L144 196 L144 195 L143 195 L143 193 L123 193 L123 194 L96 194 L96 193 L95 193 L95 194 L94 194 L94 309 L95 309 L95 317 L96 317 L96 321 L97 321 L97 323 L98 323 L98 325 L99 325 L99 326 L101 326 L101 327 L104 327 L104 328 L108 328 L108 329 L115 329 L115 334 L37 334 L37 329 L42 329 L42 328 L48 328 L48 327 L50 327 L50 326 L53 326 L53 325 L54 325 L54 324 L55 324 L55 321 L56 321 L56 319 L57 319 L57 311 L58 311 L58 61 L57 61 L57 55 L56 55 L56 52 L55 52 L55 49 L54 49 L54 48 L53 48 L53 47 L51 47 L51 46 L49 46 L49 45 L46 45 L46 44 L37 44 Z M641 38 L718 38 L718 39 L719 39 L719 43 L718 43 L718 44 L710 44 L710 45 L707 45 L707 46 L704 46 L704 47 L702 47 L702 48 L701 48 L701 49 L700 49 L700 51 L699 51 L699 53 L698 53 L698 58 L697 58 L697 177 L856 177 L856 63 L855 63 L855 55 L854 55 L854 51 L853 51 L853 49 L852 49 L852 47 L850 47 L850 46 L848 46 L848 45 L845 45 L845 44 L836 44 L836 41 L835 41 L835 39 L836 39 L836 38 L913 38 L913 44 L903 44 L903 45 L899 45 L899 46 L898 46 L898 47 L896 47 L896 48 L895 48 L895 50 L894 50 L894 52 L893 52 L893 62 L892 62 L892 64 L893 64 L893 65 L892 65 L892 309 L893 309 L893 319 L894 319 L894 321 L895 321 L895 323 L896 323 L896 324 L897 324 L897 325 L898 325 L898 326 L899 326 L899 327 L901 327 L901 328 L907 328 L907 329 L913 329 L913 334 L835 334 L835 333 L836 333 L836 329 L842 329 L842 328 L847 328 L847 327 L849 327 L849 326 L851 326 L851 325 L852 325 L852 324 L853 324 L853 322 L854 322 L854 317 L855 317 L855 309 L856 309 L856 220 L857 220 L857 208 L856 208 L856 188 L697 188 L697 311 L698 311 L698 316 L697 316 L697 317 L694 317 L694 318 L692 318 L692 319 L690 319 L690 320 L688 320 L688 321 L686 321 L686 322 L684 322 L684 323 L682 323 L682 324 L681 324 L681 325 L679 325 L679 326 L678 326 L678 327 L677 327 L677 328 L676 328 L676 330 L675 330 L675 334 L640 334 L640 329 L648 329 L648 328 L652 328 L652 327 L654 327 L654 326 L655 326 L655 325 L656 325 L656 324 L657 324 L657 323 L658 323 L658 322 L659 322 L659 319 L660 319 L660 315 L661 315 L661 61 L660 61 L660 54 L659 54 L659 50 L658 50 L658 48 L657 48 L657 47 L655 47 L655 46 L653 46 L653 45 L648 45 L648 44 L641 44 L641 43 L640 43 L640 39 L641 39 Z M949 38 L1007 38 L1007 41 L1008 41 L1008 43 L1009 43 L1009 46 L1010 46 L1010 48 L1011 48 L1011 51 L1012 51 L1012 53 L1013 53 L1013 55 L1014 55 L1014 58 L1015 58 L1015 60 L1016 60 L1016 62 L1017 62 L1017 64 L1018 64 L1018 67 L1019 67 L1019 69 L1020 69 L1020 71 L1021 71 L1021 74 L1022 74 L1022 76 L1023 76 L1023 78 L1024 78 L1024 81 L1025 81 L1025 83 L1026 83 L1026 85 L1027 85 L1027 88 L1028 88 L1028 90 L1029 90 L1029 92 L1030 92 L1030 95 L1031 95 L1031 97 L1032 97 L1032 99 L1033 99 L1033 102 L1034 102 L1034 104 L1035 104 L1035 106 L1036 106 L1036 109 L1037 109 L1037 111 L1038 111 L1038 113 L1039 113 L1039 115 L1040 115 L1040 118 L1041 118 L1041 120 L1042 120 L1042 123 L1043 123 L1043 125 L1044 125 L1044 127 L1045 127 L1045 130 L1046 130 L1046 132 L1047 132 L1047 134 L1048 134 L1048 136 L1049 136 L1049 139 L1050 139 L1050 141 L1051 141 L1051 144 L1052 144 L1052 146 L1053 146 L1053 148 L1054 148 L1054 151 L1055 151 L1055 153 L1056 153 L1056 155 L1057 155 L1057 157 L1058 157 L1058 160 L1059 160 L1059 162 L1060 162 L1060 165 L1061 165 L1061 167 L1062 167 L1062 169 L1063 169 L1063 171 L1064 171 L1064 174 L1065 174 L1065 176 L1066 176 L1066 178 L1067 178 L1067 181 L1068 181 L1068 183 L1069 183 L1069 185 L1070 185 L1070 188 L1071 188 L1071 190 L1072 190 L1072 192 L1073 192 L1073 195 L1074 195 L1074 197 L1075 197 L1075 200 L1076 200 L1076 202 L1077 202 L1077 204 L1078 204 L1078 206 L1079 206 L1079 209 L1080 209 L1080 211 L1081 211 L1081 214 L1082 214 L1082 216 L1083 216 L1083 218 L1084 218 L1084 220 L1085 220 L1085 223 L1086 223 L1086 225 L1087 225 L1087 227 L1088 227 L1088 230 L1089 230 L1089 232 L1090 232 L1090 234 L1091 234 L1091 237 L1092 237 L1092 239 L1093 239 L1093 241 L1094 241 L1094 244 L1095 244 L1095 246 L1096 246 L1096 248 L1097 248 L1097 251 L1098 251 L1098 253 L1099 253 L1099 255 L1100 255 L1100 258 L1101 258 L1101 260 L1102 260 L1102 262 L1103 262 L1103 265 L1104 265 L1104 267 L1105 267 L1105 269 L1106 269 L1106 272 L1107 272 L1107 274 L1108 274 L1108 276 L1109 276 L1109 274 L1110 274 L1110 272 L1111 272 L1111 269 L1112 269 L1112 267 L1113 267 L1113 265 L1114 265 L1114 263 L1115 263 L1115 260 L1116 260 L1116 258 L1117 258 L1117 255 L1118 255 L1118 253 L1119 253 L1119 251 L1120 251 L1120 249 L1121 249 L1121 246 L1122 246 L1122 244 L1123 244 L1123 242 L1124 242 L1124 239 L1125 239 L1125 237 L1126 237 L1126 235 L1127 235 L1127 232 L1128 232 L1128 230 L1129 230 L1129 228 L1130 228 L1130 225 L1131 225 L1131 223 L1132 223 L1132 221 L1133 221 L1133 219 L1134 219 L1134 216 L1135 216 L1135 214 L1136 214 L1136 212 L1137 212 L1137 209 L1138 209 L1138 207 L1139 207 L1139 204 L1140 204 L1140 202 L1141 202 L1141 200 L1142 200 L1142 198 L1143 198 L1143 195 L1144 195 L1144 193 L1145 193 L1145 191 L1146 191 L1146 188 L1147 188 L1147 186 L1148 186 L1148 184 L1149 184 L1149 181 L1150 181 L1150 179 L1151 179 L1151 177 L1152 177 L1152 174 L1153 174 L1153 172 L1154 172 L1154 170 L1155 170 L1155 168 L1156 168 L1156 165 L1157 165 L1157 163 L1158 163 L1158 160 L1159 160 L1159 158 L1160 158 L1160 156 L1161 156 L1161 153 L1162 153 L1162 151 L1163 151 L1163 149 L1164 149 L1164 147 L1165 147 L1165 144 L1166 144 L1166 142 L1167 142 L1167 140 L1168 140 L1168 137 L1169 137 L1169 135 L1170 135 L1170 133 L1171 133 L1171 130 L1172 130 L1172 128 L1173 128 L1173 126 L1174 126 L1174 123 L1175 123 L1175 121 L1176 121 L1176 119 L1177 119 L1177 116 L1178 116 L1178 114 L1179 114 L1179 112 L1180 112 L1180 109 L1181 109 L1181 107 L1182 107 L1182 105 L1183 105 L1183 102 L1184 102 L1184 100 L1185 100 L1185 98 L1186 98 L1186 96 L1187 96 L1187 93 L1188 93 L1188 91 L1189 91 L1189 89 L1190 89 L1190 86 L1191 86 L1191 84 L1192 84 L1192 82 L1193 82 L1193 79 L1194 79 L1194 77 L1195 77 L1195 75 L1196 75 L1196 73 L1197 73 L1197 70 L1198 70 L1198 68 L1199 68 L1199 65 L1200 65 L1200 63 L1201 63 L1201 61 L1202 61 L1202 58 L1203 58 L1203 56 L1204 56 L1204 54 L1205 54 L1205 52 L1206 52 L1206 49 L1207 49 L1207 47 L1208 47 L1208 44 L1209 44 L1209 42 L1210 42 L1210 40 L1211 40 L1211 38 L1260 38 L1260 43 L1259 43 L1259 44 L1252 44 L1252 45 L1249 45 L1249 46 L1247 46 L1247 47 L1245 47 L1245 48 L1243 48 L1243 49 L1242 49 L1242 50 L1241 50 L1241 51 L1240 51 L1240 53 L1239 53 L1239 55 L1238 55 L1238 57 L1237 57 L1237 62 L1236 62 L1236 74 L1237 74 L1237 82 L1238 82 L1238 89 L1239 89 L1239 96 L1240 96 L1240 103 L1241 103 L1241 110 L1242 110 L1242 117 L1243 117 L1243 126 L1244 126 L1244 133 L1245 133 L1245 140 L1246 140 L1246 147 L1247 147 L1247 154 L1248 154 L1248 161 L1249 161 L1249 168 L1250 168 L1250 175 L1251 175 L1251 182 L1252 182 L1252 190 L1253 190 L1253 198 L1254 198 L1254 205 L1255 205 L1255 212 L1256 212 L1256 219 L1257 219 L1257 226 L1258 226 L1258 232 L1259 232 L1259 239 L1260 239 L1260 246 L1261 246 L1261 254 L1262 254 L1262 261 L1263 261 L1263 270 L1264 270 L1264 277 L1265 277 L1265 284 L1266 284 L1266 291 L1267 291 L1267 297 L1268 297 L1268 305 L1269 305 L1269 309 L1270 309 L1270 314 L1271 314 L1271 317 L1272 317 L1272 320 L1273 320 L1273 323 L1274 323 L1274 324 L1275 324 L1275 325 L1276 325 L1276 326 L1278 326 L1278 327 L1281 327 L1281 328 L1285 328 L1285 329 L1286 329 L1286 328 L1287 328 L1287 329 L1289 329 L1289 334 L1221 334 L1221 329 L1226 329 L1226 328 L1229 328 L1229 327 L1230 327 L1230 326 L1231 326 L1231 325 L1232 325 L1232 323 L1233 323 L1233 320 L1234 320 L1234 314 L1233 314 L1233 306 L1232 306 L1232 299 L1231 299 L1231 292 L1230 292 L1230 285 L1229 285 L1229 278 L1228 278 L1228 270 L1227 270 L1227 263 L1226 263 L1226 255 L1225 255 L1225 249 L1224 249 L1224 241 L1223 241 L1223 235 L1222 235 L1222 228 L1221 228 L1221 221 L1220 221 L1220 213 L1219 213 L1219 206 L1218 206 L1218 198 L1217 198 L1217 191 L1216 191 L1216 184 L1215 184 L1215 177 L1214 177 L1214 170 L1213 170 L1213 163 L1212 163 L1212 156 L1211 156 L1211 149 L1210 149 L1210 141 L1209 141 L1209 135 L1208 135 L1208 127 L1207 127 L1207 119 L1206 119 L1206 112 L1205 112 L1205 105 L1204 105 L1204 98 L1203 98 L1203 95 L1202 95 L1202 98 L1201 98 L1201 100 L1200 100 L1200 103 L1199 103 L1199 105 L1198 105 L1198 107 L1197 107 L1197 110 L1196 110 L1196 112 L1195 112 L1195 114 L1194 114 L1194 117 L1193 117 L1193 119 L1192 119 L1192 121 L1191 121 L1191 124 L1190 124 L1190 126 L1189 126 L1189 128 L1188 128 L1188 130 L1187 130 L1187 133 L1186 133 L1186 135 L1185 135 L1185 137 L1184 137 L1184 139 L1183 139 L1183 142 L1182 142 L1182 144 L1181 144 L1181 147 L1180 147 L1180 149 L1179 149 L1179 151 L1178 151 L1178 154 L1177 154 L1177 156 L1176 156 L1176 158 L1175 158 L1175 160 L1174 160 L1174 163 L1173 163 L1173 165 L1172 165 L1172 168 L1171 168 L1171 170 L1170 170 L1170 172 L1169 172 L1169 174 L1168 174 L1168 177 L1167 177 L1167 179 L1166 179 L1166 181 L1165 181 L1165 183 L1164 183 L1164 186 L1163 186 L1163 188 L1162 188 L1162 191 L1161 191 L1161 193 L1160 193 L1160 195 L1159 195 L1159 197 L1158 197 L1158 200 L1157 200 L1157 202 L1156 202 L1156 204 L1155 204 L1155 207 L1154 207 L1154 209 L1153 209 L1153 211 L1152 211 L1152 214 L1151 214 L1151 216 L1150 216 L1150 218 L1149 218 L1149 221 L1148 221 L1148 223 L1147 223 L1147 225 L1146 225 L1146 227 L1145 227 L1145 230 L1144 230 L1144 232 L1143 232 L1143 234 L1142 234 L1142 237 L1141 237 L1141 239 L1140 239 L1140 241 L1139 241 L1139 244 L1138 244 L1138 246 L1137 246 L1137 248 L1136 248 L1136 251 L1135 251 L1135 253 L1134 253 L1134 255 L1133 255 L1133 257 L1132 257 L1132 260 L1131 260 L1131 262 L1130 262 L1130 265 L1129 265 L1129 267 L1128 267 L1128 269 L1127 269 L1127 271 L1126 271 L1126 274 L1125 274 L1125 275 L1124 275 L1124 278 L1123 278 L1123 280 L1122 280 L1122 283 L1121 283 L1121 285 L1120 285 L1120 288 L1119 288 L1119 290 L1118 290 L1118 292 L1117 292 L1117 294 L1116 294 L1116 297 L1115 297 L1115 299 L1114 299 L1114 301 L1113 301 L1113 304 L1112 304 L1112 306 L1111 306 L1111 309 L1110 309 L1110 311 L1109 311 L1109 313 L1108 313 L1108 315 L1107 315 L1107 317 L1106 317 L1106 320 L1105 320 L1105 322 L1104 322 L1104 324 L1103 324 L1103 327 L1102 327 L1102 329 L1101 329 L1101 332 L1100 332 L1100 334 L1095 334 L1095 332 L1094 332 L1094 329 L1093 329 L1093 327 L1092 327 L1092 325 L1091 325 L1091 323 L1090 323 L1090 320 L1089 320 L1089 318 L1088 318 L1088 316 L1087 316 L1087 314 L1086 314 L1086 311 L1085 311 L1085 308 L1084 308 L1084 306 L1083 306 L1083 304 L1082 304 L1082 302 L1081 302 L1081 299 L1080 299 L1080 297 L1079 297 L1079 295 L1078 295 L1078 293 L1077 293 L1077 291 L1076 291 L1076 288 L1075 288 L1075 286 L1074 286 L1074 283 L1073 283 L1073 281 L1072 281 L1072 279 L1071 279 L1071 277 L1070 277 L1070 274 L1069 274 L1069 272 L1068 272 L1068 270 L1067 270 L1067 268 L1066 268 L1066 265 L1065 265 L1065 263 L1064 263 L1064 261 L1063 261 L1063 258 L1062 258 L1062 256 L1061 256 L1061 254 L1060 254 L1060 252 L1059 252 L1059 249 L1058 249 L1058 247 L1057 247 L1057 245 L1056 245 L1056 242 L1055 242 L1055 240 L1054 240 L1054 238 L1053 238 L1053 235 L1052 235 L1052 233 L1051 233 L1051 231 L1050 231 L1050 229 L1049 229 L1049 226 L1048 226 L1048 224 L1047 224 L1047 222 L1046 222 L1046 219 L1045 219 L1045 217 L1044 217 L1044 215 L1043 215 L1043 212 L1042 212 L1042 210 L1041 210 L1041 208 L1040 208 L1040 206 L1039 206 L1039 203 L1038 203 L1038 201 L1037 201 L1037 199 L1036 199 L1036 197 L1035 197 L1035 194 L1034 194 L1034 192 L1033 192 L1033 189 L1032 189 L1032 187 L1031 187 L1031 185 L1030 185 L1030 183 L1029 183 L1029 180 L1028 180 L1028 178 L1027 178 L1027 176 L1026 176 L1026 173 L1025 173 L1025 171 L1024 171 L1024 169 L1023 169 L1023 167 L1022 167 L1022 164 L1021 164 L1021 162 L1020 162 L1020 160 L1019 160 L1019 157 L1018 157 L1018 155 L1017 155 L1017 153 L1016 153 L1016 150 L1015 150 L1015 148 L1014 148 L1014 146 L1013 146 L1013 144 L1012 144 L1012 141 L1011 141 L1011 139 L1010 139 L1010 137 L1009 137 L1009 135 L1008 135 L1008 132 L1007 132 L1007 130 L1006 130 L1006 128 L1005 128 L1005 125 L1004 125 L1004 123 L1003 123 L1003 121 L1002 121 L1002 118 L1001 118 L1001 116 L1000 116 L1000 114 L999 114 L999 112 L998 112 L998 109 L997 109 L997 107 L996 107 L996 105 L995 105 L995 102 L994 102 L994 100 L993 100 L993 98 L992 98 L992 96 L991 96 L991 100 L990 100 L990 109 L989 109 L989 115 L988 115 L988 124 L987 124 L987 131 L986 131 L986 137 L985 137 L985 145 L984 145 L984 151 L983 151 L983 159 L982 159 L982 166 L981 166 L981 173 L980 173 L980 181 L979 181 L979 189 L978 189 L978 196 L977 196 L977 204 L976 204 L976 210 L975 210 L975 218 L974 218 L974 224 L973 224 L973 231 L972 231 L972 239 L971 239 L971 246 L970 246 L970 254 L969 254 L969 261 L968 261 L968 270 L967 270 L967 276 L966 276 L966 283 L965 283 L965 290 L964 290 L964 297 L963 297 L963 304 L962 304 L962 312 L961 312 L961 321 L962 321 L962 324 L963 324 L963 326 L965 326 L965 327 L966 327 L966 328 L970 328 L970 329 L975 329 L975 334 L962 334 L962 333 L961 333 L961 332 L960 332 L960 331 L959 331 L959 330 L957 330 L957 329 L956 329 L956 328 L954 328 L954 327 L952 327 L952 326 L949 326 L949 325 L943 325 L943 323 L944 323 L944 321 L945 321 L945 317 L946 317 L946 313 L947 313 L947 306 L948 306 L948 299 L949 299 L949 292 L950 292 L950 285 L951 285 L951 278 L952 278 L952 271 L953 271 L953 264 L954 264 L954 257 L955 257 L955 249 L956 249 L956 242 L957 242 L957 235 L958 235 L958 228 L959 228 L959 221 L960 221 L960 215 L961 215 L961 208 L962 208 L962 202 L963 202 L963 193 L964 193 L964 186 L965 186 L965 178 L966 178 L966 172 L967 172 L967 164 L968 164 L968 157 L969 157 L969 151 L970 151 L970 144 L971 144 L971 137 L972 137 L972 130 L973 130 L973 123 L974 123 L974 116 L975 116 L975 108 L976 108 L976 101 L977 101 L977 93 L978 93 L978 87 L979 87 L979 80 L980 80 L980 73 L981 73 L981 69 L980 69 L980 67 L979 67 L979 65 L978 65 L978 63 L977 63 L977 61 L976 61 L976 59 L975 59 L975 57 L974 57 L974 56 L973 56 L973 54 L972 54 L972 53 L971 53 L971 52 L970 52 L970 51 L969 51 L969 50 L968 50 L968 49 L967 49 L967 48 L965 48 L965 47 L963 47 L963 46 L960 46 L960 45 L957 45 L957 44 L949 44 Z M95 48 L95 49 L94 49 L94 183 L95 183 L95 184 L131 184 L131 183 L142 183 L142 182 L147 182 L147 181 L151 181 L151 180 L155 180 L155 179 L157 179 L157 178 L160 178 L160 177 L163 177 L163 176 L165 176 L165 175 L167 175 L167 174 L168 174 L168 173 L170 173 L170 172 L171 172 L171 171 L173 171 L173 170 L174 170 L174 169 L175 169 L175 168 L176 168 L176 167 L177 167 L177 166 L178 166 L178 165 L179 165 L179 164 L180 164 L180 163 L181 163 L181 162 L182 162 L182 160 L183 160 L183 159 L184 159 L184 158 L185 158 L185 156 L186 156 L186 154 L187 154 L187 152 L188 152 L188 150 L189 150 L189 148 L190 148 L190 145 L191 145 L191 142 L192 142 L192 138 L193 138 L193 133 L194 133 L194 113 L193 113 L193 107 L192 107 L192 102 L191 102 L191 99 L190 99 L190 96 L189 96 L189 93 L188 93 L188 91 L187 91 L187 89 L186 89 L186 86 L185 86 L185 84 L184 84 L184 82 L183 82 L183 81 L182 81 L182 79 L181 79 L181 77 L180 77 L180 76 L179 76 L179 74 L178 74 L178 73 L177 73 L177 72 L176 72 L176 70 L175 70 L175 69 L174 69 L174 68 L173 68 L173 67 L172 67 L172 66 L171 66 L171 65 L170 65 L170 64 L169 64 L169 63 L168 63 L168 62 L167 62 L167 61 L165 61 L165 60 L164 60 L164 59 L162 59 L162 58 L160 58 L160 57 L158 57 L158 56 L156 56 L156 55 L154 55 L154 54 L151 54 L151 53 L148 53 L148 52 L145 52 L145 51 L141 51 L141 50 L135 50 L135 49 L123 49 L123 48 Z M473 93 L472 93 L472 96 L471 96 L471 99 L470 99 L470 101 L469 101 L469 103 L468 103 L468 106 L467 106 L467 108 L466 108 L466 111 L465 111 L465 113 L464 113 L464 116 L463 116 L463 119 L462 119 L462 121 L461 121 L461 124 L460 124 L460 126 L459 126 L459 129 L458 129 L458 131 L457 131 L457 134 L456 134 L456 136 L455 136 L455 139 L454 139 L454 141 L453 141 L453 144 L452 144 L452 146 L451 146 L451 149 L450 149 L450 151 L449 151 L449 154 L448 154 L448 156 L447 156 L447 159 L446 159 L446 161 L445 161 L445 164 L444 164 L444 166 L443 166 L443 169 L442 169 L442 171 L441 171 L441 174 L440 174 L440 177 L439 177 L439 179 L438 179 L438 182 L437 182 L437 184 L436 184 L436 186 L435 186 L435 188 L510 188 L510 186 L509 186 L509 183 L508 183 L508 181 L507 181 L507 178 L506 178 L506 176 L505 176 L505 173 L504 173 L504 171 L503 171 L503 169 L502 169 L502 166 L501 166 L501 163 L500 163 L500 161 L499 161 L499 158 L498 158 L498 156 L497 156 L497 153 L496 153 L496 151 L495 151 L495 148 L494 148 L494 146 L493 146 L493 143 L492 143 L492 141 L491 141 L491 138 L490 138 L490 136 L489 136 L489 133 L488 133 L488 131 L487 131 L487 128 L486 128 L486 125 L485 125 L485 123 L484 123 L484 120 L483 120 L483 118 L482 118 L482 116 L481 116 L481 113 L480 113 L480 110 L479 110 L479 108 L478 108 L478 105 L477 105 L477 103 L476 103 L476 100 L475 100 L475 97 L474 97 L474 95 L473 95 Z M1417 94 L1416 94 L1416 95 L1415 95 L1415 98 L1414 98 L1414 100 L1413 100 L1413 103 L1412 103 L1412 105 L1411 105 L1411 108 L1410 108 L1410 110 L1409 110 L1409 113 L1408 113 L1408 115 L1407 115 L1407 118 L1406 118 L1406 120 L1405 120 L1405 123 L1404 123 L1404 125 L1403 125 L1403 128 L1402 128 L1402 131 L1401 131 L1401 133 L1400 133 L1400 135 L1399 135 L1399 138 L1398 138 L1398 140 L1397 140 L1397 143 L1396 143 L1396 146 L1395 146 L1395 148 L1394 148 L1394 151 L1393 151 L1393 153 L1392 153 L1392 156 L1391 156 L1391 158 L1390 158 L1390 161 L1389 161 L1389 163 L1388 163 L1388 166 L1387 166 L1387 168 L1386 168 L1386 170 L1385 170 L1385 173 L1384 173 L1384 176 L1383 176 L1383 178 L1382 178 L1382 181 L1381 181 L1381 183 L1380 183 L1380 186 L1379 186 L1379 188 L1454 188 L1454 187 L1453 187 L1453 185 L1452 185 L1452 182 L1451 182 L1451 180 L1450 180 L1450 177 L1449 177 L1449 174 L1448 174 L1448 172 L1447 172 L1447 169 L1446 169 L1446 167 L1445 167 L1445 164 L1444 164 L1444 162 L1443 162 L1443 160 L1442 160 L1442 157 L1441 157 L1441 154 L1440 154 L1440 152 L1439 152 L1439 149 L1438 149 L1438 146 L1437 146 L1437 144 L1436 144 L1436 142 L1435 142 L1435 139 L1434 139 L1434 137 L1433 137 L1433 134 L1432 134 L1432 132 L1431 132 L1431 129 L1430 129 L1430 126 L1429 126 L1429 124 L1428 124 L1428 121 L1427 121 L1427 119 L1426 119 L1426 116 L1425 116 L1425 114 L1424 114 L1424 111 L1423 111 L1423 109 L1422 109 L1422 107 L1421 107 L1421 104 L1420 104 L1420 101 L1419 101 L1419 98 L1418 98 L1418 96 L1417 96 Z M703 326 L705 326 L705 327 L706 327 L706 328 L712 328 L712 329 L719 329 L719 333 L718 333 L718 334 L685 334 L685 333 L687 333 L687 332 L690 332 L690 331 L692 331 L692 330 L694 330 L694 329 L697 329 L697 328 L700 328 L700 327 L703 327 Z M928 329 L932 329 L932 330 L931 330 L931 331 L930 331 L930 332 L929 332 L929 333 L927 333 L927 332 L928 332 L928 331 L927 331 L927 330 L928 330 Z" fill="url(#rahmaOrangeGradient)" fill-rule="evenodd"/>
  <path id="blue" d="M837 195 L843 195 L843 196 L845 196 L845 197 L849 197 L849 198 L850 198 L850 199 L851 199 L851 200 L852 200 L852 201 L853 201 L853 202 L854 202 L854 203 L855 203 L855 205 L856 205 L856 209 L857 209 L857 218 L856 218 L856 225 L855 225 L855 228 L854 228 L854 231 L853 231 L853 233 L852 233 L852 235 L851 235 L851 238 L850 238 L850 240 L849 240 L849 242 L848 242 L848 245 L847 245 L847 247 L846 247 L846 249 L845 249 L845 251 L844 251 L844 253 L843 253 L843 255 L842 255 L842 258 L841 258 L841 259 L840 259 L840 261 L839 261 L839 264 L838 264 L838 266 L837 266 L837 268 L836 268 L836 270 L835 270 L835 272 L834 272 L834 273 L833 273 L833 275 L832 275 L832 277 L831 277 L831 279 L830 279 L830 281 L829 281 L829 283 L828 283 L828 285 L827 285 L827 287 L826 287 L826 289 L825 289 L825 291 L824 291 L824 293 L823 293 L823 295 L822 295 L822 296 L821 296 L821 298 L820 298 L820 300 L819 300 L819 302 L818 302 L818 304 L817 304 L817 306 L816 306 L816 308 L815 308 L815 310 L814 310 L814 311 L813 311 L813 313 L812 313 L812 315 L811 315 L811 317 L810 317 L810 319 L809 319 L809 321 L808 321 L808 322 L807 322 L807 324 L806 324 L806 326 L805 326 L805 328 L804 328 L804 330 L803 330 L803 332 L802 332 L802 333 L801 333 L801 335 L800 335 L800 337 L799 337 L799 338 L798 338 L798 340 L797 340 L797 342 L796 342 L796 343 L795 343 L795 345 L794 345 L794 347 L793 347 L793 348 L792 348 L792 349 L791 349 L791 351 L790 351 L790 353 L789 353 L789 361 L788 361 L788 370 L787 370 L787 380 L786 380 L786 390 L785 390 L785 402 L784 402 L784 417 L783 417 L783 428 L784 428 L784 426 L785 426 L785 424 L786 424 L786 422 L787 422 L787 420 L788 420 L788 418 L789 418 L789 416 L790 416 L790 414 L791 414 L791 412 L792 412 L792 410 L793 410 L793 408 L794 408 L794 406 L795 406 L795 405 L796 405 L796 403 L797 403 L797 401 L798 401 L798 400 L799 400 L799 399 L808 399 L808 400 L811 400 L811 401 L813 401 L813 402 L814 402 L814 403 L815 403 L815 404 L816 404 L816 405 L817 405 L817 406 L818 406 L818 408 L819 408 L819 411 L820 411 L820 413 L821 413 L821 417 L822 417 L822 421 L823 421 L823 424 L824 424 L824 428 L826 428 L826 427 L827 427 L827 426 L828 426 L828 425 L829 425 L829 424 L831 424 L831 423 L832 423 L832 422 L833 422 L833 421 L834 421 L834 420 L835 420 L835 419 L836 419 L836 418 L837 418 L837 417 L838 417 L838 416 L839 416 L839 415 L840 415 L840 414 L841 414 L841 413 L842 413 L842 412 L843 412 L843 411 L844 411 L844 410 L845 410 L845 409 L846 409 L846 408 L847 408 L847 407 L848 407 L848 406 L849 406 L849 405 L850 405 L850 404 L851 404 L851 402 L852 402 L852 401 L853 401 L853 399 L854 399 L854 397 L855 397 L855 395 L856 395 L856 394 L857 394 L857 392 L858 392 L858 390 L859 390 L859 389 L860 389 L860 388 L861 388 L861 386 L862 386 L862 385 L863 385 L863 384 L864 384 L864 383 L865 383 L865 382 L866 382 L866 381 L867 381 L867 380 L868 380 L868 379 L869 379 L869 378 L870 378 L870 377 L872 377 L872 376 L875 376 L875 375 L882 375 L882 376 L884 376 L884 377 L886 377 L886 378 L887 378 L887 379 L888 379 L888 380 L889 380 L889 381 L890 381 L890 382 L891 382 L891 383 L892 383 L892 384 L893 384 L893 387 L894 387 L894 390 L895 390 L895 395 L894 395 L894 400 L893 400 L893 403 L892 403 L892 405 L891 405 L891 407 L890 407 L890 409 L889 409 L889 411 L888 411 L888 412 L887 412 L887 414 L886 414 L886 415 L885 415 L885 417 L884 417 L884 418 L883 418 L883 419 L882 419 L882 421 L881 421 L881 422 L880 422 L880 423 L879 423 L879 424 L878 424 L878 425 L877 425 L877 426 L876 426 L876 427 L875 427 L875 428 L874 428 L874 429 L873 429 L873 430 L871 430 L871 431 L870 431 L870 432 L869 432 L869 433 L867 433 L867 434 L864 434 L864 435 L860 435 L860 436 L859 436 L859 446 L860 446 L860 447 L865 447 L865 446 L868 446 L868 445 L871 445 L871 444 L873 444 L873 443 L875 443 L875 442 L877 442 L877 441 L879 441 L879 440 L880 440 L880 439 L882 439 L882 438 L883 438 L883 437 L885 437 L885 436 L886 436 L886 435 L887 435 L887 434 L889 434 L889 433 L890 433 L890 432 L891 432 L891 431 L892 431 L892 430 L893 430 L893 429 L895 429 L895 428 L896 428 L896 427 L897 427 L897 426 L898 426 L898 425 L899 425 L899 424 L900 424 L900 423 L901 423 L901 422 L902 422 L902 421 L903 421 L903 420 L904 420 L904 419 L905 419 L905 418 L906 418 L906 417 L907 417 L907 416 L908 416 L908 415 L909 415 L909 414 L910 414 L910 412 L911 412 L911 411 L912 411 L912 410 L913 410 L913 409 L914 409 L914 408 L915 408 L915 406 L916 406 L916 405 L917 405 L917 404 L918 404 L918 402 L919 402 L919 401 L920 401 L920 400 L921 400 L921 398 L919 398 L919 397 L918 397 L918 396 L916 396 L916 395 L915 395 L915 394 L914 394 L914 393 L913 393 L913 391 L912 391 L912 389 L911 389 L911 375 L912 375 L912 369 L913 369 L913 365 L914 365 L914 362 L915 362 L915 359 L916 359 L916 356 L917 356 L917 353 L918 353 L918 351 L919 351 L919 348 L920 348 L920 346 L921 346 L921 344 L922 344 L922 342 L923 342 L923 340 L924 340 L924 339 L925 339 L925 337 L926 337 L926 335 L927 335 L927 334 L929 334 L929 333 L930 333 L930 331 L931 331 L931 330 L932 330 L932 328 L933 328 L933 327 L935 327 L935 326 L937 326 L937 325 L943 325 L943 326 L944 326 L944 325 L947 325 L947 326 L951 326 L951 327 L953 327 L953 328 L955 328 L955 329 L957 329 L957 330 L958 330 L958 331 L959 331 L959 332 L960 332 L960 333 L961 333 L961 334 L963 334 L963 335 L964 335 L964 345 L963 345 L963 349 L962 349 L962 352 L961 352 L961 354 L960 354 L960 357 L959 357 L959 359 L958 359 L958 362 L957 362 L957 364 L956 364 L956 366 L955 366 L955 368 L954 368 L954 370 L953 370 L953 372 L952 372 L952 374 L951 374 L951 375 L950 375 L950 377 L949 377 L949 379 L948 379 L948 381 L947 381 L947 382 L946 382 L946 383 L945 383 L945 385 L944 385 L944 386 L943 386 L943 387 L942 387 L942 388 L941 388 L941 389 L939 389 L939 390 L937 390 L937 391 L936 391 L936 392 L944 392 L944 393 L947 393 L947 394 L949 394 L949 395 L951 395 L951 396 L952 396 L952 397 L954 397 L954 398 L955 398 L955 400 L956 400 L956 401 L957 401 L957 403 L958 403 L958 438 L959 438 L959 439 L960 439 L960 438 L961 438 L961 437 L963 437 L963 436 L964 436 L964 435 L965 435 L965 434 L966 434 L966 433 L967 433 L967 432 L968 432 L968 431 L969 431 L969 430 L970 430 L970 428 L971 428 L971 427 L972 427 L972 426 L973 426 L973 424 L974 424 L974 423 L975 423 L975 422 L976 422 L976 420 L977 420 L977 419 L978 419 L978 417 L979 417 L979 414 L980 414 L980 411 L981 411 L981 409 L982 409 L982 407 L983 407 L983 404 L984 404 L984 403 L985 403 L985 401 L986 401 L986 400 L987 400 L987 398 L988 398 L988 397 L989 397 L989 396 L990 396 L990 395 L991 395 L991 394 L992 394 L992 392 L993 392 L993 391 L994 391 L994 390 L995 390 L995 389 L996 389 L996 388 L997 388 L997 387 L998 387 L998 386 L999 386 L999 385 L1000 385 L1000 384 L1002 384 L1002 383 L1003 383 L1003 382 L1004 382 L1004 381 L1005 381 L1005 380 L1007 380 L1007 379 L1009 379 L1009 378 L1010 378 L1010 377 L1013 377 L1013 376 L1016 376 L1016 375 L1024 375 L1024 376 L1026 376 L1026 377 L1028 377 L1028 378 L1030 378 L1030 379 L1031 379 L1031 380 L1033 380 L1033 381 L1034 381 L1034 382 L1035 382 L1035 384 L1036 384 L1036 385 L1037 385 L1037 387 L1038 387 L1038 389 L1039 389 L1039 390 L1041 390 L1041 389 L1043 389 L1043 388 L1046 388 L1046 387 L1054 387 L1054 388 L1055 388 L1055 389 L1056 389 L1056 390 L1057 390 L1057 391 L1058 391 L1058 394 L1059 394 L1059 396 L1060 396 L1060 418 L1061 418 L1061 417 L1065 417 L1065 416 L1067 416 L1067 415 L1069 415 L1069 414 L1070 414 L1070 413 L1072 413 L1072 412 L1073 412 L1073 411 L1075 411 L1075 410 L1076 410 L1076 409 L1077 409 L1077 408 L1078 408 L1078 407 L1079 407 L1079 406 L1080 406 L1080 405 L1081 405 L1081 404 L1082 404 L1082 403 L1083 403 L1083 402 L1084 402 L1084 401 L1085 401 L1085 400 L1086 400 L1086 399 L1087 399 L1087 398 L1088 398 L1088 397 L1089 397 L1089 395 L1090 395 L1090 394 L1091 394 L1091 389 L1092 389 L1092 385 L1093 385 L1093 381 L1094 381 L1094 378 L1095 378 L1095 374 L1096 374 L1096 370 L1097 370 L1097 367 L1098 367 L1098 364 L1099 364 L1099 361 L1100 361 L1100 359 L1101 359 L1101 356 L1102 356 L1102 354 L1103 354 L1103 352 L1104 352 L1104 349 L1105 349 L1105 347 L1106 347 L1106 346 L1107 346 L1107 344 L1108 344 L1108 342 L1109 342 L1109 341 L1110 341 L1110 340 L1111 340 L1111 339 L1117 339 L1117 340 L1119 340 L1119 341 L1120 341 L1120 342 L1121 342 L1121 344 L1122 344 L1122 350 L1121 350 L1121 354 L1120 354 L1120 358 L1119 358 L1119 362 L1118 362 L1118 365 L1117 365 L1117 369 L1116 369 L1116 373 L1115 373 L1115 377 L1114 377 L1114 381 L1113 381 L1113 386 L1112 386 L1112 391 L1111 391 L1111 397 L1110 397 L1110 403 L1109 403 L1109 408 L1110 408 L1110 406 L1111 406 L1111 404 L1112 404 L1112 402 L1113 402 L1113 401 L1114 401 L1114 399 L1115 399 L1115 397 L1116 397 L1116 396 L1117 396 L1117 394 L1118 394 L1118 393 L1119 393 L1119 391 L1120 391 L1120 390 L1121 390 L1121 388 L1122 388 L1122 387 L1123 387 L1123 385 L1124 385 L1124 384 L1125 384 L1125 383 L1126 383 L1126 381 L1127 381 L1127 380 L1128 380 L1128 379 L1129 379 L1129 377 L1130 377 L1130 376 L1131 376 L1131 375 L1132 375 L1132 374 L1133 374 L1133 373 L1134 373 L1134 372 L1135 372 L1135 371 L1136 371 L1136 370 L1137 370 L1137 369 L1138 369 L1138 367 L1139 367 L1139 366 L1141 366 L1141 365 L1142 365 L1142 364 L1143 364 L1143 363 L1144 363 L1144 362 L1145 362 L1145 361 L1148 361 L1148 360 L1151 360 L1151 361 L1154 361 L1154 362 L1156 362 L1156 363 L1157 363 L1157 364 L1159 364 L1159 365 L1160 365 L1160 367 L1161 367 L1161 368 L1162 368 L1162 369 L1163 369 L1163 372 L1164 372 L1164 383 L1163 383 L1163 388 L1162 388 L1162 393 L1161 393 L1161 397 L1160 397 L1160 398 L1162 398 L1162 397 L1164 397 L1164 396 L1166 396 L1166 395 L1168 395 L1168 394 L1173 394 L1173 398 L1172 398 L1172 399 L1171 399 L1171 400 L1170 400 L1170 401 L1169 401 L1169 402 L1167 402 L1167 403 L1166 403 L1166 404 L1165 404 L1165 405 L1163 405 L1163 406 L1162 406 L1162 407 L1161 407 L1161 408 L1159 408 L1159 409 L1158 409 L1158 410 L1157 410 L1157 411 L1156 411 L1156 413 L1155 413 L1155 415 L1154 415 L1154 417 L1153 417 L1153 420 L1152 420 L1152 423 L1151 423 L1151 425 L1150 425 L1150 427 L1149 427 L1149 429 L1148 429 L1148 431 L1147 431 L1147 432 L1146 432 L1146 434 L1145 434 L1145 436 L1144 436 L1144 437 L1143 437 L1143 438 L1142 438 L1142 439 L1141 439 L1141 440 L1140 440 L1140 441 L1139 441 L1139 442 L1138 442 L1138 443 L1130 443 L1130 442 L1128 442 L1128 441 L1126 441 L1126 440 L1125 440 L1125 439 L1124 439 L1124 438 L1123 438 L1123 436 L1122 436 L1122 431 L1123 431 L1123 429 L1124 429 L1124 427 L1125 427 L1125 426 L1126 426 L1126 424 L1127 424 L1127 423 L1128 423 L1128 421 L1129 421 L1129 420 L1130 420 L1130 419 L1131 419 L1131 417 L1132 417 L1132 416 L1133 416 L1133 415 L1134 415 L1134 414 L1135 414 L1135 413 L1136 413 L1136 412 L1137 412 L1137 410 L1138 410 L1138 408 L1139 408 L1139 406 L1140 406 L1140 404 L1141 404 L1141 401 L1142 401 L1142 399 L1143 399 L1143 397 L1144 397 L1144 394 L1145 394 L1145 392 L1146 392 L1146 389 L1147 389 L1147 386 L1148 386 L1148 382 L1149 382 L1149 378 L1150 378 L1150 376 L1149 376 L1149 377 L1148 377 L1148 379 L1147 379 L1147 380 L1146 380 L1146 381 L1145 381 L1145 382 L1144 382 L1144 383 L1143 383 L1143 384 L1142 384 L1142 386 L1141 386 L1141 387 L1140 387 L1140 388 L1139 388 L1139 389 L1138 389 L1138 391 L1137 391 L1137 392 L1136 392 L1136 394 L1135 394 L1135 395 L1134 395 L1134 396 L1133 396 L1133 398 L1132 398 L1132 400 L1131 400 L1131 401 L1130 401 L1130 403 L1129 403 L1129 404 L1128 404 L1128 406 L1127 406 L1127 408 L1126 408 L1126 409 L1125 409 L1125 411 L1124 411 L1124 413 L1123 413 L1123 414 L1122 414 L1122 416 L1121 416 L1121 418 L1120 418 L1120 420 L1119 420 L1119 422 L1118 422 L1118 424 L1117 424 L1117 426 L1116 426 L1116 428 L1115 428 L1115 430 L1114 430 L1114 432 L1113 432 L1113 435 L1112 435 L1112 437 L1111 437 L1111 439 L1110 439 L1110 442 L1109 442 L1109 444 L1108 444 L1108 447 L1107 447 L1107 449 L1106 449 L1106 452 L1105 452 L1105 455 L1104 455 L1104 457 L1103 457 L1103 461 L1102 461 L1102 465 L1101 465 L1101 475 L1100 475 L1100 490 L1099 490 L1099 507 L1098 507 L1098 508 L1099 508 L1099 509 L1098 509 L1098 548 L1099 548 L1099 556 L1100 556 L1100 562 L1095 562 L1095 563 L1094 563 L1094 562 L1092 562 L1092 561 L1090 561 L1090 560 L1088 560 L1088 559 L1087 559 L1087 557 L1086 557 L1086 554 L1085 554 L1085 550 L1084 550 L1084 545 L1083 545 L1083 539 L1082 539 L1082 528 L1081 528 L1081 508 L1080 508 L1080 469 L1081 469 L1081 454 L1082 454 L1082 445 L1083 445 L1083 436 L1084 436 L1084 428 L1085 428 L1085 424 L1084 424 L1084 425 L1083 425 L1083 426 L1082 426 L1082 427 L1081 427 L1081 428 L1080 428 L1080 429 L1079 429 L1079 430 L1078 430 L1078 431 L1077 431 L1077 432 L1075 432 L1075 433 L1074 433 L1074 434 L1072 434 L1072 435 L1070 435 L1070 436 L1062 436 L1062 435 L1060 435 L1060 434 L1059 434 L1059 433 L1057 433 L1057 432 L1056 432 L1056 431 L1055 431 L1055 429 L1054 429 L1054 428 L1053 428 L1053 426 L1052 426 L1052 425 L1051 425 L1051 423 L1050 423 L1050 420 L1049 420 L1049 416 L1048 416 L1048 412 L1047 412 L1047 406 L1046 406 L1046 407 L1045 407 L1045 408 L1044 408 L1044 409 L1042 409 L1042 410 L1041 410 L1041 411 L1040 411 L1040 412 L1038 412 L1038 413 L1037 413 L1037 414 L1036 414 L1036 415 L1034 415 L1034 416 L1033 416 L1033 417 L1032 417 L1032 418 L1030 418 L1030 419 L1029 419 L1029 420 L1028 420 L1028 421 L1026 421 L1026 422 L1025 422 L1025 423 L1024 423 L1024 424 L1022 424 L1022 425 L1021 425 L1021 426 L1019 426 L1019 427 L1018 427 L1018 428 L1017 428 L1017 429 L1015 429 L1015 430 L1014 430 L1014 431 L1012 431 L1012 432 L1011 432 L1011 433 L1009 433 L1009 434 L1007 434 L1007 435 L1006 435 L1006 436 L1004 436 L1004 437 L1002 437 L1002 438 L999 438 L999 439 L990 439 L990 438 L989 438 L989 437 L987 437 L987 436 L986 436 L986 435 L985 435 L985 434 L984 434 L984 433 L983 433 L983 431 L982 431 L982 430 L980 430 L980 432 L979 432 L979 433 L978 433 L978 434 L977 434 L977 436 L976 436 L976 437 L975 437 L975 438 L974 438 L974 439 L973 439 L973 440 L972 440 L972 441 L971 441 L971 443 L970 443 L970 444 L968 444 L968 445 L967 445 L967 446 L966 446 L966 447 L965 447 L965 448 L964 448 L964 449 L962 449 L962 450 L958 450 L958 451 L952 451 L952 450 L948 450 L948 449 L947 449 L947 448 L946 448 L946 447 L945 447 L945 446 L944 446 L944 444 L943 444 L943 441 L942 441 L942 438 L941 438 L941 431 L940 431 L940 413 L939 413 L939 404 L938 404 L938 403 L933 403 L933 402 L932 402 L932 404 L931 404 L931 406 L930 406 L930 408 L929 408 L929 410 L928 410 L928 412 L927 412 L927 414 L926 414 L926 416 L925 416 L925 417 L924 417 L924 419 L923 419 L923 420 L922 420 L922 422 L921 422 L921 423 L920 423 L920 424 L919 424 L919 426 L918 426 L918 427 L917 427 L917 428 L916 428 L916 429 L915 429 L915 430 L914 430 L914 432 L913 432 L913 433 L912 433 L912 434 L911 434 L911 435 L910 435 L910 436 L909 436 L909 437 L908 437 L908 438 L907 438 L907 439 L906 439 L906 441 L904 441 L904 442 L903 442 L903 443 L902 443 L902 444 L901 444 L901 445 L900 445 L900 446 L899 446 L899 447 L898 447 L898 448 L897 448 L897 449 L896 449 L896 450 L894 450 L894 451 L893 451 L893 452 L892 452 L892 453 L890 453 L890 454 L889 454 L889 455 L887 455 L887 456 L886 456 L886 457 L884 457 L884 458 L882 458 L882 459 L880 459 L880 460 L877 460 L877 461 L872 461 L872 462 L868 462 L868 461 L864 461 L864 460 L861 460 L861 459 L859 459 L859 458 L857 458 L857 457 L855 457 L855 456 L854 456 L854 455 L853 455 L853 454 L852 454 L852 453 L851 453 L851 452 L850 452 L850 451 L849 451 L849 449 L848 449 L848 448 L847 448 L847 447 L846 447 L846 445 L845 445 L845 443 L844 443 L844 440 L843 440 L843 431 L841 431 L841 432 L840 432 L840 433 L839 433 L839 434 L838 434 L838 435 L837 435 L837 436 L835 436 L835 437 L834 437 L834 438 L833 438 L833 439 L831 439 L831 440 L828 440 L828 441 L827 441 L827 440 L822 440 L822 439 L819 439 L819 438 L817 438 L817 437 L816 437 L816 436 L815 436 L815 435 L814 435 L814 434 L813 434 L813 433 L812 433 L812 432 L811 432 L811 430 L810 430 L810 428 L809 428 L809 425 L808 425 L808 421 L807 421 L807 419 L806 419 L806 422 L805 422 L805 424 L804 424 L804 426 L803 426 L803 428 L802 428 L802 431 L801 431 L801 433 L800 433 L800 436 L799 436 L799 438 L798 438 L798 441 L797 441 L797 445 L796 445 L796 448 L795 448 L795 452 L794 452 L794 455 L793 455 L793 458 L792 458 L792 461 L791 461 L791 464 L790 464 L790 466 L789 466 L789 469 L788 469 L788 471 L787 471 L787 472 L785 472 L785 473 L778 473 L778 472 L775 472 L775 471 L773 471 L773 470 L771 470 L771 469 L770 469 L770 468 L769 468 L769 467 L768 467 L768 466 L767 466 L767 465 L766 465 L766 463 L765 463 L765 461 L764 461 L764 455 L763 455 L763 443 L762 443 L762 430 L761 430 L761 428 L762 428 L762 395 L763 395 L763 383 L764 383 L764 373 L765 373 L765 364 L766 364 L766 357 L767 357 L767 350 L768 350 L768 344 L769 344 L769 338 L770 338 L770 333 L771 333 L771 327 L772 327 L772 322 L773 322 L773 318 L749 318 L749 319 L742 319 L742 324 L741 324 L741 328 L740 328 L740 333 L739 333 L739 337 L738 337 L738 343 L737 343 L737 348 L736 348 L736 354 L735 354 L735 360 L734 360 L734 366 L733 366 L733 373 L732 373 L732 381 L731 381 L731 389 L730 389 L730 399 L729 399 L729 412 L728 412 L728 436 L727 436 L727 449 L728 449 L728 470 L729 470 L729 479 L730 479 L730 484 L731 484 L731 489 L732 489 L732 492 L733 492 L733 495 L734 495 L734 497 L735 497 L735 500 L736 500 L736 503 L735 503 L735 504 L730 504 L730 503 L727 503 L727 502 L726 502 L726 501 L724 501 L724 500 L723 500 L723 499 L722 499 L722 498 L721 498 L721 496 L720 496 L720 495 L719 495 L719 493 L718 493 L718 491 L717 491 L717 489 L716 489 L716 486 L715 486 L715 482 L714 482 L714 478 L713 478 L713 473 L712 473 L712 466 L711 466 L711 446 L710 446 L710 413 L711 413 L711 387 L712 387 L712 373 L713 373 L713 364 L714 364 L714 355 L715 355 L715 349 L716 349 L716 343 L717 343 L717 337 L718 337 L718 334 L719 334 L719 328 L720 328 L720 324 L721 324 L721 323 L715 323 L715 324 L711 324 L711 325 L707 325 L707 326 L701 326 L701 327 L698 327 L698 328 L696 328 L696 329 L693 329 L693 330 L691 330 L691 331 L688 331 L688 332 L686 332 L686 333 L685 333 L685 334 L684 334 L684 335 L683 335 L683 336 L682 336 L682 339 L679 339 L679 338 L677 338 L677 337 L676 337 L676 336 L675 336 L675 330 L676 330 L676 329 L677 329 L677 327 L679 327 L679 326 L680 326 L680 325 L681 325 L681 324 L683 324 L683 323 L685 323 L685 322 L687 322 L687 321 L689 321 L689 320 L691 320 L691 319 L693 319 L693 318 L695 318 L695 317 L697 317 L697 316 L699 316 L699 315 L701 315 L701 314 L704 314 L704 313 L707 313 L707 312 L710 312 L710 311 L713 311 L713 310 L718 310 L718 309 L722 309 L722 308 L724 308 L724 307 L725 307 L725 305 L726 305 L726 302 L727 302 L727 299 L728 299 L728 296 L729 296 L729 293 L730 293 L730 290 L731 290 L731 287 L732 287 L732 284 L733 284 L733 281 L734 281 L734 279 L735 279 L735 276 L736 276 L736 273 L737 273 L737 271 L738 271 L738 269 L739 269 L739 266 L740 266 L740 264 L741 264 L741 262 L742 262 L742 259 L743 259 L743 257 L744 257 L744 255 L745 255 L745 253 L746 253 L746 251 L747 251 L747 249 L748 249 L748 247 L749 247 L749 245 L750 245 L750 243 L751 243 L751 241 L752 241 L752 240 L753 240 L753 238 L754 238 L754 236 L755 236 L755 235 L756 235 L756 233 L757 233 L757 232 L760 232 L760 233 L763 233 L763 234 L765 234 L765 235 L766 235 L766 236 L767 236 L767 237 L768 237 L768 240 L767 240 L767 244 L766 244 L766 247 L765 247 L765 249 L764 249 L764 252 L763 252 L763 254 L762 254 L762 257 L761 257 L761 260 L760 260 L760 262 L759 262 L759 265 L758 265 L758 268 L757 268 L757 271 L756 271 L756 275 L755 275 L755 277 L754 277 L754 280 L753 280 L753 284 L752 284 L752 287 L751 287 L751 290 L750 290 L750 293 L749 293 L749 297 L748 297 L748 300 L747 300 L747 304 L746 304 L746 305 L755 305 L755 306 L776 306 L776 304 L777 304 L777 301 L778 301 L778 297 L779 297 L779 294 L780 294 L780 290 L781 290 L781 287 L782 287 L782 284 L783 284 L783 280 L784 280 L784 277 L785 277 L785 274 L786 274 L786 272 L787 272 L787 269 L788 269 L788 266 L789 266 L789 264 L790 264 L790 261 L791 261 L791 259 L792 259 L792 257 L793 257 L793 254 L794 254 L794 252 L795 252 L795 249 L796 249 L796 247 L797 247 L797 245 L798 245 L798 243 L799 243 L799 241 L800 241 L800 239 L801 239 L801 237 L802 237 L802 236 L803 236 L803 234 L804 234 L804 232 L805 232 L805 230 L806 230 L806 228 L807 228 L807 227 L808 227 L808 225 L809 225 L809 224 L810 224 L810 222 L811 222 L811 221 L812 221 L812 219 L813 219 L813 218 L814 218 L814 216 L815 216 L815 215 L816 215 L816 214 L817 214 L817 212 L818 212 L818 211 L819 211 L819 210 L820 210 L820 209 L821 209 L821 208 L822 208 L822 206 L823 206 L823 205 L824 205 L824 204 L825 204 L825 203 L827 203 L827 202 L828 202 L828 201 L829 201 L829 200 L830 200 L830 199 L831 199 L831 198 L833 198 L833 197 L835 197 L835 196 L837 196 Z M842 214 L841 214 L841 215 L840 215 L840 216 L839 216 L839 217 L838 217 L838 218 L837 218 L837 219 L836 219 L836 221 L835 221 L835 222 L834 222 L834 223 L833 223 L833 224 L832 224 L832 226 L831 226 L831 227 L830 227 L830 229 L829 229 L829 230 L828 230 L828 232 L827 232 L827 234 L826 234 L826 235 L825 235 L825 237 L824 237 L824 239 L823 239 L823 241 L822 241 L822 243 L821 243 L821 245 L820 245 L820 247 L819 247 L819 249 L818 249 L818 252 L817 252 L817 254 L816 254 L816 256 L815 256 L815 259 L814 259 L814 261 L813 261 L813 263 L812 263 L812 266 L811 266 L811 268 L810 268 L810 271 L809 271 L809 274 L808 274 L808 277 L807 277 L807 280 L806 280 L806 283 L805 283 L805 286 L804 286 L804 290 L803 290 L803 293 L802 293 L802 296 L801 296 L801 300 L800 300 L800 303 L799 303 L799 308 L798 308 L798 310 L799 310 L799 309 L800 309 L800 307 L801 307 L801 305 L802 305 L802 303 L803 303 L803 301 L804 301 L804 299 L805 299 L805 297 L806 297 L806 295 L807 295 L807 293 L808 293 L808 291 L809 291 L809 289 L810 289 L810 287 L811 287 L811 285 L812 285 L812 283 L813 283 L813 281 L814 281 L814 279 L815 279 L815 277 L816 277 L816 275 L817 275 L817 273 L818 273 L818 271 L819 271 L819 269 L820 269 L820 266 L821 266 L821 264 L822 264 L822 262 L823 262 L823 260 L824 260 L824 258 L825 258 L825 256 L826 256 L826 253 L827 253 L827 252 L828 252 L828 250 L829 250 L829 247 L830 247 L830 245 L831 245 L831 243 L832 243 L832 240 L833 240 L833 238 L834 238 L834 236 L835 236 L835 233 L836 233 L836 231 L837 231 L837 228 L838 228 L838 226 L839 226 L839 223 L840 223 L840 220 L841 220 L841 217 L842 217 Z M1260 352 L1271 352 L1271 353 L1273 353 L1273 354 L1275 354 L1275 355 L1277 355 L1277 356 L1278 356 L1278 357 L1279 357 L1279 358 L1280 358 L1280 359 L1281 359 L1281 360 L1282 360 L1282 361 L1283 361 L1283 362 L1284 362 L1284 364 L1285 364 L1285 367 L1286 367 L1286 369 L1287 369 L1287 373 L1288 373 L1288 377 L1289 377 L1289 410 L1288 410 L1288 423 L1287 423 L1287 431 L1286 431 L1286 438 L1285 438 L1285 445 L1284 445 L1284 450 L1283 450 L1283 454 L1282 454 L1282 459 L1281 459 L1281 463 L1280 463 L1280 467 L1279 467 L1279 471 L1278 471 L1278 474 L1277 474 L1277 478 L1276 478 L1276 481 L1275 481 L1275 485 L1274 485 L1274 488 L1273 488 L1273 491 L1272 491 L1272 494 L1271 494 L1271 497 L1270 497 L1270 499 L1269 499 L1269 502 L1268 502 L1268 504 L1267 504 L1267 506 L1266 506 L1266 509 L1265 509 L1265 511 L1264 511 L1264 513 L1263 513 L1263 515 L1262 515 L1262 517 L1261 517 L1261 518 L1260 518 L1260 520 L1259 520 L1259 522 L1258 522 L1258 523 L1257 523 L1257 525 L1256 525 L1256 526 L1255 526 L1255 527 L1254 527 L1254 528 L1253 528 L1253 530 L1252 530 L1252 531 L1251 531 L1251 532 L1250 532 L1250 533 L1249 533 L1249 534 L1247 534 L1247 535 L1246 535 L1246 536 L1245 536 L1245 537 L1243 537 L1243 538 L1241 538 L1241 539 L1238 539 L1238 540 L1234 540 L1234 541 L1226 541 L1226 540 L1222 540 L1222 539 L1220 539 L1220 538 L1218 538 L1218 537 L1217 537 L1217 536 L1216 536 L1216 535 L1215 535 L1215 534 L1214 534 L1214 533 L1213 533 L1213 532 L1212 532 L1212 531 L1211 531 L1211 529 L1210 529 L1210 527 L1209 527 L1209 525 L1208 525 L1208 519 L1207 519 L1207 512 L1208 512 L1208 506 L1209 506 L1209 502 L1210 502 L1210 499 L1211 499 L1211 496 L1212 496 L1212 494 L1213 494 L1213 492 L1214 492 L1214 489 L1215 489 L1215 488 L1216 488 L1216 486 L1217 486 L1217 484 L1218 484 L1218 482 L1219 482 L1219 481 L1220 481 L1220 479 L1221 479 L1221 478 L1222 478 L1222 477 L1223 477 L1223 475 L1224 475 L1224 474 L1225 474 L1225 473 L1226 473 L1226 471 L1227 471 L1227 470 L1228 470 L1228 469 L1229 469 L1229 468 L1230 468 L1230 467 L1231 467 L1231 466 L1232 466 L1232 465 L1233 465 L1233 464 L1234 464 L1234 463 L1235 463 L1235 462 L1236 462 L1236 461 L1237 461 L1237 460 L1238 460 L1238 459 L1239 459 L1239 458 L1240 458 L1240 457 L1241 457 L1241 456 L1242 456 L1242 455 L1243 455 L1243 454 L1244 454 L1244 453 L1245 453 L1245 452 L1246 452 L1246 451 L1248 451 L1248 450 L1249 450 L1249 449 L1250 449 L1250 448 L1251 448 L1251 447 L1252 447 L1252 446 L1253 446 L1253 445 L1255 445 L1255 444 L1256 444 L1256 443 L1257 443 L1257 442 L1259 442 L1259 441 L1260 441 L1260 440 L1262 440 L1262 439 L1263 439 L1263 438 L1265 438 L1265 437 L1266 437 L1266 436 L1268 436 L1268 435 L1269 435 L1269 431 L1270 431 L1270 423 L1271 423 L1271 417 L1272 417 L1272 409 L1273 409 L1273 392 L1274 392 L1274 377 L1273 377 L1273 366 L1272 366 L1272 363 L1271 363 L1271 364 L1270 364 L1270 365 L1269 365 L1269 366 L1268 366 L1268 367 L1267 367 L1267 368 L1266 368 L1266 370 L1265 370 L1265 371 L1264 371 L1264 372 L1263 372 L1263 374 L1262 374 L1262 375 L1261 375 L1261 377 L1260 377 L1260 378 L1259 378 L1259 380 L1258 380 L1258 381 L1257 381 L1257 382 L1256 382 L1256 384 L1255 384 L1255 385 L1254 385 L1254 387 L1253 387 L1253 388 L1252 388 L1252 390 L1251 390 L1251 391 L1250 391 L1250 393 L1249 393 L1249 394 L1248 394 L1248 396 L1247 396 L1247 397 L1246 397 L1246 399 L1245 399 L1245 400 L1244 400 L1244 402 L1243 402 L1243 403 L1242 403 L1242 405 L1241 405 L1241 406 L1240 406 L1240 408 L1239 408 L1239 410 L1238 410 L1238 411 L1237 411 L1237 413 L1236 413 L1236 414 L1235 414 L1235 416 L1234 416 L1234 417 L1233 417 L1233 418 L1232 418 L1232 420 L1231 420 L1231 421 L1230 421 L1230 423 L1229 423 L1229 424 L1228 424 L1228 425 L1227 425 L1227 426 L1226 426 L1226 428 L1225 428 L1225 429 L1224 429 L1224 430 L1223 430 L1223 431 L1222 431 L1222 433 L1221 433 L1221 434 L1220 434 L1220 435 L1218 435 L1218 437 L1217 437 L1217 438 L1216 438 L1216 439 L1215 439 L1215 440 L1213 440 L1213 441 L1212 441 L1212 442 L1211 442 L1211 443 L1209 443 L1209 444 L1207 444 L1207 445 L1203 445 L1203 446 L1201 446 L1201 445 L1195 445 L1195 444 L1192 444 L1192 443 L1190 443 L1190 442 L1189 442 L1189 441 L1188 441 L1188 440 L1186 440 L1186 439 L1185 439 L1185 437 L1184 437 L1184 436 L1183 436 L1183 434 L1182 434 L1182 432 L1181 432 L1181 428 L1180 428 L1180 413 L1181 413 L1181 406 L1182 406 L1182 402 L1183 402 L1183 398 L1184 398 L1184 395 L1185 395 L1185 391 L1186 391 L1186 388 L1187 388 L1187 386 L1188 386 L1188 383 L1189 383 L1189 381 L1190 381 L1190 380 L1191 380 L1191 378 L1192 378 L1192 377 L1193 377 L1193 376 L1200 376 L1200 377 L1201 377 L1201 378 L1202 378 L1202 379 L1203 379 L1203 384 L1202 384 L1202 390 L1201 390 L1201 396 L1200 396 L1200 402 L1199 402 L1199 410 L1198 410 L1198 429 L1199 429 L1199 428 L1200 428 L1200 427 L1201 427 L1201 426 L1202 426 L1202 425 L1203 425 L1203 424 L1204 424 L1204 422 L1205 422 L1205 421 L1206 421 L1206 420 L1207 420 L1207 419 L1208 419 L1208 418 L1209 418 L1209 416 L1210 416 L1210 415 L1211 415 L1211 414 L1212 414 L1212 412 L1213 412 L1213 411 L1214 411 L1214 410 L1215 410 L1215 409 L1216 409 L1216 407 L1217 407 L1217 406 L1218 406 L1218 404 L1219 404 L1219 403 L1220 403 L1220 401 L1221 401 L1221 400 L1222 400 L1222 399 L1223 399 L1223 397 L1224 397 L1224 396 L1225 396 L1225 394 L1226 394 L1226 393 L1227 393 L1227 391 L1228 391 L1228 390 L1229 390 L1229 388 L1230 388 L1230 387 L1231 387 L1231 385 L1232 385 L1232 384 L1233 384 L1233 383 L1234 383 L1234 381 L1235 381 L1235 380 L1236 380 L1236 378 L1237 378 L1237 377 L1238 377 L1238 375 L1239 375 L1239 374 L1240 374 L1240 373 L1241 373 L1241 371 L1242 371 L1242 370 L1243 370 L1243 369 L1244 369 L1244 367 L1245 367 L1245 366 L1246 366 L1246 365 L1247 365 L1247 363 L1248 363 L1248 362 L1249 362 L1249 361 L1250 361 L1250 360 L1251 360 L1251 359 L1252 359 L1252 358 L1253 358 L1253 357 L1254 357 L1254 356 L1255 356 L1255 355 L1256 355 L1256 354 L1258 354 L1258 353 L1260 353 Z M934 364 L933 364 L933 366 L932 366 L932 369 L931 369 L931 373 L930 373 L930 377 L929 377 L929 382 L930 382 L930 379 L931 379 L931 374 L932 374 L932 370 L933 370 L933 367 L934 367 Z M882 389 L881 389 L881 390 L880 390 L880 391 L879 391 L879 392 L878 392 L878 393 L877 393 L877 395 L876 395 L876 396 L875 396 L875 397 L874 397 L874 399 L873 399 L873 400 L872 400 L872 402 L871 402 L871 404 L870 404 L870 405 L869 405 L869 407 L868 407 L868 409 L867 409 L867 411 L866 411 L866 414 L865 414 L865 416 L864 416 L864 419 L865 419 L865 417 L866 417 L866 416 L867 416 L867 415 L868 415 L868 413 L869 413 L869 412 L870 412 L870 411 L871 411 L871 410 L872 410 L872 408 L873 408 L873 407 L874 407 L874 405 L875 405 L875 404 L876 404 L876 402 L877 402 L877 400 L878 400 L878 398 L879 398 L879 396 L880 396 L880 394 L881 394 L881 391 L882 391 Z M1024 391 L1024 392 L1021 392 L1021 393 L1019 393 L1019 394 L1017 394 L1017 395 L1016 395 L1016 396 L1014 396 L1014 397 L1013 397 L1013 398 L1012 398 L1012 399 L1011 399 L1011 400 L1010 400 L1010 401 L1009 401 L1009 402 L1008 402 L1008 403 L1007 403 L1007 404 L1006 404 L1006 405 L1005 405 L1005 406 L1004 406 L1004 408 L1003 408 L1003 409 L1002 409 L1002 410 L1001 410 L1001 412 L1000 412 L1000 414 L999 414 L999 415 L998 415 L998 417 L999 417 L999 416 L1000 416 L1000 415 L1002 415 L1002 414 L1004 414 L1004 413 L1005 413 L1005 412 L1007 412 L1007 411 L1008 411 L1008 410 L1010 410 L1010 409 L1012 409 L1012 408 L1013 408 L1013 407 L1015 407 L1015 406 L1017 406 L1017 405 L1018 405 L1018 404 L1020 404 L1020 403 L1021 403 L1021 402 L1023 402 L1023 401 L1025 401 L1025 400 L1026 400 L1026 399 L1028 399 L1028 398 L1029 398 L1029 397 L1031 397 L1031 396 L1032 396 L1032 395 L1033 395 L1033 392 L1032 392 L1032 391 Z M954 410 L953 410 L953 421 L954 421 Z M1266 446 L1265 446 L1265 447 L1264 447 L1264 448 L1263 448 L1263 449 L1262 449 L1262 450 L1261 450 L1261 451 L1260 451 L1260 452 L1259 452 L1259 453 L1258 453 L1258 454 L1257 454 L1257 455 L1255 455 L1255 456 L1254 456 L1254 457 L1253 457 L1253 458 L1252 458 L1252 459 L1251 459 L1251 460 L1250 460 L1250 462 L1248 462 L1248 463 L1247 463 L1247 465 L1246 465 L1246 466 L1245 466 L1245 467 L1244 467 L1244 468 L1243 468 L1243 469 L1242 469 L1242 471 L1241 471 L1241 472 L1240 472 L1240 473 L1239 473 L1239 474 L1238 474 L1238 476 L1237 476 L1237 477 L1236 477 L1236 479 L1235 479 L1235 480 L1234 480 L1234 482 L1233 482 L1233 483 L1232 483 L1232 485 L1231 485 L1231 487 L1230 487 L1230 489 L1229 489 L1229 491 L1228 491 L1228 493 L1227 493 L1227 495 L1226 495 L1226 498 L1225 498 L1225 500 L1224 500 L1224 504 L1223 504 L1223 508 L1222 508 L1222 526 L1223 526 L1223 528 L1224 528 L1224 530 L1225 530 L1225 532 L1226 532 L1226 533 L1230 533 L1230 532 L1231 532 L1231 531 L1232 531 L1232 530 L1234 530 L1234 529 L1235 529 L1235 527 L1236 527 L1236 526 L1237 526 L1237 525 L1238 525 L1238 523 L1239 523 L1239 522 L1240 522 L1240 520 L1241 520 L1241 519 L1242 519 L1242 517 L1243 517 L1243 516 L1244 516 L1244 514 L1245 514 L1245 512 L1246 512 L1246 509 L1247 509 L1247 508 L1248 508 L1248 505 L1249 505 L1249 502 L1250 502 L1250 500 L1251 500 L1251 498 L1252 498 L1252 495 L1253 495 L1253 492 L1254 492 L1254 490 L1255 490 L1255 487 L1256 487 L1256 484 L1257 484 L1257 481 L1258 481 L1258 477 L1259 477 L1259 474 L1260 474 L1260 471 L1261 471 L1261 467 L1262 467 L1262 463 L1263 463 L1263 460 L1264 460 L1264 455 L1265 455 L1265 451 L1266 451 Z M1095 484 L1094 484 L1094 491 L1095 491 Z" fill="#127ebe" fill-rule="evenodd"/>
  <path id="grey" d="M481 33 L487 33 L487 34 L481 34 Z M1425 33 L1430 33 L1430 34 L1425 34 Z M148 38 L154 38 L154 39 L148 39 Z M95 48 L123 48 L123 49 L95 49 Z M94 50 L95 50 L95 182 L94 182 Z M697 58 L698 58 L698 63 L697 63 Z M660 61 L661 61 L661 66 L660 66 Z M697 64 L698 64 L698 175 L697 175 Z M227 100 L228 100 L228 110 L227 110 Z M1243 122 L1244 122 L1244 126 L1243 126 Z M193 129 L194 129 L194 133 L193 133 Z M206 157 L207 157 L207 158 L206 158 L206 159 L205 159 L205 160 L204 160 L204 161 L203 161 L203 160 L204 160 L204 159 L205 159 L205 158 L206 158 Z M198 165 L199 165 L199 166 L198 166 L198 167 L197 167 L197 168 L196 168 L196 169 L195 169 L195 168 L196 168 L196 167 L197 167 L197 166 L198 166 Z M697 189 L698 189 L698 311 L697 311 Z M95 193 L96 193 L96 194 L95 194 L95 309 L94 309 L94 194 L95 194 Z M1263 266 L1264 266 L1264 270 L1263 270 Z M258 297 L259 297 L259 298 L260 298 L260 299 L261 299 L261 300 L262 300 L262 301 L263 301 L263 302 L264 302 L264 303 L263 303 L263 302 L262 302 L262 301 L261 301 L261 300 L260 300 L260 299 L259 299 L259 298 L258 298 Z M892 304 L893 304 L893 309 L892 309 Z M961 312 L962 312 L962 321 L961 321 Z M1233 314 L1234 314 L1234 320 L1233 320 Z M940 324 L943 324 L943 325 L944 325 L944 326 L943 326 L943 325 L940 325 Z M37 328 L42 328 L42 329 L37 329 L37 332 L36 332 L36 329 L37 329 Z M108 328 L114 328 L114 329 L108 329 Z M346 328 L352 328 L352 329 L346 329 Z M387 328 L392 328 L392 329 L387 329 Z M554 328 L558 328 L558 329 L554 329 Z M620 328 L625 328 L625 329 L626 329 L626 331 L625 331 L625 329 L620 329 Z M644 328 L648 328 L648 329 L644 329 Z M712 328 L718 328 L718 329 L712 329 Z M836 328 L842 328 L842 329 L836 329 L836 333 L835 333 L835 329 L836 329 Z M907 328 L913 328 L913 329 L907 329 Z M970 328 L974 328 L974 329 L970 329 Z M1221 328 L1226 328 L1226 329 L1221 329 L1221 334 L1288 334 L1288 335 L1221 335 L1221 334 L1220 334 L1220 329 L1221 329 Z M1290 328 L1295 328 L1295 329 L1290 329 L1290 334 L1335 334 L1335 335 L1290 335 L1290 334 L1289 334 L1289 329 L1290 329 Z M1331 328 L1335 328 L1335 329 L1331 329 Z M1498 328 L1502 328 L1502 329 L1498 329 Z M1564 328 L1568 328 L1568 329 L1564 329 Z M958 330 L959 330 L959 331 L960 331 L960 332 L961 332 L961 333 L962 333 L962 334 L961 334 L961 333 L960 333 L960 332 L959 332 L959 331 L958 331 Z M36 333 L37 333 L37 334 L115 334 L115 335 L37 335 L37 334 L36 334 Z M718 333 L719 333 L719 334 L718 334 L718 335 L684 335 L684 334 L718 334 Z M347 334 L391 334 L391 335 L347 335 Z M554 334 L624 334 L624 335 L554 335 Z M641 334 L675 334 L675 335 L641 335 Z M836 334 L913 334 L913 335 L836 335 Z M963 334 L967 334 L967 335 L963 335 Z M968 334 L974 334 L974 335 L968 335 Z M1498 334 L1568 334 L1568 335 L1498 335 Z M1263 351 L1269 351 L1269 352 L1263 352 Z M788 361 L789 361 L789 365 L788 365 Z M1137 368 L1138 368 L1138 369 L1137 369 L1137 370 L1136 370 L1136 371 L1135 371 L1135 372 L1134 372 L1134 371 L1135 371 L1135 370 L1136 370 L1136 369 L1137 369 Z M787 370 L788 370 L788 374 L787 374 Z M929 377 L930 377 L930 378 L931 378 L931 379 L930 379 L930 380 L929 380 Z M1273 377 L1274 377 L1274 392 L1273 392 Z M887 378 L888 378 L888 379 L889 379 L889 380 L890 380 L890 381 L891 381 L891 382 L890 382 L890 381 L889 381 L889 380 L888 380 L888 379 L887 379 Z M867 379 L868 379 L868 380 L867 380 L867 381 L866 381 L866 382 L865 382 L865 383 L864 383 L864 384 L863 384 L863 383 L864 383 L864 382 L865 382 L865 381 L866 381 L866 380 L867 380 Z M711 381 L712 381 L712 387 L711 387 Z M762 390 L763 390 L763 395 L762 395 Z M800 398 L804 398 L804 399 L800 399 Z M710 399 L711 399 L711 413 L710 413 Z M761 407 L762 407 L762 428 L761 428 Z M953 410 L954 410 L954 416 L953 416 Z M783 417 L784 417 L784 421 L783 421 Z M958 429 L959 429 L959 438 L960 438 L960 439 L959 439 L959 438 L958 438 Z M761 430 L762 430 L762 434 L761 434 Z M841 431 L843 431 L843 437 L842 437 L842 432 L841 432 Z M812 433 L813 433 L813 434 L814 434 L814 435 L815 435 L815 436 L816 436 L816 437 L815 437 L815 436 L814 436 L814 435 L813 435 L813 434 L812 434 Z M860 435 L861 435 L861 436 L860 436 L860 446 L859 446 L859 436 L860 436 Z M727 436 L728 436 L728 449 L727 449 Z M1064 436 L1068 436 L1068 437 L1064 437 Z M1142 438 L1143 438 L1143 439 L1142 439 L1142 440 L1141 440 L1141 441 L1140 441 L1140 442 L1139 442 L1139 441 L1140 441 L1140 440 L1141 440 L1141 439 L1142 439 Z M904 441 L905 441 L905 442 L904 442 L904 443 L903 443 L903 444 L902 444 L902 445 L901 445 L901 446 L900 446 L900 445 L901 445 L901 444 L902 444 L902 443 L903 443 L903 442 L904 442 Z M762 443 L763 443 L763 448 L762 448 Z M710 446 L711 446 L711 459 L710 459 Z M1255 455 L1256 455 L1256 456 L1255 456 L1255 457 L1254 457 L1254 458 L1253 458 L1253 459 L1252 459 L1252 460 L1251 460 L1251 461 L1250 461 L1250 460 L1251 460 L1251 459 L1252 459 L1252 458 L1253 458 L1253 457 L1254 457 L1254 456 L1255 456 Z M728 466 L729 466 L729 470 L728 470 Z M1100 475 L1101 475 L1101 479 L1100 479 Z M1094 484 L1095 484 L1095 491 L1094 491 Z M1080 508 L1081 508 L1081 514 L1080 514 Z M377 616 L384 616 L384 650 L385 650 L385 648 L386 648 L386 647 L388 647 L388 646 L389 646 L389 645 L391 645 L391 644 L394 644 L394 643 L402 643 L402 644 L405 644 L405 645 L407 645 L407 646 L409 646 L409 647 L410 647 L410 648 L411 648 L411 649 L412 649 L412 650 L413 650 L413 652 L414 652 L414 654 L415 654 L415 657 L416 657 L416 669 L415 669 L415 672 L414 672 L414 674 L413 674 L413 676 L412 676 L412 677 L411 677 L411 678 L410 678 L410 679 L409 679 L409 680 L407 680 L407 681 L405 681 L405 682 L402 682 L402 683 L394 683 L394 682 L391 682 L391 681 L389 681 L389 680 L388 680 L388 679 L386 679 L386 678 L385 678 L385 676 L384 676 L384 682 L377 682 Z M447 616 L454 616 L454 682 L447 682 Z M557 616 L563 616 L563 617 L564 617 L564 693 L563 693 L563 694 L557 694 L557 693 L556 693 L556 617 L557 617 Z M982 616 L989 616 L989 692 L990 692 L990 693 L989 693 L989 694 L983 694 L983 693 L982 693 Z M257 619 L258 619 L258 620 L259 620 L259 621 L260 621 L260 622 L261 622 L261 623 L262 623 L262 625 L263 625 L263 626 L264 626 L264 627 L265 627 L265 628 L266 628 L266 630 L267 630 L267 631 L268 631 L268 632 L269 632 L269 633 L270 633 L270 635 L271 635 L271 636 L272 636 L272 637 L273 637 L273 639 L274 639 L274 640 L275 640 L275 641 L276 641 L276 642 L277 642 L277 643 L278 643 L278 645 L279 645 L279 646 L280 646 L280 647 L281 647 L281 648 L282 648 L282 650 L283 650 L283 651 L284 651 L284 652 L285 652 L285 654 L287 654 L287 653 L288 653 L288 652 L289 652 L289 650 L290 650 L290 649 L291 649 L291 648 L292 648 L292 647 L293 647 L293 645 L294 645 L294 644 L295 644 L295 643 L296 643 L296 641 L297 641 L297 640 L298 640 L298 639 L299 639 L299 638 L300 638 L300 636 L301 636 L301 635 L302 635 L302 634 L303 634 L303 633 L304 633 L304 631 L305 631 L305 630 L306 630 L306 629 L307 629 L307 628 L308 628 L308 626 L309 626 L309 625 L310 625 L310 624 L311 624 L311 623 L312 623 L312 621 L313 621 L313 620 L314 620 L314 619 L316 619 L316 682 L308 682 L308 638 L309 638 L309 637 L308 637 L308 638 L307 638 L307 640 L306 640 L306 641 L305 641 L305 642 L304 642 L304 644 L303 644 L303 645 L302 645 L302 646 L301 646 L301 647 L300 647 L300 649 L299 649 L299 650 L298 650 L298 651 L297 651 L297 652 L296 652 L296 654 L295 654 L295 655 L294 655 L294 656 L293 656 L293 658 L292 658 L292 659 L291 659 L291 660 L290 660 L290 661 L289 661 L289 663 L288 663 L288 664 L287 664 L287 665 L285 665 L285 664 L284 664 L284 662 L283 662 L283 661 L282 661 L282 660 L281 660 L281 659 L280 659 L280 657 L279 657 L279 656 L278 656 L278 655 L277 655 L277 654 L276 654 L276 652 L275 652 L275 651 L274 651 L274 650 L273 650 L273 648 L272 648 L272 647 L271 647 L271 646 L270 646 L270 645 L269 645 L269 643 L268 643 L268 642 L267 642 L267 641 L266 641 L266 639 L265 639 L265 638 L264 638 L264 682 L256 682 L256 620 L257 620 Z M621 619 L623 619 L623 620 L624 620 L624 622 L625 622 L625 623 L626 623 L626 624 L627 624 L627 625 L628 625 L628 627 L629 627 L629 628 L630 628 L630 629 L631 629 L631 630 L632 630 L632 632 L633 632 L633 633 L634 633 L634 634 L635 634 L635 635 L636 635 L636 637 L637 637 L637 638 L638 638 L638 639 L639 639 L639 640 L640 640 L640 642 L641 642 L641 643 L642 643 L642 644 L643 644 L643 645 L644 645 L644 647 L645 647 L645 648 L646 648 L646 649 L647 649 L647 651 L648 651 L648 652 L649 652 L649 653 L650 653 L650 654 L651 654 L651 653 L652 653 L652 652 L653 652 L653 651 L654 651 L654 649 L655 649 L655 648 L656 648 L656 647 L657 647 L657 646 L658 646 L658 645 L659 645 L659 643 L660 643 L660 642 L661 642 L661 641 L662 641 L662 639 L663 639 L663 638 L664 638 L664 637 L665 637 L665 636 L666 636 L666 634 L667 634 L667 633 L668 633 L668 632 L669 632 L669 631 L670 631 L670 629 L671 629 L671 628 L672 628 L672 627 L673 627 L673 626 L674 626 L674 624 L675 624 L675 623 L676 623 L676 622 L677 622 L677 621 L678 621 L678 620 L679 620 L679 619 L680 619 L680 682 L673 682 L673 637 L672 637 L672 639 L671 639 L671 640 L670 640 L670 642 L669 642 L669 643 L668 643 L668 644 L667 644 L667 645 L666 645 L666 647 L665 647 L665 648 L664 648 L664 649 L663 649 L663 651 L662 651 L662 652 L661 652 L661 653 L660 653 L660 654 L659 654 L659 656 L658 656 L658 657 L657 657 L657 658 L656 658 L656 659 L655 659 L655 661 L654 661 L654 662 L653 662 L653 663 L652 663 L652 664 L651 664 L651 665 L650 665 L650 664 L649 664 L649 663 L648 663 L648 662 L647 662 L647 661 L646 661 L646 659 L645 659 L645 658 L644 658 L644 657 L643 657 L643 656 L642 656 L642 654 L641 654 L641 653 L640 653 L640 652 L639 652 L639 650 L638 650 L638 649 L637 649 L637 648 L636 648 L636 647 L635 647 L635 645 L634 645 L634 644 L633 644 L633 643 L632 643 L632 641 L631 641 L631 640 L630 640 L630 639 L629 639 L629 637 L628 637 L628 682 L621 682 Z M1072 619 L1078 619 L1078 620 L1084 620 L1084 621 L1087 621 L1087 622 L1090 622 L1090 623 L1092 623 L1092 624 L1093 624 L1093 625 L1094 625 L1094 626 L1095 626 L1095 627 L1096 627 L1096 628 L1097 628 L1097 629 L1098 629 L1098 630 L1099 630 L1099 631 L1100 631 L1100 632 L1099 632 L1099 633 L1098 633 L1098 634 L1096 634 L1096 635 L1095 635 L1095 636 L1094 636 L1094 635 L1093 635 L1093 634 L1092 634 L1092 633 L1091 633 L1091 632 L1090 632 L1090 631 L1089 631 L1089 630 L1087 630 L1087 629 L1085 629 L1085 628 L1082 628 L1082 627 L1076 627 L1076 626 L1074 626 L1074 627 L1068 627 L1068 628 L1065 628 L1065 629 L1063 629 L1063 630 L1061 630 L1061 631 L1060 631 L1060 632 L1059 632 L1059 633 L1058 633 L1058 634 L1057 634 L1057 635 L1056 635 L1056 636 L1055 636 L1055 638 L1054 638 L1054 639 L1053 639 L1053 642 L1052 642 L1052 646 L1051 646 L1051 656 L1052 656 L1052 661 L1053 661 L1053 663 L1054 663 L1054 665 L1055 665 L1055 666 L1056 666 L1056 667 L1057 667 L1057 669 L1058 669 L1058 670 L1059 670 L1059 671 L1061 671 L1061 672 L1062 672 L1062 673 L1064 673 L1064 674 L1067 674 L1067 675 L1071 675 L1071 676 L1079 676 L1079 675 L1083 675 L1083 674 L1086 674 L1086 673 L1088 673 L1088 672 L1089 672 L1089 671 L1090 671 L1090 670 L1092 670 L1092 669 L1093 669 L1093 667 L1094 667 L1094 666 L1096 666 L1096 667 L1098 667 L1098 668 L1099 668 L1099 669 L1101 669 L1101 670 L1100 670 L1100 672 L1099 672 L1099 673 L1098 673 L1098 674 L1097 674 L1097 675 L1096 675 L1096 676 L1095 676 L1095 677 L1093 677 L1093 678 L1092 678 L1092 679 L1090 679 L1090 680 L1088 680 L1088 681 L1085 681 L1085 682 L1080 682 L1080 683 L1070 683 L1070 682 L1065 682 L1065 681 L1062 681 L1062 680 L1060 680 L1060 679 L1058 679 L1058 678 L1057 678 L1057 677 L1055 677 L1055 676 L1054 676 L1054 675 L1053 675 L1053 674 L1052 674 L1052 673 L1051 673 L1051 672 L1050 672 L1050 671 L1049 671 L1049 669 L1048 669 L1048 668 L1047 668 L1047 666 L1046 666 L1046 664 L1045 664 L1045 661 L1044 661 L1044 656 L1043 656 L1043 646 L1044 646 L1044 641 L1045 641 L1045 638 L1046 638 L1046 636 L1047 636 L1047 634 L1048 634 L1048 633 L1049 633 L1049 632 L1050 632 L1050 630 L1051 630 L1051 629 L1052 629 L1052 628 L1053 628 L1053 627 L1054 627 L1054 626 L1056 626 L1056 625 L1057 625 L1057 624 L1059 624 L1059 623 L1061 623 L1061 622 L1063 622 L1063 621 L1066 621 L1066 620 L1072 620 Z M428 624 L432 624 L432 625 L433 625 L433 626 L434 626 L434 627 L435 627 L435 632 L434 632 L434 633 L433 633 L433 634 L427 634 L427 633 L426 633 L426 631 L425 631 L425 627 L426 627 L426 626 L427 626 L427 625 L428 625 Z M1257 624 L1261 624 L1261 625 L1262 625 L1262 626 L1263 626 L1263 627 L1264 627 L1264 632 L1263 632 L1263 633 L1262 633 L1262 634 L1256 634 L1256 633 L1255 633 L1255 632 L1254 632 L1254 627 L1255 627 L1255 626 L1256 626 L1256 625 L1257 625 Z M342 643 L351 643 L351 644 L355 644 L355 645 L357 645 L357 646 L358 646 L358 647 L360 647 L360 648 L361 648 L361 649 L362 649 L362 650 L363 650 L363 652 L364 652 L364 653 L365 653 L365 655 L366 655 L366 659 L367 659 L367 668 L366 668 L366 671 L365 671 L365 673 L364 673 L364 674 L363 674 L363 676 L362 676 L362 677 L361 677 L361 678 L360 678 L360 679 L358 679 L358 680 L357 680 L357 681 L354 681 L354 682 L351 682 L351 683 L343 683 L343 682 L339 682 L339 681 L337 681 L337 680 L335 680 L335 679 L334 679 L334 678 L333 678 L333 677 L332 677 L332 676 L331 676 L331 675 L330 675 L330 674 L329 674 L329 672 L328 672 L328 670 L327 670 L327 664 L326 664 L326 662 L327 662 L327 657 L328 657 L328 654 L329 654 L329 653 L330 653 L330 651 L331 651 L331 650 L332 650 L332 649 L333 649 L333 648 L334 648 L334 647 L335 647 L335 646 L337 646 L337 645 L339 645 L339 644 L342 644 Z M480 643 L489 643 L489 644 L492 644 L492 645 L494 645 L494 646 L495 646 L495 647 L497 647 L497 648 L498 648 L498 649 L499 649 L499 651 L500 651 L500 652 L501 652 L501 654 L502 654 L502 657 L503 657 L503 666 L472 666 L472 668 L473 668 L473 671 L474 671 L474 672 L475 672 L475 673 L476 673 L476 674 L477 674 L477 675 L480 675 L480 676 L490 676 L490 675 L493 675 L493 674 L494 674 L494 673 L496 673 L496 672 L498 672 L498 673 L499 673 L499 674 L500 674 L500 675 L501 675 L501 677 L500 677 L500 678 L499 678 L499 679 L497 679 L497 680 L496 680 L496 681 L493 681 L493 682 L490 682 L490 683 L480 683 L480 682 L477 682 L477 681 L474 681 L474 680 L473 680 L473 679 L471 679 L471 678 L470 678 L470 677 L469 677 L469 676 L468 676 L468 674 L467 674 L467 673 L466 673 L466 670 L465 670 L465 666 L464 666 L464 660 L465 660 L465 656 L466 656 L466 654 L467 654 L467 652 L468 652 L468 651 L469 651 L469 649 L470 649 L470 648 L471 648 L471 647 L473 647 L473 646 L474 646 L474 645 L476 645 L476 644 L480 644 Z M704 643 L713 643 L713 644 L716 644 L716 645 L718 645 L718 646 L719 646 L719 647 L720 647 L720 648 L721 648 L721 649 L722 649 L722 651 L723 651 L723 654 L724 654 L724 682 L717 682 L717 681 L716 681 L716 679 L715 679 L715 680 L714 680 L714 681 L712 681 L712 682 L709 682 L709 683 L701 683 L701 682 L697 682 L697 681 L695 681 L695 680 L694 680 L694 679 L693 679 L693 678 L692 678 L692 676 L691 676 L691 666 L692 666 L692 665 L693 665 L693 664 L694 664 L694 663 L695 663 L695 662 L696 662 L696 661 L698 661 L698 660 L702 660 L702 659 L716 659 L716 654 L715 654 L715 652 L714 652 L714 651 L713 651 L713 650 L703 650 L703 651 L701 651 L701 652 L700 652 L700 653 L699 653 L699 654 L698 654 L698 655 L697 655 L697 654 L696 654 L696 653 L694 653 L694 652 L693 652 L693 650 L694 650 L694 649 L695 649 L695 648 L696 648 L696 647 L697 647 L697 646 L698 646 L698 645 L701 645 L701 644 L704 644 Z M743 643 L752 643 L752 644 L755 644 L755 645 L756 645 L756 646 L758 646 L758 647 L759 647 L759 648 L760 648 L760 651 L759 651 L759 652 L757 652 L757 653 L754 653 L754 652 L753 652 L753 651 L752 651 L752 650 L743 650 L743 651 L742 651 L742 656 L743 656 L743 657 L745 657 L745 658 L747 658 L747 659 L751 659 L751 660 L754 660 L754 661 L756 661 L756 662 L758 662 L758 663 L759 663 L759 664 L760 664 L760 665 L761 665 L761 666 L762 666 L762 669 L763 669 L763 674 L762 674 L762 677 L761 677 L761 678 L760 678 L760 680 L758 680 L758 681 L756 681 L756 682 L753 682 L753 683 L744 683 L744 682 L741 682 L741 681 L739 681 L739 680 L737 680 L737 679 L736 679 L736 678 L735 678 L735 677 L734 677 L734 676 L733 676 L733 675 L732 675 L732 673 L734 673 L734 672 L735 672 L735 671 L739 671 L739 673 L740 673 L740 674 L742 674 L742 675 L743 675 L743 676 L748 676 L748 677 L749 677 L749 676 L753 676 L753 675 L755 675 L755 673 L756 673 L756 671 L755 671 L755 669 L754 669 L754 668 L752 668 L752 667 L750 667 L750 666 L746 666 L746 665 L743 665 L743 664 L741 664 L741 663 L739 663 L739 662 L738 662 L738 661 L737 661 L737 660 L736 660 L736 658 L735 658 L735 650 L736 650 L736 648 L737 648 L737 647 L738 647 L738 646 L739 646 L739 645 L741 645 L741 644 L743 644 Z M780 643 L789 643 L789 644 L792 644 L792 645 L793 645 L793 646 L795 646 L795 647 L796 647 L796 648 L797 648 L797 651 L795 651 L795 652 L794 652 L794 653 L791 653 L791 652 L790 652 L790 651 L789 651 L789 650 L780 650 L780 651 L779 651 L779 653 L778 653 L778 655 L779 655 L779 656 L780 656 L780 657 L781 657 L781 658 L784 658 L784 659 L787 659 L787 660 L790 660 L790 661 L793 661 L793 662 L795 662 L795 663 L796 663 L796 664 L797 664 L797 665 L798 665 L798 667 L799 667 L799 676 L798 676 L798 678 L797 678 L797 679 L796 679 L796 680 L795 680 L795 681 L793 681 L793 682 L790 682 L790 683 L781 683 L781 682 L777 682 L777 681 L775 681 L775 680 L774 680 L774 679 L773 679 L773 678 L772 678 L772 677 L771 677 L771 676 L770 676 L770 675 L769 675 L769 673 L771 673 L771 672 L772 672 L772 671 L775 671 L775 672 L776 672 L776 673 L777 673 L777 674 L778 674 L778 675 L780 675 L780 676 L784 676 L784 677 L786 677 L786 676 L790 676 L790 675 L791 675 L791 674 L792 674 L792 669 L791 669 L791 668 L789 668 L789 667 L786 667 L786 666 L783 666 L783 665 L780 665 L780 664 L778 664 L778 663 L776 663 L776 662 L775 662 L775 661 L774 661 L774 660 L773 660 L773 659 L772 659 L772 655 L771 655 L771 652 L772 652 L772 649 L773 649 L773 648 L774 648 L774 646 L776 646 L776 645 L777 645 L777 644 L780 644 Z M819 643 L829 643 L829 644 L832 644 L832 645 L834 645 L834 646 L835 646 L835 647 L836 647 L836 648 L837 648 L837 650 L838 650 L838 652 L839 652 L839 657 L840 657 L840 664 L839 664 L839 665 L840 665 L840 666 L839 666 L839 667 L840 667 L840 668 L839 668 L839 669 L840 669 L840 680 L839 680 L839 682 L832 682 L832 679 L831 679 L831 680 L830 680 L830 681 L828 681 L828 682 L825 682 L825 683 L816 683 L816 682 L813 682 L813 681 L811 681 L811 680 L810 680 L810 679 L809 679 L809 678 L808 678 L808 676 L807 676 L807 666 L808 666 L808 665 L809 665 L809 663 L810 663 L810 662 L812 662 L812 661 L814 661 L814 660 L818 660 L818 659 L832 659 L832 654 L831 654 L831 652 L830 652 L830 651 L828 651 L828 650 L819 650 L819 651 L817 651 L817 652 L816 652 L816 653 L815 653 L815 654 L814 654 L814 655 L812 655 L812 654 L811 654 L811 653 L810 653 L810 652 L809 652 L809 650 L810 650 L810 649 L811 649 L811 648 L812 648 L812 647 L813 647 L813 646 L814 646 L814 645 L816 645 L816 644 L819 644 Z M862 643 L871 643 L871 644 L886 644 L886 650 L880 650 L880 652 L881 652 L881 662 L880 662 L880 664 L879 664 L879 666 L878 666 L878 667 L876 667 L876 668 L875 668 L875 669 L873 669 L873 670 L870 670 L870 671 L863 671 L863 670 L859 670 L859 669 L858 669 L858 670 L857 670 L857 672 L856 672 L856 673 L857 673 L857 675 L864 675 L864 676 L874 676 L874 677 L878 677 L878 678 L880 678 L880 679 L882 679 L882 680 L883 680 L883 681 L884 681 L884 682 L885 682 L885 684 L886 684 L886 693 L885 693 L885 695 L884 695 L884 696 L883 696 L883 697 L882 697 L882 698 L881 698 L881 699 L879 699 L879 700 L877 700 L877 701 L873 701 L873 702 L859 702 L859 701 L855 701 L855 700 L853 700 L853 699 L851 699 L851 698 L850 698 L850 697 L849 697 L849 696 L848 696 L848 694 L847 694 L847 692 L846 692 L846 687 L847 687 L847 685 L848 685 L848 683 L849 683 L849 682 L851 682 L851 681 L852 681 L852 680 L854 680 L854 679 L852 679 L852 678 L851 678 L851 676 L850 676 L850 670 L851 670 L851 668 L852 668 L852 667 L853 667 L853 666 L854 666 L854 665 L853 665 L853 663 L852 663 L852 660 L851 660 L851 653 L852 653 L852 651 L853 651 L853 649 L854 649 L854 648 L855 648 L855 647 L856 647 L856 646 L857 646 L857 645 L859 645 L859 644 L862 644 Z M905 643 L914 643 L914 644 L918 644 L918 645 L920 645 L920 646 L921 646 L921 647 L922 647 L922 648 L923 648 L923 649 L924 649 L924 650 L925 650 L925 651 L926 651 L926 653 L927 653 L927 655 L928 655 L928 658 L929 658 L929 666 L898 666 L898 669 L899 669 L899 671 L900 671 L900 673 L902 673 L902 674 L903 674 L903 675 L905 675 L905 676 L916 676 L916 675 L918 675 L918 674 L920 674 L920 673 L921 673 L921 672 L924 672 L924 673 L925 673 L925 674 L926 674 L926 675 L927 675 L927 677 L926 677 L926 678 L924 678 L924 679 L923 679 L923 680 L921 680 L921 681 L919 681 L919 682 L915 682 L915 683 L906 683 L906 682 L903 682 L903 681 L900 681 L900 680 L898 680 L898 679 L897 679 L897 678 L896 678 L896 677 L895 677 L895 676 L894 676 L894 675 L893 675 L893 673 L892 673 L892 671 L891 671 L891 668 L890 668 L890 659 L891 659 L891 655 L892 655 L892 653 L893 653 L893 651 L894 651 L894 650 L895 650 L895 649 L896 649 L896 648 L897 648 L897 647 L898 647 L898 646 L900 646 L900 645 L902 645 L902 644 L905 644 Z M1173 643 L1182 643 L1182 644 L1185 644 L1185 645 L1187 645 L1187 646 L1188 646 L1188 647 L1189 647 L1189 648 L1190 648 L1190 649 L1191 649 L1191 650 L1192 650 L1192 651 L1193 651 L1193 653 L1194 653 L1194 655 L1195 655 L1195 660 L1196 660 L1196 666 L1195 666 L1195 670 L1194 670 L1194 673 L1193 673 L1193 675 L1192 675 L1192 676 L1191 676 L1191 677 L1190 677 L1190 678 L1189 678 L1189 679 L1188 679 L1188 680 L1186 680 L1186 681 L1184 681 L1184 682 L1181 682 L1181 683 L1174 683 L1174 682 L1170 682 L1170 681 L1168 681 L1168 680 L1167 680 L1167 679 L1166 679 L1166 678 L1165 678 L1165 677 L1164 677 L1164 700 L1163 700 L1163 701 L1156 701 L1156 645 L1157 645 L1157 644 L1163 644 L1163 645 L1164 645 L1164 649 L1165 649 L1165 648 L1166 648 L1166 647 L1167 647 L1167 646 L1168 646 L1168 645 L1170 645 L1170 644 L1173 644 Z M1222 643 L1231 643 L1231 644 L1234 644 L1234 645 L1236 645 L1236 646 L1237 646 L1237 647 L1239 647 L1239 648 L1240 648 L1240 649 L1241 649 L1241 651 L1242 651 L1242 652 L1243 652 L1243 654 L1244 654 L1244 657 L1245 657 L1245 669 L1244 669 L1244 672 L1243 672 L1243 674 L1242 674 L1242 675 L1241 675 L1241 677 L1240 677 L1240 678 L1239 678 L1239 679 L1237 679 L1237 680 L1236 680 L1236 681 L1234 681 L1234 682 L1230 682 L1230 683 L1223 683 L1223 682 L1220 682 L1220 681 L1218 681 L1218 680 L1216 680 L1216 679 L1215 679 L1215 678 L1214 678 L1214 677 L1213 677 L1213 701 L1206 701 L1206 644 L1213 644 L1213 649 L1214 649 L1214 648 L1215 648 L1215 647 L1216 647 L1216 646 L1218 646 L1218 645 L1219 645 L1219 644 L1222 644 Z M1291 643 L1299 643 L1299 644 L1302 644 L1302 645 L1303 645 L1303 646 L1305 646 L1305 648 L1306 648 L1306 649 L1307 649 L1307 650 L1308 650 L1308 653 L1309 653 L1309 658 L1310 658 L1310 659 L1309 659 L1309 660 L1310 660 L1310 661 L1309 661 L1309 678 L1310 678 L1310 679 L1309 679 L1309 682 L1302 682 L1302 656 L1301 656 L1301 654 L1300 654 L1300 652 L1299 652 L1299 651 L1297 651 L1297 650 L1290 650 L1290 651 L1287 651 L1287 652 L1286 652 L1286 653 L1285 653 L1285 654 L1284 654 L1284 656 L1283 656 L1283 681 L1282 681 L1282 682 L1275 682 L1275 644 L1282 644 L1282 645 L1283 645 L1283 648 L1284 648 L1284 647 L1285 647 L1285 646 L1286 646 L1286 645 L1288 645 L1288 644 L1291 644 Z M1331 643 L1340 643 L1340 644 L1355 644 L1355 650 L1349 650 L1349 651 L1350 651 L1350 654 L1351 654 L1351 660 L1350 660 L1350 663 L1349 663 L1349 665 L1348 665 L1348 666 L1347 666 L1347 667 L1346 667 L1346 668 L1344 668 L1344 669 L1343 669 L1343 670 L1339 670 L1339 671 L1332 671 L1332 670 L1329 670 L1329 669 L1327 669 L1327 670 L1326 670 L1326 674 L1327 674 L1327 675 L1334 675 L1334 676 L1343 676 L1343 677 L1347 677 L1347 678 L1350 678 L1350 679 L1351 679 L1351 680 L1352 680 L1352 681 L1353 681 L1353 682 L1354 682 L1354 683 L1355 683 L1355 686 L1356 686 L1356 690 L1355 690 L1355 694 L1354 694 L1354 696 L1353 696 L1353 697 L1352 697 L1352 698 L1350 698 L1350 699 L1349 699 L1349 700 L1346 700 L1346 701 L1343 701 L1343 702 L1328 702 L1328 701 L1324 701 L1324 700 L1322 700 L1322 699 L1320 699 L1320 698 L1319 698 L1319 697 L1318 697 L1318 695 L1317 695 L1317 693 L1316 693 L1316 686 L1317 686 L1317 684 L1318 684 L1318 683 L1319 683 L1319 682 L1320 682 L1320 681 L1322 681 L1322 680 L1323 680 L1323 679 L1322 679 L1322 678 L1321 678 L1321 677 L1320 677 L1320 675 L1319 675 L1319 671 L1320 671 L1320 669 L1321 669 L1321 668 L1322 668 L1322 667 L1323 667 L1323 666 L1324 666 L1324 665 L1323 665 L1323 664 L1322 664 L1322 662 L1321 662 L1321 660 L1320 660 L1320 654 L1321 654 L1321 651 L1322 651 L1322 649 L1323 649 L1323 648 L1324 648 L1324 647 L1325 647 L1325 646 L1326 646 L1326 645 L1328 645 L1328 644 L1331 644 Z M427 644 L434 644 L434 682 L427 682 L427 681 L426 681 L426 645 L427 645 Z M1110 644 L1117 644 L1117 670 L1118 670 L1118 673 L1119 673 L1119 674 L1120 674 L1120 675 L1122 675 L1122 676 L1129 676 L1129 675 L1132 675 L1132 674 L1133 674 L1133 673 L1134 673 L1134 672 L1135 672 L1135 670 L1136 670 L1136 645 L1137 645 L1137 644 L1144 644 L1144 682 L1136 682 L1136 680 L1137 680 L1137 677 L1136 677 L1136 678 L1135 678 L1135 679 L1134 679 L1134 680 L1133 680 L1133 681 L1131 681 L1131 682 L1128 682 L1128 683 L1120 683 L1120 682 L1117 682 L1117 681 L1115 681 L1115 680 L1114 680 L1114 679 L1113 679 L1113 678 L1112 678 L1112 676 L1111 676 L1111 674 L1110 674 Z M1255 644 L1263 644 L1263 682 L1255 682 Z M864 649 L864 650 L861 650 L861 651 L860 651 L860 652 L859 652 L859 654 L858 654 L858 660 L859 660 L859 662 L860 662 L860 663 L861 663 L861 664 L865 664 L865 665 L868 665 L868 664 L871 664 L871 663 L872 663 L872 662 L873 662 L873 661 L874 661 L874 653 L873 653 L873 651 L871 651 L871 650 L869 650 L869 649 Z M1333 649 L1333 650 L1330 650 L1330 651 L1329 651 L1329 652 L1328 652 L1328 655 L1327 655 L1327 659 L1328 659 L1328 661 L1329 661 L1329 663 L1331 663 L1331 664 L1334 664 L1334 665 L1337 665 L1337 664 L1340 664 L1340 663 L1342 663 L1342 662 L1343 662 L1343 660 L1344 660 L1344 654 L1343 654 L1343 652 L1342 652 L1342 651 L1341 651 L1341 650 L1338 650 L1338 649 Z M342 650 L342 651 L340 651 L340 652 L339 652 L339 653 L338 653 L338 654 L337 654 L337 655 L336 655 L336 657 L335 657 L335 659 L334 659 L334 667 L335 667 L335 669 L336 669 L336 671 L337 671 L337 673 L339 673 L339 674 L340 674 L340 675 L342 675 L342 676 L351 676 L351 675 L354 675 L354 674 L355 674 L355 673 L356 673 L356 672 L357 672 L357 670 L358 670 L358 668 L359 668 L359 658 L358 658 L358 656 L357 656 L357 654 L356 654 L356 653 L355 653 L355 652 L354 652 L354 651 L351 651 L351 650 Z M392 650 L392 651 L390 651 L390 652 L389 652 L389 653 L388 653 L388 654 L387 654 L387 655 L386 655 L386 656 L385 656 L385 659 L384 659 L384 667 L385 667 L385 670 L386 670 L386 671 L387 671 L387 673 L388 673 L388 674 L390 674 L390 675 L392 675 L392 676 L401 676 L401 675 L403 675 L403 674 L405 674 L405 673 L406 673 L406 671 L407 671 L407 669 L408 669 L408 665 L409 665 L409 661 L408 661 L408 657 L407 657 L407 655 L406 655 L406 654 L405 654 L405 653 L404 653 L404 652 L403 652 L403 651 L401 651 L401 650 Z M479 650 L479 651 L477 651 L477 652 L476 652 L476 653 L475 653 L475 654 L474 654 L474 655 L473 655 L473 658 L472 658 L472 660 L496 660 L496 658 L495 658 L495 656 L494 656 L494 654 L493 654 L493 653 L492 653 L492 652 L491 652 L491 651 L489 651 L489 650 Z M905 650 L905 651 L903 651 L903 652 L901 652 L901 653 L900 653 L900 655 L899 655 L899 657 L898 657 L898 660 L921 660 L921 656 L920 656 L920 654 L919 654 L919 653 L918 653 L918 652 L917 652 L917 651 L915 651 L915 650 Z M1172 650 L1172 651 L1169 651 L1169 652 L1168 652 L1168 653 L1167 653 L1167 654 L1166 654 L1166 655 L1165 655 L1165 657 L1164 657 L1164 660 L1163 660 L1163 666 L1164 666 L1164 669 L1165 669 L1165 671 L1166 671 L1166 672 L1167 672 L1167 673 L1168 673 L1168 674 L1169 674 L1169 675 L1172 675 L1172 676 L1180 676 L1180 675 L1182 675 L1182 674 L1184 674 L1184 673 L1185 673 L1185 672 L1186 672 L1186 670 L1187 670 L1187 667 L1188 667 L1188 659 L1187 659 L1187 656 L1186 656 L1186 654 L1185 654 L1185 653 L1184 653 L1184 652 L1182 652 L1182 651 L1180 651 L1180 650 Z M1221 650 L1221 651 L1219 651 L1219 652 L1217 652 L1217 653 L1216 653 L1216 654 L1215 654 L1215 656 L1214 656 L1214 658 L1213 658 L1213 668 L1214 668 L1214 670 L1215 670 L1215 672 L1216 672 L1216 673 L1217 673 L1217 674 L1219 674 L1219 675 L1221 675 L1221 676 L1230 676 L1230 675 L1232 675 L1232 674 L1233 674 L1233 673 L1234 673 L1234 672 L1235 672 L1235 671 L1236 671 L1236 669 L1237 669 L1237 657 L1236 657 L1236 655 L1235 655 L1235 654 L1234 654 L1234 653 L1233 653 L1233 652 L1232 652 L1232 651 L1230 651 L1230 650 Z M703 665 L703 666 L700 666 L700 667 L699 667 L699 668 L698 668 L698 673 L699 673 L699 675 L701 675 L701 676 L706 676 L706 677 L707 677 L707 676 L712 676 L712 675 L714 675 L714 674 L715 674 L715 672 L716 672 L716 666 L717 666 L717 665 Z M819 665 L819 666 L816 666 L816 667 L815 667 L815 668 L814 668 L814 673 L815 673 L815 675 L817 675 L817 676 L821 676 L821 677 L823 677 L823 676 L827 676 L827 675 L829 675 L829 674 L831 674 L831 672 L832 672 L832 665 Z M859 682 L859 683 L857 683 L857 684 L856 684 L856 685 L855 685 L855 686 L854 686 L854 692 L855 692 L855 693 L856 693 L856 694 L858 694 L858 695 L861 695 L861 696 L871 696 L871 695 L874 695 L874 694 L876 694 L876 693 L877 693 L877 692 L878 692 L878 690 L879 690 L879 687 L878 687 L878 685 L877 685 L877 684 L874 684 L874 683 L865 683 L865 682 Z M1328 682 L1328 683 L1326 683 L1326 684 L1325 684 L1325 685 L1324 685 L1324 687 L1323 687 L1323 691 L1324 691 L1324 693 L1325 693 L1325 694 L1327 694 L1327 695 L1330 695 L1330 696 L1340 696 L1340 695 L1344 695 L1344 694 L1346 694 L1346 693 L1347 693 L1347 692 L1348 692 L1348 686 L1347 686 L1347 685 L1346 685 L1346 684 L1343 684 L1343 683 L1334 683 L1334 682 Z" fill="#595959" fill-rule="evenodd"/>
</svg>
