<svg xmlns="http://www.w3.org/2000/svg" width="1600" height="587" viewBox="0 0 1600 587" role="img" aria-labelledby="title desc">
  <title id="title">Rahma Therapy vector trace horizontal logo without tagline</title>
  <desc id="desc">Automated vector trace of the Rahma Therapy lockup without the service-line text.</desc>
  <defs>
    <linearGradient id="rahmaOrangeGradient" x1="0" y1="0" x2="1" y2="0">
      <stop offset="0" stop-color="#f7931e"/>
      <stop offset="0.34" stop-color="#ffcd18"/>
      <stop offset="1" stop-color="#f7931e"/>
    </linearGradient>
  </defs>
  <path id="orange" d="M480 34 L488 34 L488 36 L489 36 L489 39 L490 39 L490 41 L491 41 L491 43 L492 43 L492 46 L493 46 L493 49 L494 49 L494 51 L495 51 L495 53 L496 53 L496 56 L497 56 L497 58 L498 58 L498 61 L499 61 L499 63 L500 63 L500 66 L501 66 L501 68 L502 68 L502 71 L503 71 L503 73 L504 73 L504 76 L505 76 L505 78 L506 78 L506 81 L507 81 L507 83 L508 83 L508 86 L509 86 L509 88 L510 88 L510 90 L511 90 L511 93 L512 93 L512 95 L513 95 L513 98 L514 98 L514 101 L515 101 L515 103 L516 103 L516 105 L517 105 L517 108 L518 108 L518 110 L519 110 L519 113 L520 113 L520 115 L521 115 L521 118 L522 118 L522 120 L523 120 L523 123 L524 123 L524 125 L525 125 L525 128 L526 128 L526 130 L527 130 L527 133 L528 133 L528 135 L529 135 L529 138 L530 138 L530 140 L531 140 L531 143 L532 143 L532 145 L533 145 L533 147 L534 147 L534 150 L535 150 L535 153 L536 153 L536 155 L537 155 L537 158 L538 158 L538 160 L539 160 L539 162 L540 162 L540 165 L541 165 L541 167 L542 167 L542 170 L543 170 L543 172 L544 172 L544 175 L545 175 L545 177 L546 177 L546 180 L547 180 L547 182 L548 182 L548 185 L549 185 L549 187 L550 187 L550 189 L551 189 L551 192 L552 192 L552 194 L553 194 L553 197 L554 197 L554 199 L555 199 L555 202 L556 202 L556 204 L557 204 L557 207 L558 207 L558 209 L559 209 L559 212 L560 212 L560 214 L561 214 L561 217 L562 217 L562 219 L563 219 L563 222 L564 222 L564 224 L565 224 L565 227 L566 227 L566 229 L567 229 L567 232 L568 232 L568 234 L569 234 L569 237 L570 237 L570 239 L571 239 L571 242 L572 242 L572 244 L573 244 L573 246 L574 246 L574 249 L575 249 L575 251 L576 251 L576 254 L577 254 L577 257 L578 257 L578 259 L579 259 L579 261 L580 261 L580 264 L581 264 L581 266 L582 266 L582 269 L583 269 L583 271 L584 271 L584 274 L585 274 L585 276 L586 276 L586 279 L587 279 L587 281 L588 281 L588 284 L589 284 L589 286 L590 286 L590 289 L591 289 L591 291 L592 291 L592 294 L593 294 L593 297 L594 297 L594 299 L595 299 L595 302 L596 302 L596 304 L597 304 L597 306 L598 306 L598 308 L599 308 L599 310 L600 310 L600 312 L601 312 L601 314 L602 314 L602 316 L603 316 L603 318 L604 318 L604 319 L605 319 L605 320 L606 320 L606 321 L607 321 L607 322 L608 322 L608 323 L609 323 L609 324 L610 324 L610 325 L612 325 L612 326 L614 326 L614 327 L617 327 L617 328 L624 328 L624 329 L625 329 L625 334 L554 334 L554 329 L555 329 L555 328 L561 328 L561 327 L562 327 L562 326 L563 326 L563 323 L564 323 L564 321 L563 321 L563 317 L562 317 L562 314 L561 314 L561 311 L560 311 L560 308 L559 308 L559 306 L558 306 L558 304 L557 304 L557 301 L556 301 L556 299 L555 299 L555 296 L554 296 L554 294 L553 294 L553 291 L552 291 L552 289 L551 289 L551 286 L550 286 L550 284 L549 284 L549 281 L548 281 L548 278 L547 278 L547 276 L546 276 L546 274 L545 274 L545 271 L544 271 L544 269 L543 269 L543 266 L542 266 L542 264 L541 264 L541 261 L540 261 L540 259 L539 259 L539 256 L538 256 L538 254 L537 254 L537 251 L536 251 L536 249 L535 249 L535 247 L534 247 L534 244 L533 244 L533 242 L532 242 L532 239 L531 239 L531 236 L530 236 L530 234 L529 234 L529 231 L528 231 L528 229 L527 229 L527 226 L526 226 L526 224 L525 224 L525 222 L524 222 L524 219 L523 219 L523 217 L522 217 L522 214 L521 214 L521 212 L520 212 L520 209 L519 209 L519 207 L518 207 L518 204 L517 204 L517 202 L516 202 L516 199 L431 199 L431 200 L430 200 L430 203 L429 203 L429 205 L428 205 L428 208 L427 208 L427 210 L426 210 L426 213 L425 213 L425 215 L424 215 L424 218 L423 218 L423 220 L422 220 L422 223 L421 223 L421 225 L420 225 L420 227 L419 227 L419 230 L418 230 L418 233 L417 233 L417 235 L416 235 L416 237 L415 237 L415 240 L414 240 L414 242 L413 242 L413 245 L412 245 L412 248 L411 248 L411 250 L410 250 L410 253 L409 253 L409 255 L408 255 L408 257 L407 257 L407 260 L406 260 L406 262 L405 262 L405 265 L404 265 L404 267 L403 267 L403 270 L402 270 L402 273 L401 273 L401 275 L400 275 L400 277 L399 277 L399 280 L398 280 L398 282 L397 282 L397 285 L396 285 L396 287 L395 287 L395 290 L394 290 L394 292 L393 292 L393 295 L392 295 L392 297 L391 297 L391 300 L390 300 L390 302 L389 302 L389 305 L388 305 L388 307 L387 307 L387 310 L386 310 L386 313 L385 313 L385 315 L384 315 L384 318 L383 318 L383 321 L382 321 L382 325 L383 325 L383 327 L385 327 L385 328 L391 328 L391 329 L392 329 L392 334 L346 334 L346 329 L347 329 L347 328 L355 328 L355 327 L358 327 L358 326 L360 326 L360 325 L361 325 L361 324 L363 324 L363 322 L364 322 L364 321 L365 321 L365 320 L366 320 L366 318 L367 318 L367 316 L368 316 L368 315 L369 315 L369 313 L370 313 L370 311 L371 311 L371 309 L372 309 L372 306 L373 306 L373 304 L374 304 L374 302 L375 302 L375 299 L376 299 L376 296 L377 296 L377 294 L378 294 L378 291 L379 291 L379 289 L380 289 L380 286 L381 286 L381 284 L382 284 L382 281 L383 281 L383 279 L384 279 L384 276 L385 276 L385 274 L386 274 L386 271 L387 271 L387 268 L388 268 L388 266 L389 266 L389 264 L390 264 L390 261 L391 261 L391 259 L392 259 L392 256 L393 256 L393 254 L394 254 L394 251 L395 251 L395 249 L396 249 L396 246 L397 246 L397 244 L398 244 L398 241 L399 241 L399 238 L400 238 L400 236 L401 236 L401 233 L402 233 L402 231 L403 231 L403 229 L404 229 L404 226 L405 226 L405 224 L406 224 L406 221 L407 221 L407 218 L408 218 L408 216 L409 216 L409 213 L410 213 L410 210 L411 210 L411 208 L412 208 L412 206 L413 206 L413 203 L414 203 L414 200 L415 200 L415 198 L416 198 L416 196 L417 196 L417 193 L418 193 L418 190 L419 190 L419 188 L420 188 L420 185 L421 185 L421 183 L422 183 L422 180 L423 180 L423 178 L424 178 L424 175 L425 175 L425 173 L426 173 L426 170 L427 170 L427 168 L428 168 L428 165 L429 165 L429 163 L430 163 L430 160 L431 160 L431 158 L432 158 L432 155 L433 155 L433 153 L434 153 L434 150 L435 150 L435 148 L436 148 L436 145 L437 145 L437 142 L438 142 L438 140 L439 140 L439 137 L440 137 L440 135 L441 135 L441 132 L442 132 L442 130 L443 130 L443 127 L444 127 L444 125 L445 125 L445 122 L446 122 L446 120 L447 120 L447 117 L448 117 L448 115 L449 115 L449 112 L450 112 L450 110 L451 110 L451 107 L452 107 L452 105 L453 105 L453 102 L454 102 L454 100 L455 100 L455 97 L456 97 L456 95 L457 95 L457 92 L458 92 L458 90 L459 90 L459 87 L460 87 L460 84 L461 84 L461 82 L462 82 L462 79 L463 79 L463 77 L464 77 L464 74 L465 74 L465 72 L466 72 L466 69 L467 69 L467 67 L468 67 L468 64 L469 64 L469 62 L470 62 L470 59 L471 59 L471 57 L472 57 L472 54 L473 54 L473 52 L474 52 L474 49 L475 49 L475 47 L476 47 L476 44 L477 44 L477 42 L478 42 L478 39 L479 39 L479 36 L480 36 Z M1424 34 L1432 34 L1432 37 L1433 37 L1433 39 L1434 39 L1434 42 L1435 42 L1435 44 L1436 44 L1436 47 L1437 47 L1437 50 L1438 50 L1438 52 L1439 52 L1439 54 L1440 54 L1440 57 L1441 57 L1441 59 L1442 59 L1442 62 L1443 62 L1443 64 L1444 64 L1444 67 L1445 67 L1445 69 L1446 69 L1446 72 L1447 72 L1447 74 L1448 74 L1448 77 L1449 77 L1449 79 L1450 79 L1450 81 L1451 81 L1451 84 L1452 84 L1452 86 L1453 86 L1453 89 L1454 89 L1454 91 L1455 91 L1455 94 L1456 94 L1456 96 L1457 96 L1457 99 L1458 99 L1458 101 L1459 101 L1459 104 L1460 104 L1460 106 L1461 106 L1461 109 L1462 109 L1462 111 L1463 111 L1463 114 L1464 114 L1464 116 L1465 116 L1465 119 L1466 119 L1466 121 L1467 121 L1467 124 L1468 124 L1468 126 L1469 126 L1469 129 L1470 129 L1470 131 L1471 131 L1471 134 L1472 134 L1472 136 L1473 136 L1473 138 L1474 138 L1474 141 L1475 141 L1475 143 L1476 143 L1476 146 L1477 146 L1477 149 L1478 149 L1478 151 L1479 151 L1479 153 L1480 153 L1480 156 L1481 156 L1481 158 L1482 158 L1482 161 L1483 161 L1483 163 L1484 163 L1484 166 L1485 166 L1485 168 L1486 168 L1486 171 L1487 171 L1487 173 L1488 173 L1488 176 L1489 176 L1489 178 L1490 178 L1490 181 L1491 181 L1491 183 L1492 183 L1492 185 L1493 185 L1493 188 L1494 188 L1494 190 L1495 190 L1495 193 L1496 193 L1496 195 L1497 195 L1497 198 L1498 198 L1498 200 L1499 200 L1499 203 L1500 203 L1500 205 L1501 205 L1501 208 L1502 208 L1502 210 L1503 210 L1503 213 L1504 213 L1504 215 L1505 215 L1505 218 L1506 218 L1506 220 L1507 220 L1507 223 L1508 223 L1508 225 L1509 225 L1509 228 L1510 228 L1510 230 L1511 230 L1511 232 L1512 232 L1512 235 L1513 235 L1513 237 L1514 237 L1514 240 L1515 240 L1515 243 L1516 243 L1516 245 L1517 245 L1517 248 L1518 248 L1518 250 L1519 250 L1519 252 L1520 252 L1520 255 L1521 255 L1521 257 L1522 257 L1522 260 L1523 260 L1523 262 L1524 262 L1524 265 L1525 265 L1525 267 L1526 267 L1526 270 L1527 270 L1527 272 L1528 272 L1528 275 L1529 275 L1529 277 L1530 277 L1530 280 L1531 280 L1531 282 L1532 282 L1532 284 L1533 284 L1533 287 L1534 287 L1534 289 L1535 289 L1535 292 L1536 292 L1536 295 L1537 295 L1537 298 L1538 298 L1538 300 L1539 300 L1539 302 L1540 302 L1540 305 L1541 305 L1541 307 L1542 307 L1542 309 L1543 309 L1543 311 L1544 311 L1544 313 L1545 313 L1545 315 L1546 315 L1546 317 L1547 317 L1547 318 L1548 318 L1548 319 L1549 319 L1549 321 L1550 321 L1550 322 L1551 322 L1551 323 L1553 323 L1553 324 L1554 324 L1554 325 L1555 325 L1555 326 L1557 326 L1557 327 L1560 327 L1560 328 L1568 328 L1568 329 L1569 329 L1569 334 L1498 334 L1498 329 L1499 329 L1499 328 L1504 328 L1504 327 L1506 327 L1506 326 L1507 326 L1507 318 L1506 318 L1506 315 L1505 315 L1505 312 L1504 312 L1504 309 L1503 309 L1503 307 L1502 307 L1502 305 L1501 305 L1501 302 L1500 302 L1500 299 L1499 299 L1499 297 L1498 297 L1498 294 L1497 294 L1497 292 L1496 292 L1496 290 L1495 290 L1495 287 L1494 287 L1494 285 L1493 285 L1493 282 L1492 282 L1492 280 L1491 280 L1491 277 L1490 277 L1490 275 L1489 275 L1489 272 L1488 272 L1488 270 L1487 270 L1487 267 L1486 267 L1486 265 L1485 265 L1485 262 L1484 262 L1484 260 L1483 260 L1483 258 L1482 258 L1482 255 L1481 255 L1481 252 L1480 252 L1480 250 L1479 250 L1479 247 L1478 247 L1478 245 L1477 245 L1477 242 L1476 242 L1476 240 L1475 240 L1475 238 L1474 238 L1474 235 L1473 235 L1473 233 L1472 233 L1472 230 L1471 230 L1471 227 L1470 227 L1470 225 L1469 225 L1469 222 L1468 222 L1468 220 L1467 220 L1467 218 L1466 218 L1466 215 L1465 215 L1465 213 L1464 213 L1464 210 L1463 210 L1463 208 L1462 208 L1462 205 L1461 205 L1461 203 L1460 203 L1460 200 L1459 200 L1459 199 L1374 199 L1374 202 L1373 202 L1373 204 L1372 204 L1372 207 L1371 207 L1371 209 L1370 209 L1370 212 L1369 212 L1369 214 L1368 214 L1368 216 L1367 216 L1367 219 L1366 219 L1366 222 L1365 222 L1365 224 L1364 224 L1364 227 L1363 227 L1363 229 L1362 229 L1362 232 L1361 232 L1361 234 L1360 234 L1360 237 L1359 237 L1359 239 L1358 239 L1358 241 L1357 241 L1357 244 L1356 244 L1356 246 L1355 246 L1355 249 L1354 249 L1354 252 L1353 252 L1353 254 L1352 254 L1352 257 L1351 257 L1351 259 L1350 259 L1350 262 L1349 262 L1349 264 L1348 264 L1348 267 L1347 267 L1347 269 L1346 269 L1346 272 L1345 272 L1345 274 L1344 274 L1344 277 L1343 277 L1343 279 L1342 279 L1342 282 L1341 282 L1341 284 L1340 284 L1340 287 L1339 287 L1339 289 L1338 289 L1338 291 L1337 291 L1337 294 L1336 294 L1336 296 L1335 296 L1335 299 L1334 299 L1334 302 L1333 302 L1333 304 L1332 304 L1332 306 L1331 306 L1331 309 L1330 309 L1330 311 L1329 311 L1329 314 L1328 314 L1328 317 L1327 317 L1327 320 L1326 320 L1326 326 L1327 326 L1327 327 L1329 327 L1329 328 L1335 328 L1335 329 L1336 329 L1336 334 L1290 334 L1290 328 L1299 328 L1299 327 L1301 327 L1301 326 L1303 326 L1303 325 L1305 325 L1305 324 L1306 324 L1306 323 L1307 323 L1307 322 L1308 322 L1308 321 L1309 321 L1309 319 L1310 319 L1310 318 L1311 318 L1311 316 L1312 316 L1312 314 L1313 314 L1313 312 L1314 312 L1314 310 L1315 310 L1315 308 L1316 308 L1316 306 L1317 306 L1317 303 L1318 303 L1318 301 L1319 301 L1319 298 L1320 298 L1320 295 L1321 295 L1321 293 L1322 293 L1322 290 L1323 290 L1323 288 L1324 288 L1324 286 L1325 286 L1325 283 L1326 283 L1326 280 L1327 280 L1327 278 L1328 278 L1328 275 L1329 275 L1329 273 L1330 273 L1330 270 L1331 270 L1331 268 L1332 268 L1332 265 L1333 265 L1333 263 L1334 263 L1334 260 L1335 260 L1335 258 L1336 258 L1336 255 L1337 255 L1337 253 L1338 253 L1338 250 L1339 250 L1339 248 L1340 248 L1340 245 L1341 245 L1341 242 L1342 242 L1342 240 L1343 240 L1343 237 L1344 237 L1344 235 L1345 235 L1345 232 L1346 232 L1346 230 L1347 230 L1347 228 L1348 228 L1348 225 L1349 225 L1349 222 L1350 222 L1350 220 L1351 220 L1351 217 L1352 217 L1352 214 L1353 214 L1353 212 L1354 212 L1354 210 L1355 210 L1355 207 L1356 207 L1356 205 L1357 205 L1357 202 L1358 202 L1358 200 L1359 200 L1359 197 L1360 197 L1360 194 L1361 194 L1361 192 L1362 192 L1362 189 L1363 189 L1363 187 L1364 187 L1364 184 L1365 184 L1365 182 L1366 182 L1366 179 L1367 179 L1367 177 L1368 177 L1368 175 L1369 175 L1369 172 L1370 172 L1370 169 L1371 169 L1371 167 L1372 167 L1372 164 L1373 164 L1373 162 L1374 162 L1374 159 L1375 159 L1375 157 L1376 157 L1376 154 L1377 154 L1377 152 L1378 152 L1378 149 L1379 149 L1379 146 L1380 146 L1380 144 L1381 144 L1381 141 L1382 141 L1382 139 L1383 139 L1383 137 L1384 137 L1384 134 L1385 134 L1385 131 L1386 131 L1386 129 L1387 129 L1387 127 L1388 127 L1388 124 L1389 124 L1389 121 L1390 121 L1390 119 L1391 119 L1391 116 L1392 116 L1392 114 L1393 114 L1393 111 L1394 111 L1394 109 L1395 109 L1395 106 L1396 106 L1396 104 L1397 104 L1397 101 L1398 101 L1398 99 L1399 99 L1399 96 L1400 96 L1400 93 L1401 93 L1401 91 L1402 91 L1402 88 L1403 88 L1403 86 L1404 86 L1404 83 L1405 83 L1405 81 L1406 81 L1406 78 L1407 78 L1407 76 L1408 76 L1408 73 L1409 73 L1409 71 L1410 71 L1410 68 L1411 68 L1411 66 L1412 66 L1412 63 L1413 63 L1413 61 L1414 61 L1414 58 L1415 58 L1415 56 L1416 56 L1416 53 L1417 53 L1417 51 L1418 51 L1418 48 L1419 48 L1419 46 L1420 46 L1420 43 L1421 43 L1421 40 L1422 40 L1422 38 L1423 38 L1423 36 L1424 36 Z M37 38 L148 38 L148 39 L166 39 L166 40 L174 40 L174 41 L177 41 L177 42 L181 42 L181 43 L184 43 L184 44 L187 44 L187 45 L190 45 L190 46 L192 46 L192 47 L194 47 L194 48 L196 48 L196 49 L198 49 L198 50 L199 50 L199 51 L201 51 L201 52 L202 52 L202 53 L204 53 L204 54 L205 54 L205 55 L207 55 L207 56 L208 56 L208 57 L209 57 L209 58 L210 58 L210 59 L211 59 L211 60 L212 60 L212 61 L213 61 L213 62 L214 62 L214 63 L215 63 L215 64 L216 64 L216 66 L217 66 L217 67 L218 67 L218 69 L219 69 L219 70 L220 70 L220 73 L221 73 L221 75 L222 75 L222 77 L223 77 L223 79 L224 79 L224 83 L225 83 L225 86 L226 86 L226 91 L227 91 L227 116 L226 116 L226 120 L225 120 L225 125 L224 125 L224 128 L223 128 L223 131 L222 131 L222 133 L221 133 L221 135 L220 135 L220 138 L219 138 L219 140 L218 140 L218 142 L217 142 L217 143 L216 143 L216 145 L215 145 L215 146 L214 146 L214 148 L213 148 L213 149 L212 149 L212 151 L211 151 L211 152 L210 152 L210 154 L209 154 L209 155 L208 155 L208 156 L207 156 L207 157 L206 157 L206 158 L205 158 L205 159 L204 159 L204 160 L203 160 L203 161 L202 161 L202 162 L201 162 L201 164 L199 164 L199 165 L198 165 L198 166 L197 166 L197 167 L196 167 L196 168 L195 168 L195 169 L194 169 L194 170 L193 170 L193 171 L191 171 L191 172 L190 172 L190 173 L189 173 L189 174 L187 174 L187 175 L186 175 L186 176 L185 176 L185 177 L183 177 L183 178 L181 178 L181 179 L180 179 L180 180 L178 180 L178 181 L177 181 L177 183 L178 183 L178 185 L179 185 L179 186 L180 186 L180 188 L181 188 L181 189 L182 189 L182 191 L183 191 L183 192 L184 192 L184 194 L185 194 L185 195 L186 195 L186 197 L187 197 L187 199 L188 199 L188 200 L189 200 L189 202 L190 202 L190 203 L191 203 L191 204 L192 204 L192 206 L193 206 L193 208 L194 208 L194 209 L195 209 L195 211 L196 211 L196 212 L197 212 L197 214 L198 214 L198 216 L199 216 L199 217 L200 217 L200 219 L201 219 L201 221 L202 221 L202 222 L203 222 L203 224 L204 224 L204 225 L205 225 L205 226 L206 226 L206 228 L207 228 L207 229 L208 229 L208 231 L209 231 L209 232 L210 232 L210 234 L211 234 L211 235 L212 235 L212 237 L213 237 L213 238 L214 238 L214 239 L215 239 L215 241 L216 241 L216 242 L217 242 L217 244 L218 244 L218 245 L219 245 L219 246 L220 246 L220 248 L221 248 L221 249 L222 249 L222 251 L223 251 L223 252 L224 252 L224 254 L225 254 L225 255 L226 255 L226 256 L227 256 L227 258 L228 258 L228 259 L229 259 L229 261 L230 261 L230 262 L231 262 L231 263 L232 263 L232 265 L233 265 L233 266 L234 266 L234 267 L235 267 L235 269 L236 269 L236 270 L237 270 L237 272 L238 272 L238 273 L239 273 L239 274 L240 274 L240 276 L241 276 L241 277 L242 277 L242 278 L243 278 L243 279 L244 279 L244 281 L245 281 L245 282 L246 282 L246 283 L247 283 L247 284 L248 284 L248 286 L249 286 L249 287 L250 287 L250 288 L251 288 L251 289 L252 289 L252 291 L253 291 L253 292 L254 292 L254 293 L255 293 L255 294 L256 294 L256 295 L257 295 L257 296 L258 296 L258 297 L259 297 L259 298 L260 298 L260 299 L261 299 L261 301 L262 301 L262 302 L263 302 L263 303 L264 303 L264 304 L266 304 L266 305 L267 305 L267 306 L268 306 L268 307 L269 307 L269 308 L270 308 L270 309 L271 309 L271 310 L273 310 L273 311 L274 311 L274 312 L276 312 L276 313 L277 313 L277 314 L279 314 L279 315 L281 315 L281 316 L283 316 L283 317 L285 317 L285 318 L288 318 L288 319 L291 319 L291 320 L295 320 L295 321 L300 321 L300 322 L315 322 L315 321 L319 321 L319 320 L322 320 L322 319 L325 319 L325 318 L328 318 L328 317 L330 317 L330 316 L332 316 L332 315 L334 315 L334 314 L336 314 L336 313 L338 313 L338 312 L340 312 L340 311 L342 311 L342 312 L343 312 L343 315 L344 315 L344 317 L343 317 L343 318 L341 318 L341 319 L340 319 L340 320 L339 320 L339 321 L337 321 L337 322 L336 322 L336 323 L334 323 L334 324 L332 324 L332 325 L330 325 L330 326 L329 326 L329 327 L327 327 L327 328 L324 328 L324 329 L322 329 L322 330 L319 330 L319 331 L317 331 L317 332 L313 332 L313 333 L309 333 L309 334 L305 334 L305 335 L300 335 L300 336 L289 336 L289 337 L272 337 L272 336 L266 336 L266 335 L261 335 L261 334 L258 334 L258 333 L255 333 L255 332 L252 332 L252 331 L250 331 L250 330 L248 330 L248 329 L246 329 L246 328 L244 328 L244 327 L243 327 L243 326 L241 326 L241 325 L240 325 L240 324 L239 324 L239 323 L237 323 L237 322 L236 322 L236 321 L235 321 L235 320 L233 320 L233 319 L232 319 L232 318 L231 318 L231 317 L230 317 L230 316 L229 316 L229 315 L228 315 L228 314 L227 314 L227 312 L226 312 L226 311 L225 311 L225 310 L224 310 L224 309 L223 309 L223 308 L222 308 L222 307 L221 307 L221 305 L220 305 L220 304 L219 304 L219 303 L218 303 L218 302 L217 302 L217 301 L216 301 L216 299 L215 299 L215 298 L214 298 L214 297 L213 297 L213 296 L212 296 L212 294 L211 294 L211 293 L210 293 L210 292 L209 292 L209 290 L208 290 L208 289 L207 289 L207 288 L206 288 L206 286 L205 286 L205 285 L204 285 L204 284 L203 284 L203 282 L202 282 L202 281 L201 281 L201 280 L200 280 L200 278 L199 278 L199 277 L198 277 L198 276 L197 276 L197 274 L196 274 L196 273 L195 273 L195 271 L194 271 L194 270 L193 270 L193 269 L192 269 L192 267 L191 267 L191 266 L190 266 L190 264 L189 264 L189 263 L188 263 L188 262 L187 262 L187 260 L186 260 L186 258 L185 258 L185 257 L184 257 L184 256 L183 256 L183 254 L182 254 L182 253 L181 253 L181 251 L180 251 L180 250 L179 250 L179 248 L178 248 L178 247 L177 247 L177 246 L176 246 L176 244 L175 244 L175 242 L174 242 L174 241 L173 241 L173 239 L172 239 L172 238 L171 238 L171 236 L170 236 L170 235 L169 235 L169 233 L168 233 L168 232 L167 232 L167 230 L166 230 L166 228 L165 228 L165 227 L164 227 L164 225 L163 225 L163 224 L162 224 L162 223 L161 223 L161 221 L160 221 L160 219 L159 219 L159 218 L158 218 L158 216 L157 216 L157 215 L156 215 L156 213 L155 213 L155 211 L154 211 L154 210 L153 210 L153 208 L152 208 L152 207 L151 207 L151 205 L150 205 L150 204 L149 204 L149 202 L148 202 L148 201 L147 201 L147 199 L146 199 L146 198 L145 198 L145 196 L144 196 L144 195 L143 195 L143 193 L95 193 L95 194 L94 194 L94 309 L95 309 L95 317 L96 317 L96 321 L97 321 L97 323 L98 323 L98 324 L99 324 L99 325 L100 325 L100 326 L102 326 L102 327 L105 327 L105 328 L113 328 L113 329 L115 329 L115 334 L37 334 L37 329 L38 329 L38 328 L47 328 L47 327 L50 327 L50 326 L52 326 L52 325 L53 325 L53 324 L55 324 L55 321 L56 321 L56 318 L57 318 L57 311 L58 311 L58 61 L57 61 L57 55 L56 55 L56 52 L55 52 L55 49 L54 49 L54 48 L53 48 L53 47 L51 47 L51 46 L49 46 L49 45 L46 45 L46 44 L37 44 Z M641 38 L718 38 L718 39 L719 39 L719 43 L718 43 L718 44 L710 44 L710 45 L707 45 L707 46 L704 46 L704 47 L702 47 L702 48 L701 48 L701 49 L700 49 L700 51 L699 51 L699 53 L698 53 L698 58 L697 58 L697 177 L856 177 L856 63 L855 63 L855 54 L854 54 L854 51 L853 51 L853 49 L852 49 L852 47 L850 47 L850 46 L849 46 L849 45 L845 45 L845 44 L836 44 L836 41 L835 41 L835 39 L836 39 L836 38 L913 38 L913 44 L903 44 L903 45 L899 45 L899 46 L897 46 L897 47 L896 47 L896 48 L895 48 L895 50 L894 50 L894 52 L893 52 L893 62 L892 62 L892 64 L893 64 L893 65 L892 65 L892 309 L893 309 L893 319 L894 319 L894 321 L895 321 L895 323 L896 323 L896 324 L897 324 L897 325 L898 325 L898 326 L900 326 L900 327 L903 327 L903 328 L911 328 L911 329 L913 329 L913 334 L835 334 L835 333 L836 333 L836 329 L837 329 L837 328 L846 328 L846 327 L849 327 L849 326 L851 326 L851 325 L852 325 L852 323 L853 323 L853 322 L854 322 L854 317 L855 317 L855 309 L856 309 L856 220 L857 220 L857 208 L856 208 L856 188 L697 188 L697 311 L698 311 L698 316 L696 316 L696 317 L694 317 L694 318 L692 318 L692 319 L689 319 L689 320 L687 320 L687 321 L685 321 L685 322 L684 322 L684 323 L682 323 L682 324 L681 324 L681 325 L679 325 L679 326 L678 326 L678 327 L677 327 L677 328 L676 328 L676 329 L675 329 L675 334 L640 334 L640 329 L641 329 L641 328 L642 328 L642 329 L646 329 L646 328 L651 328 L651 327 L653 327 L653 326 L655 326 L655 325 L656 325 L656 324 L657 324 L657 323 L658 323 L658 321 L659 321 L659 319 L660 319 L660 315 L661 315 L661 61 L660 61 L660 54 L659 54 L659 50 L658 50 L658 48 L657 48 L657 47 L655 47 L655 46 L653 46 L653 45 L649 45 L649 44 L641 44 L641 43 L640 43 L640 39 L641 39 Z M949 38 L1007 38 L1007 41 L1008 41 L1008 43 L1009 43 L1009 46 L1010 46 L1010 48 L1011 48 L1011 51 L1012 51 L1012 53 L1013 53 L1013 55 L1014 55 L1014 58 L1015 58 L1015 60 L1016 60 L1016 62 L1017 62 L1017 64 L1018 64 L1018 66 L1019 66 L1019 69 L1020 69 L1020 71 L1021 71 L1021 74 L1022 74 L1022 76 L1023 76 L1023 78 L1024 78 L1024 81 L1025 81 L1025 83 L1026 83 L1026 85 L1027 85 L1027 88 L1028 88 L1028 90 L1029 90 L1029 92 L1030 92 L1030 95 L1031 95 L1031 97 L1032 97 L1032 99 L1033 99 L1033 102 L1034 102 L1034 104 L1035 104 L1035 106 L1036 106 L1036 109 L1037 109 L1037 111 L1038 111 L1038 113 L1039 113 L1039 115 L1040 115 L1040 118 L1041 118 L1041 120 L1042 120 L1042 123 L1043 123 L1043 125 L1044 125 L1044 127 L1045 127 L1045 130 L1046 130 L1046 132 L1047 132 L1047 134 L1048 134 L1048 136 L1049 136 L1049 139 L1050 139 L1050 141 L1051 141 L1051 144 L1052 144 L1052 146 L1053 146 L1053 148 L1054 148 L1054 151 L1055 151 L1055 153 L1056 153 L1056 155 L1057 155 L1057 157 L1058 157 L1058 160 L1059 160 L1059 162 L1060 162 L1060 165 L1061 165 L1061 167 L1062 167 L1062 169 L1063 169 L1063 171 L1064 171 L1064 174 L1065 174 L1065 176 L1066 176 L1066 178 L1067 178 L1067 181 L1068 181 L1068 183 L1069 183 L1069 185 L1070 185 L1070 188 L1071 188 L1071 190 L1072 190 L1072 192 L1073 192 L1073 195 L1074 195 L1074 197 L1075 197 L1075 199 L1076 199 L1076 202 L1077 202 L1077 204 L1078 204 L1078 206 L1079 206 L1079 208 L1080 208 L1080 211 L1081 211 L1081 213 L1082 213 L1082 216 L1083 216 L1083 218 L1084 218 L1084 220 L1085 220 L1085 222 L1086 222 L1086 225 L1087 225 L1087 227 L1088 227 L1088 230 L1089 230 L1089 232 L1090 232 L1090 234 L1091 234 L1091 237 L1092 237 L1092 239 L1093 239 L1093 241 L1094 241 L1094 244 L1095 244 L1095 246 L1096 246 L1096 248 L1097 248 L1097 250 L1098 250 L1098 253 L1099 253 L1099 255 L1100 255 L1100 257 L1101 257 L1101 260 L1102 260 L1102 262 L1103 262 L1103 265 L1104 265 L1104 267 L1105 267 L1105 269 L1106 269 L1106 271 L1107 271 L1107 274 L1108 274 L1108 276 L1109 276 L1109 274 L1110 274 L1110 272 L1111 272 L1111 269 L1112 269 L1112 267 L1113 267 L1113 265 L1114 265 L1114 262 L1115 262 L1115 260 L1116 260 L1116 258 L1117 258 L1117 255 L1118 255 L1118 253 L1119 253 L1119 251 L1120 251 L1120 248 L1121 248 L1121 246 L1122 246 L1122 244 L1123 244 L1123 242 L1124 242 L1124 239 L1125 239 L1125 237 L1126 237 L1126 235 L1127 235 L1127 232 L1128 232 L1128 230 L1129 230 L1129 228 L1130 228 L1130 225 L1131 225 L1131 223 L1132 223 L1132 221 L1133 221 L1133 218 L1134 218 L1134 216 L1135 216 L1135 214 L1136 214 L1136 211 L1137 211 L1137 209 L1138 209 L1138 207 L1139 207 L1139 204 L1140 204 L1140 202 L1141 202 L1141 200 L1142 200 L1142 197 L1143 197 L1143 195 L1144 195 L1144 193 L1145 193 L1145 191 L1146 191 L1146 188 L1147 188 L1147 186 L1148 186 L1148 184 L1149 184 L1149 181 L1150 181 L1150 179 L1151 179 L1151 176 L1152 176 L1152 174 L1153 174 L1153 172 L1154 172 L1154 170 L1155 170 L1155 168 L1156 168 L1156 165 L1157 165 L1157 163 L1158 163 L1158 160 L1159 160 L1159 158 L1160 158 L1160 156 L1161 156 L1161 153 L1162 153 L1162 151 L1163 151 L1163 149 L1164 149 L1164 147 L1165 147 L1165 144 L1166 144 L1166 142 L1167 142 L1167 139 L1168 139 L1168 137 L1169 137 L1169 135 L1170 135 L1170 132 L1171 132 L1171 130 L1172 130 L1172 128 L1173 128 L1173 126 L1174 126 L1174 123 L1175 123 L1175 121 L1176 121 L1176 119 L1177 119 L1177 116 L1178 116 L1178 114 L1179 114 L1179 112 L1180 112 L1180 109 L1181 109 L1181 107 L1182 107 L1182 105 L1183 105 L1183 102 L1184 102 L1184 100 L1185 100 L1185 98 L1186 98 L1186 96 L1187 96 L1187 93 L1188 93 L1188 91 L1189 91 L1189 89 L1190 89 L1190 86 L1191 86 L1191 84 L1192 84 L1192 82 L1193 82 L1193 79 L1194 79 L1194 77 L1195 77 L1195 75 L1196 75 L1196 73 L1197 73 L1197 70 L1198 70 L1198 68 L1199 68 L1199 65 L1200 65 L1200 63 L1201 63 L1201 61 L1202 61 L1202 58 L1203 58 L1203 56 L1204 56 L1204 54 L1205 54 L1205 52 L1206 52 L1206 49 L1207 49 L1207 47 L1208 47 L1208 44 L1209 44 L1209 42 L1210 42 L1210 40 L1211 40 L1211 38 L1260 38 L1260 43 L1259 43 L1259 44 L1252 44 L1252 45 L1249 45 L1249 46 L1246 46 L1246 47 L1245 47 L1245 48 L1243 48 L1243 49 L1242 49 L1242 50 L1241 50 L1241 51 L1240 51 L1240 53 L1239 53 L1239 55 L1238 55 L1238 57 L1237 57 L1237 62 L1236 62 L1236 74 L1237 74 L1237 81 L1238 81 L1238 89 L1239 89 L1239 96 L1240 96 L1240 103 L1241 103 L1241 110 L1242 110 L1242 117 L1243 117 L1243 125 L1244 125 L1244 133 L1245 133 L1245 140 L1246 140 L1246 147 L1247 147 L1247 154 L1248 154 L1248 161 L1249 161 L1249 168 L1250 168 L1250 175 L1251 175 L1251 182 L1252 182 L1252 190 L1253 190 L1253 198 L1254 198 L1254 205 L1255 205 L1255 212 L1256 212 L1256 219 L1257 219 L1257 226 L1258 226 L1258 232 L1259 232 L1259 239 L1260 239 L1260 246 L1261 246 L1261 253 L1262 253 L1262 261 L1263 261 L1263 270 L1264 270 L1264 277 L1265 277 L1265 284 L1266 284 L1266 291 L1267 291 L1267 297 L1268 297 L1268 304 L1269 304 L1269 309 L1270 309 L1270 314 L1271 314 L1271 317 L1272 317 L1272 320 L1273 320 L1273 322 L1274 322 L1274 324 L1275 324 L1275 325 L1276 325 L1276 326 L1279 326 L1279 327 L1282 327 L1282 328 L1288 328 L1288 329 L1289 329 L1289 334 L1221 334 L1221 328 L1228 328 L1228 327 L1230 327 L1230 326 L1231 326 L1231 325 L1232 325 L1232 323 L1233 323 L1233 320 L1234 320 L1234 314 L1233 314 L1233 306 L1232 306 L1232 299 L1231 299 L1231 292 L1230 292 L1230 285 L1229 285 L1229 278 L1228 278 L1228 270 L1227 270 L1227 263 L1226 263 L1226 255 L1225 255 L1225 248 L1224 248 L1224 241 L1223 241 L1223 235 L1222 235 L1222 228 L1221 228 L1221 221 L1220 221 L1220 213 L1219 213 L1219 206 L1218 206 L1218 198 L1217 198 L1217 191 L1216 191 L1216 184 L1215 184 L1215 177 L1214 177 L1214 170 L1213 170 L1213 163 L1212 163 L1212 156 L1211 156 L1211 149 L1210 149 L1210 141 L1209 141 L1209 134 L1208 134 L1208 127 L1207 127 L1207 119 L1206 119 L1206 112 L1205 112 L1205 105 L1204 105 L1204 98 L1203 98 L1203 95 L1202 95 L1202 98 L1201 98 L1201 100 L1200 100 L1200 103 L1199 103 L1199 105 L1198 105 L1198 107 L1197 107 L1197 110 L1196 110 L1196 112 L1195 112 L1195 114 L1194 114 L1194 117 L1193 117 L1193 119 L1192 119 L1192 121 L1191 121 L1191 123 L1190 123 L1190 126 L1189 126 L1189 128 L1188 128 L1188 130 L1187 130 L1187 132 L1186 132 L1186 135 L1185 135 L1185 137 L1184 137 L1184 139 L1183 139 L1183 142 L1182 142 L1182 144 L1181 144 L1181 146 L1180 146 L1180 149 L1179 149 L1179 151 L1178 151 L1178 153 L1177 153 L1177 156 L1176 156 L1176 158 L1175 158 L1175 160 L1174 160 L1174 163 L1173 163 L1173 165 L1172 165 L1172 168 L1171 168 L1171 170 L1170 170 L1170 172 L1169 172 L1169 174 L1168 174 L1168 177 L1167 177 L1167 179 L1166 179 L1166 181 L1165 181 L1165 183 L1164 183 L1164 186 L1163 186 L1163 188 L1162 188 L1162 190 L1161 190 L1161 193 L1160 193 L1160 195 L1159 195 L1159 197 L1158 197 L1158 200 L1157 200 L1157 202 L1156 202 L1156 204 L1155 204 L1155 206 L1154 206 L1154 209 L1153 209 L1153 211 L1152 211 L1152 214 L1151 214 L1151 216 L1150 216 L1150 218 L1149 218 L1149 220 L1148 220 L1148 223 L1147 223 L1147 225 L1146 225 L1146 227 L1145 227 L1145 230 L1144 230 L1144 232 L1143 232 L1143 234 L1142 234 L1142 237 L1141 237 L1141 239 L1140 239 L1140 241 L1139 241 L1139 244 L1138 244 L1138 246 L1137 246 L1137 248 L1136 248 L1136 251 L1135 251 L1135 253 L1134 253 L1134 255 L1133 255 L1133 257 L1132 257 L1132 260 L1131 260 L1131 262 L1130 262 L1130 264 L1129 264 L1129 267 L1128 267 L1128 269 L1127 269 L1127 271 L1126 271 L1126 274 L1125 274 L1125 275 L1124 275 L1124 278 L1123 278 L1123 280 L1122 280 L1122 283 L1121 283 L1121 285 L1120 285 L1120 287 L1119 287 L1119 290 L1118 290 L1118 292 L1117 292 L1117 294 L1116 294 L1116 297 L1115 297 L1115 299 L1114 299 L1114 301 L1113 301 L1113 303 L1112 303 L1112 306 L1111 306 L1111 308 L1110 308 L1110 311 L1109 311 L1109 313 L1108 313 L1108 315 L1107 315 L1107 317 L1106 317 L1106 320 L1105 320 L1105 322 L1104 322 L1104 324 L1103 324 L1103 326 L1102 326 L1102 329 L1101 329 L1101 331 L1100 331 L1100 334 L1096 334 L1096 333 L1095 333 L1095 331 L1094 331 L1094 329 L1093 329 L1093 327 L1092 327 L1092 324 L1091 324 L1091 322 L1090 322 L1090 320 L1089 320 L1089 318 L1088 318 L1088 316 L1087 316 L1087 313 L1086 313 L1086 311 L1085 311 L1085 308 L1084 308 L1084 306 L1083 306 L1083 304 L1082 304 L1082 302 L1081 302 L1081 299 L1080 299 L1080 297 L1079 297 L1079 295 L1078 295 L1078 293 L1077 293 L1077 290 L1076 290 L1076 288 L1075 288 L1075 286 L1074 286 L1074 283 L1073 283 L1073 281 L1072 281 L1072 279 L1071 279 L1071 277 L1070 277 L1070 274 L1069 274 L1069 272 L1068 272 L1068 270 L1067 270 L1067 267 L1066 267 L1066 265 L1065 265 L1065 263 L1064 263 L1064 261 L1063 261 L1063 258 L1062 258 L1062 256 L1061 256 L1061 254 L1060 254 L1060 251 L1059 251 L1059 249 L1058 249 L1058 247 L1057 247 L1057 244 L1056 244 L1056 242 L1055 242 L1055 240 L1054 240 L1054 237 L1053 237 L1053 235 L1052 235 L1052 233 L1051 233 L1051 231 L1050 231 L1050 228 L1049 228 L1049 226 L1048 226 L1048 224 L1047 224 L1047 222 L1046 222 L1046 219 L1045 219 L1045 217 L1044 217 L1044 215 L1043 215 L1043 212 L1042 212 L1042 210 L1041 210 L1041 208 L1040 208 L1040 205 L1039 205 L1039 203 L1038 203 L1038 201 L1037 201 L1037 199 L1036 199 L1036 196 L1035 196 L1035 194 L1034 194 L1034 192 L1033 192 L1033 189 L1032 189 L1032 187 L1031 187 L1031 185 L1030 185 L1030 183 L1029 183 L1029 180 L1028 180 L1028 178 L1027 178 L1027 176 L1026 176 L1026 173 L1025 173 L1025 171 L1024 171 L1024 169 L1023 169 L1023 166 L1022 166 L1022 164 L1021 164 L1021 162 L1020 162 L1020 160 L1019 160 L1019 157 L1018 157 L1018 155 L1017 155 L1017 153 L1016 153 L1016 150 L1015 150 L1015 148 L1014 148 L1014 146 L1013 146 L1013 143 L1012 143 L1012 141 L1011 141 L1011 139 L1010 139 L1010 137 L1009 137 L1009 134 L1008 134 L1008 132 L1007 132 L1007 130 L1006 130 L1006 128 L1005 128 L1005 125 L1004 125 L1004 123 L1003 123 L1003 121 L1002 121 L1002 118 L1001 118 L1001 116 L1000 116 L1000 114 L999 114 L999 112 L998 112 L998 109 L997 109 L997 107 L996 107 L996 105 L995 105 L995 102 L994 102 L994 100 L993 100 L993 98 L992 98 L992 96 L991 96 L991 100 L990 100 L990 109 L989 109 L989 115 L988 115 L988 124 L987 124 L987 130 L986 130 L986 137 L985 137 L985 145 L984 145 L984 151 L983 151 L983 158 L982 158 L982 166 L981 166 L981 173 L980 173 L980 181 L979 181 L979 189 L978 189 L978 196 L977 196 L977 204 L976 204 L976 210 L975 210 L975 218 L974 218 L974 224 L973 224 L973 231 L972 231 L972 239 L971 239 L971 246 L970 246 L970 253 L969 253 L969 261 L968 261 L968 269 L967 269 L967 276 L966 276 L966 283 L965 283 L965 290 L964 290 L964 297 L963 297 L963 304 L962 304 L962 312 L961 312 L961 321 L962 321 L962 324 L963 324 L963 325 L964 325 L964 326 L965 326 L965 327 L967 327 L967 328 L973 328 L973 329 L975 329 L975 334 L962 334 L962 333 L961 333 L961 332 L960 332 L960 331 L959 331 L959 330 L957 330 L957 329 L956 329 L956 328 L954 328 L954 327 L952 327 L952 326 L950 326 L950 325 L943 325 L943 323 L944 323 L944 321 L945 321 L945 317 L946 317 L946 312 L947 312 L947 306 L948 306 L948 299 L949 299 L949 292 L950 292 L950 285 L951 285 L951 278 L952 278 L952 271 L953 271 L953 264 L954 264 L954 257 L955 257 L955 249 L956 249 L956 242 L957 242 L957 235 L958 235 L958 228 L959 228 L959 221 L960 221 L960 215 L961 215 L961 208 L962 208 L962 201 L963 201 L963 193 L964 193 L964 186 L965 186 L965 178 L966 178 L966 172 L967 172 L967 164 L968 164 L968 157 L969 157 L969 151 L970 151 L970 144 L971 144 L971 137 L972 137 L972 130 L973 130 L973 123 L974 123 L974 116 L975 116 L975 108 L976 108 L976 101 L977 101 L977 93 L978 93 L978 87 L979 87 L979 80 L980 80 L980 73 L981 73 L981 69 L980 69 L980 67 L979 67 L979 65 L978 65 L978 63 L977 63 L977 61 L976 61 L976 59 L975 59 L975 57 L974 57 L974 56 L973 56 L973 54 L972 54 L972 53 L971 53 L971 52 L970 52 L970 51 L969 51 L969 50 L968 50 L968 49 L967 49 L967 48 L965 48 L965 47 L963 47 L963 46 L960 46 L960 45 L957 45 L957 44 L949 44 Z M95 48 L95 49 L94 49 L94 183 L95 183 L95 184 L129 184 L129 183 L141 183 L141 182 L147 182 L147 181 L151 181 L151 180 L155 180 L155 179 L157 179 L157 178 L160 178 L160 177 L163 177 L163 176 L164 176 L164 175 L166 175 L166 174 L168 174 L168 173 L170 173 L170 172 L171 172 L171 171 L172 171 L172 170 L174 170 L174 169 L175 169 L175 168 L176 168 L176 167 L177 167 L177 166 L178 166 L178 165 L179 165 L179 164 L180 164 L180 163 L181 163 L181 162 L182 162 L182 160 L183 160 L183 159 L184 159 L184 158 L185 158 L185 156 L186 156 L186 154 L187 154 L187 152 L188 152 L188 150 L189 150 L189 148 L190 148 L190 145 L191 145 L191 142 L192 142 L192 138 L193 138 L193 133 L194 133 L194 113 L193 113 L193 107 L192 107 L192 102 L191 102 L191 99 L190 99 L190 96 L189 96 L189 93 L188 93 L188 91 L187 91 L187 89 L186 89 L186 86 L185 86 L185 84 L184 84 L184 82 L183 82 L183 81 L182 81 L182 79 L181 79 L181 77 L180 77 L180 76 L179 76 L179 74 L178 74 L178 73 L177 73 L177 72 L176 72 L176 70 L175 70 L175 69 L174 69 L174 68 L173 68 L173 67 L172 67 L172 66 L171 66 L171 65 L170 65 L170 64 L169 64 L169 63 L168 63 L168 62 L167 62 L167 61 L165 61 L165 60 L164 60 L164 59 L162 59 L162 58 L160 58 L160 57 L158 57 L158 56 L156 56 L156 55 L154 55 L154 54 L151 54 L151 53 L148 53 L148 52 L145 52 L145 51 L141 51 L141 50 L135 50 L135 49 L125 49 L125 48 Z M473 93 L472 93 L472 96 L471 96 L471 99 L470 99 L470 101 L469 101 L469 103 L468 103 L468 106 L467 106 L467 108 L466 108 L466 111 L465 111 L465 113 L464 113 L464 116 L463 116 L463 119 L462 119 L462 121 L461 121 L461 124 L460 124 L460 126 L459 126 L459 129 L458 129 L458 131 L457 131 L457 133 L456 133 L456 136 L455 136 L455 139 L454 139 L454 141 L453 141 L453 144 L452 144 L452 146 L451 146 L451 149 L450 149 L450 151 L449 151 L449 154 L448 154 L448 156 L447 156 L447 158 L446 158 L446 161 L445 161 L445 164 L444 164 L444 166 L443 166 L443 169 L442 169 L442 171 L441 171 L441 174 L440 174 L440 176 L439 176 L439 179 L438 179 L438 182 L437 182 L437 184 L436 184 L436 186 L435 186 L435 188 L510 188 L510 186 L509 186 L509 183 L508 183 L508 181 L507 181 L507 178 L506 178 L506 176 L505 176 L505 173 L504 173 L504 171 L503 171 L503 168 L502 168 L502 166 L501 166 L501 163 L500 163 L500 161 L499 161 L499 158 L498 158 L498 156 L497 156 L497 153 L496 153 L496 151 L495 151 L495 148 L494 148 L494 146 L493 146 L493 143 L492 143 L492 141 L491 141 L491 138 L490 138 L490 136 L489 136 L489 133 L488 133 L488 130 L487 130 L487 128 L486 128 L486 125 L485 125 L485 123 L484 123 L484 120 L483 120 L483 118 L482 118 L482 115 L481 115 L481 113 L480 113 L480 110 L479 110 L479 108 L478 108 L478 105 L477 105 L477 102 L476 102 L476 100 L475 100 L475 97 L474 97 L474 95 L473 95 Z M1417 94 L1416 94 L1416 95 L1415 95 L1415 98 L1414 98 L1414 100 L1413 100 L1413 103 L1412 103 L1412 105 L1411 105 L1411 108 L1410 108 L1410 110 L1409 110 L1409 113 L1408 113 L1408 115 L1407 115 L1407 117 L1406 117 L1406 120 L1405 120 L1405 123 L1404 123 L1404 125 L1403 125 L1403 128 L1402 128 L1402 130 L1401 130 L1401 133 L1400 133 L1400 135 L1399 135 L1399 138 L1398 138 L1398 140 L1397 140 L1397 143 L1396 143 L1396 145 L1395 145 L1395 148 L1394 148 L1394 151 L1393 151 L1393 153 L1392 153 L1392 155 L1391 155 L1391 158 L1390 158 L1390 160 L1389 160 L1389 163 L1388 163 L1388 165 L1387 165 L1387 168 L1386 168 L1386 170 L1385 170 L1385 173 L1384 173 L1384 176 L1383 176 L1383 178 L1382 178 L1382 181 L1381 181 L1381 183 L1380 183 L1380 186 L1379 186 L1379 188 L1454 188 L1454 187 L1453 187 L1453 185 L1452 185 L1452 182 L1451 182 L1451 179 L1450 179 L1450 176 L1449 176 L1449 174 L1448 174 L1448 172 L1447 172 L1447 169 L1446 169 L1446 167 L1445 167 L1445 164 L1444 164 L1444 162 L1443 162 L1443 160 L1442 160 L1442 157 L1441 157 L1441 154 L1440 154 L1440 151 L1439 151 L1439 149 L1438 149 L1438 146 L1437 146 L1437 144 L1436 144 L1436 142 L1435 142 L1435 139 L1434 139 L1434 137 L1433 137 L1433 134 L1432 134 L1432 132 L1431 132 L1431 129 L1430 129 L1430 126 L1429 126 L1429 124 L1428 124 L1428 121 L1427 121 L1427 119 L1426 119 L1426 116 L1425 116 L1425 114 L1424 114 L1424 111 L1423 111 L1423 109 L1422 109 L1422 107 L1421 107 L1421 104 L1420 104 L1420 101 L1419 101 L1419 98 L1418 98 L1418 96 L1417 96 Z M702 326 L705 326 L705 327 L708 327 L708 328 L716 328 L716 329 L719 329 L719 333 L718 333 L718 334 L685 334 L685 333 L687 333 L687 332 L689 332 L689 331 L691 331 L691 330 L694 330 L694 329 L697 329 L697 328 L699 328 L699 327 L702 327 Z M930 328 L932 328 L932 329 L931 329 L931 331 L930 331 L930 332 L929 332 L929 333 L927 333 L927 332 L928 332 L928 331 L927 331 L927 329 L930 329 Z" fill="url(#rahmaOrangeGradient)" fill-rule="evenodd"/>

  <path id="blue" d="M837 195 L843 195 L843 196 L847 196 L847 197 L849 197 L849 198 L850 198 L850 199 L851 199 L851 200 L852 200 L852 201 L853 201 L853 202 L854 202 L854 203 L855 203 L855 205 L856 205 L856 209 L857 209 L857 218 L856 218 L856 225 L855 225 L855 228 L854 228 L854 231 L853 231 L853 233 L852 233 L852 235 L851 235 L851 237 L850 237 L850 240 L849 240 L849 242 L848 242 L848 244 L847 244 L847 247 L846 247 L846 249 L845 249 L845 251 L844 251 L844 253 L843 253 L843 255 L842 255 L842 257 L841 257 L841 259 L840 259 L840 261 L839 261 L839 263 L838 263 L838 265 L837 265 L837 268 L836 268 L836 269 L835 269 L835 271 L834 271 L834 273 L833 273 L833 275 L832 275 L832 277 L831 277 L831 279 L830 279 L830 281 L829 281 L829 283 L828 283 L828 285 L827 285 L827 287 L826 287 L826 289 L825 289 L825 291 L824 291 L824 292 L823 292 L823 294 L822 294 L822 296 L821 296 L821 298 L820 298 L820 300 L819 300 L819 302 L818 302 L818 304 L817 304 L817 306 L816 306 L816 307 L815 307 L815 309 L814 309 L814 311 L813 311 L813 313 L812 313 L812 315 L811 315 L811 317 L810 317 L810 319 L809 319 L809 320 L808 320 L808 322 L807 322 L807 324 L806 324 L806 326 L805 326 L805 328 L804 328 L804 330 L803 330 L803 331 L802 331 L802 333 L801 333 L801 335 L800 335 L800 337 L799 337 L799 338 L798 338 L798 340 L797 340 L797 342 L796 342 L796 343 L795 343 L795 345 L794 345 L794 346 L793 346 L793 348 L792 348 L792 349 L791 349 L791 351 L790 351 L790 353 L789 353 L789 361 L788 361 L788 370 L787 370 L787 380 L786 380 L786 390 L785 390 L785 402 L784 402 L784 417 L783 417 L783 428 L784 428 L784 426 L785 426 L785 424 L786 424 L786 422 L787 422 L787 420 L788 420 L788 418 L789 418 L789 416 L790 416 L790 414 L791 414 L791 412 L792 412 L792 410 L793 410 L793 408 L794 408 L794 406 L795 406 L795 404 L796 404 L796 403 L797 403 L797 401 L798 401 L798 400 L799 400 L799 399 L800 399 L800 398 L804 398 L804 399 L810 399 L810 400 L812 400 L812 401 L813 401 L813 402 L815 402 L815 403 L816 403 L816 405 L817 405 L817 406 L818 406 L818 408 L819 408 L819 410 L820 410 L820 413 L821 413 L821 417 L822 417 L822 421 L823 421 L823 424 L824 424 L824 427 L825 427 L825 428 L826 428 L826 427 L827 427 L827 426 L828 426 L828 425 L829 425 L829 424 L830 424 L830 423 L831 423 L831 422 L832 422 L832 421 L834 421 L834 420 L835 420 L835 419 L836 419 L836 418 L837 418 L837 417 L838 417 L838 416 L839 416 L839 415 L840 415 L840 414 L841 414 L841 413 L842 413 L842 412 L843 412 L843 411 L844 411 L844 410 L845 410 L845 409 L846 409 L846 408 L847 408 L847 407 L848 407 L848 406 L849 406 L849 405 L850 405 L850 403 L851 403 L851 402 L852 402 L852 400 L853 400 L853 398 L854 398 L854 397 L855 397 L855 395 L856 395 L856 393 L857 393 L857 392 L858 392 L858 390 L859 390 L859 389 L860 389 L860 387 L861 387 L861 386 L862 386 L862 385 L863 385 L863 383 L865 383 L865 381 L866 381 L866 380 L867 380 L867 379 L869 379 L869 378 L870 378 L870 377 L872 377 L872 376 L874 376 L874 375 L882 375 L882 376 L885 376 L885 377 L886 377 L886 378 L888 378 L888 379 L889 379 L889 380 L890 380 L890 382 L891 382 L891 383 L892 383 L892 384 L893 384 L893 386 L894 386 L894 390 L895 390 L895 395 L894 395 L894 400 L893 400 L893 403 L892 403 L892 405 L891 405 L891 406 L890 406 L890 409 L889 409 L889 410 L888 410 L888 412 L887 412 L887 414 L886 414 L886 415 L885 415 L885 417 L884 417 L884 418 L883 418 L883 419 L882 419 L882 420 L881 420 L881 421 L880 421 L880 423 L879 423 L879 424 L878 424 L878 425 L877 425 L877 426 L876 426 L876 427 L875 427 L875 428 L874 428 L874 429 L873 429 L873 430 L871 430 L871 431 L870 431 L870 432 L868 432 L868 433 L866 433 L866 434 L863 434 L863 435 L859 435 L859 445 L860 445 L860 447 L864 447 L864 446 L868 446 L868 445 L870 445 L870 444 L872 444 L872 443 L874 443 L874 442 L876 442 L876 441 L878 441 L878 440 L880 440 L880 439 L881 439 L881 438 L883 438 L883 437 L884 437 L884 436 L886 436 L886 435 L887 435 L887 434 L888 434 L888 433 L889 433 L889 432 L891 432 L891 431 L892 431 L892 430 L893 430 L893 429 L894 429 L894 428 L895 428 L895 427 L896 427 L896 426 L898 426 L898 425 L899 425 L899 424 L900 424 L900 423 L901 423 L901 422 L902 422 L902 421 L903 421 L903 420 L904 420 L904 419 L905 419 L905 418 L906 418 L906 417 L907 417 L907 416 L908 416 L908 415 L909 415 L909 413 L910 413 L910 412 L911 412 L911 411 L912 411 L912 410 L913 410 L913 409 L914 409 L914 407 L915 407 L915 406 L916 406 L916 405 L917 405 L917 403 L918 403 L918 402 L919 402 L919 401 L920 401 L920 399 L921 399 L921 398 L919 398 L919 397 L918 397 L918 396 L917 396 L917 395 L915 395 L915 394 L914 394 L914 393 L913 393 L913 391 L912 391 L912 388 L911 388 L911 375 L912 375 L912 369 L913 369 L913 365 L914 365 L914 362 L915 362 L915 359 L916 359 L916 355 L917 355 L917 353 L918 353 L918 351 L919 351 L919 348 L920 348 L920 346 L921 346 L921 344 L922 344 L922 342 L923 342 L923 340 L924 340 L924 338 L925 338 L925 337 L926 337 L926 335 L927 335 L927 334 L928 334 L928 333 L930 333 L930 331 L931 331 L931 330 L932 330 L932 328 L933 328 L933 327 L934 327 L934 326 L936 326 L936 325 L940 325 L940 324 L942 324 L942 325 L948 325 L948 326 L951 326 L951 327 L953 327 L953 328 L955 328 L955 329 L957 329 L957 330 L958 330 L958 331 L959 331 L959 332 L960 332 L960 333 L962 333 L962 334 L963 334 L963 335 L964 335 L964 345 L963 345 L963 348 L962 348 L962 351 L961 351 L961 354 L960 354 L960 357 L959 357 L959 359 L958 359 L958 361 L957 361 L957 364 L956 364 L956 366 L955 366 L955 368 L954 368 L954 370 L953 370 L953 371 L952 371 L952 373 L951 373 L951 375 L950 375 L950 377 L949 377 L949 379 L948 379 L948 380 L947 380 L947 382 L946 382 L946 383 L945 383 L945 385 L944 385 L944 386 L943 386 L943 387 L942 387 L942 388 L941 388 L941 389 L939 389 L939 390 L937 390 L937 391 L936 391 L936 392 L944 392 L944 393 L948 393 L948 394 L950 394 L950 395 L951 395 L951 396 L953 396 L953 397 L954 397 L954 398 L955 398 L955 400 L956 400 L956 401 L957 401 L957 403 L958 403 L958 438 L961 438 L961 437 L962 437 L962 436 L963 436 L963 435 L964 435 L964 434 L966 434 L966 433 L967 433 L967 431 L968 431 L968 430 L969 430 L969 429 L970 429 L970 428 L971 428 L971 427 L972 427 L972 425 L973 425 L973 424 L974 424 L974 423 L975 423 L975 421 L976 421 L976 420 L977 420 L977 418 L978 418 L978 417 L979 417 L979 414 L980 414 L980 411 L981 411 L981 408 L982 408 L982 406 L983 406 L983 404 L984 404 L984 403 L985 403 L985 401 L986 401 L986 400 L987 400 L987 398 L988 398 L988 397 L989 397 L989 396 L990 396 L990 395 L991 395 L991 393 L992 393 L992 392 L993 392 L993 391 L994 391 L994 390 L995 390 L995 389 L996 389 L996 388 L997 388 L997 387 L998 387 L998 386 L999 386 L999 385 L1000 385 L1000 384 L1001 384 L1001 383 L1003 383 L1003 382 L1004 382 L1004 381 L1005 381 L1005 380 L1006 380 L1006 379 L1008 379 L1008 378 L1010 378 L1010 377 L1012 377 L1012 376 L1015 376 L1015 375 L1024 375 L1024 376 L1027 376 L1027 377 L1029 377 L1029 378 L1030 378 L1030 379 L1032 379 L1032 380 L1033 380 L1033 381 L1034 381 L1034 382 L1035 382 L1035 383 L1036 383 L1036 385 L1037 385 L1037 387 L1038 387 L1038 389 L1039 389 L1039 390 L1041 390 L1041 389 L1043 389 L1043 388 L1045 388 L1045 387 L1050 387 L1050 386 L1051 386 L1051 387 L1054 387 L1054 388 L1055 388 L1055 389 L1056 389 L1056 390 L1057 390 L1057 391 L1058 391 L1058 393 L1059 393 L1059 396 L1060 396 L1060 417 L1064 417 L1064 416 L1067 416 L1067 415 L1069 415 L1069 414 L1070 414 L1070 413 L1072 413 L1072 412 L1073 412 L1073 411 L1074 411 L1074 410 L1076 410 L1076 409 L1077 409 L1077 408 L1078 408 L1078 407 L1079 407 L1079 406 L1080 406 L1080 405 L1081 405 L1081 404 L1082 404 L1082 403 L1083 403 L1083 402 L1084 402 L1084 401 L1085 401 L1085 400 L1086 400 L1086 399 L1087 399 L1087 398 L1088 398 L1088 396 L1089 396 L1089 395 L1090 395 L1090 393 L1091 393 L1091 389 L1092 389 L1092 385 L1093 385 L1093 381 L1094 381 L1094 378 L1095 378 L1095 374 L1096 374 L1096 370 L1097 370 L1097 367 L1098 367 L1098 364 L1099 364 L1099 361 L1100 361 L1100 359 L1101 359 L1101 356 L1102 356 L1102 354 L1103 354 L1103 352 L1104 352 L1104 349 L1105 349 L1105 347 L1106 347 L1106 345 L1107 345 L1107 344 L1108 344 L1108 342 L1109 342 L1109 341 L1110 341 L1110 340 L1111 340 L1111 339 L1118 339 L1118 340 L1119 340 L1119 341 L1120 341 L1120 342 L1121 342 L1121 344 L1122 344 L1122 350 L1121 350 L1121 353 L1120 353 L1120 357 L1119 357 L1119 362 L1118 362 L1118 365 L1117 365 L1117 369 L1116 369 L1116 373 L1115 373 L1115 377 L1114 377 L1114 381 L1113 381 L1113 386 L1112 386 L1112 391 L1111 391 L1111 396 L1110 396 L1110 402 L1109 402 L1109 408 L1110 408 L1110 406 L1111 406 L1111 404 L1112 404 L1112 402 L1113 402 L1113 401 L1114 401 L1114 399 L1115 399 L1115 397 L1116 397 L1116 396 L1117 396 L1117 394 L1118 394 L1118 392 L1119 392 L1119 391 L1120 391 L1120 389 L1121 389 L1121 388 L1122 388 L1122 387 L1123 387 L1123 385 L1124 385 L1124 384 L1125 384 L1125 382 L1126 382 L1126 381 L1127 381 L1127 380 L1128 380 L1128 379 L1129 379 L1129 377 L1130 377 L1130 376 L1131 376 L1131 375 L1132 375 L1132 374 L1133 374 L1133 373 L1134 373 L1134 371 L1135 371 L1135 370 L1136 370 L1136 369 L1137 369 L1137 368 L1138 368 L1138 367 L1139 367 L1139 366 L1140 366 L1140 365 L1141 365 L1141 364 L1143 364 L1143 363 L1144 363 L1144 362 L1145 362 L1145 361 L1147 361 L1147 360 L1152 360 L1152 361 L1155 361 L1155 362 L1156 362 L1156 363 L1158 363 L1158 364 L1159 364 L1159 365 L1160 365 L1160 366 L1161 366 L1161 368 L1162 368 L1162 369 L1163 369 L1163 372 L1164 372 L1164 383 L1163 383 L1163 388 L1162 388 L1162 393 L1161 393 L1161 396 L1160 396 L1160 398 L1161 398 L1161 397 L1163 397 L1163 396 L1165 396 L1165 395 L1168 395 L1168 394 L1173 394 L1173 398 L1172 398 L1172 399 L1171 399 L1171 400 L1170 400 L1170 401 L1169 401 L1169 402 L1167 402 L1167 403 L1166 403 L1166 404 L1164 404 L1164 405 L1163 405 L1163 406 L1162 406 L1162 407 L1160 407 L1160 408 L1159 408 L1159 409 L1158 409 L1158 410 L1157 410 L1157 411 L1156 411 L1156 412 L1155 412 L1155 415 L1154 415 L1154 417 L1153 417 L1153 420 L1152 420 L1152 422 L1151 422 L1151 425 L1150 425 L1150 427 L1149 427 L1149 429 L1148 429 L1148 430 L1147 430 L1147 432 L1146 432 L1146 434 L1145 434 L1145 435 L1144 435 L1144 437 L1143 437 L1143 438 L1142 438 L1142 439 L1141 439 L1141 440 L1140 440 L1140 441 L1139 441 L1139 442 L1138 442 L1138 443 L1130 443 L1130 442 L1128 442 L1128 441 L1127 441 L1127 440 L1125 440 L1125 439 L1124 439 L1124 437 L1123 437 L1123 436 L1122 436 L1122 431 L1123 431 L1123 429 L1124 429 L1124 427 L1125 427 L1125 426 L1126 426 L1126 424 L1127 424 L1127 422 L1128 422 L1128 421 L1129 421 L1129 420 L1130 420 L1130 418 L1131 418 L1131 417 L1132 417 L1132 416 L1133 416 L1133 415 L1134 415 L1134 414 L1135 414 L1135 413 L1136 413 L1136 411 L1137 411 L1137 410 L1138 410 L1138 408 L1139 408 L1139 406 L1140 406 L1140 403 L1141 403 L1141 401 L1142 401 L1142 399 L1143 399 L1143 396 L1144 396 L1144 394 L1145 394 L1145 391 L1146 391 L1146 389 L1147 389 L1147 386 L1148 386 L1148 382 L1149 382 L1149 378 L1150 378 L1150 376 L1149 376 L1149 377 L1148 377 L1148 378 L1147 378 L1147 379 L1146 379 L1146 381 L1145 381 L1145 382 L1144 382 L1144 383 L1143 383 L1143 384 L1142 384 L1142 386 L1141 386 L1141 387 L1140 387 L1140 388 L1139 388 L1139 389 L1138 389 L1138 391 L1137 391 L1137 392 L1136 392 L1136 393 L1135 393 L1135 395 L1134 395 L1134 396 L1133 396 L1133 398 L1132 398 L1132 399 L1131 399 L1131 401 L1130 401 L1130 403 L1129 403 L1129 404 L1128 404 L1128 406 L1127 406 L1127 407 L1126 407 L1126 409 L1125 409 L1125 411 L1124 411 L1124 412 L1123 412 L1123 414 L1122 414 L1122 416 L1121 416 L1121 418 L1120 418 L1120 420 L1119 420 L1119 422 L1118 422 L1118 424 L1117 424 L1117 426 L1116 426 L1116 428 L1115 428 L1115 430 L1114 430 L1114 432 L1113 432 L1113 434 L1112 434 L1112 437 L1111 437 L1111 439 L1110 439 L1110 442 L1109 442 L1109 444 L1108 444 L1108 446 L1107 446 L1107 449 L1106 449 L1106 452 L1105 452 L1105 454 L1104 454 L1104 457 L1103 457 L1103 460 L1102 460 L1102 465 L1101 465 L1101 474 L1100 474 L1100 490 L1099 490 L1099 507 L1098 507 L1098 508 L1099 508 L1099 509 L1098 509 L1098 547 L1099 547 L1099 556 L1100 556 L1100 561 L1099 561 L1099 562 L1092 562 L1092 561 L1090 561 L1090 560 L1089 560 L1089 559 L1088 559 L1088 558 L1087 558 L1087 556 L1086 556 L1086 554 L1085 554 L1085 550 L1084 550 L1084 544 L1083 544 L1083 539 L1082 539 L1082 528 L1081 528 L1081 507 L1080 507 L1080 469 L1081 469 L1081 454 L1082 454 L1082 445 L1083 445 L1083 436 L1084 436 L1084 428 L1085 428 L1085 423 L1084 423 L1084 424 L1083 424 L1083 426 L1082 426 L1082 427 L1081 427 L1081 428 L1080 428 L1080 429 L1079 429 L1079 430 L1077 430 L1077 431 L1076 431 L1076 432 L1075 432 L1075 433 L1074 433 L1074 434 L1072 434 L1072 435 L1070 435 L1070 436 L1062 436 L1062 435 L1061 435 L1061 434 L1059 434 L1059 433 L1058 433 L1058 432 L1057 432 L1057 431 L1056 431 L1056 430 L1055 430 L1055 429 L1054 429 L1054 428 L1053 428 L1053 426 L1052 426 L1052 424 L1051 424 L1051 422 L1050 422 L1050 420 L1049 420 L1049 416 L1048 416 L1048 412 L1047 412 L1047 406 L1046 406 L1046 407 L1045 407 L1045 408 L1043 408 L1043 409 L1042 409 L1042 410 L1041 410 L1041 411 L1039 411 L1039 412 L1038 412 L1038 413 L1036 413 L1036 414 L1035 414 L1035 415 L1034 415 L1034 416 L1033 416 L1033 417 L1031 417 L1031 418 L1030 418 L1030 419 L1029 419 L1029 420 L1027 420 L1027 421 L1026 421 L1026 422 L1025 422 L1025 423 L1023 423 L1023 424 L1022 424 L1022 425 L1021 425 L1021 426 L1019 426 L1019 427 L1018 427 L1018 428 L1016 428 L1016 429 L1015 429 L1015 430 L1013 430 L1013 431 L1012 431 L1012 432 L1010 432 L1010 433 L1009 433 L1009 434 L1007 434 L1007 435 L1005 435 L1005 436 L1003 436 L1003 437 L1001 437 L1001 438 L999 438 L999 439 L991 439 L991 438 L989 438 L989 437 L988 437 L988 436 L986 436 L986 435 L985 435 L985 434 L984 434 L984 433 L983 433 L983 431 L982 431 L982 430 L980 430 L980 432 L979 432 L979 433 L978 433 L978 434 L977 434 L977 435 L976 435 L976 437 L975 437 L975 438 L974 438 L974 439 L973 439 L973 440 L972 440 L972 441 L971 441 L971 442 L970 442 L970 443 L969 443 L969 444 L968 444 L968 445 L967 445 L967 446 L966 446 L966 447 L965 447 L965 448 L963 448 L963 449 L961 449 L961 450 L957 450 L957 451 L953 451 L953 450 L948 450 L948 449 L947 449 L947 448 L946 448 L946 447 L945 447 L945 445 L944 445 L944 444 L943 444 L943 441 L942 441 L942 438 L941 438 L941 431 L940 431 L940 412 L939 412 L939 404 L938 404 L938 402 L937 402 L937 403 L934 403 L934 402 L932 402 L932 404 L931 404 L931 406 L930 406 L930 408 L929 408 L929 410 L928 410 L928 412 L927 412 L927 414 L926 414 L926 415 L925 415 L925 417 L924 417 L924 418 L923 418 L923 420 L922 420 L922 421 L921 421 L921 423 L920 423 L920 424 L919 424 L919 425 L918 425 L918 427 L917 427 L917 428 L916 428 L916 429 L915 429 L915 430 L914 430 L914 431 L913 431 L913 433 L912 433 L912 434 L911 434 L911 435 L910 435 L910 436 L909 436 L909 437 L908 437 L908 438 L907 438 L907 439 L906 439 L906 440 L905 440 L905 441 L904 441 L904 442 L903 442 L903 443 L902 443 L902 444 L901 444 L901 445 L900 445 L900 446 L899 446 L899 447 L898 447 L898 448 L897 448 L897 449 L895 449 L895 450 L894 450 L894 451 L893 451 L893 452 L891 452 L891 453 L890 453 L890 454 L888 454 L888 455 L887 455 L887 456 L885 456 L885 457 L883 457 L883 458 L882 458 L882 459 L880 459 L880 460 L877 460 L877 461 L870 461 L870 462 L869 462 L869 461 L864 461 L864 460 L861 460 L861 459 L859 459 L859 458 L857 458 L857 457 L856 457 L856 456 L855 456 L855 455 L853 455 L853 454 L852 454 L852 453 L851 453 L851 452 L850 452 L850 450 L849 450 L849 449 L848 449 L848 448 L847 448 L847 446 L846 446 L846 444 L845 444 L845 442 L844 442 L844 440 L843 440 L843 430 L842 430 L842 431 L841 431 L841 432 L840 432 L840 433 L839 433 L839 434 L838 434 L838 435 L836 435 L836 436 L835 436 L835 437 L834 437 L834 438 L832 438 L832 439 L831 439 L831 440 L822 440 L822 439 L819 439 L819 438 L818 438 L818 437 L816 437 L816 436 L815 436 L815 435 L814 435 L814 434 L813 434 L813 433 L812 433 L812 432 L811 432 L811 430 L810 430 L810 428 L809 428 L809 425 L808 425 L808 421 L807 421 L807 419 L806 419 L806 422 L805 422 L805 424 L804 424 L804 426 L803 426 L803 428 L802 428 L802 430 L801 430 L801 433 L800 433 L800 435 L799 435 L799 438 L798 438 L798 441 L797 441 L797 445 L796 445 L796 448 L795 448 L795 451 L794 451 L794 454 L793 454 L793 457 L792 457 L792 460 L791 460 L791 463 L790 463 L790 466 L789 466 L789 469 L788 469 L788 470 L787 470 L787 472 L784 472 L784 473 L780 473 L780 472 L775 472 L775 471 L773 471 L773 470 L771 470 L771 469 L770 469 L770 468 L769 468 L769 467 L768 467 L768 466 L767 466 L767 465 L766 465 L766 463 L765 463 L765 461 L764 461 L764 454 L763 454 L763 443 L762 443 L762 430 L761 430 L761 428 L762 428 L762 395 L763 395 L763 382 L764 382 L764 373 L765 373 L765 364 L766 364 L766 356 L767 356 L767 350 L768 350 L768 343 L769 343 L769 338 L770 338 L770 333 L771 333 L771 327 L772 327 L772 322 L773 322 L773 318 L747 318 L747 319 L742 319 L742 324 L741 324 L741 328 L740 328 L740 333 L739 333 L739 337 L738 337 L738 342 L737 342 L737 348 L736 348 L736 354 L735 354 L735 360 L734 360 L734 366 L733 366 L733 373 L732 373 L732 381 L731 381 L731 389 L730 389 L730 398 L729 398 L729 411 L728 411 L728 435 L727 435 L727 449 L728 449 L728 469 L729 469 L729 479 L730 479 L730 484 L731 484 L731 489 L732 489 L732 492 L733 492 L733 495 L734 495 L734 497 L735 497 L735 499 L736 499 L736 503 L728 503 L728 502 L726 502 L726 501 L724 501 L724 500 L723 500 L723 499 L722 499 L722 498 L721 498 L721 496 L720 496 L720 495 L719 495 L719 493 L718 493 L718 491 L717 491 L717 488 L716 488 L716 486 L715 486 L715 482 L714 482 L714 478 L713 478 L713 473 L712 473 L712 465 L711 465 L711 446 L710 446 L710 413 L711 413 L711 387 L712 387 L712 373 L713 373 L713 364 L714 364 L714 355 L715 355 L715 349 L716 349 L716 343 L717 343 L717 337 L718 337 L718 334 L719 334 L719 328 L720 328 L720 324 L721 324 L721 322 L718 322 L718 323 L714 323 L714 324 L710 324 L710 325 L707 325 L707 326 L701 326 L701 327 L698 327 L698 328 L695 328 L695 329 L693 329 L693 330 L691 330 L691 331 L688 331 L688 332 L686 332 L686 333 L685 333 L685 334 L684 334 L684 335 L683 335 L683 336 L682 336 L682 339 L679 339 L679 338 L677 338 L677 337 L676 337 L676 336 L675 336 L675 330 L676 330 L676 329 L677 329 L677 327 L679 327 L679 326 L680 326 L680 325 L681 325 L681 324 L683 324 L683 323 L685 323 L685 322 L686 322 L686 321 L689 321 L689 320 L690 320 L690 319 L693 319 L693 318 L695 318 L695 317 L697 317 L697 316 L698 316 L698 315 L701 315 L701 314 L704 314 L704 313 L706 313 L706 312 L710 312 L710 311 L713 311 L713 310 L717 310 L717 309 L721 309 L721 308 L724 308 L724 307 L725 307 L725 305 L726 305 L726 302 L727 302 L727 299 L728 299 L728 296 L729 296 L729 293 L730 293 L730 290 L731 290 L731 287 L732 287 L732 284 L733 284 L733 281 L734 281 L734 278 L735 278 L735 276 L736 276 L736 273 L737 273 L737 271 L738 271 L738 269 L739 269 L739 266 L740 266 L740 264 L741 264 L741 262 L742 262 L742 259 L743 259 L743 257 L744 257 L744 255 L745 255 L745 253 L746 253 L746 251 L747 251 L747 249 L748 249 L748 247 L749 247 L749 245 L750 245 L750 243 L751 243 L751 241 L752 241 L752 240 L753 240 L753 238 L754 238 L754 236 L755 236 L755 235 L756 235 L756 233 L757 233 L757 232 L760 232 L760 233 L764 233 L764 234 L765 234 L765 235 L766 235 L766 236 L767 236 L767 237 L768 237 L768 240 L767 240 L767 243 L766 243 L766 246 L765 246 L765 249 L764 249 L764 252 L763 252 L763 254 L762 254 L762 257 L761 257 L761 260 L760 260 L760 262 L759 262 L759 265 L758 265 L758 268 L757 268 L757 271 L756 271 L756 274 L755 274 L755 277 L754 277 L754 280 L753 280 L753 284 L752 284 L752 287 L751 287 L751 290 L750 290 L750 293 L749 293 L749 296 L748 296 L748 300 L747 300 L747 304 L746 304 L746 305 L757 305 L757 306 L776 306 L776 304 L777 304 L777 301 L778 301 L778 297 L779 297 L779 294 L780 294 L780 290 L781 290 L781 287 L782 287 L782 284 L783 284 L783 280 L784 280 L784 277 L785 277 L785 274 L786 274 L786 272 L787 272 L787 269 L788 269 L788 266 L789 266 L789 264 L790 264 L790 261 L791 261 L791 259 L792 259 L792 256 L793 256 L793 254 L794 254 L794 252 L795 252 L795 249 L796 249 L796 247 L797 247 L797 245 L798 245 L798 243 L799 243 L799 241 L800 241 L800 239 L801 239 L801 237 L802 237 L802 235 L803 235 L803 234 L804 234 L804 232 L805 232 L805 230 L806 230 L806 228 L807 228 L807 227 L808 227 L808 225 L809 225 L809 224 L810 224 L810 222 L811 222 L811 221 L812 221 L812 219 L813 219 L813 217 L814 217 L814 216 L815 216 L815 215 L816 215 L816 214 L817 214 L817 212 L818 212 L818 211 L819 211 L819 210 L820 210 L820 209 L821 209 L821 208 L822 208 L822 206 L823 206 L823 205 L824 205 L824 204 L825 204 L825 203 L826 203 L826 202 L827 202 L827 201 L829 201 L829 200 L830 200 L830 199 L831 199 L831 198 L833 198 L833 197 L834 197 L834 196 L837 196 Z M842 214 L841 214 L841 215 L840 215 L840 216 L839 216 L839 217 L838 217 L838 218 L837 218 L837 219 L836 219 L836 221 L835 221 L835 222 L834 222 L834 223 L833 223 L833 224 L832 224 L832 226 L831 226 L831 227 L830 227 L830 229 L829 229 L829 230 L828 230 L828 232 L827 232 L827 234 L826 234 L826 235 L825 235 L825 237 L824 237 L824 239 L823 239 L823 241 L822 241 L822 243 L821 243 L821 245 L820 245 L820 247 L819 247 L819 249 L818 249 L818 252 L817 252 L817 254 L816 254 L816 256 L815 256 L815 259 L814 259 L814 261 L813 261 L813 263 L812 263 L812 266 L811 266 L811 268 L810 268 L810 271 L809 271 L809 274 L808 274 L808 277 L807 277 L807 280 L806 280 L806 283 L805 283 L805 286 L804 286 L804 289 L803 289 L803 292 L802 292 L802 296 L801 296 L801 300 L800 300 L800 303 L799 303 L799 308 L798 308 L798 310 L799 310 L799 309 L800 309 L800 307 L801 307 L801 305 L802 305 L802 303 L803 303 L803 301 L804 301 L804 299 L805 299 L805 297 L806 297 L806 295 L807 295 L807 293 L808 293 L808 291 L809 291 L809 289 L810 289 L810 287 L811 287 L811 285 L812 285 L812 283 L813 283 L813 280 L814 280 L814 279 L815 279 L815 276 L816 276 L816 274 L817 274 L817 272 L818 272 L818 270 L819 270 L819 268 L820 268 L820 266 L821 266 L821 264 L822 264 L822 262 L823 262 L823 260 L824 260 L824 258 L825 258 L825 256 L826 256 L826 253 L827 253 L827 251 L828 251 L828 250 L829 250 L829 247 L830 247 L830 245 L831 245 L831 243 L832 243 L832 240 L833 240 L833 238 L834 238 L834 236 L835 236 L835 233 L836 233 L836 231 L837 231 L837 228 L838 228 L838 226 L839 226 L839 223 L840 223 L840 220 L841 220 L841 217 L842 217 Z M1264 351 L1267 351 L1267 352 L1271 352 L1271 353 L1274 353 L1274 354 L1276 354 L1276 355 L1277 355 L1277 356 L1278 356 L1278 357 L1280 357 L1280 358 L1281 358 L1281 359 L1282 359 L1282 361 L1283 361 L1283 362 L1284 362 L1284 364 L1285 364 L1285 366 L1286 366 L1286 369 L1287 369 L1287 372 L1288 372 L1288 377 L1289 377 L1289 410 L1288 410 L1288 422 L1287 422 L1287 431 L1286 431 L1286 438 L1285 438 L1285 444 L1284 444 L1284 450 L1283 450 L1283 454 L1282 454 L1282 459 L1281 459 L1281 463 L1280 463 L1280 467 L1279 467 L1279 471 L1278 471 L1278 474 L1277 474 L1277 478 L1276 478 L1276 481 L1275 481 L1275 484 L1274 484 L1274 488 L1273 488 L1273 491 L1272 491 L1272 494 L1271 494 L1271 496 L1270 496 L1270 499 L1269 499 L1269 501 L1268 501 L1268 504 L1267 504 L1267 506 L1266 506 L1266 508 L1265 508 L1265 510 L1264 510 L1264 513 L1263 513 L1263 515 L1262 515 L1262 516 L1261 516 L1261 518 L1260 518 L1260 520 L1259 520 L1259 521 L1258 521 L1258 523 L1257 523 L1257 524 L1256 524 L1256 526 L1255 526 L1255 527 L1254 527 L1254 528 L1253 528 L1253 530 L1251 530 L1251 531 L1250 531 L1250 532 L1249 532 L1249 533 L1248 533 L1248 534 L1247 534 L1247 535 L1246 535 L1246 536 L1244 536 L1244 537 L1242 537 L1242 538 L1240 538 L1240 539 L1238 539 L1238 540 L1232 540 L1232 541 L1231 541 L1231 540 L1223 540 L1223 539 L1221 539 L1221 538 L1219 538 L1219 537 L1217 537 L1217 536 L1216 536 L1216 535 L1215 535 L1215 534 L1214 534 L1214 533 L1213 533 L1213 532 L1212 532 L1212 531 L1211 531 L1211 529 L1210 529 L1210 527 L1209 527 L1209 524 L1208 524 L1208 519 L1207 519 L1207 512 L1208 512 L1208 505 L1209 505 L1209 502 L1210 502 L1210 499 L1211 499 L1211 496 L1212 496 L1212 494 L1213 494 L1213 491 L1214 491 L1214 489 L1215 489 L1215 487 L1216 487 L1216 485 L1217 485 L1217 484 L1218 484 L1218 482 L1219 482 L1219 481 L1220 481 L1220 479 L1221 479 L1221 478 L1222 478 L1222 476 L1223 476 L1223 475 L1224 475 L1224 474 L1225 474 L1225 473 L1226 473 L1226 471 L1227 471 L1227 470 L1228 470 L1228 469 L1229 469 L1229 468 L1230 468 L1230 467 L1231 467 L1231 466 L1232 466 L1232 465 L1233 465 L1233 464 L1234 464 L1234 463 L1235 463 L1235 462 L1236 462 L1236 461 L1237 461 L1237 460 L1238 460 L1238 459 L1239 459 L1239 458 L1240 458 L1240 457 L1241 457 L1241 456 L1242 456 L1242 455 L1243 455 L1243 454 L1244 454 L1244 453 L1245 453 L1245 452 L1246 452 L1246 451 L1247 451 L1247 450 L1248 450 L1248 449 L1250 449 L1250 448 L1251 448 L1251 447 L1252 447 L1252 446 L1253 446 L1253 445 L1255 445 L1255 444 L1256 444 L1256 443 L1257 443 L1257 442 L1258 442 L1258 441 L1260 441 L1260 440 L1261 440 L1261 439 L1263 439 L1263 438 L1264 438 L1264 437 L1266 437 L1266 436 L1267 436 L1267 435 L1269 435 L1269 431 L1270 431 L1270 423 L1271 423 L1271 416 L1272 416 L1272 409 L1273 409 L1273 392 L1274 392 L1274 377 L1273 377 L1273 365 L1272 365 L1272 363 L1271 363 L1271 364 L1270 364 L1270 365 L1269 365 L1269 366 L1268 366 L1268 367 L1267 367 L1267 368 L1266 368 L1266 369 L1265 369 L1265 371 L1264 371 L1264 372 L1263 372 L1263 374 L1262 374 L1262 375 L1261 375 L1261 377 L1260 377 L1260 378 L1259 378 L1259 379 L1258 379 L1258 381 L1257 381 L1257 382 L1256 382 L1256 383 L1255 383 L1255 385 L1254 385 L1254 387 L1253 387 L1253 388 L1252 388 L1252 390 L1251 390 L1251 391 L1250 391 L1250 393 L1249 393 L1249 394 L1248 394 L1248 396 L1247 396 L1247 397 L1246 397 L1246 399 L1245 399 L1245 400 L1244 400 L1244 402 L1243 402 L1243 403 L1242 403 L1242 405 L1241 405 L1241 406 L1240 406 L1240 408 L1239 408 L1239 410 L1238 410 L1238 411 L1237 411 L1237 412 L1236 412 L1236 414 L1235 414 L1235 415 L1234 415 L1234 417 L1233 417 L1233 418 L1232 418 L1232 420 L1231 420 L1231 421 L1230 421 L1230 422 L1229 422 L1229 424 L1228 424 L1228 425 L1227 425 L1227 426 L1226 426 L1226 428 L1225 428 L1225 429 L1224 429 L1224 430 L1223 430 L1223 431 L1222 431 L1222 432 L1221 432 L1221 433 L1220 433 L1220 435 L1218 435 L1218 437 L1216 437 L1216 438 L1215 438 L1215 439 L1214 439 L1214 440 L1213 440 L1213 441 L1212 441 L1212 442 L1211 442 L1211 443 L1209 443 L1209 444 L1207 444 L1207 445 L1196 445 L1196 444 L1193 444 L1193 443 L1191 443 L1191 442 L1189 442 L1189 441 L1188 441 L1188 440 L1187 440 L1187 439 L1186 439 L1186 438 L1185 438 L1185 437 L1184 437 L1184 436 L1183 436 L1183 434 L1182 434 L1182 432 L1181 432 L1181 428 L1180 428 L1180 412 L1181 412 L1181 406 L1182 406 L1182 402 L1183 402 L1183 397 L1184 397 L1184 394 L1185 394 L1185 391 L1186 391 L1186 388 L1187 388 L1187 385 L1188 385 L1188 383 L1189 383 L1189 381 L1190 381 L1190 379 L1191 379 L1191 378 L1192 378 L1192 377 L1193 377 L1193 376 L1195 376 L1195 375 L1197 375 L1197 376 L1200 376 L1200 377 L1201 377 L1201 378 L1203 378 L1203 384 L1202 384 L1202 390 L1201 390 L1201 396 L1200 396 L1200 402 L1199 402 L1199 409 L1198 409 L1198 429 L1199 429 L1199 428 L1200 428 L1200 427 L1201 427 L1201 426 L1202 426 L1202 424 L1203 424 L1203 423 L1204 423 L1204 422 L1205 422 L1205 421 L1206 421 L1206 420 L1207 420 L1207 419 L1208 419 L1208 417 L1209 417 L1209 416 L1210 416 L1210 415 L1211 415 L1211 413 L1212 413 L1212 412 L1213 412 L1213 411 L1214 411 L1214 410 L1215 410 L1215 408 L1216 408 L1216 407 L1217 407 L1217 406 L1218 406 L1218 404 L1219 404 L1219 403 L1220 403 L1220 401 L1221 401 L1221 400 L1222 400 L1222 398 L1223 398 L1223 397 L1224 397 L1224 396 L1225 396 L1225 394 L1226 394 L1226 393 L1227 393 L1227 391 L1228 391 L1228 390 L1229 390 L1229 388 L1230 388 L1230 387 L1231 387 L1231 385 L1232 385 L1232 384 L1233 384 L1233 382 L1234 382 L1234 381 L1235 381 L1235 380 L1236 380 L1236 378 L1237 378 L1237 377 L1238 377 L1238 375 L1239 375 L1239 374 L1240 374 L1240 372 L1241 372 L1241 371 L1242 371 L1242 370 L1243 370 L1243 368 L1244 368 L1244 367 L1245 367 L1245 366 L1246 366 L1246 365 L1247 365 L1247 363 L1248 363 L1248 362 L1249 362 L1249 361 L1250 361 L1250 360 L1251 360 L1251 359 L1252 359 L1252 358 L1253 358 L1253 357 L1254 357 L1254 356 L1255 356 L1255 355 L1256 355 L1256 354 L1258 354 L1258 353 L1260 353 L1260 352 L1264 352 Z M932 369 L931 369 L931 372 L930 372 L930 377 L929 377 L929 382 L930 382 L930 379 L931 379 L931 374 L932 374 Z M880 389 L880 390 L879 390 L879 392 L878 392 L878 393 L877 393 L877 394 L876 394 L876 396 L875 396 L875 397 L874 397 L874 399 L873 399 L873 400 L872 400 L872 402 L871 402 L871 403 L870 403 L870 405 L869 405 L869 407 L868 407 L868 409 L867 409 L867 411 L866 411 L866 414 L865 414 L865 416 L864 416 L864 418 L865 418 L865 417 L866 417 L866 416 L867 416 L867 415 L868 415 L868 413 L869 413 L869 412 L870 412 L870 411 L871 411 L871 410 L872 410 L872 408 L873 408 L873 407 L874 407 L874 405 L875 405 L875 404 L876 404 L876 402 L877 402 L877 400 L878 400 L878 398 L879 398 L879 396 L880 396 L880 394 L881 394 L881 391 L882 391 L882 389 Z M1023 391 L1023 392 L1020 392 L1020 393 L1018 393 L1018 394 L1017 394 L1017 395 L1015 395 L1015 396 L1014 396 L1014 397 L1013 397 L1013 398 L1012 398 L1012 399 L1011 399 L1011 400 L1010 400 L1010 401 L1009 401 L1009 402 L1008 402 L1008 403 L1007 403 L1007 404 L1006 404 L1006 405 L1005 405 L1005 406 L1004 406 L1004 407 L1003 407 L1003 409 L1002 409 L1002 410 L1001 410 L1001 412 L1000 412 L1000 413 L999 413 L999 415 L998 415 L998 416 L1000 416 L1000 415 L1002 415 L1002 414 L1003 414 L1003 413 L1005 413 L1005 412 L1006 412 L1006 411 L1008 411 L1008 410 L1010 410 L1010 409 L1011 409 L1011 408 L1013 408 L1013 407 L1015 407 L1015 406 L1016 406 L1016 405 L1018 405 L1018 404 L1019 404 L1019 403 L1021 403 L1021 402 L1023 402 L1023 401 L1024 401 L1024 400 L1026 400 L1026 399 L1027 399 L1027 398 L1029 398 L1029 397 L1030 397 L1030 396 L1032 396 L1032 395 L1033 395 L1033 392 L1032 392 L1032 391 Z M954 410 L953 410 L953 420 L954 420 Z M1266 446 L1265 446 L1265 447 L1264 447 L1264 448 L1263 448 L1263 449 L1262 449 L1262 450 L1261 450 L1261 451 L1260 451 L1260 452 L1258 452 L1258 453 L1257 453 L1257 454 L1256 454 L1256 455 L1255 455 L1255 456 L1254 456 L1254 457 L1253 457 L1253 458 L1252 458 L1252 459 L1251 459 L1251 460 L1250 460 L1250 461 L1249 461 L1249 462 L1248 462 L1248 463 L1247 463 L1247 464 L1246 464 L1246 465 L1245 465 L1245 467 L1244 467 L1244 468 L1243 468 L1243 469 L1242 469 L1242 470 L1241 470 L1241 471 L1240 471 L1240 473 L1239 473 L1239 474 L1238 474 L1238 475 L1237 475 L1237 477 L1236 477 L1236 478 L1235 478 L1235 480 L1234 480 L1234 481 L1233 481 L1233 483 L1232 483 L1232 485 L1231 485 L1231 487 L1230 487 L1230 489 L1229 489 L1229 491 L1228 491 L1228 493 L1227 493 L1227 495 L1226 495 L1226 497 L1225 497 L1225 500 L1224 500 L1224 503 L1223 503 L1223 507 L1222 507 L1222 525 L1223 525 L1223 528 L1224 528 L1224 530 L1225 530 L1225 532 L1226 532 L1226 533 L1229 533 L1229 532 L1231 532 L1231 531 L1232 531 L1232 530 L1233 530 L1233 529 L1234 529 L1234 528 L1235 528 L1235 527 L1236 527 L1236 526 L1237 526 L1237 525 L1238 525 L1238 523 L1239 523 L1239 522 L1240 522 L1240 520 L1241 520 L1241 519 L1242 519 L1242 517 L1243 517 L1243 515 L1244 515 L1244 513 L1245 513 L1245 511 L1246 511 L1246 509 L1247 509 L1247 507 L1248 507 L1248 505 L1249 505 L1249 502 L1250 502 L1250 500 L1251 500 L1251 497 L1252 497 L1252 495 L1253 495 L1253 492 L1254 492 L1254 489 L1255 489 L1255 486 L1256 486 L1256 483 L1257 483 L1257 481 L1258 481 L1258 477 L1259 477 L1259 474 L1260 474 L1260 470 L1261 470 L1261 467 L1262 467 L1262 463 L1263 463 L1263 459 L1264 459 L1264 455 L1265 455 L1265 451 L1266 451 Z M1095 484 L1094 484 L1094 491 L1095 491 Z" fill="#127ebe" fill-rule="evenodd"/>
</svg>
