<svg xmlns="http://www.w3.org/2000/svg" width="1600" height="587" viewBox="0 0 1600 587" role="img" aria-labelledby="title desc">
  <title id="title">Rahma Therapy no-tagline vector trace monochrome logo</title>
  <desc id="desc">One-colour automated vector trace without the service-line text.</desc>
  <path id="logo" d="M481 33 L487 33 L487 34 L488 34 L488 35 L489 35 L489 38 L490 38 L490 40 L491 40 L491 43 L492 43 L492 45 L493 45 L493 47 L494 47 L494 50 L495 50 L495 53 L496 53 L496 55 L497 55 L497 58 L498 58 L498 60 L499 60 L499 63 L500 63 L500 65 L501 65 L501 68 L502 68 L502 70 L503 70 L503 72 L504 72 L504 75 L505 75 L505 78 L506 78 L506 80 L507 80 L507 83 L508 83 L508 85 L509 85 L509 87 L510 87 L510 90 L511 90 L511 92 L512 92 L512 95 L513 95 L513 97 L514 97 L514 100 L515 100 L515 102 L516 102 L516 105 L517 105 L517 107 L518 107 L518 110 L519 110 L519 112 L520 112 L520 115 L521 115 L521 117 L522 117 L522 119 L523 119 L523 122 L524 122 L524 124 L525 124 L525 127 L526 127 L526 130 L527 130 L527 132 L528 132 L528 135 L529 135 L529 137 L530 137 L530 139 L531 139 L531 142 L532 142 L532 144 L533 144 L533 147 L534 147 L534 149 L535 149 L535 152 L536 152 L536 155 L537 155 L537 157 L538 157 L538 159 L539 159 L539 162 L540 162 L540 164 L541 164 L541 167 L542 167 L542 169 L543 169 L543 171 L544 171 L544 174 L545 174 L545 177 L546 177 L546 179 L547 179 L547 182 L548 182 L548 184 L549 184 L549 187 L550 187 L550 189 L551 189 L551 191 L552 191 L552 194 L553 194 L553 196 L554 196 L554 199 L555 199 L555 201 L556 201 L556 204 L557 204 L557 207 L558 207 L558 209 L559 209 L559 211 L560 211 L560 214 L561 214 L561 216 L562 216 L562 218 L563 218 L563 221 L564 221 L564 224 L565 224 L565 226 L566 226 L566 229 L567 229 L567 231 L568 231 L568 234 L569 234 L569 236 L570 236 L570 238 L571 238 L571 241 L572 241 L572 243 L573 243 L573 246 L574 246 L574 248 L575 248 L575 251 L576 251 L576 254 L577 254 L577 256 L578 256 L578 258 L579 258 L579 261 L580 261 L580 263 L581 263 L581 266 L582 266 L582 268 L583 268 L583 270 L584 270 L584 273 L585 273 L585 276 L586 276 L586 278 L587 278 L587 281 L588 281 L588 283 L589 283 L589 286 L590 286 L590 288 L591 288 L591 290 L592 290 L592 293 L593 293 L593 296 L594 296 L594 299 L595 299 L595 301 L596 301 L596 303 L597 303 L597 306 L598 306 L598 308 L599 308 L599 310 L600 310 L600 312 L601 312 L601 314 L602 314 L602 316 L603 316 L603 317 L604 317 L604 319 L605 319 L605 320 L606 320 L606 321 L607 321 L607 322 L608 322 L608 323 L609 323 L609 324 L610 324 L610 325 L612 325 L612 326 L615 326 L615 327 L618 327 L618 328 L625 328 L625 329 L626 329 L626 331 L625 331 L625 333 L626 333 L626 334 L555 334 L555 335 L554 335 L554 328 L560 328 L560 327 L562 327 L562 326 L563 326 L563 318 L562 318 L562 314 L561 314 L561 311 L560 311 L560 309 L559 309 L559 307 L558 307 L558 304 L557 304 L557 302 L556 302 L556 299 L555 299 L555 297 L554 297 L554 294 L553 294 L553 292 L552 292 L552 289 L551 289 L551 287 L550 287 L550 285 L549 285 L549 282 L548 282 L548 279 L547 279 L547 277 L546 277 L546 274 L545 274 L545 272 L544 272 L544 269 L543 269 L543 267 L542 267 L542 265 L541 265 L541 262 L540 262 L540 260 L539 260 L539 257 L538 257 L538 255 L537 255 L537 252 L536 252 L536 249 L535 249 L535 247 L534 247 L534 245 L533 245 L533 242 L532 242 L532 240 L531 240 L531 237 L530 237 L530 235 L529 235 L529 232 L528 232 L528 230 L527 230 L527 227 L526 227 L526 224 L525 224 L525 222 L524 222 L524 220 L523 220 L523 217 L522 217 L522 215 L521 215 L521 212 L520 212 L520 210 L519 210 L519 207 L518 207 L518 205 L517 205 L517 202 L516 202 L516 200 L515 200 L515 199 L431 199 L431 201 L430 201 L430 203 L429 203 L429 206 L428 206 L428 208 L427 208 L427 211 L426 211 L426 213 L425 213 L425 216 L424 216 L424 218 L423 218 L423 221 L422 221 L422 223 L421 223 L421 226 L420 226 L420 228 L419 228 L419 230 L418 230 L418 233 L417 233 L417 235 L416 235 L416 238 L415 238 L415 241 L414 241 L414 243 L413 243 L413 246 L412 246 L412 248 L411 248 L411 251 L410 251 L410 253 L409 253 L409 256 L408 256 L408 258 L407 258 L407 260 L406 260 L406 263 L405 263 L405 265 L404 265 L404 268 L403 268 L403 271 L402 271 L402 273 L401 273 L401 276 L400 276 L400 278 L399 278 L399 280 L398 280 L398 283 L397 283 L397 285 L396 285 L396 288 L395 288 L395 291 L394 291 L394 293 L393 293 L393 296 L392 296 L392 298 L391 298 L391 301 L390 301 L390 303 L389 303 L389 306 L388 306 L388 308 L387 308 L387 310 L386 310 L386 313 L385 313 L385 316 L384 316 L384 319 L383 319 L383 326 L384 326 L384 327 L386 327 L386 328 L392 328 L392 329 L393 329 L393 332 L392 332 L392 333 L393 333 L393 334 L345 334 L345 333 L346 333 L346 328 L354 328 L354 327 L357 327 L357 326 L359 326 L359 325 L361 325 L361 324 L362 324 L362 323 L363 323 L363 322 L364 322 L364 321 L365 321 L365 319 L366 319 L366 318 L367 318 L367 316 L368 316 L368 314 L369 314 L369 312 L370 312 L370 310 L371 310 L371 308 L372 308 L372 306 L373 306 L373 304 L374 304 L374 301 L375 301 L375 298 L376 298 L376 296 L377 296 L377 293 L378 293 L378 291 L379 291 L379 288 L380 288 L380 286 L381 286 L381 283 L382 283 L382 281 L383 281 L383 278 L384 278 L384 276 L385 276 L385 273 L386 273 L386 270 L387 270 L387 268 L388 268 L388 265 L389 265 L389 263 L390 263 L390 260 L391 260 L391 258 L392 258 L392 256 L393 256 L393 253 L394 253 L394 251 L395 251 L395 248 L396 248 L396 245 L397 245 L397 243 L398 243 L398 240 L399 240 L399 238 L400 238 L400 235 L401 235 L401 233 L402 233 L402 230 L403 230 L403 228 L404 228 L404 226 L405 226 L405 223 L406 223 L406 220 L407 220 L407 217 L408 217 L408 215 L409 215 L409 212 L410 212 L410 210 L411 210 L411 207 L412 207 L412 205 L413 205 L413 203 L414 203 L414 200 L415 200 L415 197 L416 197 L416 195 L417 195 L417 192 L418 192 L418 190 L419 190 L419 187 L420 187 L420 185 L421 185 L421 182 L422 182 L422 180 L423 180 L423 177 L424 177 L424 175 L425 175 L425 172 L426 172 L426 170 L427 170 L427 167 L428 167 L428 164 L429 164 L429 162 L430 162 L430 159 L431 159 L431 157 L432 157 L432 155 L433 155 L433 152 L434 152 L434 149 L435 149 L435 147 L436 147 L436 144 L437 144 L437 142 L438 142 L438 139 L439 139 L439 137 L440 137 L440 134 L441 134 L441 132 L442 132 L442 129 L443 129 L443 127 L444 127 L444 124 L445 124 L445 122 L446 122 L446 119 L447 119 L447 117 L448 117 L448 114 L449 114 L449 111 L450 111 L450 109 L451 109 L451 107 L452 107 L452 104 L453 104 L453 102 L454 102 L454 99 L455 99 L455 97 L456 97 L456 94 L457 94 L457 91 L458 91 L458 89 L459 89 L459 86 L460 86 L460 84 L461 84 L461 81 L462 81 L462 79 L463 79 L463 76 L464 76 L464 74 L465 74 L465 71 L466 71 L466 69 L467 69 L467 66 L468 66 L468 64 L469 64 L469 61 L470 61 L470 58 L471 58 L471 56 L472 56 L472 54 L473 54 L473 51 L474 51 L474 49 L475 49 L475 46 L476 46 L476 44 L477 44 L477 41 L478 41 L478 38 L479 38 L479 36 L480 36 L480 34 L481 34 Z M1425 33 L1431 33 L1431 34 L1432 34 L1432 36 L1433 36 L1433 39 L1434 39 L1434 41 L1435 41 L1435 44 L1436 44 L1436 46 L1437 46 L1437 49 L1438 49 L1438 51 L1439 51 L1439 54 L1440 54 L1440 56 L1441 56 L1441 59 L1442 59 L1442 61 L1443 61 L1443 63 L1444 63 L1444 66 L1445 66 L1445 68 L1446 68 L1446 71 L1447 71 L1447 74 L1448 74 L1448 76 L1449 76 L1449 79 L1450 79 L1450 81 L1451 81 L1451 83 L1452 83 L1452 86 L1453 86 L1453 88 L1454 88 L1454 91 L1455 91 L1455 93 L1456 93 L1456 96 L1457 96 L1457 98 L1458 98 L1458 101 L1459 101 L1459 104 L1460 104 L1460 106 L1461 106 L1461 108 L1462 108 L1462 111 L1463 111 L1463 113 L1464 113 L1464 116 L1465 116 L1465 118 L1466 118 L1466 120 L1467 120 L1467 123 L1468 123 L1468 126 L1469 126 L1469 128 L1470 128 L1470 131 L1471 131 L1471 133 L1472 133 L1472 135 L1473 135 L1473 138 L1474 138 L1474 140 L1475 140 L1475 143 L1476 143 L1476 145 L1477 145 L1477 148 L1478 148 L1478 150 L1479 150 L1479 153 L1480 153 L1480 155 L1481 155 L1481 158 L1482 158 L1482 160 L1483 160 L1483 163 L1484 163 L1484 165 L1485 165 L1485 167 L1486 167 L1486 170 L1487 170 L1487 173 L1488 173 L1488 175 L1489 175 L1489 178 L1490 178 L1490 180 L1491 180 L1491 183 L1492 183 L1492 185 L1493 185 L1493 187 L1494 187 L1494 190 L1495 190 L1495 192 L1496 192 L1496 195 L1497 195 L1497 197 L1498 197 L1498 200 L1499 200 L1499 203 L1500 203 L1500 205 L1501 205 L1501 207 L1502 207 L1502 210 L1503 210 L1503 212 L1504 212 L1504 215 L1505 215 L1505 217 L1506 217 L1506 219 L1507 219 L1507 222 L1508 222 L1508 225 L1509 225 L1509 227 L1510 227 L1510 230 L1511 230 L1511 232 L1512 232 L1512 235 L1513 235 L1513 237 L1514 237 L1514 239 L1515 239 L1515 242 L1516 242 L1516 244 L1517 244 L1517 247 L1518 247 L1518 250 L1519 250 L1519 252 L1520 252 L1520 255 L1521 255 L1521 257 L1522 257 L1522 259 L1523 259 L1523 262 L1524 262 L1524 264 L1525 264 L1525 266 L1526 266 L1526 269 L1527 269 L1527 272 L1528 272 L1528 274 L1529 274 L1529 277 L1530 277 L1530 279 L1531 279 L1531 282 L1532 282 L1532 284 L1533 284 L1533 287 L1534 287 L1534 289 L1535 289 L1535 291 L1536 291 L1536 294 L1537 294 L1537 297 L1538 297 L1538 300 L1539 300 L1539 302 L1540 302 L1540 304 L1541 304 L1541 306 L1542 306 L1542 308 L1543 308 L1543 310 L1544 310 L1544 312 L1545 312 L1545 314 L1546 314 L1546 316 L1547 316 L1547 318 L1548 318 L1548 319 L1549 319 L1549 320 L1550 320 L1550 321 L1551 321 L1551 322 L1552 322 L1552 323 L1553 323 L1553 324 L1554 324 L1554 325 L1556 325 L1556 326 L1558 326 L1558 327 L1561 327 L1561 328 L1568 328 L1568 329 L1569 329 L1569 334 L1498 334 L1498 328 L1504 328 L1504 327 L1505 327 L1505 326 L1506 326 L1506 325 L1507 325 L1507 319 L1506 319 L1506 315 L1505 315 L1505 313 L1504 313 L1504 310 L1503 310 L1503 307 L1502 307 L1502 306 L1501 306 L1501 303 L1500 303 L1500 300 L1499 300 L1499 297 L1498 297 L1498 295 L1497 295 L1497 292 L1496 292 L1496 290 L1495 290 L1495 288 L1494 288 L1494 285 L1493 285 L1493 283 L1492 283 L1492 281 L1491 281 L1491 278 L1490 278 L1490 275 L1489 275 L1489 273 L1488 273 L1488 270 L1487 270 L1487 268 L1486 268 L1486 265 L1485 265 L1485 263 L1484 263 L1484 260 L1483 260 L1483 258 L1482 258 L1482 256 L1481 256 L1481 253 L1480 253 L1480 250 L1479 250 L1479 248 L1478 248 L1478 245 L1477 245 L1477 243 L1476 243 L1476 240 L1475 240 L1475 238 L1474 238 L1474 236 L1473 236 L1473 233 L1472 233 L1472 231 L1471 231 L1471 229 L1470 229 L1470 226 L1469 226 L1469 223 L1468 223 L1468 220 L1467 220 L1467 218 L1466 218 L1466 216 L1465 216 L1465 213 L1464 213 L1464 211 L1463 211 L1463 209 L1462 209 L1462 206 L1461 206 L1461 204 L1460 204 L1460 201 L1459 201 L1459 199 L1375 199 L1375 200 L1374 200 L1374 202 L1373 202 L1373 205 L1372 205 L1372 207 L1371 207 L1371 210 L1370 210 L1370 212 L1369 212 L1369 215 L1368 215 L1368 217 L1367 217 L1367 220 L1366 220 L1366 222 L1365 222 L1365 225 L1364 225 L1364 227 L1363 227 L1363 230 L1362 230 L1362 232 L1361 232 L1361 235 L1360 235 L1360 237 L1359 237 L1359 239 L1358 239 L1358 242 L1357 242 L1357 244 L1356 244 L1356 247 L1355 247 L1355 250 L1354 250 L1354 253 L1353 253 L1353 255 L1352 255 L1352 257 L1351 257 L1351 260 L1350 260 L1350 262 L1349 262 L1349 264 L1348 264 L1348 267 L1347 267 L1347 270 L1346 270 L1346 272 L1345 272 L1345 275 L1344 275 L1344 277 L1343 277 L1343 280 L1342 280 L1342 282 L1341 282 L1341 285 L1340 285 L1340 287 L1339 287 L1339 289 L1338 289 L1338 292 L1337 292 L1337 294 L1336 294 L1336 297 L1335 297 L1335 300 L1334 300 L1334 302 L1333 302 L1333 305 L1332 305 L1332 307 L1331 307 L1331 310 L1330 310 L1330 312 L1329 312 L1329 315 L1328 315 L1328 317 L1327 317 L1327 321 L1326 321 L1326 325 L1327 325 L1327 327 L1329 327 L1329 328 L1335 328 L1335 329 L1336 329 L1336 334 L1220 334 L1220 329 L1221 329 L1221 328 L1228 328 L1228 327 L1230 327 L1230 326 L1231 326 L1231 325 L1232 325 L1232 323 L1233 323 L1233 307 L1232 307 L1232 300 L1231 300 L1231 294 L1230 294 L1230 287 L1229 287 L1229 280 L1228 280 L1228 272 L1227 272 L1227 265 L1226 265 L1226 256 L1225 256 L1225 249 L1224 249 L1224 242 L1223 242 L1223 235 L1222 235 L1222 229 L1221 229 L1221 222 L1220 222 L1220 215 L1219 215 L1219 208 L1218 208 L1218 201 L1217 201 L1217 193 L1216 193 L1216 185 L1215 185 L1215 178 L1214 178 L1214 171 L1213 171 L1213 164 L1212 164 L1212 157 L1211 157 L1211 151 L1210 151 L1210 143 L1209 143 L1209 137 L1208 137 L1208 130 L1207 130 L1207 122 L1206 122 L1206 113 L1205 113 L1205 106 L1204 106 L1204 99 L1203 99 L1203 96 L1202 96 L1202 99 L1201 99 L1201 101 L1200 101 L1200 103 L1199 103 L1199 105 L1198 105 L1198 108 L1197 108 L1197 110 L1196 110 L1196 112 L1195 112 L1195 115 L1194 115 L1194 117 L1193 117 L1193 120 L1192 120 L1192 122 L1191 122 L1191 124 L1190 124 L1190 126 L1189 126 L1189 129 L1188 129 L1188 131 L1187 131 L1187 133 L1186 133 L1186 135 L1185 135 L1185 138 L1184 138 L1184 140 L1183 140 L1183 143 L1182 143 L1182 145 L1181 145 L1181 147 L1180 147 L1180 149 L1179 149 L1179 152 L1178 152 L1178 154 L1177 154 L1177 156 L1176 156 L1176 158 L1175 158 L1175 161 L1174 161 L1174 163 L1173 163 L1173 166 L1172 166 L1172 168 L1171 168 L1171 170 L1170 170 L1170 173 L1169 173 L1169 175 L1168 175 L1168 177 L1167 177 L1167 179 L1166 179 L1166 182 L1165 182 L1165 184 L1164 184 L1164 186 L1163 186 L1163 189 L1162 189 L1162 191 L1161 191 L1161 193 L1160 193 L1160 196 L1159 196 L1159 198 L1158 198 L1158 200 L1157 200 L1157 202 L1156 202 L1156 205 L1155 205 L1155 207 L1154 207 L1154 210 L1153 210 L1153 212 L1152 212 L1152 214 L1151 214 L1151 217 L1150 217 L1150 219 L1149 219 L1149 221 L1148 221 L1148 223 L1147 223 L1147 226 L1146 226 L1146 228 L1145 228 L1145 230 L1144 230 L1144 233 L1143 233 L1143 235 L1142 235 L1142 237 L1141 237 L1141 240 L1140 240 L1140 242 L1139 242 L1139 244 L1138 244 L1138 246 L1137 246 L1137 248 L1136 248 L1136 251 L1135 251 L1135 253 L1134 253 L1134 255 L1133 255 L1133 258 L1132 258 L1132 261 L1131 261 L1131 263 L1130 263 L1130 265 L1129 265 L1129 267 L1128 267 L1128 269 L1127 269 L1127 272 L1126 272 L1126 274 L1125 274 L1125 277 L1124 277 L1124 279 L1123 279 L1123 281 L1122 281 L1122 284 L1121 284 L1121 286 L1120 286 L1120 288 L1119 288 L1119 290 L1118 290 L1118 292 L1117 292 L1117 295 L1116 295 L1116 297 L1115 297 L1115 299 L1114 299 L1114 302 L1113 302 L1113 304 L1112 304 L1112 306 L1111 306 L1111 309 L1110 309 L1110 311 L1109 311 L1109 313 L1108 313 L1108 316 L1107 316 L1107 318 L1106 318 L1106 320 L1105 320 L1105 322 L1104 322 L1104 325 L1103 325 L1103 327 L1102 327 L1102 330 L1101 330 L1101 332 L1100 332 L1100 334 L1095 334 L1095 332 L1094 332 L1094 330 L1093 330 L1093 328 L1092 328 L1092 325 L1091 325 L1091 323 L1090 323 L1090 321 L1089 321 L1089 319 L1088 319 L1088 316 L1087 316 L1087 314 L1086 314 L1086 312 L1085 312 L1085 309 L1084 309 L1084 307 L1083 307 L1083 304 L1082 304 L1082 302 L1081 302 L1081 300 L1080 300 L1080 298 L1079 298 L1079 295 L1078 295 L1078 293 L1077 293 L1077 291 L1076 291 L1076 289 L1075 289 L1075 286 L1074 286 L1074 284 L1073 284 L1073 281 L1072 281 L1072 279 L1071 279 L1071 277 L1070 277 L1070 275 L1069 275 L1069 273 L1068 273 L1068 270 L1067 270 L1067 268 L1066 268 L1066 266 L1065 266 L1065 263 L1064 263 L1064 261 L1063 261 L1063 258 L1062 258 L1062 256 L1061 256 L1061 254 L1060 254 L1060 252 L1059 252 L1059 250 L1058 250 L1058 248 L1057 248 L1057 245 L1056 245 L1056 243 L1055 243 L1055 241 L1054 241 L1054 238 L1053 238 L1053 236 L1052 236 L1052 233 L1051 233 L1051 231 L1050 231 L1050 229 L1049 229 L1049 227 L1048 227 L1048 224 L1047 224 L1047 222 L1046 222 L1046 220 L1045 220 L1045 217 L1044 217 L1044 215 L1043 215 L1043 213 L1042 213 L1042 210 L1041 210 L1041 208 L1040 208 L1040 206 L1039 206 L1039 204 L1038 204 L1038 202 L1037 202 L1037 199 L1036 199 L1036 197 L1035 197 L1035 195 L1034 195 L1034 192 L1033 192 L1033 190 L1032 190 L1032 188 L1031 188 L1031 185 L1030 185 L1030 183 L1029 183 L1029 181 L1028 181 L1028 179 L1027 179 L1027 176 L1026 176 L1026 174 L1025 174 L1025 172 L1024 172 L1024 169 L1023 169 L1023 167 L1022 167 L1022 165 L1021 165 L1021 162 L1020 162 L1020 160 L1019 160 L1019 158 L1018 158 L1018 156 L1017 156 L1017 153 L1016 153 L1016 151 L1015 151 L1015 149 L1014 149 L1014 146 L1013 146 L1013 144 L1012 144 L1012 142 L1011 142 L1011 139 L1010 139 L1010 137 L1009 137 L1009 135 L1008 135 L1008 133 L1007 133 L1007 131 L1006 131 L1006 128 L1005 128 L1005 126 L1004 126 L1004 124 L1003 124 L1003 121 L1002 121 L1002 119 L1001 119 L1001 117 L1000 117 L1000 114 L999 114 L999 112 L998 112 L998 110 L997 110 L997 108 L996 108 L996 105 L995 105 L995 103 L994 103 L994 101 L993 101 L993 98 L992 98 L992 96 L991 96 L991 103 L990 103 L990 111 L989 111 L989 118 L988 118 L988 125 L987 125 L987 132 L986 132 L986 139 L985 139 L985 146 L984 146 L984 153 L983 153 L983 160 L982 160 L982 168 L981 168 L981 176 L980 176 L980 184 L979 184 L979 191 L978 191 L978 198 L977 198 L977 205 L976 205 L976 212 L975 212 L975 219 L974 219 L974 226 L973 226 L973 233 L972 233 L972 241 L971 241 L971 249 L970 249 L970 256 L969 256 L969 264 L968 264 L968 271 L967 271 L967 277 L966 277 L966 284 L965 284 L965 291 L964 291 L964 298 L963 298 L963 306 L962 306 L962 323 L963 323 L963 325 L964 325 L964 326 L965 326 L965 327 L968 327 L968 328 L975 328 L975 334 L963 334 L963 335 L964 335 L964 338 L965 338 L965 341 L964 341 L964 346 L963 346 L963 349 L962 349 L962 352 L961 352 L961 355 L960 355 L960 357 L959 357 L959 360 L958 360 L958 362 L957 362 L957 364 L956 364 L956 366 L955 366 L955 368 L954 368 L954 370 L953 370 L953 372 L952 372 L952 374 L951 374 L951 376 L950 376 L950 378 L949 378 L949 379 L948 379 L948 381 L947 381 L947 382 L946 382 L946 383 L945 383 L945 385 L944 385 L944 386 L943 386 L943 387 L942 387 L942 388 L941 388 L941 389 L939 389 L939 390 L938 390 L938 391 L937 391 L937 392 L945 392 L945 393 L948 393 L948 394 L950 394 L950 395 L951 395 L951 396 L953 396 L953 397 L954 397 L954 398 L955 398 L955 399 L956 399 L956 400 L957 400 L957 402 L958 402 L958 429 L959 429 L959 438 L960 438 L960 437 L962 437 L962 436 L963 436 L963 435 L964 435 L964 434 L965 434 L965 433 L966 433 L966 432 L967 432 L967 431 L968 431 L968 430 L969 430 L969 429 L970 429 L970 428 L971 428 L971 426 L972 426 L972 425 L973 425 L973 424 L974 424 L974 422 L975 422 L975 421 L976 421 L976 419 L977 419 L977 418 L978 418 L978 416 L979 416 L979 413 L980 413 L980 410 L981 410 L981 408 L982 408 L982 406 L983 406 L983 404 L984 404 L984 402 L985 402 L985 401 L986 401 L986 399 L987 399 L987 398 L988 398 L988 397 L989 397 L989 395 L990 395 L990 394 L991 394 L991 393 L992 393 L992 392 L993 392 L993 391 L994 391 L994 390 L995 390 L995 389 L996 389 L996 388 L997 388 L997 387 L998 387 L998 386 L999 386 L999 385 L1000 385 L1000 384 L1001 384 L1001 383 L1002 383 L1002 382 L1004 382 L1004 381 L1005 381 L1005 380 L1006 380 L1006 379 L1008 379 L1008 378 L1009 378 L1009 377 L1011 377 L1011 376 L1013 376 L1013 375 L1025 375 L1025 376 L1027 376 L1027 377 L1029 377 L1029 378 L1031 378 L1031 379 L1032 379 L1032 380 L1033 380 L1033 381 L1034 381 L1034 382 L1035 382 L1035 383 L1036 383 L1036 385 L1037 385 L1037 386 L1038 386 L1038 388 L1039 388 L1039 390 L1040 390 L1040 389 L1042 389 L1042 388 L1044 388 L1044 387 L1047 387 L1047 386 L1053 386 L1053 387 L1054 387 L1054 388 L1056 388 L1056 389 L1057 389 L1057 391 L1058 391 L1058 393 L1059 393 L1059 395 L1060 395 L1060 417 L1063 417 L1063 416 L1066 416 L1066 415 L1068 415 L1068 414 L1070 414 L1070 413 L1071 413 L1071 412 L1073 412 L1073 411 L1074 411 L1074 410 L1075 410 L1075 409 L1076 409 L1076 408 L1078 408 L1078 407 L1079 407 L1079 406 L1080 406 L1080 405 L1081 405 L1081 404 L1082 404 L1082 403 L1083 403 L1083 402 L1084 402 L1084 401 L1085 401 L1085 400 L1086 400 L1086 398 L1087 398 L1087 397 L1088 397 L1088 396 L1089 396 L1089 395 L1090 395 L1090 392 L1091 392 L1091 388 L1092 388 L1092 384 L1093 384 L1093 380 L1094 380 L1094 377 L1095 377 L1095 373 L1096 373 L1096 369 L1097 369 L1097 366 L1098 366 L1098 364 L1099 364 L1099 361 L1100 361 L1100 358 L1101 358 L1101 356 L1102 356 L1102 353 L1103 353 L1103 351 L1104 351 L1104 349 L1105 349 L1105 347 L1106 347 L1106 345 L1107 345 L1107 343 L1108 343 L1108 342 L1109 342 L1109 340 L1111 340 L1111 339 L1113 339 L1113 338 L1116 338 L1116 339 L1118 339 L1118 340 L1120 340 L1120 342 L1121 342 L1121 343 L1122 343 L1122 351 L1121 351 L1121 355 L1120 355 L1120 358 L1119 358 L1119 362 L1118 362 L1118 366 L1117 366 L1117 370 L1116 370 L1116 373 L1115 373 L1115 377 L1114 377 L1114 382 L1113 382 L1113 388 L1112 388 L1112 393 L1111 393 L1111 398 L1110 398 L1110 404 L1109 404 L1109 407 L1110 407 L1110 405 L1111 405 L1111 404 L1112 404 L1112 402 L1113 402 L1113 400 L1114 400 L1114 399 L1115 399 L1115 397 L1116 397 L1116 395 L1117 395 L1117 394 L1118 394 L1118 392 L1119 392 L1119 390 L1120 390 L1120 389 L1121 389 L1121 388 L1122 388 L1122 386 L1123 386 L1123 385 L1124 385 L1124 383 L1125 383 L1125 382 L1126 382 L1126 381 L1127 381 L1127 379 L1128 379 L1128 378 L1129 378 L1129 377 L1130 377 L1130 376 L1131 376 L1131 375 L1132 375 L1132 373 L1133 373 L1133 372 L1134 372 L1134 371 L1135 371 L1135 370 L1136 370 L1136 369 L1137 369 L1137 368 L1138 368 L1138 367 L1139 367 L1139 366 L1140 366 L1140 365 L1141 365 L1141 364 L1142 364 L1142 363 L1144 363 L1144 362 L1145 362 L1145 361 L1147 361 L1147 360 L1152 360 L1152 361 L1155 361 L1155 362 L1157 362 L1157 363 L1158 363 L1158 364 L1159 364 L1159 365 L1160 365 L1160 366 L1161 366 L1161 367 L1162 367 L1162 369 L1163 369 L1163 371 L1164 371 L1164 385 L1163 385 L1163 389 L1162 389 L1162 394 L1161 394 L1161 397 L1163 397 L1163 396 L1165 396 L1165 395 L1167 395 L1167 394 L1173 394 L1173 398 L1172 398 L1172 399 L1171 399 L1171 400 L1170 400 L1170 401 L1169 401 L1169 402 L1168 402 L1168 403 L1166 403 L1166 404 L1165 404 L1165 405 L1163 405 L1163 406 L1162 406 L1162 407 L1161 407 L1161 408 L1159 408 L1159 409 L1158 409 L1158 410 L1157 410 L1157 411 L1156 411 L1156 413 L1155 413 L1155 415 L1154 415 L1154 418 L1153 418 L1153 421 L1152 421 L1152 423 L1151 423 L1151 425 L1150 425 L1150 427 L1149 427 L1149 429 L1148 429 L1148 431 L1147 431 L1147 432 L1146 432 L1146 434 L1145 434 L1145 436 L1144 436 L1144 437 L1143 437 L1143 438 L1142 438 L1142 439 L1141 439 L1141 441 L1139 441 L1139 442 L1138 442 L1138 443 L1130 443 L1130 442 L1128 442 L1128 441 L1126 441 L1126 440 L1125 440 L1125 439 L1124 439 L1124 438 L1123 438 L1123 436 L1122 436 L1122 431 L1123 431 L1123 429 L1124 429 L1124 427 L1125 427 L1125 425 L1126 425 L1126 423 L1127 423 L1127 422 L1128 422 L1128 420 L1129 420 L1129 419 L1130 419 L1130 418 L1131 418 L1131 417 L1132 417 L1132 416 L1133 416 L1133 415 L1134 415 L1134 414 L1135 414 L1135 412 L1136 412 L1136 411 L1137 411 L1137 409 L1138 409 L1138 407 L1139 407 L1139 405 L1140 405 L1140 403 L1141 403 L1141 401 L1142 401 L1142 399 L1143 399 L1143 396 L1144 396 L1144 393 L1145 393 L1145 391 L1146 391 L1146 388 L1147 388 L1147 384 L1148 384 L1148 381 L1149 381 L1149 377 L1150 377 L1150 376 L1149 376 L1149 377 L1148 377 L1148 379 L1147 379 L1147 380 L1146 380 L1146 381 L1145 381 L1145 382 L1144 382 L1144 383 L1143 383 L1143 385 L1142 385 L1142 386 L1141 386 L1141 387 L1140 387 L1140 389 L1139 389 L1139 390 L1138 390 L1138 391 L1137 391 L1137 392 L1136 392 L1136 394 L1135 394 L1135 395 L1134 395 L1134 396 L1133 396 L1133 398 L1132 398 L1132 400 L1131 400 L1131 401 L1130 401 L1130 403 L1129 403 L1129 404 L1128 404 L1128 406 L1127 406 L1127 408 L1126 408 L1126 410 L1125 410 L1125 411 L1124 411 L1124 413 L1123 413 L1123 415 L1122 415 L1122 417 L1121 417 L1121 419 L1120 419 L1120 421 L1119 421 L1119 422 L1118 422 L1118 424 L1117 424 L1117 426 L1116 426 L1116 428 L1115 428 L1115 430 L1114 430 L1114 433 L1113 433 L1113 435 L1112 435 L1112 437 L1111 437 L1111 440 L1110 440 L1110 442 L1109 442 L1109 444 L1108 444 L1108 447 L1107 447 L1107 450 L1106 450 L1106 452 L1105 452 L1105 455 L1104 455 L1104 457 L1103 457 L1103 461 L1102 461 L1102 468 L1101 468 L1101 478 L1100 478 L1100 492 L1099 492 L1099 511 L1098 511 L1098 545 L1099 545 L1099 555 L1100 555 L1100 562 L1092 562 L1092 561 L1090 561 L1090 560 L1088 560 L1088 559 L1087 559 L1087 557 L1086 557 L1086 554 L1085 554 L1085 551 L1084 551 L1084 546 L1083 546 L1083 540 L1082 540 L1082 530 L1081 530 L1081 514 L1080 514 L1080 465 L1081 465 L1081 453 L1082 453 L1082 443 L1083 443 L1083 435 L1084 435 L1084 426 L1085 426 L1085 424 L1084 424 L1084 425 L1083 425 L1083 426 L1082 426 L1082 427 L1081 427 L1081 428 L1080 428 L1080 429 L1079 429 L1079 430 L1078 430 L1078 431 L1077 431 L1077 432 L1075 432 L1075 433 L1074 433 L1074 434 L1072 434 L1072 435 L1070 435 L1070 436 L1062 436 L1062 435 L1060 435 L1060 434 L1059 434 L1059 433 L1057 433 L1057 432 L1056 432 L1056 431 L1055 431 L1055 429 L1054 429 L1054 428 L1053 428 L1053 427 L1052 427 L1052 425 L1051 425 L1051 423 L1050 423 L1050 420 L1049 420 L1049 417 L1048 417 L1048 413 L1047 413 L1047 406 L1046 406 L1046 407 L1045 407 L1045 408 L1044 408 L1044 409 L1042 409 L1042 410 L1041 410 L1041 411 L1040 411 L1040 412 L1038 412 L1038 413 L1037 413 L1037 414 L1036 414 L1036 415 L1034 415 L1034 416 L1033 416 L1033 417 L1032 417 L1032 418 L1030 418 L1030 419 L1029 419 L1029 420 L1028 420 L1028 421 L1026 421 L1026 422 L1025 422 L1025 423 L1024 423 L1024 424 L1022 424 L1022 425 L1021 425 L1021 426 L1019 426 L1019 427 L1018 427 L1018 428 L1017 428 L1017 429 L1015 429 L1015 430 L1014 430 L1014 431 L1012 431 L1012 432 L1011 432 L1011 433 L1009 433 L1009 434 L1007 434 L1007 435 L1006 435 L1006 436 L1004 436 L1004 437 L1002 437 L1002 438 L999 438 L999 439 L990 439 L990 438 L989 438 L989 437 L988 437 L988 436 L986 436 L986 435 L985 435 L985 434 L984 434 L984 433 L983 433 L983 432 L982 432 L982 430 L981 430 L981 431 L980 431 L980 432 L979 432 L979 433 L978 433 L978 435 L977 435 L977 436 L976 436 L976 437 L975 437 L975 438 L974 438 L974 439 L973 439 L973 440 L972 440 L972 441 L971 441 L971 443 L970 443 L970 444 L968 444 L968 445 L967 445 L967 446 L966 446 L966 447 L965 447 L965 448 L964 448 L964 449 L962 449 L962 450 L958 450 L958 451 L952 451 L952 450 L948 450 L948 449 L947 449 L947 448 L946 448 L946 447 L945 447 L945 446 L944 446 L944 444 L943 444 L943 442 L942 442 L942 438 L941 438 L941 432 L940 432 L940 414 L939 414 L939 404 L938 404 L938 403 L932 403 L932 404 L931 404 L931 406 L930 406 L930 409 L929 409 L929 411 L928 411 L928 413 L927 413 L927 414 L926 414 L926 416 L925 416 L925 417 L924 417 L924 419 L923 419 L923 420 L922 420 L922 422 L921 422 L921 423 L920 423 L920 424 L919 424 L919 426 L918 426 L918 427 L917 427 L917 428 L916 428 L916 429 L915 429 L915 431 L914 431 L914 432 L913 432 L913 433 L912 433 L912 434 L911 434 L911 435 L910 435 L910 436 L909 436 L909 437 L908 437 L908 439 L907 439 L907 440 L906 440 L906 441 L905 441 L905 442 L904 442 L904 443 L902 443 L902 444 L901 444 L901 445 L900 445 L900 446 L899 446 L899 447 L898 447 L898 448 L897 448 L897 449 L896 449 L896 450 L894 450 L894 451 L893 451 L893 452 L892 452 L892 453 L890 453 L890 454 L889 454 L889 455 L887 455 L887 456 L886 456 L886 457 L884 457 L884 458 L882 458 L882 459 L880 459 L880 460 L877 460 L877 461 L873 461 L873 462 L868 462 L868 461 L864 461 L864 460 L861 460 L861 459 L859 459 L859 458 L857 458 L857 457 L855 457 L855 456 L854 456 L854 455 L853 455 L853 454 L852 454 L852 453 L851 453 L851 452 L850 452 L850 451 L849 451 L849 449 L848 449 L848 448 L847 448 L847 447 L846 447 L846 445 L845 445 L845 443 L844 443 L844 441 L843 441 L843 436 L842 436 L842 431 L841 431 L841 432 L840 432 L840 433 L839 433 L839 434 L838 434 L838 435 L837 435 L837 436 L835 436 L835 437 L834 437 L834 438 L833 438 L833 439 L831 439 L831 440 L829 440 L829 441 L826 441 L826 440 L821 440 L821 439 L819 439 L819 438 L817 438 L817 437 L816 437 L816 436 L815 436 L815 435 L814 435 L814 434 L813 434 L813 433 L812 433 L812 432 L811 432 L811 430 L810 430 L810 428 L809 428 L809 425 L808 425 L808 421 L807 421 L807 419 L806 419 L806 422 L805 422 L805 424 L804 424 L804 426 L803 426 L803 429 L802 429 L802 431 L801 431 L801 433 L800 433 L800 436 L799 436 L799 439 L798 439 L798 442 L797 442 L797 446 L796 446 L796 449 L795 449 L795 452 L794 452 L794 455 L793 455 L793 458 L792 458 L792 461 L791 461 L791 464 L790 464 L790 467 L789 467 L789 469 L788 469 L788 471 L787 471 L787 472 L785 472 L785 473 L778 473 L778 472 L775 472 L775 471 L773 471 L773 470 L771 470 L771 469 L770 469 L770 468 L769 468 L769 467 L768 467 L768 466 L767 466 L767 465 L766 465 L766 464 L765 464 L765 461 L764 461 L764 456 L763 456 L763 448 L762 448 L762 436 L761 436 L761 435 L762 435 L762 433 L761 433 L761 407 L762 407 L762 406 L761 406 L761 404 L762 404 L762 390 L763 390 L763 380 L764 380 L764 370 L765 370 L765 362 L766 362 L766 355 L767 355 L767 349 L768 349 L768 343 L769 343 L769 337 L770 337 L770 331 L771 331 L771 325 L772 325 L772 320 L773 320 L773 318 L749 318 L749 319 L743 319 L743 320 L742 320 L742 324 L741 324 L741 329 L740 329 L740 333 L739 333 L739 338 L738 338 L738 344 L737 344 L737 350 L736 350 L736 355 L735 355 L735 361 L734 361 L734 367 L733 367 L733 374 L732 374 L732 382 L731 382 L731 390 L730 390 L730 400 L729 400 L729 415 L728 415 L728 466 L729 466 L729 478 L730 478 L730 484 L731 484 L731 488 L732 488 L732 491 L733 491 L733 494 L734 494 L734 497 L735 497 L735 499 L736 499 L736 501 L737 501 L737 502 L736 502 L736 503 L735 503 L735 504 L730 504 L730 503 L727 503 L727 502 L725 502 L725 501 L724 501 L724 500 L723 500 L723 499 L722 499 L722 498 L721 498 L721 497 L720 497 L720 495 L719 495 L719 493 L718 493 L718 491 L717 491 L717 489 L716 489 L716 486 L715 486 L715 483 L714 483 L714 479 L713 479 L713 474 L712 474 L712 468 L711 468 L711 458 L710 458 L710 399 L711 399 L711 381 L712 381 L712 370 L713 370 L713 362 L714 362 L714 355 L715 355 L715 348 L716 348 L716 342 L717 342 L717 337 L718 337 L718 334 L684 334 L684 335 L683 335 L683 336 L682 336 L682 339 L679 339 L679 338 L677 338 L677 337 L676 337 L676 336 L675 336 L675 334 L640 334 L640 328 L650 328 L650 327 L653 327 L653 326 L655 326 L655 325 L656 325 L656 324 L657 324 L657 323 L658 323 L658 321 L659 321 L659 318 L660 318 L660 312 L661 312 L661 71 L660 71 L660 69 L661 69 L661 66 L660 66 L660 56 L659 56 L659 51 L658 51 L658 49 L657 49 L657 48 L656 48 L656 47 L654 47 L654 46 L652 46 L652 45 L648 45 L648 44 L640 44 L640 38 L719 38 L719 44 L711 44 L711 45 L707 45 L707 46 L704 46 L704 47 L703 47 L703 48 L701 48 L701 49 L700 49 L700 51 L699 51 L699 54 L698 54 L698 63 L697 63 L697 64 L698 64 L698 175 L697 175 L697 176 L698 176 L698 177 L855 177 L855 176 L856 176 L856 66 L855 66 L855 56 L854 56 L854 52 L853 52 L853 49 L852 49 L852 48 L851 48 L851 47 L850 47 L850 46 L848 46 L848 45 L844 45 L844 44 L836 44 L836 43 L835 43 L835 38 L913 38 L913 44 L904 44 L904 45 L900 45 L900 46 L898 46 L898 47 L897 47 L897 48 L896 48 L896 49 L895 49 L895 50 L894 50 L894 53 L893 53 L893 67 L892 67 L892 304 L893 304 L893 318 L894 318 L894 320 L895 320 L895 322 L896 322 L896 324 L897 324 L897 325 L899 325 L899 326 L900 326 L900 327 L904 327 L904 328 L913 328 L913 335 L912 335 L912 334 L835 334 L835 329 L836 329 L836 328 L844 328 L844 327 L848 327 L848 326 L850 326 L850 325 L851 325 L851 324 L852 324 L852 323 L853 323 L853 320 L854 320 L854 316 L855 316 L855 306 L856 306 L856 226 L855 226 L855 228 L854 228 L854 231 L853 231 L853 233 L852 233 L852 236 L851 236 L851 238 L850 238 L850 241 L849 241 L849 243 L848 243 L848 245 L847 245 L847 247 L846 247 L846 249 L845 249 L845 251 L844 251 L844 253 L843 253 L843 256 L842 256 L842 258 L841 258 L841 260 L840 260 L840 262 L839 262 L839 264 L838 264 L838 266 L837 266 L837 268 L836 268 L836 270 L835 270 L835 272 L834 272 L834 274 L833 274 L833 276 L832 276 L832 278 L831 278 L831 280 L830 280 L830 282 L829 282 L829 283 L828 283 L828 286 L827 286 L827 287 L826 287 L826 289 L825 289 L825 291 L824 291 L824 293 L823 293 L823 295 L822 295 L822 297 L821 297 L821 299 L820 299 L820 300 L819 300 L819 302 L818 302 L818 304 L817 304 L817 306 L816 306 L816 308 L815 308 L815 310 L814 310 L814 312 L813 312 L813 313 L812 313 L812 315 L811 315 L811 317 L810 317 L810 319 L809 319 L809 321 L808 321 L808 323 L807 323 L807 325 L806 325 L806 326 L805 326 L805 328 L804 328 L804 330 L803 330 L803 332 L802 332 L802 333 L801 333 L801 335 L800 335 L800 337 L799 337 L799 339 L798 339 L798 340 L797 340 L797 342 L796 342 L796 343 L795 343 L795 345 L794 345 L794 347 L793 347 L793 348 L792 348 L792 350 L791 350 L791 351 L790 351 L790 356 L789 356 L789 364 L788 364 L788 374 L787 374 L787 383 L786 383 L786 392 L785 392 L785 404 L784 404 L784 421 L783 421 L783 422 L784 422 L784 423 L783 423 L783 428 L784 428 L784 425 L785 425 L785 423 L786 423 L786 421 L787 421 L787 419 L788 419 L788 417 L789 417 L789 415 L790 415 L790 413 L791 413 L791 411 L792 411 L792 409 L793 409 L793 407 L794 407 L794 406 L795 406 L795 404 L796 404 L796 402 L797 402 L797 401 L798 401 L798 399 L799 399 L799 398 L806 398 L806 399 L810 399 L810 400 L812 400 L812 401 L814 401 L814 402 L815 402 L815 403 L816 403 L816 404 L817 404 L817 405 L818 405 L818 407 L819 407 L819 410 L820 410 L820 412 L821 412 L821 416 L822 416 L822 420 L823 420 L823 424 L824 424 L824 427 L825 427 L825 428 L826 428 L826 427 L827 427 L827 426 L828 426 L828 425 L829 425 L829 424 L830 424 L830 423 L831 423 L831 422 L832 422 L832 421 L833 421 L833 420 L834 420 L834 419 L836 419 L836 418 L837 418 L837 417 L838 417 L838 416 L839 416 L839 415 L840 415 L840 414 L841 414 L841 413 L842 413 L842 412 L843 412 L843 411 L844 411 L844 410 L845 410 L845 409 L846 409 L846 408 L847 408 L847 407 L848 407 L848 406 L849 406 L849 404 L850 404 L850 403 L851 403 L851 402 L852 402 L852 400 L853 400 L853 398 L854 398 L854 396 L855 396 L855 395 L856 395 L856 393 L857 393 L857 391 L858 391 L858 390 L859 390 L859 388 L860 388 L860 387 L861 387 L861 386 L862 386 L862 384 L863 384 L863 383 L864 383 L864 382 L865 382 L865 381 L866 381 L866 380 L867 380 L867 379 L868 379 L868 378 L870 378 L870 377 L871 377 L871 376 L873 376 L873 375 L884 375 L884 376 L885 376 L885 377 L887 377 L887 378 L888 378 L888 379 L889 379 L889 380 L890 380 L890 381 L891 381 L891 382 L892 382 L892 384 L893 384 L893 386 L894 386 L894 389 L895 389 L895 396 L894 396 L894 400 L893 400 L893 403 L892 403 L892 405 L891 405 L891 407 L890 407 L890 409 L889 409 L889 411 L888 411 L888 413 L887 413 L887 414 L886 414 L886 415 L885 415 L885 417 L884 417 L884 418 L883 418 L883 419 L882 419 L882 421 L881 421 L881 422 L880 422 L880 423 L879 423 L879 424 L878 424 L878 425 L877 425 L877 426 L876 426 L876 427 L875 427 L875 428 L874 428 L874 429 L873 429 L873 430 L872 430 L872 431 L870 431 L870 432 L869 432 L869 433 L867 433 L867 434 L864 434 L864 435 L860 435 L860 446 L861 446 L861 447 L862 447 L862 446 L867 446 L867 445 L870 445 L870 444 L872 444 L872 443 L874 443 L874 442 L876 442 L876 441 L878 441 L878 440 L879 440 L879 439 L881 439 L881 438 L882 438 L882 437 L884 437 L884 436 L885 436 L885 435 L887 435 L887 434 L888 434 L888 433 L889 433 L889 432 L891 432 L891 431 L892 431 L892 430 L893 430 L893 429 L894 429 L894 428 L895 428 L895 427 L896 427 L896 426 L897 426 L897 425 L898 425 L898 424 L900 424 L900 423 L901 423 L901 421 L902 421 L902 420 L903 420 L903 419 L904 419 L904 418 L905 418 L905 417 L906 417 L906 416 L907 416 L907 415 L908 415 L908 414 L909 414 L909 413 L910 413 L910 412 L911 412 L911 411 L912 411 L912 410 L913 410 L913 408 L914 408 L914 407 L915 407 L915 406 L916 406 L916 405 L917 405 L917 403 L918 403 L918 402 L919 402 L919 400 L920 400 L920 399 L921 399 L921 398 L919 398 L919 397 L918 397 L918 396 L916 396 L916 395 L915 395 L915 394 L914 394 L914 393 L913 393 L913 391 L912 391 L912 389 L911 389 L911 374 L912 374 L912 368 L913 368 L913 364 L914 364 L914 360 L915 360 L915 358 L916 358 L916 355 L917 355 L917 353 L918 353 L918 350 L919 350 L919 348 L920 348 L920 346 L921 346 L921 344 L922 344 L922 342 L923 342 L923 340 L924 340 L924 338 L925 338 L925 336 L926 336 L926 335 L927 335 L927 329 L928 329 L928 328 L933 328 L933 327 L934 327 L934 326 L936 326 L936 325 L939 325 L939 324 L943 324 L943 322 L944 322 L944 319 L945 319 L945 316 L946 316 L946 311 L947 311 L947 304 L948 304 L948 297 L949 297 L949 291 L950 291 L950 284 L951 284 L951 277 L952 277 L952 270 L953 270 L953 262 L954 262 L954 254 L955 254 L955 247 L956 247 L956 241 L957 241 L957 234 L958 234 L958 227 L959 227 L959 220 L960 220 L960 214 L961 214 L961 207 L962 207 L962 199 L963 199 L963 191 L964 191 L964 184 L965 184 L965 176 L966 176 L966 170 L967 170 L967 163 L968 163 L968 156 L969 156 L969 149 L970 149 L970 143 L971 143 L971 136 L972 136 L972 129 L973 129 L973 121 L974 121 L974 113 L975 113 L975 106 L976 106 L976 99 L977 99 L977 93 L978 93 L978 86 L979 86 L979 78 L980 78 L980 72 L981 72 L981 70 L980 70 L980 67 L979 67 L979 65 L978 65 L978 64 L977 64 L977 61 L976 61 L976 60 L975 60 L975 58 L974 58 L974 56 L973 56 L973 55 L972 55 L972 53 L971 53 L971 52 L970 52 L970 51 L969 51 L969 50 L968 50 L968 49 L966 49 L966 48 L965 48 L965 47 L962 47 L962 46 L960 46 L960 45 L956 45 L956 44 L949 44 L949 43 L948 43 L948 41 L949 41 L949 40 L948 40 L948 38 L1007 38 L1007 40 L1008 40 L1008 43 L1009 43 L1009 45 L1010 45 L1010 47 L1011 47 L1011 50 L1012 50 L1012 52 L1013 52 L1013 55 L1014 55 L1014 57 L1015 57 L1015 59 L1016 59 L1016 62 L1017 62 L1017 64 L1018 64 L1018 66 L1019 66 L1019 68 L1020 68 L1020 71 L1021 71 L1021 73 L1022 73 L1022 76 L1023 76 L1023 78 L1024 78 L1024 80 L1025 80 L1025 83 L1026 83 L1026 85 L1027 85 L1027 87 L1028 87 L1028 89 L1029 89 L1029 91 L1030 91 L1030 94 L1031 94 L1031 97 L1032 97 L1032 98 L1033 98 L1033 101 L1034 101 L1034 104 L1035 104 L1035 106 L1036 106 L1036 108 L1037 108 L1037 110 L1038 110 L1038 113 L1039 113 L1039 115 L1040 115 L1040 117 L1041 117 L1041 120 L1042 120 L1042 122 L1043 122 L1043 124 L1044 124 L1044 127 L1045 127 L1045 129 L1046 129 L1046 131 L1047 131 L1047 134 L1048 134 L1048 136 L1049 136 L1049 138 L1050 138 L1050 141 L1051 141 L1051 143 L1052 143 L1052 146 L1053 146 L1053 148 L1054 148 L1054 150 L1055 150 L1055 152 L1056 152 L1056 155 L1057 155 L1057 157 L1058 157 L1058 159 L1059 159 L1059 161 L1060 161 L1060 164 L1061 164 L1061 166 L1062 166 L1062 169 L1063 169 L1063 171 L1064 171 L1064 173 L1065 173 L1065 176 L1066 176 L1066 178 L1067 178 L1067 180 L1068 180 L1068 182 L1069 182 L1069 185 L1070 185 L1070 187 L1071 187 L1071 189 L1072 189 L1072 192 L1073 192 L1073 194 L1074 194 L1074 197 L1075 197 L1075 199 L1076 199 L1076 201 L1077 201 L1077 203 L1078 203 L1078 206 L1079 206 L1079 208 L1080 208 L1080 210 L1081 210 L1081 213 L1082 213 L1082 215 L1083 215 L1083 217 L1084 217 L1084 220 L1085 220 L1085 222 L1086 222 L1086 224 L1087 224 L1087 227 L1088 227 L1088 229 L1089 229 L1089 231 L1090 231 L1090 233 L1091 233 L1091 236 L1092 236 L1092 238 L1093 238 L1093 241 L1094 241 L1094 243 L1095 243 L1095 245 L1096 245 L1096 248 L1097 248 L1097 250 L1098 250 L1098 252 L1099 252 L1099 254 L1100 254 L1100 257 L1101 257 L1101 259 L1102 259 L1102 262 L1103 262 L1103 264 L1104 264 L1104 266 L1105 266 L1105 269 L1106 269 L1106 271 L1107 271 L1107 273 L1108 273 L1108 275 L1109 275 L1109 273 L1110 273 L1110 271 L1111 271 L1111 269 L1112 269 L1112 267 L1113 267 L1113 264 L1114 264 L1114 262 L1115 262 L1115 260 L1116 260 L1116 257 L1117 257 L1117 255 L1118 255 L1118 253 L1119 253 L1119 250 L1120 250 L1120 248 L1121 248 L1121 246 L1122 246 L1122 243 L1123 243 L1123 241 L1124 241 L1124 239 L1125 239 L1125 236 L1126 236 L1126 234 L1127 234 L1127 231 L1128 231 L1128 229 L1129 229 L1129 227 L1130 227 L1130 225 L1131 225 L1131 223 L1132 223 L1132 220 L1133 220 L1133 218 L1134 218 L1134 216 L1135 216 L1135 213 L1136 213 L1136 211 L1137 211 L1137 208 L1138 208 L1138 206 L1139 206 L1139 204 L1140 204 L1140 202 L1141 202 L1141 199 L1142 199 L1142 197 L1143 197 L1143 195 L1144 195 L1144 192 L1145 192 L1145 190 L1146 190 L1146 188 L1147 188 L1147 185 L1148 185 L1148 183 L1149 183 L1149 180 L1150 180 L1150 178 L1151 178 L1151 176 L1152 176 L1152 174 L1153 174 L1153 172 L1154 172 L1154 169 L1155 169 L1155 167 L1156 167 L1156 164 L1157 164 L1157 162 L1158 162 L1158 160 L1159 160 L1159 157 L1160 157 L1160 155 L1161 155 L1161 153 L1162 153 L1162 151 L1163 151 L1163 149 L1164 149 L1164 146 L1165 146 L1165 143 L1166 143 L1166 141 L1167 141 L1167 139 L1168 139 L1168 136 L1169 136 L1169 134 L1170 134 L1170 132 L1171 132 L1171 130 L1172 130 L1172 127 L1173 127 L1173 125 L1174 125 L1174 123 L1175 123 L1175 120 L1176 120 L1176 118 L1177 118 L1177 116 L1178 116 L1178 113 L1179 113 L1179 111 L1180 111 L1180 109 L1181 109 L1181 107 L1182 107 L1182 104 L1183 104 L1183 102 L1184 102 L1184 100 L1185 100 L1185 97 L1186 97 L1186 95 L1187 95 L1187 92 L1188 92 L1188 90 L1189 90 L1189 88 L1190 88 L1190 86 L1191 86 L1191 83 L1192 83 L1192 81 L1193 81 L1193 79 L1194 79 L1194 77 L1195 77 L1195 74 L1196 74 L1196 72 L1197 72 L1197 69 L1198 69 L1198 67 L1199 67 L1199 65 L1200 65 L1200 62 L1201 62 L1201 60 L1202 60 L1202 58 L1203 58 L1203 56 L1204 56 L1204 53 L1205 53 L1205 51 L1206 51 L1206 49 L1207 49 L1207 46 L1208 46 L1208 44 L1209 44 L1209 41 L1210 41 L1210 39 L1211 39 L1211 38 L1260 38 L1260 44 L1253 44 L1253 45 L1250 45 L1250 46 L1247 46 L1247 47 L1245 47 L1245 48 L1244 48 L1244 49 L1242 49 L1242 51 L1241 51 L1241 52 L1240 52 L1240 53 L1239 53 L1239 55 L1238 55 L1238 58 L1237 58 L1237 63 L1236 63 L1236 72 L1237 72 L1237 80 L1238 80 L1238 87 L1239 87 L1239 94 L1240 94 L1240 101 L1241 101 L1241 108 L1242 108 L1242 115 L1243 115 L1243 122 L1244 122 L1244 130 L1245 130 L1245 139 L1246 139 L1246 146 L1247 146 L1247 153 L1248 153 L1248 160 L1249 160 L1249 166 L1250 166 L1250 173 L1251 173 L1251 180 L1252 180 L1252 187 L1253 187 L1253 194 L1254 194 L1254 202 L1255 202 L1255 211 L1256 211 L1256 218 L1257 218 L1257 224 L1258 224 L1258 231 L1259 231 L1259 238 L1260 238 L1260 245 L1261 245 L1261 252 L1262 252 L1262 259 L1263 259 L1263 266 L1264 266 L1264 274 L1265 274 L1265 283 L1266 283 L1266 289 L1267 289 L1267 297 L1268 297 L1268 304 L1269 304 L1269 309 L1270 309 L1270 313 L1271 313 L1271 316 L1272 316 L1272 319 L1273 319 L1273 322 L1274 322 L1274 323 L1275 323 L1275 324 L1276 324 L1276 325 L1277 325 L1277 326 L1279 326 L1279 327 L1283 327 L1283 328 L1289 328 L1289 329 L1290 329 L1290 328 L1297 328 L1297 327 L1301 327 L1301 326 L1303 326 L1303 325 L1304 325 L1304 324 L1306 324 L1306 323 L1307 323 L1307 322 L1308 322 L1308 320 L1309 320 L1309 318 L1310 318 L1310 317 L1311 317 L1311 315 L1312 315 L1312 313 L1313 313 L1313 311 L1314 311 L1314 309 L1315 309 L1315 307 L1316 307 L1316 305 L1317 305 L1317 302 L1318 302 L1318 300 L1319 300 L1319 297 L1320 297 L1320 295 L1321 295 L1321 292 L1322 292 L1322 290 L1323 290 L1323 287 L1324 287 L1324 285 L1325 285 L1325 282 L1326 282 L1326 280 L1327 280 L1327 277 L1328 277 L1328 274 L1329 274 L1329 272 L1330 272 L1330 269 L1331 269 L1331 267 L1332 267 L1332 265 L1333 265 L1333 262 L1334 262 L1334 260 L1335 260 L1335 257 L1336 257 L1336 255 L1337 255 L1337 252 L1338 252 L1338 249 L1339 249 L1339 247 L1340 247 L1340 244 L1341 244 L1341 242 L1342 242 L1342 239 L1343 239 L1343 237 L1344 237 L1344 234 L1345 234 L1345 232 L1346 232 L1346 229 L1347 229 L1347 227 L1348 227 L1348 224 L1349 224 L1349 221 L1350 221 L1350 219 L1351 219 L1351 216 L1352 216 L1352 214 L1353 214 L1353 212 L1354 212 L1354 209 L1355 209 L1355 207 L1356 207 L1356 204 L1357 204 L1357 202 L1358 202 L1358 199 L1359 199 L1359 196 L1360 196 L1360 194 L1361 194 L1361 191 L1362 191 L1362 189 L1363 189 L1363 186 L1364 186 L1364 184 L1365 184 L1365 181 L1366 181 L1366 179 L1367 179 L1367 176 L1368 176 L1368 174 L1369 174 L1369 171 L1370 171 L1370 168 L1371 168 L1371 166 L1372 166 L1372 164 L1373 164 L1373 161 L1374 161 L1374 159 L1375 159 L1375 156 L1376 156 L1376 154 L1377 154 L1377 151 L1378 151 L1378 149 L1379 149 L1379 146 L1380 146 L1380 143 L1381 143 L1381 141 L1382 141 L1382 138 L1383 138 L1383 136 L1384 136 L1384 133 L1385 133 L1385 131 L1386 131 L1386 129 L1387 129 L1387 126 L1388 126 L1388 123 L1389 123 L1389 120 L1390 120 L1390 118 L1391 118 L1391 116 L1392 116 L1392 113 L1393 113 L1393 111 L1394 111 L1394 108 L1395 108 L1395 106 L1396 106 L1396 103 L1397 103 L1397 101 L1398 101 L1398 98 L1399 98 L1399 95 L1400 95 L1400 93 L1401 93 L1401 90 L1402 90 L1402 88 L1403 88 L1403 85 L1404 85 L1404 83 L1405 83 L1405 80 L1406 80 L1406 78 L1407 78 L1407 76 L1408 76 L1408 73 L1409 73 L1409 70 L1410 70 L1410 68 L1411 68 L1411 65 L1412 65 L1412 63 L1413 63 L1413 60 L1414 60 L1414 58 L1415 58 L1415 55 L1416 55 L1416 53 L1417 53 L1417 51 L1418 51 L1418 47 L1419 47 L1419 45 L1420 45 L1420 42 L1421 42 L1421 40 L1422 40 L1422 37 L1423 37 L1423 35 L1424 35 L1424 34 L1425 34 Z M37 38 L154 38 L154 39 L168 39 L168 40 L174 40 L174 41 L179 41 L179 42 L183 42 L183 43 L185 43 L185 44 L188 44 L188 45 L190 45 L190 46 L192 46 L192 47 L194 47 L194 48 L196 48 L196 49 L198 49 L198 50 L200 50 L200 51 L201 51 L201 52 L203 52 L203 53 L204 53 L204 54 L206 54 L206 55 L207 55 L207 56 L208 56 L208 57 L209 57 L209 58 L210 58 L210 59 L211 59 L211 60 L212 60 L212 61 L213 61 L213 62 L214 62 L214 63 L215 63 L215 64 L216 64 L216 65 L217 65 L217 67 L218 67 L218 68 L219 68 L219 70 L220 70 L220 72 L221 72 L221 74 L222 74 L222 76 L223 76 L223 79 L224 79 L224 82 L225 82 L225 85 L226 85 L226 90 L227 90 L227 100 L228 100 L228 109 L227 109 L227 117 L226 117 L226 122 L225 122 L225 125 L224 125 L224 128 L223 128 L223 131 L222 131 L222 134 L221 134 L221 136 L220 136 L220 138 L219 138 L219 140 L218 140 L218 142 L217 142 L217 144 L216 144 L216 145 L215 145 L215 147 L214 147 L214 148 L213 148 L213 150 L212 150 L212 151 L211 151 L211 153 L210 153 L210 154 L209 154 L209 155 L208 155 L208 156 L207 156 L207 158 L206 158 L206 159 L205 159 L205 160 L204 160 L204 161 L203 161 L203 162 L202 162 L202 163 L201 163 L201 164 L200 164 L200 165 L199 165 L199 166 L198 166 L198 167 L197 167 L197 168 L195 168 L195 169 L194 169 L194 170 L193 170 L193 171 L192 171 L192 172 L190 172 L190 173 L189 173 L189 174 L188 174 L188 175 L186 175 L186 176 L185 176 L185 177 L184 177 L184 178 L182 178 L182 179 L180 179 L180 180 L179 180 L179 181 L177 181 L177 183 L178 183 L178 184 L179 184 L179 186 L180 186 L180 187 L181 187 L181 189 L182 189 L182 190 L183 190 L183 192 L184 192 L184 193 L185 193 L185 195 L186 195 L186 197 L187 197 L187 198 L188 198 L188 199 L189 199 L189 201 L190 201 L190 203 L191 203 L191 204 L192 204 L192 206 L193 206 L193 207 L194 207 L194 209 L195 209 L195 210 L196 210 L196 212 L197 212 L197 214 L198 214 L198 215 L199 215 L199 217 L200 217 L200 218 L201 218 L201 220 L202 220 L202 222 L203 222 L203 223 L204 223 L204 225 L205 225 L205 226 L206 226 L206 227 L207 227 L207 229 L208 229 L208 230 L209 230 L209 232 L210 232 L210 233 L211 233 L211 235 L212 235 L212 236 L213 236 L213 238 L214 238 L214 239 L215 239 L215 240 L216 240 L216 242 L217 242 L217 243 L218 243 L218 245 L219 245 L219 246 L220 246 L220 248 L221 248 L221 249 L222 249 L222 250 L223 250 L223 252 L224 252 L224 253 L225 253 L225 255 L226 255 L226 256 L227 256 L227 257 L228 257 L228 259 L229 259 L229 260 L230 260 L230 261 L231 261 L231 263 L232 263 L232 264 L233 264 L233 266 L234 266 L234 267 L235 267 L235 268 L236 268 L236 270 L237 270 L237 271 L238 271 L238 272 L239 272 L239 274 L240 274 L240 275 L241 275 L241 276 L242 276 L242 278 L243 278 L243 279 L244 279 L244 280 L245 280 L245 282 L246 282 L246 283 L247 283 L247 284 L248 284 L248 285 L249 285 L249 287 L250 287 L250 288 L251 288 L251 289 L252 289 L252 290 L253 290 L253 291 L254 291 L254 293 L255 293 L255 294 L256 294 L256 295 L257 295 L257 296 L258 296 L258 297 L259 297 L259 298 L260 298 L260 299 L261 299 L261 300 L262 300 L262 301 L263 301 L263 302 L264 302 L264 303 L265 303 L265 304 L266 304 L266 305 L267 305 L267 306 L268 306 L268 307 L269 307 L269 308 L270 308 L270 309 L272 309 L272 310 L273 310 L273 311 L274 311 L274 312 L276 312 L276 313 L278 313 L278 314 L279 314 L279 315 L282 315 L282 316 L284 316 L284 317 L286 317 L286 318 L289 318 L289 319 L292 319 L292 320 L295 320 L295 321 L300 321 L300 322 L314 322 L314 321 L319 321 L319 320 L322 320 L322 319 L324 319 L324 318 L327 318 L327 317 L329 317 L329 316 L332 316 L332 315 L334 315 L334 314 L336 314 L336 313 L338 313 L338 312 L339 312 L339 311 L341 311 L341 310 L342 310 L342 311 L343 311 L343 315 L344 315 L344 317 L343 317 L343 318 L342 318 L342 319 L340 319 L340 320 L339 320 L339 321 L338 321 L338 322 L336 322 L336 323 L334 323 L334 324 L333 324 L333 325 L331 325 L331 326 L329 326 L329 327 L327 327 L327 328 L325 328 L325 329 L323 329 L323 330 L320 330 L320 331 L318 331 L318 332 L314 332 L314 333 L310 333 L310 334 L306 334 L306 335 L300 335 L300 336 L293 336 L293 337 L271 337 L271 336 L265 336 L265 335 L261 335 L261 334 L257 334 L257 333 L254 333 L254 332 L252 332 L252 331 L250 331 L250 330 L248 330 L248 329 L246 329 L246 328 L244 328 L244 327 L242 327 L242 326 L241 326 L241 325 L239 325 L239 324 L238 324 L238 323 L237 323 L237 322 L236 322 L236 321 L234 321 L234 320 L233 320 L233 319 L232 319 L232 318 L231 318 L231 317 L230 317 L230 316 L229 316 L229 315 L228 315 L228 314 L227 314 L227 313 L226 313 L226 312 L225 312 L225 310 L224 310 L224 309 L223 309 L223 308 L222 308 L222 307 L221 307 L221 306 L220 306 L220 304 L219 304 L219 303 L218 303 L218 302 L217 302 L217 301 L216 301 L216 300 L215 300 L215 298 L214 298 L214 297 L213 297 L213 296 L212 296 L212 295 L211 295 L211 293 L210 293 L210 292 L209 292 L209 291 L208 291 L208 290 L207 290 L207 288 L206 288 L206 287 L205 287 L205 285 L204 285 L204 284 L203 284 L203 283 L202 283 L202 281 L201 281 L201 280 L200 280 L200 279 L199 279 L199 277 L198 277 L198 276 L197 276 L197 275 L196 275 L196 273 L195 273 L195 272 L194 272 L194 270 L193 270 L193 269 L192 269 L192 267 L191 267 L191 266 L190 266 L190 265 L189 265 L189 263 L188 263 L188 262 L187 262 L187 260 L186 260 L186 259 L185 259 L185 257 L184 257 L184 256 L183 256 L183 255 L182 255 L182 253 L181 253 L181 252 L180 252 L180 250 L179 250 L179 249 L178 249 L178 247 L177 247 L177 246 L176 246 L176 244 L175 244 L175 243 L174 243 L174 241 L173 241 L173 240 L172 240 L172 238 L171 238 L171 237 L170 237 L170 235 L169 235 L169 234 L168 234 L168 232 L167 232 L167 230 L166 230 L166 229 L165 229 L165 227 L164 227 L164 226 L163 226 L163 224 L162 224 L162 223 L161 223 L161 221 L160 221 L160 220 L159 220 L159 218 L158 218 L158 217 L157 217 L157 215 L156 215 L156 214 L155 214 L155 212 L154 212 L154 211 L153 211 L153 209 L152 209 L152 207 L151 207 L151 206 L150 206 L150 204 L149 204 L149 203 L148 203 L148 201 L147 201 L147 200 L146 200 L146 198 L145 198 L145 197 L144 197 L144 195 L143 195 L143 194 L142 194 L142 193 L125 193 L125 194 L95 194 L95 316 L96 316 L96 320 L97 320 L97 322 L98 322 L98 324 L99 324 L99 325 L100 325 L100 326 L102 326 L102 327 L106 327 L106 328 L115 328 L115 334 L36 334 L36 333 L37 333 L37 331 L36 331 L36 329 L37 329 L37 328 L45 328 L45 327 L49 327 L49 326 L52 326 L52 325 L53 325 L53 324 L54 324 L54 323 L55 323 L55 321 L56 321 L56 317 L57 317 L57 309 L58 309 L58 63 L57 63 L57 56 L56 56 L56 53 L55 53 L55 50 L54 50 L54 49 L53 49 L53 47 L51 47 L51 46 L49 46 L49 45 L45 45 L45 44 L37 44 L37 43 L36 43 L36 41 L37 41 L37 40 L36 40 L36 39 L37 39 Z M94 49 L94 50 L95 50 L95 182 L94 182 L94 183 L140 183 L140 182 L145 182 L145 181 L150 181 L150 180 L154 180 L154 179 L157 179 L157 178 L159 178 L159 177 L162 177 L162 176 L164 176 L164 175 L166 175 L166 174 L168 174 L168 173 L169 173 L169 172 L171 172 L171 171 L172 171 L172 170 L173 170 L173 169 L175 169 L175 168 L176 168 L176 167 L177 167 L177 166 L178 166 L178 165 L179 165 L179 164 L180 164 L180 163 L181 163 L181 161 L182 161 L182 160 L183 160 L183 159 L184 159 L184 157 L185 157 L185 155 L186 155 L186 153 L187 153 L187 152 L188 152 L188 150 L189 150 L189 147 L190 147 L190 145 L191 145 L191 141 L192 141 L192 137 L193 137 L193 129 L194 129 L194 115 L193 115 L193 108 L192 108 L192 103 L191 103 L191 100 L190 100 L190 96 L189 96 L189 94 L188 94 L188 92 L187 92 L187 89 L186 89 L186 87 L185 87 L185 85 L184 85 L184 83 L183 83 L183 81 L182 81 L182 79 L181 79 L181 78 L180 78 L180 76 L179 76 L179 75 L178 75 L178 73 L177 73 L177 72 L176 72 L176 71 L175 71 L175 69 L174 69 L174 68 L173 68 L173 67 L172 67 L172 66 L171 66 L171 65 L170 65 L170 64 L169 64 L169 63 L168 63 L168 62 L166 62 L166 61 L165 61 L165 60 L163 60 L163 59 L162 59 L162 58 L160 58 L160 57 L158 57 L158 56 L156 56 L156 55 L153 55 L153 54 L151 54 L151 53 L148 53 L148 52 L144 52 L144 51 L140 51 L140 50 L133 50 L133 49 Z M473 94 L472 94 L472 96 L471 96 L471 99 L470 99 L470 102 L469 102 L469 104 L468 104 L468 106 L467 106 L467 109 L466 109 L466 111 L465 111 L465 114 L464 114 L464 117 L463 117 L463 119 L462 119 L462 122 L461 122 L461 124 L460 124 L460 127 L459 127 L459 129 L458 129 L458 131 L457 131 L457 134 L456 134 L456 137 L455 137 L455 139 L454 139 L454 142 L453 142 L453 144 L452 144 L452 147 L451 147 L451 149 L450 149 L450 152 L449 152 L449 154 L448 154 L448 157 L447 157 L447 159 L446 159 L446 162 L445 162 L445 165 L444 165 L444 167 L443 167 L443 170 L442 170 L442 172 L441 172 L441 175 L440 175 L440 177 L439 177 L439 179 L438 179 L438 182 L437 182 L437 184 L436 184 L436 187 L435 187 L435 188 L510 188 L510 187 L509 187 L509 184 L508 184 L508 182 L507 182 L507 179 L506 179 L506 176 L505 176 L505 174 L504 174 L504 171 L503 171 L503 169 L502 169 L502 166 L501 166 L501 164 L500 164 L500 161 L499 161 L499 159 L498 159 L498 156 L497 156 L497 154 L496 154 L496 151 L495 151 L495 149 L494 149 L494 146 L493 146 L493 144 L492 144 L492 141 L491 141 L491 139 L490 139 L490 137 L489 137 L489 134 L488 134 L488 131 L487 131 L487 129 L486 129 L486 126 L485 126 L485 124 L484 124 L484 121 L483 121 L483 118 L482 118 L482 116 L481 116 L481 114 L480 114 L480 111 L479 111 L479 109 L478 109 L478 106 L477 106 L477 103 L476 103 L476 100 L475 100 L475 98 L474 98 L474 96 L473 96 Z M1417 94 L1416 94 L1416 96 L1415 96 L1415 98 L1414 98 L1414 101 L1413 101 L1413 103 L1412 103 L1412 106 L1411 106 L1411 108 L1410 108 L1410 110 L1409 110 L1409 113 L1408 113 L1408 115 L1407 115 L1407 118 L1406 118 L1406 121 L1405 121 L1405 124 L1404 124 L1404 126 L1403 126 L1403 128 L1402 128 L1402 131 L1401 131 L1401 133 L1400 133 L1400 136 L1399 136 L1399 138 L1398 138 L1398 141 L1397 141 L1397 143 L1396 143 L1396 146 L1395 146 L1395 149 L1394 149 L1394 151 L1393 151 L1393 154 L1392 154 L1392 156 L1391 156 L1391 158 L1390 158 L1390 161 L1389 161 L1389 163 L1388 163 L1388 166 L1387 166 L1387 168 L1386 168 L1386 171 L1385 171 L1385 174 L1384 174 L1384 176 L1383 176 L1383 179 L1382 179 L1382 181 L1381 181 L1381 184 L1380 184 L1380 186 L1379 186 L1379 188 L1454 188 L1454 187 L1453 187 L1453 185 L1452 185 L1452 183 L1451 183 L1451 180 L1450 180 L1450 177 L1449 177 L1449 175 L1448 175 L1448 172 L1447 172 L1447 170 L1446 170 L1446 167 L1445 167 L1445 165 L1444 165 L1444 162 L1443 162 L1443 160 L1442 160 L1442 157 L1441 157 L1441 155 L1440 155 L1440 153 L1439 153 L1439 150 L1438 150 L1438 147 L1437 147 L1437 144 L1436 144 L1436 142 L1435 142 L1435 139 L1434 139 L1434 137 L1433 137 L1433 135 L1432 135 L1432 132 L1431 132 L1431 130 L1430 130 L1430 127 L1429 127 L1429 124 L1428 124 L1428 122 L1427 122 L1427 119 L1426 119 L1426 117 L1425 117 L1425 114 L1424 114 L1424 112 L1423 112 L1423 109 L1422 109 L1422 107 L1421 107 L1421 104 L1420 104 L1420 102 L1419 102 L1419 99 L1418 99 L1418 96 L1417 96 Z M697 188 L697 189 L698 189 L698 315 L700 315 L700 314 L703 314 L703 313 L706 313 L706 312 L709 312 L709 311 L713 311 L713 310 L716 310 L716 309 L720 309 L720 308 L724 308 L724 307 L725 307 L725 304 L726 304 L726 301 L727 301 L727 298 L728 298 L728 295 L729 295 L729 292 L730 292 L730 289 L731 289 L731 286 L732 286 L732 283 L733 283 L733 281 L734 281 L734 278 L735 278 L735 276 L736 276 L736 273 L737 273 L737 270 L738 270 L738 268 L739 268 L739 266 L740 266 L740 263 L741 263 L741 261 L742 261 L742 258 L743 258 L743 256 L744 256 L744 254 L745 254 L745 252 L746 252 L746 250 L747 250 L747 248 L748 248 L748 247 L749 247 L749 245 L750 245 L750 243 L751 243 L751 241 L752 241 L752 239 L753 239 L753 237 L754 237 L754 236 L755 236 L755 234 L756 234 L756 233 L757 233 L757 232 L761 232 L761 233 L764 233 L764 234 L765 234 L765 235 L766 235 L766 236 L767 236 L767 237 L768 237 L768 241 L767 241 L767 244 L766 244 L766 247 L765 247 L765 249 L764 249 L764 252 L763 252 L763 255 L762 255 L762 257 L761 257 L761 260 L760 260 L760 263 L759 263 L759 266 L758 266 L758 269 L757 269 L757 272 L756 272 L756 275 L755 275 L755 278 L754 278 L754 281 L753 281 L753 284 L752 284 L752 287 L751 287 L751 290 L750 290 L750 294 L749 294 L749 297 L748 297 L748 301 L747 301 L747 305 L775 305 L775 306 L776 306 L776 304 L777 304 L777 300 L778 300 L778 297 L779 297 L779 293 L780 293 L780 289 L781 289 L781 286 L782 286 L782 282 L783 282 L783 279 L784 279 L784 277 L785 277 L785 274 L786 274 L786 271 L787 271 L787 268 L788 268 L788 266 L789 266 L789 263 L790 263 L790 261 L791 261 L791 258 L792 258 L792 256 L793 256 L793 253 L794 253 L794 251 L795 251 L795 249 L796 249 L796 247 L797 247 L797 245 L798 245 L798 243 L799 243 L799 241 L800 241 L800 239 L801 239 L801 237 L802 237 L802 235 L803 235 L803 233 L804 233 L804 231 L805 231 L805 229 L806 229 L806 228 L807 228 L807 226 L808 226 L808 225 L809 225 L809 223 L810 223 L810 222 L811 222 L811 220 L812 220 L812 219 L813 219 L813 217 L814 217 L814 216 L815 216 L815 214 L816 214 L816 213 L817 213 L817 212 L818 212 L818 211 L819 211 L819 209 L820 209 L820 208 L821 208 L821 207 L822 207 L822 206 L823 206 L823 205 L824 205 L824 204 L825 204 L825 203 L826 203 L826 202 L827 202 L827 201 L829 201 L829 200 L830 200 L830 199 L831 199 L831 198 L832 198 L832 197 L834 197 L834 196 L836 196 L836 195 L844 195 L844 196 L848 196 L848 197 L849 197 L849 198 L850 198 L850 199 L851 199 L851 200 L852 200 L852 201 L853 201 L853 202 L854 202 L854 203 L855 203 L855 205 L856 205 L856 188 Z M842 214 L841 214 L841 215 L840 215 L840 216 L839 216 L839 217 L838 217 L838 218 L837 218 L837 220 L836 220 L836 221 L835 221 L835 222 L834 222 L834 223 L833 223 L833 225 L832 225 L832 226 L831 226 L831 227 L830 227 L830 229 L829 229 L829 231 L828 231 L828 232 L827 232 L827 234 L826 234 L826 236 L825 236 L825 238 L824 238 L824 239 L823 239 L823 241 L822 241 L822 243 L821 243 L821 245 L820 245 L820 248 L819 248 L819 250 L818 250 L818 252 L817 252 L817 255 L816 255 L816 257 L815 257 L815 259 L814 259 L814 262 L813 262 L813 264 L812 264 L812 266 L811 266 L811 269 L810 269 L810 272 L809 272 L809 275 L808 275 L808 278 L807 278 L807 281 L806 281 L806 284 L805 284 L805 287 L804 287 L804 290 L803 290 L803 293 L802 293 L802 296 L801 296 L801 300 L800 300 L800 304 L799 304 L799 309 L800 309 L800 306 L801 306 L801 304 L802 304 L802 302 L803 302 L803 300 L804 300 L804 298 L805 298 L805 296 L806 296 L806 294 L807 294 L807 292 L808 292 L808 290 L809 290 L809 288 L810 288 L810 286 L811 286 L811 284 L812 284 L812 282 L813 282 L813 280 L814 280 L814 278 L815 278 L815 276 L816 276 L816 274 L817 274 L817 272 L818 272 L818 270 L819 270 L819 268 L820 268 L820 266 L821 266 L821 264 L822 264 L822 261 L823 261 L823 259 L824 259 L824 257 L825 257 L825 255 L826 255 L826 253 L827 253 L827 251 L828 251 L828 249 L829 249 L829 247 L830 247 L830 244 L831 244 L831 242 L832 242 L832 240 L833 240 L833 237 L834 237 L834 235 L835 235 L835 233 L836 233 L836 230 L837 230 L837 228 L838 228 L838 225 L839 225 L839 222 L840 222 L840 220 L841 220 L841 216 L842 216 Z M715 323 L715 324 L711 324 L711 325 L707 325 L707 326 L706 326 L706 327 L709 327 L709 328 L718 328 L718 329 L719 329 L719 327 L720 327 L720 323 Z M1263 351 L1269 351 L1269 352 L1272 352 L1272 353 L1274 353 L1274 354 L1276 354 L1276 355 L1277 355 L1277 356 L1279 356 L1279 357 L1280 357 L1280 358 L1281 358 L1281 359 L1282 359 L1282 360 L1283 360 L1283 362 L1284 362 L1284 364 L1285 364 L1285 366 L1286 366 L1286 368 L1287 368 L1287 372 L1288 372 L1288 377 L1289 377 L1289 413 L1288 413 L1288 424 L1287 424 L1287 432 L1286 432 L1286 439 L1285 439 L1285 446 L1284 446 L1284 451 L1283 451 L1283 456 L1282 456 L1282 460 L1281 460 L1281 464 L1280 464 L1280 468 L1279 468 L1279 471 L1278 471 L1278 475 L1277 475 L1277 478 L1276 478 L1276 482 L1275 482 L1275 485 L1274 485 L1274 489 L1273 489 L1273 492 L1272 492 L1272 494 L1271 494 L1271 497 L1270 497 L1270 500 L1269 500 L1269 502 L1268 502 L1268 504 L1267 504 L1267 507 L1266 507 L1266 509 L1265 509 L1265 511 L1264 511 L1264 513 L1263 513 L1263 515 L1262 515 L1262 517 L1261 517 L1261 519 L1260 519 L1260 520 L1259 520 L1259 522 L1258 522 L1258 523 L1257 523 L1257 525 L1256 525 L1256 526 L1255 526 L1255 527 L1254 527 L1254 529 L1253 529 L1253 530 L1252 530 L1252 531 L1251 531 L1251 532 L1250 532 L1250 533 L1249 533 L1249 534 L1247 534 L1247 535 L1246 535 L1246 536 L1244 536 L1244 537 L1243 537 L1243 538 L1241 538 L1241 539 L1238 539 L1238 540 L1234 540 L1234 541 L1225 541 L1225 540 L1222 540 L1222 539 L1220 539 L1220 538 L1219 538 L1219 537 L1217 537 L1217 536 L1216 536 L1216 535 L1215 535 L1215 534 L1214 534 L1214 533 L1213 533 L1213 532 L1212 532 L1212 531 L1211 531 L1211 530 L1210 530 L1210 528 L1209 528 L1209 525 L1208 525 L1208 522 L1207 522 L1207 509 L1208 509 L1208 504 L1209 504 L1209 501 L1210 501 L1210 498 L1211 498 L1211 496 L1212 496 L1212 493 L1213 493 L1213 491 L1214 491 L1214 489 L1215 489 L1215 487 L1216 487 L1216 485 L1217 485 L1217 483 L1218 483 L1218 482 L1219 482 L1219 480 L1220 480 L1220 479 L1221 479 L1221 477 L1222 477 L1222 476 L1223 476 L1223 475 L1224 475 L1224 473 L1225 473 L1225 472 L1226 472 L1226 471 L1227 471 L1227 470 L1228 470 L1228 469 L1229 469 L1229 468 L1230 468 L1230 467 L1231 467 L1231 465 L1232 465 L1232 464 L1233 464 L1233 463 L1235 463 L1235 462 L1236 462 L1236 461 L1237 461 L1237 460 L1238 460 L1238 458 L1239 458 L1239 457 L1240 457 L1240 456 L1242 456 L1242 455 L1243 455 L1243 454 L1244 454 L1244 453 L1245 453 L1245 452 L1246 452 L1246 451 L1247 451 L1247 450 L1248 450 L1248 449 L1249 449 L1249 448 L1250 448 L1250 447 L1252 447 L1252 446 L1253 446 L1253 445 L1254 445 L1254 444 L1256 444 L1256 443 L1257 443 L1257 442 L1258 442 L1258 441 L1260 441 L1260 440 L1261 440 L1261 439 L1262 439 L1262 438 L1264 438 L1264 437 L1266 437 L1266 436 L1267 436 L1267 435 L1268 435 L1268 434 L1269 434 L1269 428 L1270 428 L1270 421 L1271 421 L1271 415 L1272 415 L1272 408 L1273 408 L1273 366 L1272 366 L1272 363 L1271 363 L1271 364 L1270 364 L1270 365 L1269 365 L1269 366 L1268 366 L1268 367 L1267 367 L1267 369 L1266 369 L1266 370 L1265 370 L1265 371 L1264 371 L1264 373 L1263 373 L1263 374 L1262 374 L1262 376 L1261 376 L1261 377 L1260 377 L1260 378 L1259 378 L1259 380 L1258 380 L1258 381 L1257 381 L1257 383 L1256 383 L1256 384 L1255 384 L1255 386 L1254 386 L1254 387 L1253 387 L1253 389 L1252 389 L1252 390 L1251 390 L1251 392 L1250 392 L1250 393 L1249 393 L1249 394 L1248 394 L1248 396 L1247 396 L1247 397 L1246 397 L1246 399 L1245 399 L1245 401 L1244 401 L1244 402 L1243 402 L1243 404 L1242 404 L1242 405 L1241 405 L1241 407 L1240 407 L1240 408 L1239 408 L1239 410 L1238 410 L1238 411 L1237 411 L1237 413 L1236 413 L1236 414 L1235 414 L1235 416 L1234 416 L1234 417 L1233 417 L1233 419 L1232 419 L1232 420 L1231 420 L1231 421 L1230 421 L1230 423 L1229 423 L1229 424 L1228 424 L1228 425 L1227 425 L1227 426 L1226 426 L1226 428 L1225 428 L1225 429 L1224 429 L1224 430 L1223 430 L1223 431 L1222 431 L1222 433 L1221 433 L1221 434 L1220 434 L1220 435 L1219 435 L1219 436 L1218 436 L1218 437 L1217 437 L1217 438 L1216 438 L1216 439 L1215 439 L1215 440 L1214 440 L1214 441 L1212 441 L1212 442 L1211 442 L1211 443 L1209 443 L1209 444 L1207 444 L1207 445 L1195 445 L1195 444 L1192 444 L1192 443 L1190 443 L1190 442 L1189 442 L1189 441 L1187 441 L1187 440 L1186 440 L1186 439 L1185 439 L1185 437 L1184 437 L1184 436 L1183 436 L1183 434 L1182 434 L1182 432 L1181 432 L1181 429 L1180 429 L1180 411 L1181 411 L1181 405 L1182 405 L1182 401 L1183 401 L1183 397 L1184 397 L1184 394 L1185 394 L1185 390 L1186 390 L1186 387 L1187 387 L1187 384 L1188 384 L1188 382 L1189 382 L1189 380 L1190 380 L1190 379 L1191 379 L1191 378 L1192 378 L1192 377 L1193 377 L1193 376 L1194 376 L1194 375 L1198 375 L1198 376 L1200 376 L1200 377 L1202 377 L1202 378 L1203 378 L1203 380 L1204 380 L1204 381 L1203 381 L1203 386 L1202 386 L1202 391 L1201 391 L1201 397 L1200 397 L1200 403 L1199 403 L1199 411 L1198 411 L1198 428 L1199 428 L1199 427 L1200 427 L1200 426 L1201 426 L1201 425 L1202 425 L1202 424 L1203 424 L1203 423 L1204 423 L1204 422 L1205 422 L1205 421 L1206 421 L1206 420 L1207 420 L1207 418 L1208 418 L1208 417 L1209 417 L1209 416 L1210 416 L1210 414 L1211 414 L1211 413 L1212 413 L1212 412 L1213 412 L1213 411 L1214 411 L1214 409 L1215 409 L1215 408 L1216 408 L1216 406 L1217 406 L1217 405 L1218 405 L1218 404 L1219 404 L1219 402 L1220 402 L1220 401 L1221 401 L1221 399 L1222 399 L1222 398 L1223 398 L1223 397 L1224 397 L1224 395 L1225 395 L1225 394 L1226 394 L1226 392 L1227 392 L1227 391 L1228 391 L1228 389 L1229 389 L1229 388 L1230 388 L1230 386 L1231 386 L1231 385 L1232 385 L1232 384 L1233 384 L1233 382 L1234 382 L1234 381 L1235 381 L1235 379 L1236 379 L1236 378 L1237 378 L1237 376 L1238 376 L1238 375 L1239 375 L1239 373 L1240 373 L1240 372 L1241 372 L1241 371 L1242 371 L1242 369 L1243 369 L1243 368 L1244 368 L1244 367 L1245 367 L1245 365 L1246 365 L1246 364 L1247 364 L1247 363 L1248 363 L1248 362 L1249 362 L1249 360 L1250 360 L1250 359 L1252 359 L1252 358 L1253 358 L1253 357 L1254 357 L1254 356 L1255 356 L1255 355 L1256 355 L1256 354 L1258 354 L1258 353 L1260 353 L1260 352 L1263 352 Z M932 369 L931 369 L931 373 L932 373 Z M931 373 L930 373 L930 378 L931 378 Z M881 390 L880 390 L880 391 L879 391 L879 392 L878 392 L878 393 L877 393 L877 395 L876 395 L876 396 L875 396 L875 397 L874 397 L874 399 L873 399 L873 400 L872 400 L872 402 L871 402 L871 404 L870 404 L870 406 L869 406 L869 408 L868 408 L868 410 L867 410 L867 412 L866 412 L866 414 L865 414 L865 416 L864 416 L864 418 L865 418 L865 417 L866 417 L866 416 L867 416 L867 414 L868 414 L868 413 L869 413 L869 412 L870 412 L870 411 L871 411 L871 409 L872 409 L872 408 L873 408 L873 406 L874 406 L874 405 L875 405 L875 403 L876 403 L876 401 L877 401 L877 399 L878 399 L878 398 L879 398 L879 395 L880 395 L880 393 L881 393 Z M1024 391 L1024 392 L1021 392 L1021 393 L1019 393 L1019 394 L1017 394 L1017 395 L1016 395 L1016 396 L1014 396 L1014 397 L1013 397 L1013 398 L1012 398 L1012 399 L1011 399 L1011 400 L1010 400 L1010 401 L1009 401 L1009 402 L1008 402 L1008 403 L1007 403 L1007 404 L1006 404 L1006 405 L1005 405 L1005 406 L1004 406 L1004 408 L1003 408 L1003 409 L1002 409 L1002 411 L1001 411 L1001 412 L1000 412 L1000 414 L999 414 L999 415 L998 415 L998 416 L1000 416 L1000 415 L1001 415 L1001 414 L1003 414 L1003 413 L1005 413 L1005 412 L1006 412 L1006 411 L1008 411 L1008 410 L1009 410 L1009 409 L1011 409 L1011 408 L1013 408 L1013 407 L1014 407 L1014 406 L1016 406 L1016 405 L1018 405 L1018 404 L1019 404 L1019 403 L1021 403 L1021 402 L1022 402 L1022 401 L1024 401 L1024 400 L1025 400 L1025 399 L1027 399 L1027 398 L1028 398 L1028 397 L1030 397 L1030 396 L1032 396 L1032 395 L1033 395 L1033 393 L1032 393 L1032 391 Z M1266 446 L1265 446 L1265 447 L1264 447 L1264 448 L1263 448 L1263 449 L1262 449 L1262 450 L1261 450 L1261 451 L1260 451 L1260 452 L1259 452 L1259 453 L1258 453 L1258 454 L1257 454 L1257 455 L1255 455 L1255 456 L1254 456 L1254 457 L1253 457 L1253 458 L1252 458 L1252 460 L1251 460 L1251 461 L1250 461 L1250 462 L1248 462 L1248 464 L1247 464 L1247 465 L1246 465 L1246 466 L1245 466 L1245 467 L1244 467 L1244 468 L1243 468 L1243 469 L1242 469 L1242 471 L1241 471 L1241 472 L1240 472 L1240 473 L1239 473 L1239 474 L1238 474 L1238 476 L1237 476 L1237 477 L1236 477 L1236 479 L1235 479 L1235 480 L1234 480 L1234 482 L1233 482 L1233 484 L1232 484 L1232 485 L1231 485 L1231 487 L1230 487 L1230 489 L1229 489 L1229 491 L1228 491 L1228 493 L1227 493 L1227 495 L1226 495 L1226 498 L1225 498 L1225 501 L1224 501 L1224 504 L1223 504 L1223 508 L1222 508 L1222 524 L1223 524 L1223 527 L1224 527 L1224 530 L1225 530 L1225 531 L1226 531 L1226 532 L1227 532 L1227 533 L1229 533 L1229 532 L1230 532 L1230 531 L1232 531 L1232 530 L1233 530 L1233 529 L1234 529 L1234 528 L1235 528 L1235 527 L1236 527 L1236 526 L1237 526 L1237 524 L1238 524 L1238 523 L1239 523 L1239 521 L1240 521 L1240 520 L1241 520 L1241 518 L1242 518 L1242 517 L1243 517 L1243 515 L1244 515 L1244 513 L1245 513 L1245 511 L1246 511 L1246 509 L1247 509 L1247 506 L1248 506 L1248 504 L1249 504 L1249 502 L1250 502 L1250 499 L1251 499 L1251 497 L1252 497 L1252 494 L1253 494 L1253 491 L1254 491 L1254 489 L1255 489 L1255 486 L1256 486 L1256 483 L1257 483 L1257 479 L1258 479 L1258 476 L1259 476 L1259 473 L1260 473 L1260 470 L1261 470 L1261 466 L1262 466 L1262 462 L1263 462 L1263 459 L1264 459 L1264 454 L1265 454 L1265 450 L1266 450 Z" fill="#1f2933" fill-rule="evenodd"/>
</svg>
